<svg xmlns="http://www.w3.org/2000/svg" viewBox="0 0 299.04 49.49">
  <path d="M7.23 37.66a13.49 13.49 0 01-5.34-5.78A19.66 19.66 0 01-.02 23a19.46 19.46 0 011.91-8.8 13.34 13.34 0 015.37-5.76 16.2 16.2 0 018.2-2 18.09 18.09 0 016.19 1 12.81 12.81 0 014.82 3l-1.68 3.75a16.36 16.36 0 00-4.5-2.71 13.17 13.17 0 00-4.85-.87c-3.38 0-6 .82-7.8 3S4.89 19 4.89 23s.93 7.22 2.77 9.43 4.35 2.94 7.74 2.94a13.68 13.68 0 004.82-.85 16.54 16.54 0 004.5-2.72l1.74 3.85a12.81 12.81 0 01-4.82 3 18.09 18.09 0 01-6.19 1 16 16 0 01-8.22-1.99zM31.79 6.5h4.57v33.11h-4.57zM45.98 38.48a9.9 9.9 0 01-4-4.16A13.51 13.51 0 0140.62 28a13.55 13.55 0 011.36-6.31 9.86 9.86 0 014-4.19 12.67 12.67 0 0111.81 0 10 10 0 014 4.19A13.67 13.67 0 0163.17 28a13.66 13.66 0 01-1.39 6.31 9.9 9.9 0 01-4 4.16 12.67 12.67 0 01-11.81 0zm10.78-4.3c1.13-1.4 1.69-3.45 1.69-6.17a9.61 9.61 0 00-1.71-6.12 5.83 5.83 0 00-4.84-2.15 6 6 0 00-4.92 2.15A9.48 9.48 0 0045.26 28c0 2.72.58 4.77 1.72 6.17a5.93 5.93 0 004.91 2.11 5.93 5.93 0 004.86-2.1zM87.1 16.61v23h-4.62v-2.3c-.7 1.08-2.51 2.62-7.22 2.62q-8.28 0-8.28-9.23V16.61h4.57v14.05a6.27 6.27 0 001.17 4.19 4.46 4.46 0 003.54 1.34 5.61 5.61 0 004.4-1.85 8.5 8.5 0 001.86-5.43v-12.3zM113.33 6.5v33.11h-4.57v-2.32a5.82 5.82 0 01-2.18 1.71 13 13 0 01-5.45 1 9.51 9.51 0 01-5.31-1.51 10.07 10.07 0 01-3.63-4.26 14.35 14.35 0 01-1.3-6.29 14.51 14.51 0 011.28-6.26 9.46 9.46 0 019-5.62 13 13 0 015 .78 8.45 8.45 0 012.58 1.72v-12zm-6.29 27.62a9.63 9.63 0 001.72-6.12 9.61 9.61 0 00-1.72-6.1 5.84 5.84 0 00-4.82-2.17 6 6 0 00-4.91 2.15 9.28 9.28 0 00-1.76 6A9.64 9.64 0 0097.31 34a6.49 6.49 0 009.16.57 7.66 7.66 0 00.57-.57zM164.36 28.61c-1.76.05-16.33 0-16.33 0 .15 5.39 2.6 7.48 7.32 7.64a11 11 0 007.27-2.61l1.41 3.29a11.32 11.32 0 01-4 2.17 15.46 15.46 0 01-4.82.8q-5.53 0-8.68-3.17c-2.1-2.11-3.15-5-3.15-8.71a13.58 13.58 0 011.39-6.26 10.28 10.28 0 013.91-4.25 10.81 10.81 0 015.76-1.51 9.31 9.31 0 017.33 3c1.79 2 2.69 4.79 2.68 8.36a8.66 8.66 0 01-.09 1.25zM150.28 21a7.48 7.48 0 00-2.1 4.44h12.2A7.14 7.14 0 00158.6 21a5.45 5.45 0 00-4.07-1.53 6 6 0 00-4.25 1.53zM181.89 16.36l-.08 4a7.92 7.92 0 00-2.7-.24c-2.11 0-3.76.57-4.73 1.9-1.42 1.92-1.58 5.07-1.58 7v10.59h-4.57v-23h4.58v2.34c1.63-2.54 4.11-2.89 6.9-2.89a8.45 8.45 0 012.18.3zM219.38 25.27v14.34h-4.61V25.5a7.25 7.25 0 00-1-4.34 3.9 3.9 0 00-3.35-1.26 4.78 4.78 0 00-4 1.82c-1.35 1.67-1.56 3.72-1.65 7.1v10.79h-4.62V25.5a7.25 7.25 0 00-1-4.34 3.86 3.86 0 00-3.32-1.25 5 5 0 00-4.07 1.83c-1.31 1.55-1.64 4.31-1.68 7.08v10.79h-4.57v-23h4.57v2.3a7.72 7.72 0 012.19-1.83 10.42 10.42 0 014.85-1c3.54 0 5.89 1.35 7 3.83a7.11 7.11 0 012.67-2.77 10.41 10.41 0 015-1.06q7.61-.08 7.59 9.19zM228.83 6.54v4.84h-4.57V6.54zm-4.57 10.07h4.57v23h-4.57zM241.58 20.15v11.57a4.51 4.51 0 001 3.35 4 4 0 002.86 1h.59v3.82a14.12 14.12 0 01-1.59.09 7.39 7.39 0 01-5.53-2 8 8 0 01-2-5.85v-12h-4.48v-3.52h4.48V6.5h4.62v10.11h4.45v3.57zM268.6 46.45a34.07 34.07 0 01-13.06-2.67l-.79-.32 7.57-7.54a21.28 21.28 0 1130.49.41 34.09 34.09 0 01-24.11 10.12zm-7-4.58a29.47 29.47 0 007 .85 30.42 30.42 0 0021.58-9 17.56 17.56 0 10-24.83 0l2.23 2.28z" fill="#191147"/>
  <path d="M277.76 31.21a9.93 9.93 0 119.94-9.93 9.94 9.94 0 01-9.94 9.93M118.11 49.49V16.37h4.57v2.33a5.72 5.72 0 012.21-1.7 12.88 12.88 0 015.45-1 9.48 9.48 0 015.3 1.51 10 10 0 013.63 4.22 14.36 14.36 0 011.31 6.27 14.51 14.51 0 01-1.28 6.26 9.51 9.51 0 01-9 5.62 12.74 12.74 0 01-5-.79 8.13 8.13 0 01-2.58-1.71v12zm6.28-27.62a9.66 9.66 0 00-1.71 6.13 9.66 9.66 0 001.71 6.1 5.8 5.8 0 004.82 2.18 6 6 0 004.92-2.15 9.34 9.34 0 001.76-6 9.64 9.64 0 00-1.76-6.13 6.49 6.49 0 00-9.17-.56 6 6 0 00-.57.56z" fill="#191147"/>
</svg>
