<svg xmlns="http://www.w3.org/2000/svg" width="250" height="90">
  <path fill="#800093" d="M30.647 73.797c-6.48 0-9.636-2.642-9.636-8.082V27.467c0-.99.801-1.192 1.793-1.192s1.79.203 1.79 1.192v38.249c0 2.002 0 4.5 6.053 4.5 6.042 0 6.042-2.498 6.042-4.5V52.291c0-.99.802-1.192 1.794-1.192.991 0 1.788.202 1.788 1.192v13.425c0 5.439-3.146 8.081-9.624 8.081z"/>
  <path fill="#800093" d="M30.951 84c-4.054 0-7.592-.603-10.512-1.772-.918-.365-.764-1.417-.393-2.334.371-.922.809-1.36 1.729-.994 2.493 1.006 5.581 1.506 9.175 1.506 14.172 0 17.149-7.985 17.149-14.689V44.474a.19.19 0 00-.191-.191H32.669c-.112 0-.202.09-.202.191v2.883c0 .992-.809 1.199-1.797 1.199s-1.786-.208-1.786-1.199v-3.873c0-2.087.697-2.79 2.785-2.79h17.239c2.077 0 2.773.702 2.773 2.79v22.231C51.682 71.21 49.66 84 30.951 84zM66.068 47.106c-.988 0-1.797-.203-1.797-1.192V11.337c0-2.087 1.695-3.791 3.773-3.791h4.065c.988 0 1.195.81 1.195 1.8s-.207 1.789-1.195 1.789h-4.065c-.102 0-.191.09-.191.203v34.577c.001.989-.796 1.191-1.785 1.191z"/>
  <path fill="#800093" d="M75.295 82.45h-7.25c-2.078 0-3.773-1.707-3.773-3.799V56.829c0-.989.809-1.191 1.797-1.191s1.785.203 1.785 1.191v21.822c0 .118.09.208.191.208h7.25c.105 0 .192-.09.192-.208V18.514c0-.99.801-1.192 1.79-1.192s1.787.203 1.787 1.192v60.137c-.001 2.092-1.687 3.799-3.769 3.799zM218.696 84c-19.34 0-21.428-12.79-21.428-18.284v-3.571c0-.99.809-1.197 1.797-1.197s1.797.208 1.797 1.197v3.571c0 2.502.48 6.12 2.793 9.094 2.889 3.711 7.943 5.595 15.041 5.595 14.645 0 17.721-7.985 17.721-14.689V24.284c0-5.489-2.313-14.701-17.834-14.701-15.428 0-17.721 9.212-17.721 14.701V52.19c0 .991-.809 1.193-1.797 1.193s-1.797-.203-1.797-1.193V24.284c0-5.5 2.088-18.284 21.314-18.284 8.213 0 14.195 2.346 17.813 6.979 2.986 3.813 3.605 8.246 3.605 11.304v41.432C240 71.21 237.922 84 218.696 84zM11.792 66.908c-.988 0-1.792-.201-1.792-1.192V24.284c0-6.827 2.693-18.28 20.744-18.28 18.899 0 20.938 12.78 20.938 18.28v6.693c0 2.085-.696 2.79-2.773 2.79h-9.243c-2.077 0-2.773-.704-2.773-2.79v-6.693c0-.99.797-1.198 1.785-1.198s1.797.208 1.797 1.198v5.691c0 .112.079.202.191.202h7.243c.112 0 .191-.09.191-.202v-5.691c0-6.704-3.01-14.698-17.355-14.698-11.387 0-17.167 4.946-17.167 14.698v41.432c-.001.991-.798 1.192-1.786 1.192z"/>
  <path fill="#800093" d="M218.635 73.797c-6.723 0-10.137-2.722-10.137-8.082V24.284c0-5.365 3.414-8.087 10.137-8.087 6.73 0 10.145 2.722 10.145 8.087v41.432c0 5.36-3.414 8.081-10.145 8.081zm0-54.013c-6.555 0-6.555 2.71-6.555 4.5v41.432c0 1.794 0 4.5 6.555 4.5 6.574 0 6.574-2.706 6.574-4.5V24.284c0-1.789 0-4.5-6.574-4.5zM180.098 12.372c-3.494-3.198-8.48-4.826-14.814-4.826h-16.6c-2.088 0-2.785.709-2.785 2.801v60.118c0 .992.787 1.195 1.775 1.195s1.797-.203 1.797-1.195V11.337c0-.112.09-.203.201-.203h15.611c5.412 0 9.59 1.305 12.398 3.885 2.65 2.437 4.244 6.776 4.244 11.606V43.45c0 4.657-1.414 8.313-4.199 10.859-2.766 2.543-6.963 3.831-12.443 3.831h-6.975c-.992 0-1.201.209-1.201 1.202v19.309c0 .113-.09.208-.203.208h-2.447c-.988 0-1.197.804-1.197 1.793 0 .99.209 1.797 1.197 1.797h3.449c2.082 0 2.795-.711 2.795-2.798v-17.92h4.582c6.4 0 11.41-1.613 14.869-4.773 3.549-3.257 5.346-7.802 5.346-13.509V26.626c.001-5.908-1.955-11.104-5.4-14.254zM130.12 35.363h-5.451c-.49 0-.838-.585-.838-1.89s.131-1.699.838-1.699h4.453c.111 0 .201-.09.201-.203v-7.289c0-5.489-2.246-14.698-17.266-14.698-3.739 0-6.938.57-9.489 1.695-.904.394-1.562-.213-1.964-1.125-.394-.9-.383-1.765.527-2.16 3.01-1.327 6.682-1.992 10.927-1.992 18.817 0 20.838 12.78 20.838 18.28v8.278c-.001 2.094-.698 2.803-2.776 2.803zM112.057 73.809c-6.479 0-9.626-2.648-9.626-8.093v-7.294a.2.2 0 00-.2-.198h-4.459c-.988 0-1.19-.804-1.19-1.793 0-.99.202-1.795 1.19-1.795h5.449c2.087 0 2.787.704 2.787 2.791v8.29c0 2.002 0 4.5 6.049 4.5 6.053 0 6.053-2.498 6.053-4.5V60.93c0-3.786-4.5-6.569-9.703-9.791-7.659-4.742-17.194-10.646-17.194-23.132 0-.99.809-1.192 1.797-1.192s1.786.202 1.786 1.192c0 10.483 8.231 15.578 15.498 20.077 5.862 3.634 11.394 7.064 11.394 12.845v4.786c0 5.446-3.15 8.094-9.631 8.094z"/>
  <path fill="#800093" d="M114.078 83.943c-.952 0-1.146-.743-1.19-1.693-.056-.99.102-1.839 1.09-1.891 10.185-.54 15.345-5.464 15.345-14.644v-4.932c0-10.15-8.225-15.107-15.48-19.471-5.867-3.542-11.41-6.878-11.41-12.553v-4.645c0-5.332 3.145-7.918 9.624-7.918 6.481 0 9.635 2.587 9.635 7.918v.719c0 .991-.809 1.036-1.797 1.036s-1.785-.045-1.785-1.036v-.719c0-1.929 0-4.331-6.053-4.331-6.042 0-6.042 2.402-6.042 4.331v4.645c0 3.645 4.481 6.344 9.677 9.478 7.662 4.617 17.203 10.364 17.203 22.546v4.932c0 11.115-6.648 17.587-18.727 18.226-.033.002-.062.002-.09.002zM165.284 17.771h-6.975c-.992 0-1.201.202-1.201 1.192v22.72c0 .99.809 1.196 1.797 1.196s1.797-.206 1.797-1.196V21.356h4.582c5.029 0 5.436 2.039 5.436 4.491v17.614c0 2.036-.652 2.862-1.146 3.307-.869.796-2.313 1.192-4.289 1.192h-1.73c-.988 0-1.189.798-1.189 1.788 0 .982.201 1.777 1.189 1.777h2.291c2.629-.084 4.697-.788 6.133-2.103 1.541-1.395 2.313-3.399 2.313-5.961V25.848c-.002-5.434-2.944-8.077-9.008-8.077z"/>
</svg>
