<?xml version="1.0" encoding="utf-8"?>
<!-- Generator: Adobe Illustrator 26.0.2, SVG Export Plug-In . SVG Version: 6.00 Build 0)  -->
<svg version="1.1" xmlns="http://www.w3.org/2000/svg" xmlns:xlink="http://www.w3.org/1999/xlink" x="0px" y="0px"
	 viewBox="0 0 329.3 183.4" style="enable-background:new 0 0 329.3 183.4;" xml:space="preserve">
<g id="Layer_1">
	<g>
		<path d="M291.7,37.5v71.3c0,13.6-11.2,24.6-25,24.6h-77.6c-9.2,0-17.8,3.3-24.6,9.4c-6.8-6.1-15.4-9.4-24.6-9.4H62.2
			c-13.7,0-24.8-11-24.8-24.6V37.5H291.7z M168.6,149.6c5.5-5.5,12.8-8.5,20.5-8.5h77.6c18,0,32.7-14.5,32.7-32.3v-79H29.8v79
			c0,17.8,14.6,32.3,32.5,32.3H140c7.7,0,15,3,20.5,8.5l4,4L168.6,149.6z"/>
		<path d="M262.4,69.9c0,2.4-1.9,4.1-4.3,4.1c-2.4,0-4.3-1.7-4.3-4.1c0-2.4,1.9-4.1,4.3-4.1C260.5,65.8,262.4,67.5,262.4,69.9
			 M254.4,103.6h7.4V77.2h-7.4V103.6z M240.1,87.7l9.7,15.9h-8L235.2,93l-3.5,4.4v6.1h-7.4V65.7h7.4v17.5c0,3.2-0.4,6.5-0.4,6.5h0.2
			c0,0,1.7-2.9,3.2-4.9l5.6-7.5h8.6L240.1,87.7z M216.9,86.7c0-6.5-3.2-10.1-8.3-10.1c-4.3,0-6.6,2.6-7.9,5h-0.2l0.4-4.3h-7.4v26.3
			h7.4V87.9c0-3,1.8-5.1,4.5-5.1c2.8,0,4,1.8,4,5.3v15.4h7.4V86.7z M186.4,69.9c0,2.4-1.9,4.1-4.3,4.1c-2.4,0-4.3-1.7-4.3-4.1
			c0-2.4,1.9-4.1,4.3-4.1C184.5,65.8,186.4,67.5,186.4,69.9 M178.4,103.6h7.4V77.2h-7.4V103.6z M165,96.2c0-2.1-2.9-2.6-6.3-3.5
			c-4-1-8.9-3-8.9-8c0-5,4.8-8.1,10.4-8.1c5.2,0,10,2.5,12.1,6l-6.3,3.6c-0.6-2.4-2.6-4.2-5.5-4.2c-1.9,0-3.4,0.8-3.4,2.4
			c0,2,3.4,2.2,7.4,3.4c4.1,1.3,7.9,3.2,7.9,8c0,5.3-4.9,8.4-10.6,8.4c-6.2,0-11-2.6-13.2-6.8l6.4-3.6c0.8,2.9,3.1,5,6.6,5
			C163.6,98.8,165,97.9,165,96.2 M140.7,66h-7.4v30.3c0,2.7,0.6,4.7,1.8,5.9c1.2,1.2,3,1.9,5.6,1.9c0.9,0,1.8-0.1,2.7-0.3
			c0.9-0.2,1.6-0.5,2.2-0.8l0.6-5c-0.6,0.2-1.1,0.4-1.5,0.4c-0.4,0.1-0.9,0.1-1.5,0.1c-1,0-1.4-0.2-1.8-0.7
			c-0.4-0.5-0.5-1.4-0.5-2.6V66z M115.5,81.9c-2.7,0-4.9,1.9-5.5,5.5h10.4C120.4,84.3,118.4,81.9,115.5,81.9 M126.9,92.4h-17
			c0.3,4.3,2.7,6.4,5.8,6.4c2.8,0,4.7-1.8,5.1-4.3l6.2,3.5c-1.8,3.3-5.8,6.3-11.3,6.3c-7.4,0-12.8-5.1-12.8-13.8
			c0-8.6,5.5-13.8,12.6-13.8c7.1,0,11.8,5,11.8,12.2C127.2,90.9,126.9,92.4,126.9,92.4 M89.4,103.6H97V67.4h-7.7v14.3H74.9V67.4
			h-7.7v36.2h7.7v-15h14.4V103.6z"/>
	</g>
</g>
<g id="Layer_2">
</g>
</svg>
