<?xml version="1.0" encoding="utf-8"?>
<!-- Generator: Adobe Illustrator 27.3.1, SVG Export Plug-In . SVG Version: 6.00 Build 0)  -->
<svg version="1.1" id="Layer_1" xmlns="http://www.w3.org/2000/svg" xmlns:xlink="http://www.w3.org/1999/xlink" x="0px" y="0px"
	 viewBox="0 0 249.5 71.2" style="enable-background:new 0 0 249.5 71.2;" xml:space="preserve">
<style type="text/css">
	.st0{fill:#313896;}
</style>
<g>
	<path class="st0" d="M0,53v-3.6h11.6v3.8c0,4,2.2,6.5,5.7,6.5s5.8-2.4,5.8-6.5V23.3h12.3V53c0,10.9-7.4,18.2-18.1,18.2
		C7.1,71.2,0,63.9,0,53"/>
	<path class="st0" d="M66.3,42.3l4.2,11.5h-8.7L66.3,42.3z M63.6,22.8L41.4,69.7v0.7h13.3l2.6-6h17.8l2.7,6H91v-0.7L69,22.8H63.6z"
		/>
	<polygon class="st0" points="141.8,23.2 122.5,43.6 103.1,23.2 98.1,23.2 98.1,70.4 110.4,70.4 110.4,57.4 110.2,46.9 122,59 
		122.9,59 134.7,46.9 134.4,57.4 134.4,70.4 146.7,70.4 146.7,23.2 	"/>
	<path class="st0" d="M157.2,55.3h12c0,3.2,2.6,5.1,7.3,5.1c4.4,0,6.9-1.5,6.9-4.2c0-2.7-2.9-3.6-8.4-4.2
		c-12.9-1.4-17.4-7.2-17.4-15.1c0-8.5,7.5-14.3,18.4-14.3c11,0,18.4,6.2,18.4,15.4h-11.8c0-3-2.4-4.7-6.5-4.7c-4.1,0-6.3,1.5-6.3,4
		c0,2.4,1.7,3.6,7.2,4.1c13.7,1.3,18.8,6.7,18.8,15.1c0,8.7-7.8,14.6-19.2,14.6C164.4,71.2,157.2,65.2,157.2,55.3"/>
	<path class="st0" d="M224.7,42.3l4.2,11.5h-8.7L224.7,42.3z M222,22.8l-22.1,46.9v0.7h13.3l2.6-6h17.8l2.7,6h13.3v-0.7l-22.1-46.9
		H222z"/>
	<path class="st0" d="M54.5,5.7C54.8,6.1,66,17.3,66,17.3L77.5,5.7L71.8,0L66,5.8L60.2,0L54.5,5.7z"/>
	<path class="st0" d="M213.4,5.7c0.3,0.4,11.5,11.5,11.5,11.5l11.5-11.5L230.7,0l-5.8,5.8L219.1,0L213.4,5.7z"/>
</g>
</svg>
