<svg version="1.1" id="Layer_1" xmlns="http://www.w3.org/2000/svg" x="0" y="0" viewBox="0 0 704 172" xml:space="preserve">
  <style>
    .st0{fill:#0081c8}
  </style>
  <path class="st0" d="M44.8 20.7c44.4 26.4 96 24.3 135.6-1.7V6.2c-24 12.1-53.4 11.3-78 2.3-30-11.6-74.7-10.7-102.7 4v4.6c13.6-4 34.1-3.6 45.1 3.6M-.1 133h180.6v36.1H-.1z"/>
  <path d="M135.3 48.4C93.2 61.7 42.1 78.9-.3 64v46.9l180.5-.3V43.5c-15.2-2.1-30.6.9-44.9 4.9" fill="#bcbec0"/>
  <path d="M159.2 115.2c0 14.2-11.5 25.7-25.6 25.7-14.2 0-25.6-11.5-25.6-25.7s11.5-25.6 25.6-25.6c14.1 0 25.6 11.4 25.6 25.6" fill="#c60c30"/>
  <path class="st0" d="M257 126.4c-.3 31.8-10.9 37.2-30.7 37.2-8.7 0-19.7-4.8-25.4-8.5l-3.3 6.7c3.6 2.1 13.7 8.4 29.9 8.4 19.4 0 37.4-3.9 37.9-42.2l-.2-72.4H257v70.8zM313.9 33.5c-3.7 0-6.6 3.4-6.6 6.9 0 3.5 2.4 6.9 6.2 6.9h.2c4.2 0 6.6-3.4 6.6-6.9 0-3.7-2.7-6.9-6.4-6.9M344.2 33.5c-3.7 0-6.6 3.4-6.6 6.9 0 3.5 2.4 6.9 6.2 6.9h.2c4.2 0 6.6-3.4 6.6-6.9 0-3.7-2.7-6.9-6.4-6.9M669.1 33.5c-3.7 0-6.6 3.4-6.6 6.9 0 3.5 2.4 6.9 6.2 6.9h.2c4.2 0 6.6-3.4 6.6-6.9 0-3.7-2.7-6.9-6.4-6.9M638.8 33.5c-3.7 0-6.6 3.4-6.6 6.9 0 3.5 2.4 6.9 6.2 6.9h.2c4.2 0 6.6-3.4 6.6-6.9 0-3.7-2.7-6.9-6.4-6.9M631.2 122.4L647.4 82c2.7-6.7 4.6-11.8 6.2-17.5h.4c1.7 5.6 3.2 10.4 6.2 18l16 39.9h-45zM658 55.7h-8.1l-45.8 113.5h8.6l15.7-39.9h50.5l16 39.9h8.6L658 55.7zM563.4 106.6c-18.4-5.9-25.6-12.8-25.6-24.9 0-8.9 6.4-21.2 26.8-21.2 11.1 0 19.2 3.7 22.4 5.9l3.2-6.9c-4.4-2.9-13.3-5.7-25.3-5.7-20.9 0-35.2 12.5-35.2 29.1 0 14.8 9.1 24.1 31.8 31.3 19 6.1 25.6 13.5 25.6 26.4 0 14-11.1 23.7-29.5 23.7-10.9 0-20.7-3.4-28.1-8.4l-3.2 6.9c6.9 5.1 19.5 8.4 30.3 8.4 27.1 0 38.6-15.8 38.6-31.5 0-18.3-11.1-26.4-31.8-33.1M306.3 122.4L322.5 82c2.7-6.7 4.6-11.8 6.2-17.5h.3c1.7 5.6 3.2 10.4 6.2 18l16 39.9h-44.9zm26.8-66.7H325l-45.8 113.5h8.6l15.7-39.9H354l16 39.9h8.6L333.1 55.7zM492.2 55.7l-28.6 67.9c-6.4 15-10.9 26.4-14 36h-.3c-3.4-10.3-7.8-22.1-13.5-36.2l-27.3-67.7H399l-9.1 113.5h8.1l4-51.9c1.5-18.7 2.4-39.4 2.9-52.5h.3c3.7 12.1 8.9 25.6 16 43.3l24.6 61.1h6.2l26.3-62c7.2-17.2 12.5-30.3 17-42.4h.3c0 12.1 1.5 34 2.7 50.9l3.5 53.5h8.1l-8.1-113.5h-9.6z"/>
</svg>
