<svg version="1.1" id="Layer_1" xmlns="http://www.w3.org/2000/svg" xmlns:xlink="http://www.w3.org/1999/xlink" x="0" y="0" viewBox="0 0 330.4 42" xml:space="preserve">
  <style>
    .st0{clip-path:url(#SVGID_2_);fill:#007dc5}
  </style>
  <defs>
    <path id="SVGID_1_" d="M0 0h330.4v42H0z"/>
  </defs>
  <clipPath id="SVGID_2_">
    <use xlink:href="#SVGID_1_" overflow="visible"/>
  </clipPath>
  <path class="st0" d="M25.2 25.6c0 5.1-2.2 8.1-7.2 8.1-5.1 0-7.6-3.3-7.4-8.6H2.4c-.3 9.2 5.7 14.8 15.5 14.8 8.8 0 15.4-4.8 15.4-13.8V2.8h-8.1v22.8zM102.7 23.6h18.2v-6.1h-18.2V9h24.2V2.8H94.8v36.4h32.6V33h-24.7zM170.6 27.8l-19.4-25h-9v36.4h7.3v-27l21.4 27h7.1V2.8h-7.4zM319.7 2.8v20.5c0 6.6-3.5 10.4-9.9 10.4-6.3 0-9.9-3.7-9.9-10.4V2.8h-8.1v21.4c0 10.6 8.3 15.6 17.9 15.6 9.7 0 17.9-5 17.9-15.6V2.8h-7.9zM268.4 23.3c0 6.6-3.5 10.4-9.9 10.4-6.3 0-9.9-3.7-9.9-10.4V2.8h-8.1v21.4c0 10.6 8.3 15.6 17.9 15.6 9.7 0 17.9-5 17.9-15.6V2.8h-8v20.5zM215 18.4l-8.4-1.6c-3.2-.6-5.6-1.4-5.6-4 0-3 3.2-4.7 7.7-4.7 5.7 0 9.5 2.5 11.6 5.8l5.4-4.7c-3.5-4-9.2-6.9-17-6.9-9.5 0-15.8 4.5-15.8 11.1 0 6.1 4.9 8.9 11 10l9.1 1.7c3.4.7 5.9 1.6 5.9 4.2 0 3.2-3.8 4.8-9 4.8-5.6 0-11.1-2.3-14-6.7l-5.1 5.2c3.8 4.6 10.7 7.4 19.1 7.4 9.5 0 17-4 17-11 .2-6.3-4.3-9.1-11.9-10.6M63 10c-5.9 0-10.8 4.8-10.8 10.8 0 5.9 4.8 10.8 10.8 10.8 5.9 0 10.8-4.8 10.8-10.8C73.8 14.8 69 10 63 10"/>
</svg>
