<?xml version="1.0" encoding="UTF-8"?><svg id="Layer_2" xmlns="http://www.w3.org/2000/svg" viewBox="0 0 213.52 55.41"><defs><style>.cls-1{fill:#0070ba;}.cls-2{fill:#21ade4;}.cls-3{fill:#009c53;}.cls-4{fill:none;}.cls-5{fill:#86c87f;}.cls-6{fill:#231f20;}</style></defs><g id="Layer_1-2"><path class="cls-6" d="M207.76,35.75c3.06,0,4.88-1.44,4.88-3.84,0-2.17-1.37-3.23-3.88-4.16-2.09-.76-2.81-1.41-2.81-2.38,0-1.05,1.04-1.69,2.6-1.69,1.24,0,2.55,.38,3.32,.82v-2.24c-.82-.34-2.13-.68-3.5-.68-2.77,0-4.77,1.44-4.77,3.84,0,2.22,1.33,3.29,3.84,4.18,2.09,.74,2.87,1.33,2.87,2.41,0,.74-.59,1.24-1.56,1.46-.4,.11-.87,.15-1.37,.15-1.37-.04-2.68-.49-3.65-.99v2.34c.95,.4,2.43,.78,4.01,.78m-8.53-13.93h-2.39v8.59c0,1.98-1.14,3.14-3.12,3.14s-3.12-1.16-3.12-3.14v-8.59h-2.38v8.8c0,3.15,2.05,5.13,5.49,5.13s5.51-1.98,5.51-5.13v-8.8Zm-14.88,2.01v-2.01h-10.37v2.01h3.99v11.67h2.39v-11.67h3.99Zm-14.48-2.01h-2.39v13.68h2.39v-13.68Zm-6.67,13.68v-2.01h-5.57v-11.67h-2.39v13.68h7.96Zm-12.24,0v-2.01h-5.57v-11.67h-2.39v13.68h7.96Zm-20.37-4.5c.74-1.67,1.44-3.42,2.03-4.84,.57,1.56,1.22,3.1,1.99,4.84h-4.03Zm-4.5,4.5h2.51l1.22-2.72h5.59l1.22,2.72h2.51l-6.48-13.89h-.08l-6.48,13.89Zm-3.86,0v-13.68h-2.39v5.76h-6.19v-5.76h-2.39v13.68h2.39v-5.93h6.19v5.93h2.39Zm-20.75-16.62c0,.8,.53,1.31,1.35,1.31s1.35-.51,1.35-1.31-.55-1.29-1.35-1.29-1.35,.51-1.35,1.29m-3.95,0c0,.8,.53,1.31,1.35,1.31s1.35-.51,1.35-1.31-.55-1.29-1.35-1.29-1.35,.51-1.35,1.29m1.31,12.12c.74-1.67,1.44-3.42,2.03-4.84,.57,1.56,1.22,3.1,2,4.84h-4.03Zm-4.5,4.5h2.51l1.22-2.72h5.59l1.22,2.72h2.51l-6.48-13.89h-.08l-6.48,13.89Zm-7.69,.25c3.06,0,4.88-1.44,4.88-3.84,0-2.17-1.37-3.23-3.88-4.16-2.09-.76-2.81-1.41-2.81-2.38,0-1.05,1.05-1.69,2.6-1.69,1.24,0,2.55,.38,3.32,.82v-2.24c-.82-.34-2.13-.68-3.5-.68-2.77,0-4.77,1.44-4.77,3.84,0,2.22,1.33,3.29,3.84,4.18,2.09,.74,2.87,1.33,2.87,2.41,0,.74-.59,1.24-1.56,1.46-.4,.11-.87,.15-1.37,.15-1.37-.04-2.68-.49-3.65-.99v2.34c.95,.4,2.43,.78,4.01,.78m-7.31-11.91v-2.01h-10.37v2.01h3.99v11.67h2.39v-11.67h3.99Zm-13.53,11.67v-2.01h-6.5v-3.93h5.26v-1.96h-5.26v-3.76h6.21v-2.01h-8.61v13.68h8.89Zm-20.86-3.76c1.2-1.37,2.39-2.74,3.57-4.12l.55-.53v8.42h2.28v-13.89h-.04l-6.36,7.07-6.37-7.07h-.04v13.89h2.3v-8.42l.53,.53,3.57,4.12Z"/><path class="cls-5" d="M27.38,0C22.91,5.2,5.84,21.46,0,25.91H27.38V0Z"/><path class="cls-3" d="M0,0C4.47,5.2,21.55,21.46,27.38,25.91H0V0Z"/><path class="cls-1" d="M27.38,55.41C22.91,50.21,5.84,33.95,0,29.49H27.38v25.91Z"/><path class="cls-2" d="M0,55.41c4.47-5.2,21.55-21.46,27.38-25.91H0v25.91Z"/><rect class="cls-4" x="0" width="213.52" height="55.41"/></g></svg>