<svg version="1.1" id="Layer_1" xmlns="http://www.w3.org/2000/svg" xmlns:xlink="http://www.w3.org/1999/xlink" x="0" y="0" viewBox="0 0 268.9 145.7" xml:space="preserve">
  <style>
    .st1{fill:#63b6d1}.st2{fill:#fff}
  </style>
  <defs>
    <path id="SVGID_1_" d="M-46.2-32.9h360.6V191H-46.2z"/>
  </defs>
  <clipPath id="SVGID_2_">
    <use xlink:href="#SVGID_1_" overflow="visible"/>
  </clipPath>
  <g clip-path="url(#SVGID_2_)">
    <path class="st1" d="M131.7 14.5h11.6l10.1 23.3.8 2.6.8-2.6 10.3-23.3h11.4l2.1 47.4h-11.4l-.7-26.9-1 2.9-7.4 16.7h-8.4l-7.2-16.7-.9-2.8-.9 26.7h-11.2l2-47.3zM185.3 14.5h11.6L207 37.7l.8 2.6.8-2.6L219 14.5h11.4l2.1 47.4h-11.4l-.8-26.9-1 2.9-7.4 16.7h-8.4l-7.2-16.7-.9-2.8-.9 26.7h-11.2l2-47.3zM237.6 61.9V14.5h11.5v37.4h17.8v9.9h-29.3zM130.7 65.1h4.8l5.6 13.4.4 1.1.4-1.1 5.8-13.4h4.7l1.1 23.7h-4.4l-.5-16.1-.3 1.1-5.1 11.2h-3.5l-4.8-11.3-.3-1.1-.5 16.1h-4.4l1-23.6zM169.3 82.8h-7.5l-1.6 6h-4.8l6.9-23.7h6.6l7.1 23.7h-5l-1.7-6zm-3.8-14.6l-.2 1.3-2.5 9.4h5.5l-2.5-9.4-.3-1.3zM191.2 82.8h-7.5l-1.6 6h-4.8l6.9-23.7h6.6l7.1 23.7h-5.1l-1.6-6zm-3.8-14.6l-.2 1.3-2.5 9.4h5.5l-2.5-9.4-.3-1.3zM204.5 88.8H200V65.1h4.3l9.5 14 .6 1v-15h4.5v23.7h-3.7l-10.2-15-.5-.9v15.9zM221.8 77.1h8.3v3.7h-8.3v-3.7zM130.7 92.3h4.8l5.6 13.4.4 1.1.4-1.1 5.8-13.4h4.7l1.1 23.7h-4.4l-.5-16.1-.3 1.1-4.9 11.3h-3.5l-4.8-11.3-.3-1.1-.5 16.1h-4.4l.8-23.7zM156.1 92.3h4.5V116h-4.5V92.3zM162.9 96.3v-4h17.5v4h-6.5V116h-4.5V96.3h-6.5zM182.4 96.3v-4h17.5v4h-6.5V116h-4.5V96.3h-6.5zM211.1 110h-7.5l-1.6 6h-4.8l6.9-23.7h6.6l7.1 23.7h-5.1l-1.6-6zm-3.8-14.5l-.2 1.3-2.5 9.4h5.5l-2.5-9.4-.3-1.3zM236.9 92.3v13.8c0 6.5-2.3 10.2-9.2 10.2-6.9 0-9.1-3.7-9.1-10.2V92.3h4.6v13.5c0 5.1 1.5 6.8 4.7 6.8 3.3 0 4.5-1.7 4.5-6.8V92.3h4.5zM247.9 106.4l-3.1-.7c-3.4-.8-5.3-2.4-5.3-6.6 0-4.7 2.9-7 7.4-7 3.7 0 7.1.9 7.1.9l-.6 3.7s-4-.8-6.3-.8c-2.2 0-3.2 1.2-3.2 2.8 0 1.7 1.2 2.7 3.4 3.2l3 .7c3.1.7 4.6 2.6 4.6 6.8 0 4.4-2.5 7-7.3 7-3.8 0-8-1.1-8-1.1l.5-3.8s4.2 1 6.7 1c2.6 0 3.8-1.1 3.8-2.9 0-1.6-.6-2.7-2.7-3.2zM257.4 104.3h8.3v3.7h-8.3v-3.7zM129.9 143.3v-23.7h4.5v19.7h9.1v4h-13.6zM159.1 137.3h-7.5l-1.6 6h-4.8l6.9-23.7h6.6l7.1 23.7h-5.1l-1.6-6zm-3.7-14.6l-.2 1.3-2.5 9.4h5.5l-2.5-9.4-.3-1.3zM168.3 119.6h4.5v23.7h-4.5v-23.7zM175 123.6v-4h17.5v4H186v19.7h-4.5v-19.7H175zM204 143.6c-6.5 0-10.2-3.5-10.2-12.4 0-8.1 3.7-11.9 10.2-11.9 6.7 0 10.2 3.7 10.2 11.9 0 8.9-3.8 12.4-10.2 12.4zm0-3.7c3.5 0 5.6-2.6 5.6-8.6 0-6.4-2.3-8.4-5.6-8.4s-5.5 2-5.5 8.3c-.1 6.1 2.1 8.7 5.5 8.7zM224.9 133.7l-3.1-.7c-3.4-.8-5.3-2.4-5.3-6.6 0-4.7 2.9-7 7.4-7 3.7 0 7.1.9 7.1.9l-.6 3.7s-4-.8-6.3-.8c-2.2 0-3.2 1.2-3.2 2.8 0 1.7 1.2 2.7 3.4 3.2l3 .7c3.1.7 4.6 2.6 4.6 6.8 0 4.4-2.5 7-7.3 7-3.8 0-8-1.1-8-1.1l.5-3.8s4.2 1 6.7 1c2.6 0 3.8-1.1 3.8-2.9 0-1.7-.5-2.7-2.7-3.2z"/>
    <g>
      <path class="st2" d="M47.2 22.2L88.5 31 76.7 13.2c-2.6-4-8-5.2-11.9-2.6L47.2 22.2zM88.1 37.2L45.2 28c-.5-.1-1 .2-1.1.7-.1.3 0 .5.1.7l15.6 23.7c.6.9 1.5 1.5 2.4 1.7 1 .2 2 0 2.9-.5L88.4 39c.2-.1.4-.3.4-.6.2-.5-.2-1.1-.7-1.2zM72.6 102.9c.2-.1.4-.4.4-.6.1-.5-.2-1-.8-1.1l-36.8-7.9c-.5-.1-1 .2-1.1.7-.1.3 0 .5.1.7l10.5 15.9c2.6 4 8 5.2 11.9 2.6l15.8-10.3zM111.8 66.6L102 51.7c-.1-.2-.4-.4-.6-.4-.5-.1-1 .2-1.1.7l-7 35.1c-.1.5.2 1 .8 1.1.3.1.5 0 .7-.1l14.6-9.6c4-2.6 5-7.9 2.4-11.9zM9.9 57.3l9.8 14.8c.1.2.3.4.6.4.5.1 1-.2 1.1-.7l7-35.2c.1-.5-.2-1-.8-1.1-.3-.1-.5 0-.7.1l-14.6 9.6c-4 2.7-5.1 8.1-2.4 12.1z"/>
      <path d="M117.6 61.5l-34-51.8c-5.3-8-16-10.3-23.9-5.1L8.8 38.3c-7.9 5.2-10 16-4.8 24l34 51.8c5.3 8 16 10.3 23.9 5.1l50.9-33.6c8-5.3 10.1-16 4.8-24.1zm-72.7 49.2l-10.4-16c-.1-.2-.2-.5-.1-.7.1-.5.6-.9 1.1-.7l36.8 7.9c.5.1.9.6.8 1.1-.1.3-.2.5-.4.6L57 113.3c-4.1 2.5-9.4 1.4-12.1-2.6zm31.8-97.5l11.8 17.9-41.3-8.8 17.6-11.6c3.9-2.7 9.3-1.5 11.9 2.5zM88.4 39L65.1 54.4c-.9.6-1.9.7-2.9.5-1-.2-1.8-.8-2.4-1.7L44.2 29.5c-.1-.2-.2-.5-.1-.7.1-.5.6-.9 1.1-.7l42.9 9.2c.5.1.9.6.8 1.1-.1.2-.3.4-.5.6zm6.1 2.9c.4-.2.6 0 .7.3.3 1 .4 2 .1 3.1l-9.1 46c-.7 3.5-4 5.7-7.5 4.9L31.3 86.1c-3.5-.7-5.7-4.1-5-7.6l9.1-46c.2-1.1.7-2 1.3-2.8.2-.3.6-.4.8 0L55 56.4c1.4 2.2 3.6 3.6 6.1 4.2 2.5.5 5.1.1 7.2-1.3l26.2-17.4zm-82.2 3.4l14.6-9.6c.2-.1.5-.2.7-.1.5.1.9.6.8 1.1l-7 35.2c-.1.5-.6.9-1.1.7-.3-.1-.5-.2-.6-.4L9.9 57.3c-2.7-4-1.6-9.4 2.4-12zm97.1 33.3l-14.6 9.6c-.2.1-.5.2-.7.1-.5-.1-.9-.6-.8-1.1l7-35.1c.1-.5.6-.9 1.1-.7.3.1.5.2.6.4l9.7 14.8c2.7 4 1.7 9.3-2.3 12z" fill="#665d58"/>
      <path class="st1" d="M61.1 60.6c-2.5-.5-4.7-2-6.1-4.2L37.5 29.7c-.3-.4-.6-.3-.8 0-.6.8-1.1 1.7-1.3 2.8l-9.1 46c-.7 3.5 1.6 6.9 5 7.6l47.6 10.2c3.5.7 6.8-1.5 7.5-4.9l9.1-46c.2-1.1.1-2.1-.1-3.1-.1-.3-.4-.5-.7-.3L68.3 59.2c-2.1 1.4-4.7 1.9-7.2 1.4z"/>
    </g>
  </g>
</svg>
