<?xml version="1.0" encoding="utf-8"?>
<!-- Generator: Adobe Illustrator 21.0.0, SVG Export Plug-In . SVG Version: 6.00 Build 0)  -->
<!DOCTYPE svg PUBLIC "-//W3C//DTD SVG 1.1//EN" "http://www.w3.org/Graphics/SVG/1.1/DTD/svg11.dtd">
<svg version="1.1" id="Layer_1" xmlns="http://www.w3.org/2000/svg" xmlns:xlink="http://www.w3.org/1999/xlink" x="0px" y="0px"
	 viewBox="0 0 500 100.4" style="enable-background:new 0 0 500 100.4;" xml:space="preserve">
<style type="text/css">
	.st0{fill:#0076BA;}
</style>
<g>
	<g>
		<path class="st0" d="M196.3,73.7h-7.8l-30-38.9l0,38.9h-8.7V20h7.8l30,38.9V20h8.7V73.7z"/>
		<path class="st0" d="M224.7,36c2.8,0,5.5,0.5,7.9,1.5c2.4,1,4.5,2.3,6.3,4.1c1.8,1.7,3.1,3.8,4.1,6.1c1,2.4,1.5,4.9,1.5,7.7
			c0,2.8-0.5,5.3-1.5,7.7c-1,2.4-2.4,4.4-4.1,6.1c-1.8,1.7-3.9,3.1-6.3,4.1c-2.4,1-5,1.5-7.9,1.5c-2.8,0-5.5-0.5-7.9-1.5
			c-2.4-1-4.5-2.3-6.3-4.1s-3.1-3.8-4.1-6.1c-1-2.4-1.5-4.9-1.5-7.7c0-2.8,0.5-5.3,1.5-7.7c1-2.4,2.4-4.4,4.1-6.1
			c1.8-1.7,3.8-3.1,6.3-4.1C219.3,36.4,221.9,36,224.7,36z M224.7,43.5c-1.6,0-3.2,0.3-4.6,0.9c-1.4,0.6-2.6,1.4-3.6,2.4
			c-1,1-1.8,2.3-2.4,3.7c-0.6,1.4-0.9,3-0.9,4.8c0,1.7,0.3,3.3,0.9,4.8s1.4,2.7,2.4,3.7c1,1,2.2,1.8,3.6,2.4
			c1.4,0.6,2.9,0.9,4.6,0.9c1.6,0,3.2-0.3,4.6-0.9c1.4-0.6,2.6-1.4,3.7-2.4c1-1,1.8-2.3,2.4-3.7s0.9-3,0.9-4.8
			c0-1.7-0.3-3.3-0.9-4.8c-0.6-1.4-1.4-2.7-2.4-3.7c-1-1-2.3-1.8-3.7-2.4C227.9,43.8,226.4,43.5,224.7,43.5z"/>
		<path class="st0" d="M270.8,36c1.2,0,2.3,0.1,3.3,0.3c1,0.2,1.9,0.4,2.9,0.8l-1.9,7.9c-0.8-0.4-1.8-0.8-3-1s-2.2-0.3-3.1-0.3
			c-1.3,0-2.5,0.2-3.5,0.7c-1.1,0.4-2,1.1-2.8,1.9c-0.8,0.8-1.4,1.9-1.8,3.1c-0.4,1.2-0.7,2.6-0.7,4.2v20.2h-8V36.9h7.9v4.1
			c1.2-1.8,2.8-3.1,4.6-3.9C266.5,36.4,268.5,36,270.8,36z"/>
		<path class="st0" d="M298.6,36c2.6,0,4.9,0.5,6.8,1.5c1.9,1,3.5,2.3,4.8,3.9V18.4h8v55.3h-8v-4.4c-1.3,1.6-2.9,2.9-4.8,3.9
			s-4.2,1.5-6.8,1.5c-2.6,0-5-0.5-7.2-1.4c-2.2-1-4.2-2.3-5.8-4c-1.7-1.7-3-3.8-3.9-6.1c-0.9-2.4-1.4-5-1.4-7.8
			c0-2.8,0.5-5.4,1.4-7.8c0.9-2.4,2.3-4.4,3.9-6.1c1.7-1.7,3.6-3.1,5.8-4C293.6,36.4,296,36,298.6,36z M299.5,43.5
			c-1.7,0-3.3,0.3-4.7,0.9c-1.4,0.6-2.5,1.5-3.5,2.5c-0.9,1.1-1.7,2.3-2.2,3.7c-0.5,1.4-0.8,3-0.8,4.6c0,1.6,0.3,3.1,0.8,4.6
			c0.5,1.4,1.2,2.7,2.2,3.7c0.9,1.1,2.1,1.9,3.5,2.5c1.4,0.6,2.9,0.9,4.7,0.9c1.7,0,3.2-0.3,4.5-0.9c1.4-0.6,2.5-1.4,3.5-2.5
			c1-1,1.7-2.3,2.3-3.7c0.5-1.4,0.8-3,0.8-4.7c0-1.7-0.3-3.2-0.8-4.7c-0.5-1.4-1.3-2.7-2.3-3.7s-2.1-1.9-3.5-2.5
			C302.7,43.8,301.2,43.5,299.5,43.5z"/>
		<path class="st0" d="M347,36c1.2,0,2.3,0.1,3.3,0.3c1,0.2,1.9,0.4,2.9,0.8l-1.9,7.9c-0.8-0.4-1.8-0.8-3-1
			c-1.1-0.2-2.2-0.3-3.1-0.3c-1.3,0-2.5,0.2-3.5,0.7c-1.1,0.4-2,1.1-2.8,1.9c-0.8,0.8-1.4,1.9-1.8,3.1c-0.4,1.2-0.7,2.6-0.7,4.2
			v20.2h-8V36.9h7.9v4.1c1.2-1.8,2.8-3.1,4.6-3.9C342.7,36.4,344.8,36,347,36z"/>
		<path class="st0" d="M374.7,36c2.6,0,4.9,0.5,7,1.4c2.1,0.9,4,2.3,5.5,4c1.5,1.7,2.7,3.7,3.6,6.1c0.9,2.4,1.3,5,1.3,7.8
			c0,0.5,0,1,0,1.5c0,0.5-0.1,1-0.1,1.5h-27.2c0.3,1.7,0.7,3.1,1.4,4.3c0.7,1.2,1.5,2.1,2.5,2.9c1,0.8,2.1,1.3,3.3,1.7
			c1.2,0.4,2.5,0.5,3.8,0.5c1.8,0,3.7-0.3,5.5-1c1.9-0.7,3.6-1.6,5.1-2.9l4,5.7c-2.3,1.9-4.6,3.3-7.2,4c-2.5,0.8-5.2,1.2-8,1.2
			c-2.8,0-5.3-0.5-7.6-1.4c-2.3-0.9-4.3-2.2-6-3.9c-1.7-1.7-3-3.7-3.9-6.1c-0.9-2.4-1.4-5-1.4-7.9c0-2.9,0.4-5.5,1.3-7.9
			c0.9-2.4,2.1-4.4,3.8-6.1c1.6-1.7,3.5-3,5.8-4C369.5,36.4,372,36,374.7,36z M374.6,43.1c-1.4,0-2.7,0.2-3.8,0.7s-2.1,1.1-2.9,1.9
			c-0.8,0.8-1.5,1.8-2,2.9c-0.5,1.1-0.9,2.3-1.1,3.7h19.1c-0.4-2.9-1.5-5.1-3.1-6.7C379.2,43.9,377.1,43.1,374.6,43.1z"/>
		<path class="st0" d="M414.2,36c2.7,0,5.1,0.5,7.1,1.4s3.8,2.2,5.1,4v-4.4h8.1v34.2c0,2.9-0.5,5.5-1.4,7.8
			c-0.9,2.3-2.2,4.3-3.9,5.9c-1.7,1.6-3.8,2.8-6.2,3.7c-2.4,0.9-5.2,1.3-8.3,1.3c-1.4,0-2.8-0.1-4.2-0.3c-1.4-0.2-2.8-0.4-4.1-0.8
			c-1.3-0.4-2.6-0.8-3.8-1.3c-1.2-0.5-2.3-1.1-3.3-1.8l2.9-6.8c1.9,1.2,3.9,2.1,6,2.7c2.1,0.7,4.3,1,6.5,1c3.8,0,6.7-1,8.7-2.9
			c2-1.9,3-4.6,3-8.1v-3c-1.4,1.8-3.1,3.1-5.1,4s-4.4,1.4-7.1,1.4c-2.1,0-4.2-0.4-6.2-1.3c-2-0.9-3.9-2.1-5.5-3.7
			c-1.6-1.6-2.9-3.6-3.9-6c-1-2.4-1.5-5-1.5-8c0-3,0.5-5.6,1.5-8c1-2.4,2.3-4.3,3.9-6c1.6-1.6,3.4-2.9,5.5-3.7
			C410,36.4,412.1,36,414.2,36z M416.2,43.5c-1.7,0-3.2,0.3-4.5,0.9c-1.3,0.6-2.5,1.4-3.4,2.5c-0.9,1-1.7,2.2-2.2,3.6
			c-0.5,1.4-0.7,2.9-0.7,4.4c0,1.5,0.2,3,0.7,4.4c0.5,1.4,1.2,2.6,2.2,3.6s2.1,1.9,3.4,2.5c1.3,0.6,2.9,0.9,4.5,0.9
			c1.6,0,3.1-0.3,4.4-0.9c1.3-0.6,2.5-1.4,3.4-2.4c0.9-1,1.7-2.2,2.2-3.6c0.5-1.4,0.8-2.9,0.8-4.5c0-1.6-0.3-3.1-0.8-4.5
			c-0.5-1.4-1.3-2.6-2.2-3.6c-0.9-1-2.1-1.8-3.4-2.4C419.3,43.8,417.8,43.5,416.2,43.5z"/>
		<path class="st0" d="M448.7,18.5c0.8,0,1.5,0.1,2.2,0.4c0.7,0.3,1.3,0.7,1.8,1.2c0.5,0.5,0.9,1.1,1.2,1.8c0.3,0.7,0.4,1.4,0.4,2.2
			c0,0.8-0.1,1.5-0.4,2.2c-0.3,0.7-0.7,1.3-1.2,1.8c-0.5,0.5-1.1,0.9-1.8,1.2c-0.7,0.3-1.4,0.4-2.2,0.4c-0.8,0-1.5-0.1-2.2-0.4
			c-0.7-0.3-1.3-0.7-1.8-1.2c-0.5-0.5-0.9-1.1-1.2-1.8c-0.3-0.7-0.4-1.4-0.4-2.2c0-0.8,0.1-1.5,0.4-2.2c0.3-0.7,0.7-1.3,1.2-1.8
			c0.5-0.5,1.1-0.9,1.8-1.2C447.2,18.7,447.9,18.5,448.7,18.5z M452.8,73.7h-8.1V36.9h8.1V73.7z"/>
		<path class="st0" d="M480.2,36c2.8,0,5.5,0.5,7.9,1.5c2.4,1,4.5,2.3,6.3,4.1c1.8,1.7,3.1,3.8,4.1,6.1c1,2.4,1.5,4.9,1.5,7.7
			c0,2.8-0.5,5.3-1.5,7.7c-1,2.4-2.4,4.4-4.1,6.1c-1.8,1.7-3.9,3.1-6.3,4.1c-2.4,1-5,1.5-7.9,1.5s-5.5-0.5-7.9-1.5
			c-2.4-1-4.5-2.3-6.3-4.1s-3.1-3.8-4.1-6.1c-1-2.4-1.5-4.9-1.5-7.7c0-2.8,0.5-5.3,1.5-7.7c1-2.4,2.4-4.4,4.1-6.1
			c1.8-1.7,3.8-3.1,6.3-4.1C474.7,36.4,477.4,36,480.2,36z M480.2,43.5c-1.6,0-3.2,0.3-4.6,0.9c-1.4,0.6-2.6,1.4-3.6,2.4
			c-1,1-1.8,2.3-2.4,3.7c-0.6,1.4-0.9,3-0.9,4.8c0,1.7,0.3,3.3,0.9,4.8c0.6,1.4,1.4,2.7,2.4,3.7c1,1,2.2,1.8,3.6,2.4
			c1.4,0.6,2.9,0.9,4.6,0.9s3.2-0.3,4.6-0.9c1.4-0.6,2.6-1.4,3.7-2.4c1-1,1.8-2.3,2.4-3.7s0.9-3,0.9-4.8c0-1.7-0.3-3.3-0.9-4.8
			c-0.6-1.4-1.4-2.7-2.4-3.7c-1-1-2.3-1.8-3.7-2.4C483.4,43.8,481.8,43.5,480.2,43.5z"/>
	</g>
	<path class="st0" d="M50.2,0C39.5,0,29.6,3.3,21.5,9c0,0,25.1,55.1,25.6,56.3c0.6,1.3,1.4,1.6,1.4,1.6l0,0h-4.5l0,0
		c-2.1,0-2.8-0.3-3.7-2.3L16.7,12.7c-1.6,1.4-3.1,2.9-4.5,4.6c7.3,16,21.3,46.8,21.8,48c0.6,1.3,1.4,1.6,1.4,1.6l0,0H31l0,0
		c-2.1,0-2.8-0.3-3.7-2.3L8.2,22.6c-1.4,2.1-2.6,4.2-3.6,6.5c7.2,15.9,16,35.2,16.4,36.1c0.6,1.3,1.4,1.6,1.4,1.6l0,0H18l0,0
		c-2.1,0-2.8-0.3-3.7-2.3L1.7,37C0.8,40.5,0.2,44.1,0,47.8c4.3,9.4,7.7,16.9,7.9,17.4c0.6,1.3,1.4,1.6,1.4,1.6l0,0H4.9
		c-1,0-1.7-0.1-2.2-0.4c6.8,19.7,25.5,33.9,47.5,33.9c27.7,0,50.2-22.5,50.2-50.2S77.9,0,50.2,0z M50.2,93.2
		C35,93.2,21.7,85.3,14,73.4h53.2v0h17l-9.4-8c0,0-4.3,1.4-8.8,1.4h-8.9l0,0c-2.1,0-2.8-0.3-3.7-2.3L29.7,12.4
		c6.1-3.3,13.1-5.2,20.5-5.2c23.7,0,43,19.2,43,43S73.9,93.2,50.2,93.2z"/>
</g>
</svg>
