<svg xmlns="http://www.w3.org/2000/svg" viewBox="0 0 401 84">
  <path d="M214.3 44.6h-10.1v8.7h10.4c3.9 0 6.2-1.4 6.2-4.3 0-2.7-2-4.4-6.5-4.4zM58.5 29.2h-8.7v11.4h8.9c4.3 0 6.7-2.3 6.7-5.6v-.1c0-3.8-2.6-5.7-6.9-5.7zm160 4c0-2.8-2-4.2-5.7-4.2h-8.6v8.4h8.1c3.9 0 6.2-1.3 6.2-4.2zM100.1 44.4h11l-5.5-13.1-5.5 13.1zm14.3 7.7H96.9l-2.8 6.6c-.7 1.7-2.1 2.7-3.9 2.7-2.3 0-4.2-1.7-4.2-4 0-.6.2-1.4.5-2l13.9-31.3c1-2.2 2.7-3.4 5.3-3.4 2.6 0 4.4 1.3 5.4 3.4l13.8 31.3c.3.6.5 1.4.5 2 0 2.3-2 4-4.3 4-1.8 0-3.2-1-4-2.7l-2.7-6.6zm269.2 31.5c11.9 0 17-5.1 17-17v-49c0-11.9-5.1-17-17-17h-84.5l-36.5 44-1.4-.6 3.4-15.1c-.6-.1-1.1-.2-1.7-.2-7.1 0-12 5.6-12 12.4v.1c0 6.8 5 12.5 12 12.5 7.1 0 11.9-5.5 11.9-12.3v-.1c0-1.3-.2-2.5-.5-3.6l7.4-5.9c1.4 2.8 2.2 6 2.2 9.4v.1c0 11.3-8.9 20.5-21.1 20.5-12.3 0-21.1-9.1-21.1-20.4v-.1c0-11.3 8.9-20.5 21.1-20.5 1.2 0 2.3.1 3.4.2L270.9.7H17.6C5.7.7.6 5.8.6 17.7v49c0 11.9 5.1 17 17 17h366zm-205-26.7c0 2.9-1.8 4.5-4.3 4.5s-4.3-1.6-4.3-4.5V37.2L162.3 49c-.9 1.4-2 2.2-3.6 2.2s-2.8-.9-3.7-2.2l-7.5-11.7v19.6c0 2.9-1.8 4.5-4.3 4.5s-4.3-1.6-4.3-4.5V25.1c0-2.8 2.4-4.1 4.7-4.1 2.2 0 3.7.8 4.8 2.6l10.4 17 10.4-17c1.1-1.7 2.6-2.6 4.7-2.6 2.3 0 4.7 1.3 4.7 4.1v31.8zm35.6-35.6c4.5 0 8.1 1.3 10.4 3.6 1.8 1.8 2.7 4.1 2.7 6.7 0 4.6-2.4 7.1-5.2 8.7 4.6 1.7 7.4 4.4 7.4 9.8 0 7.4-5.9 11-14.9 11H200c-2.5 0-4.3-1.6-4.3-4.5V25.7c0-2.9 1.8-4.5 4.3-4.5h14.2zM41.1 25.7c0-2.9 1.7-4.5 4.3-4.5h13.9c5.1 0 9 1.4 11.6 4 2.2 2.2 3.4 5.4 3.4 9.1v.1c0 6.3-3.1 10.1-8 12.1l6 7.3c.9 1.1 1.5 1.9 1.5 3.3 0 2.4-2.2 4.2-4.4 4.2-2 0-3-1-4-2.3l-8.5-10.8h-7v8.6c0 2.9-1.8 4.5-4.3 4.5s-4.3-1.6-4.3-4.5V25.7zm262.3 35.4c-2.5 0-4.3-1.6-4.3-4.5V25.4c0-2.9 1.8-4.5 4.3-4.5s4.3 1.6 4.3 4.5v27.7H324c2.3 0 4 1.6 4 4 0 2.3-1.7 4-4 4h-20.6zm40.5 0c-2.5 0-4.3-1.6-4.3-4.5V25.4c0-2.9 1.8-4.5 4.3-4.5s4.3 1.6 4.3 4.5v27.7h16.3c2.3 0 4 1.6 4 4 0 2.3-1.7 4-4 4h-20.6z" fill="#009de0"/>
</svg>
