<svg xmlns="http://www.w3.org/2000/svg" width="72.768" height="58.365">
  <path fill="#78A22F" d="M48.647 30.119c-.346-.211-1.344-.819-4.609 2.183.715-2.784 1.086-5.338 1.086-7.557 0-4.137-1.225-7.162-3.615-8.591-2.611-1.564-6.184-.771-9.274 1.99-1.5-7.151-7.218-13.572-14.808-16.505C11.781-.547 7.129-.547 3.969 1.642 1.335 3.466-.035 6.664.007 10.895c-.131 4.36 1.69 6.995 3.615 9.782 2.199 3.183 4.47 6.476 4.028 12.844-.279 4.064-.521 7.576 1.352 9.375 1.04 1.002 2.638 1.371 4.89 1.129 3.415-.371 6.928-3.309 8.552-4.768a5.684 5.684 0 00-.018.156c-.187 1.559-.336 3.018-.336 4.26 0 1.664.271 2.938 1.09 3.523.337.242.813.299 1.302.156.936-.275 2.362-1.395 3.855-5.186 1.524-3.865 1.783-6.855 1.256-7.701a1.06 1.06 0 00-.743-.477c-.88-.133-2.376.641-4.547 2.369.839-4.119 3.205-9.826 6.591-14.254a30.322 30.322 0 01.092 4.191c-.04.929-.061 1.796-.061 2.615 0 5.081.76 8.124 2.347 9.485 2.054 1.75 4.327 1.162 8.394-2.314l-.172.605c-1.006 3.387-1.879 6.596-1.879 8.84 0 1.447.361 2.49 1.287 2.916 1.773.82 4.342-2.502 6.156-5.885 1.67-3.115 2.93-6.682 2.93-9.27-.001-1.447-.395-2.585-1.341-3.167zm-24.05 7.478l1.409-.959c1.598-1.029 2.004-1.029 2.098-1.004a.693.693 0 01.059.326c0 .564-.274 1.941-1.607 5.318-1.529 3.889-2.353 4.064-2.362 4.064-.172-.139-.505-.988-.505-3.158 0-.307.006-.643.021-1.008.037-.855.139-1.9.307-3.182.203-.136.58-.397.58-.397zm-1.979.047c-3.545 2.533-6.425 3.955-8.108 4.002-1.45.039-2.636-.377-3.526-1.242-1.252-1.221-1.915-3.309-1.915-6.037 0-7.269-2.118-10.559-3.986-13.466-1.595-2.477-2.971-4.616-3.022-8.785.08-2.858 1.403-5.428 3.537-6.846 2.82-1.877 7.03-1.822 12.18.16 7.34 2.829 11.521 7.504 12.796 14.269-4.168 4.425-7.44 13.407-7.956 17.945zm12.036-.002c-.903-.754-1.911-2.904-1.911-8.754 0-.772.02-1.607.056-2.516.026-.621.04-1.23.04-1.835 0-1.537-.094-3.001-.262-4.389 2.518-2.41 4.9-3.231 6.898-2.347 2.396 1.064 3.936 4.457 3.936 8.564 0 .228-.006.46-.014.693-.082 1.912-.469 4.292-1.148 7.063-5.316 4.638-6.672 4.286-7.595 3.521zm10.372 3.615c-1.74 3.689-3.172 5.459-3.621 5.525-.357-.34-.539-.979-.539-1.922 0-1.951.76-5.174 2.271-9.637 0 0 .158-.48.219-.658l.588-.539c2.949-2.731 3.697-2.527 3.705-2.523.127.168.186.461.186.855 0 1.694-1.094 5.26-2.809 8.899z"/>
  <g fill="#5C6F7B">
    <path d="M10.476 56.438H9.388l-1.059-3.043h-.808v3.043h-.978v-6.982h1.965c.56 0 1.012.15 1.359.449.391.338.588.834.588 1.486 0 .938-.366 1.549-1.098 1.836l1.119 3.211zm-1.029-5.019c0-.676-.339-1.018-1.018-1.018h-.908v2.057h.909c.678 0 1.017-.346 1.017-1.039zM14.505 53.806c0 .16-.004.273-.01.338h-2.736c.06.992.389 1.488.984 1.488.352 0 .666-.131.946-.391l.586.609c-.42.467-.938.699-1.557.699-.612 0-1.088-.246-1.427-.738-.333-.473-.5-1.127-.5-1.965 0-.891.173-1.58.521-2.064.325-.459.773-.689 1.347-.689.545 0 .984.223 1.315.668.354.486.531 1.168.531 2.045zm-.979-.491c-.012-.398-.099-.719-.255-.963-.156-.242-.368-.363-.633-.363-.506 0-.8.441-.88 1.326h1.768zM18.453 55.981c0 .766-.156 1.328-.469 1.688-.334.379-.889.611-1.668.697l-.27-.768c.574-.074.958-.213 1.153-.42.195-.205.294-.559.294-1.059v-.039c-.279.313-.604.469-.977.469-1.052 0-1.576-.928-1.576-2.783 0-.865.142-1.527.428-1.984.285-.459.692-.689 1.217-.689.354 0 .656.129.908.389v-.279h.959v4.778zm-.959-.808v-2.715c-.205-.313-.482-.469-.828-.469-.506 0-.759.576-.759 1.727 0 1.289.27 1.936.809 1.936.326-.001.586-.161.778-.479zM20.379 49.792c0 .16-.058.297-.175.414a.563.563 0 01-.413.176.574.574 0 01-.424-.176.564.564 0 01-.175-.414c0-.166.058-.307.175-.424a.574.574 0 01.424-.176c.158 0 .298.059.413.176a.577.577 0 01.175.424zm-.108 6.646h-.958v-5.236h.958v5.236zM24.752 53.808c0 .896-.171 1.578-.514 2.043-.344.467-.811.699-1.402.699-.565 0-1.012-.223-1.336-.668-.346-.465-.521-1.145-.521-2.035 0-.898.171-1.586.51-2.064.327-.459.787-.689 1.388-.689.571 0 1.023.223 1.356.668.346.477.519 1.159.519 2.046zm-.966.017c0-1.211-.311-1.816-.93-1.816-.606 0-.909.605-.909 1.816 0 1.205.307 1.807.92 1.807.291 0 .518-.164.678-.49s.241-.764.241-1.317zM28.763 56.438h-.958v-3.223c0-.438-.047-.752-.144-.938s-.266-.279-.504-.279c-.327 0-.586.16-.779.479v3.961h-.958v-5.236h.958v.357c.247-.311.586-.467 1.018-.467.494 0 .844.158 1.053.475.21.314.314.813.314 1.49v3.381zM35.128 54.634c0 .572-.166 1.035-.497 1.387-.334.354-.802.529-1.408.529-.786 0-1.4-.379-1.847-1.137l.77-.619c.326.518.705.777 1.137.777.559 0 .839-.295.839-.887 0-.273-.078-.51-.234-.709s-.469-.455-.938-.764c-.469-.311-.8-.59-.993-.844-.273-.352-.409-.777-.409-1.277 0-.518.16-.939.479-1.262.319-.324.749-.484 1.287-.484.699 0 1.264.316 1.696.949l-.718.637c-.175-.232-.331-.391-.475-.479a1.02 1.02 0 00-.534-.129c-.485 0-.729.246-.729.738 0 .26.072.479.214.658.145.18.411.396.805.648.518.332.887.637 1.107.908.299.375.448.829.448 1.36zM39.034 51.202l-2.063 7.082h-.941l.57-1.846-1.457-5.236h1.018l.607 2.484c.129.504.23.98.311 1.426.074-.412.18-.891.318-1.436l.619-2.475h1.018zM42.669 56.438h-.957v-.348c-.285.307-.611.459-.977.459-1.051 0-1.576-.928-1.576-2.783 0-.865.143-1.527.426-1.984.289-.459.693-.689 1.221-.689.352 0 .654.129.906.389v-1.811l.957-.498v7.265zm-.957-1.265v-2.715c-.205-.313-.48-.469-.828-.469-.506 0-.76.576-.76 1.727 0 1.289.27 1.936.811 1.936.324-.001.584-.161.777-.479zM46.882 56.438h-.957v-.348c-.289.307-.613.459-.979.459-1.051 0-1.578-.928-1.578-2.783 0-.865.145-1.527.43-1.984.287-.459.691-.689 1.217-.689.352 0 .656.129.91.389v-1.811l.957-.498v7.265zm-.957-1.265v-2.715c-.209-.313-.484-.469-.828-.469-.508 0-.762.576-.762 1.727 0 1.289.271 1.936.811 1.936.324-.001.585-.161.779-.479zM50.878 56.438h-.959v-.357c-.273.313-.633.469-1.078.469-.406 0-.736-.146-.998-.439-.285-.313-.43-.752-.43-1.316 0-.553.16-.982.48-1.287.305-.287.713-.43 1.229-.43.291 0 .557.057.797.17v-.51c0-.5-.227-.748-.678-.748-.322 0-.662.109-1.029.328l-.408-.727c.498-.332 1-.498 1.506-.498.572 0 .977.117 1.211.35.236.232.357.639.357 1.217v3.778zm-.959-1.246v-1.049a1.515 1.515 0 00-.789-.199c-.506 0-.758.277-.758.828 0 .605.219.91.658.91.407.001.701-.165.889-.49zM55.138 56.438h-.959v-3.223c0-.438-.049-.752-.145-.938s-.264-.279-.506-.279c-.324 0-.584.16-.775.479v3.961h-.959v-5.236h.959v.357c.246-.311.586-.467 1.018-.467.49 0 .842.158 1.053.475.209.314.314.813.314 1.49v3.381zM61.571 56.438h-.957v-3.223c0-.393-.014-.65-.039-.777-.074-.293-.242-.439-.51-.439-.326 0-.584.16-.777.479v3.961h-.959v-3.223c0-.393-.012-.65-.041-.777-.072-.293-.242-.439-.508-.439-.326 0-.586.16-.777.479v3.961h-.959v-5.236h.959v.357c.246-.311.572-.467.977-.467.492 0 .846.186 1.059.557a1.564 1.564 0 011.227-.557c.506 0 .855.168 1.049.508.172.307.258.826.258 1.557v3.279zM65.554 56.438h-.957v-.357c-.271.313-.631.469-1.078.469-.404 0-.738-.146-.996-.439-.287-.313-.43-.752-.43-1.316 0-.553.16-.982.479-1.287.307-.287.715-.43 1.227-.43.293 0 .561.057.799.17v-.51c0-.5-.227-.748-.68-.748-.318 0-.662.109-1.027.328l-.408-.727c.498-.332 1-.498 1.506-.498.572 0 .977.117 1.213.35s.354.639.354 1.217v3.778zm-.957-1.246v-1.049a1.513 1.513 0 00-.787-.199c-.506 0-.76.277-.76.828 0 .605.221.91.658.91.406.001.703-.165.889-.49zM69.075 51.272l-.229.957a1.319 1.319 0 00-.67-.16c-.313 0-.561.137-.748.408v3.961h-.957v-5.236h.957v.357c.248-.311.555-.467.93-.467.286.001.524.061.717.18zM72.769 56.438H71.72l-.867-2.445-.52.83v1.615h-.957V49.67l.957-.498v3.137c0 .406-.008.781-.02 1.127.074-.152.217-.424.43-.809l.787-1.426h1.088l-1.127 1.816 1.278 3.421z"/>
  </g>
</svg>
