<svg version="1.1" id="Layer_1" xmlns="http://www.w3.org/2000/svg" x="0" y="0" viewBox="0 0 169.9 42" xml:space="preserve">
  <style>
    .st1{fill:#0078b1}.st2{fill:#b1b3b5}
  </style>
  <path d="M140.1 30.3l.1-.8c-.9-.2-2.1-.4-3.9-.4-2.6 0-4.6.9-4.6 3.3 0 2.6 2.5 3.1 4.3 3.5l.4.1c1.9.4 3.5.8 3.5 2.9 0 1.9-2.1 2.4-4.4 2.4-1.5 0-2.9-.3-4-.4l-.1.9c1.3.2 2.8.4 4.4.4 2.4 0 5-.4 5-3.4 0-2.7-2.1-3.3-4.5-3.7-1.9-.4-3.7-.7-3.7-2.6 0-1.9 1.6-2.5 3.8-2.5 1.8-.2 2.9.1 3.7.3M124 42c1.6 0 3.3-.1 5.2-.4V29.4h-1v11.5c-1.3.2-3 .3-4.1.3h-.4c-2.8 0-3.9-1.4-3.9-4.3v-7.5h-1v7.7c.1 4.2 2.7 4.9 5.2 4.9m-6.1-.4l-6.4-7.4 5.1-4.8h-1.2l-6.9 6.5V24.5h-1v17.1h1V37l2.3-2.2 5.9 6.7h1.2zm-21-9.3c0-1.9 1.6-2.5 3.8-2.5 1.6 0 2.7.2 3.6.4l.1-.8c-.9-.2-2.1-.4-3.9-.4-2.6 0-4.6.9-4.6 3.3 0 2.6 2.5 3.1 4.3 3.5l.4.1c1.9.4 3.5.8 3.5 2.9 0 1.9-2.1 2.4-4.4 2.4-1.5 0-2.9-.3-4-.4l-.1.9c1.3.2 2.8.4 4.4.4 2.4 0 5-.4 5-3.4 0-2.7-2.1-3.3-4.5-3.7-1.8-.4-3.6-.8-3.6-2.7m-13.3 3.6H94v-.4c0-4.7-2.3-6.5-5.7-6.5-4.4 0-5.7 2.8-5.7 6.5 0 4.6 1.9 6.5 6.1 6.5 1.6 0 3.3-.2 4.6-.4l-.2-.8c-1.1.2-2.3.4-4.1.4-3.1 0-5.4-1.1-5.4-5.3m.1-.8c0-4.2 2.2-5.3 4.7-5.3 2.7 0 4.7 1.5 4.7 5.3h-9.4zm-1.5 6.5l-6.4-7.4 5.1-4.8h-1.2l-6.9 6.5V24.5h-1v17.1h1V37l2.3-2.2 5.9 6.7h1.2zm-12.9-6.1c0-3.3-1.1-6.5-5.8-6.5-4.7 0-5.8 3.2-5.8 6.5 0 3.5 1.1 6.5 5.8 6.5 4.7 0 5.8-3 5.8-6.5m-1 0c0 2.6-.4 5.7-4.8 5.7-4.5 0-4.8-3-4.8-5.7 0-2.5.4-5.6 4.8-5.6 4.4-.1 4.8 3.1 4.8 5.6m-16.6 2.9v-8.2h4.5v-.8h-4.5v-4.5h-1v13.5c0 3.2 1.3 3.5 2.9 3.5 1.3 0 2.3-.3 2.7-.4l-.2-.8c-.6.1-1.4.4-2.4.4-1.5.1-2-.4-2-2.7m-11.5-6.1c0-1.9 1.6-2.5 3.8-2.5 1.6 0 2.7.2 3.6.4l.1-.8c-.9-.2-2.1-.4-3.9-.4-2.6 0-4.6.9-4.6 3.3 0 2.6 2.5 3.1 4.3 3.5l.4.1c1.9.4 3.5.8 3.5 2.9 0 1.9-2.1 2.4-4.4 2.4-1.5 0-2.9-.3-4-.4v.8c1.3.2 2.8.4 4.4.4 2.4 0 5-.4 5-3.4 0-2.7-2.1-3.3-4.5-3.7-1.9-.3-3.7-.7-3.7-2.6M32 42c1.4 0 3-.1 4.9-.4v-7.8c0-4-2.6-4.8-5.3-4.8-1.3 0-2.5.1-4.1.4l.2.9c1.7-.4 2.6-.4 3.7-.4 2.9 0 4.5.8 4.5 4.5-.8 0-2.2-.1-3-.1-4.4 0-6.8.9-6.8 3.9C26.1 41 28 42 32 42m3.9-1.1c-1.3.1-3 .2-3.9.2-3.6 0-4.9-.8-4.9-3.1s1.9-3.1 5.5-3.1c.8 0 2.4.1 3.3.2v5.8zM22.5 42c1.2 0 1.8-.2 2.7-.4l-.2-.8c-.8.2-1.4.4-2.4.4-1.6 0-2.1-.5-2.1-2.8V24.5h-1v14.8c.1 2.1 1.4 2.7 3 2.7m-6.1-16.6c0-.5-.2-.9-.8-.9-.6 0-.8.4-.8.9s.2.9.8.9c.7 0 .8-.4.8-.9m-9.5.8h5.8v-.9H0v.9h5.9v15.4h1V26.2zm9.2 15.4V29.4h-1v12.2h1z" fill="#231f20"/>
  <path class="st1" d="M153.5 7s1.7-.3 1.7 1.9v11.8s0 .3-.3.4l-1.4.3s-1.7.3-1.7-1.9V8.7s0-1.3 1.3-1.5l.4-.2M148.7 13.4s1.7-.3 1.7 1.9v6.2s0 .3-.3.4l-1.4.3s-1.7.3-1.7-1.9V15s0-1.3 1.3-1.5l.4-.1M158.4.3s-1.7.3-1.7 2.5v17.4s0 .3.3.3l1.4-.2s1.7-.3 1.7-2.5V1.3s0-1.3-1.3-1h-.4M163.3 5.1s-1.7.3-1.7 2.5v11.8s0 .3.3.3l1.4-.2s1.7-.3 1.7-2.5V6s0-1.3-1.3-1l-.4.1M168 9.8s-1.7.3-1.7 2.5v6.2s0 .3.3.3l1.4-.2s1.7-.3 1.7-2.5v-5.2s0-1.3-1.2-1l-.5-.1"/>
  <path class="st2" d="M163.3 35s-1.7.3-1.7-1.9V21.3s0-.3.3-.4l1.4-.3s1.7-.3 1.7 1.9v10.8s0 1.3-1.2 1.5l-.5.2M167.9 28.6s-1.6.3-1.6-1.9v-6.2s0-.3.3-.4l1.4-.3s1.6-.3 1.6 1.9V27s0 1.3-1.2 1.5l-.5.1M158.4 41.7s1.7-.3 1.7-2.5V21.8s0-.3-.3-.3l-1.4.2s-1.7.3-1.7 2.5v16.5s0 1.3 1.3 1h.4M153.5 36.9s1.7-.3 1.7-2.5V22.6s0-.3-.3-.3l-1.4.2s-1.7.3-1.7 2.5v10.8s0 1.3 1.3 1l.4.1M148.7 32.2s1.7-.3 1.7-2.5v-6.2s0-.3-.3-.3l-1.4.2s-1.7.3-1.7 2.5v5.2s0 1.3 1.2 1l.5.1"/>
</svg>
