<svg version="1.1" id="Layer_1" xmlns="http://www.w3.org/2000/svg" x="0" y="0" viewBox="0 0 209.6 42" xml:space="preserve">
  <style>
    .st1{fill:#0078b1}.st2{fill:#b1b3b5}
  </style>
  <path d="M181.9 41.5v-7.6c0-4.2-2.6-4.9-5-4.9-1.6 0-3.3.1-5.2.4v12.1h1V30.2c1.5-.3 3.3-.4 4.3-.4 2.9 0 4.1 1.4 4.1 4.3v7.4h.8m-23.1-5.6h10.4v-.4c0-4.6-2.3-6.4-5.7-6.4-4.3 0-5.7 2.7-5.7 6.4 0 4.6 1.9 6.5 6.1 6.5 1.6 0 3.3-.2 4.6-.4l-.2-.8c-1.2.2-2.4.4-4.2.4-3-.1-5.3-1.2-5.3-5.3m.1-.8c0-4.2 2.2-5.3 4.7-5.3 2.7 0 4.7 1.5 4.7 5.3h-9.4zm-4.1 6.8c1.2 0 1.8-.2 2.7-.4l-.2-.8c-.8.2-1.4.4-2.3.4-1.6 0-2.1-.5-2.1-2.8V24.5h-1v14.7c0 2.1 1.3 2.7 2.9 2.7m-10.8 0c1.4 0 3-.1 4.9-.4v-7.8c0-3.9-2.6-4.8-5.3-4.8-1.3 0-2.4.1-4.1.4l.2.8c1.7-.4 2.6-.4 3.7-.4 2.9 0 4.5.8 4.5 4.5-.8 0-2.2-.1-3-.1-4.4 0-6.8.9-6.8 3.9.1 2.9 2 3.9 5.9 3.9m3.9-1.1c-1.3.1-3 .2-3.9.2-3.6 0-4.9-.8-4.9-3.1s1.9-3.1 5.5-3.1c.8 0 2.3.1 3.3.2v5.8zM137 32.9h1c-.2-2.7-2-3.9-4.9-3.9-1.1 0-2.4.2-3.8.4v12.1h1V30.2c1-.2 2-.4 2.7-.4 2.6 0 3.8 1.2 4 3.1m-14.8 5.4v-8.1h4.5v-.8h-4.5v-4.5h-1v13.5c0 3.1 1.3 3.5 2.9 3.5 1.3 0 2.3-.3 2.7-.4l-.2-.8c-.6.1-1.4.4-2.3.4-1.6 0-2.1-.5-2.1-2.8m-4.9 3.2h1v-7.6c0-4.2-2.6-4.9-5-4.9-1.6 0-3.3.1-5.2.4v12.1h1V30.2c1.5-.3 3.3-.4 4.3-.4 2.9 0 4.1 1.4 4.1 4.3v7.4zm-22.1-5.6h10.4v-.4c0-4.6-2.3-6.4-5.7-6.4-4.3 0-5.7 2.7-5.7 6.4 0 4.6 1.9 6.5 6.1 6.5 1.6 0 3.3-.2 4.6-.4l-.2-.8c-1.2.2-2.4.4-4.2.4-3-.1-5.3-1.2-5.3-5.3m.1-.8c0-4.2 2.2-5.3 4.7-5.3 2.7 0 4.7 1.5 4.7 5.3h-9.4zM89 41.9c1.4 0 2.7-.1 4-.3l-.2-.8c-1.3.2-2.4.3-3.3.3-4.1 0-5.4-1.4-5.4-5.7 0-2.7.6-5.5 5.1-5.5 1 0 1.5 0 3.3.3l.2-.8c-1.2-.2-2.6-.3-3.7-.3-3.8 0-6 1.5-6 6.6 0 4.4 1.8 6.1 5.1 6.3.3-.1.6-.1.9-.1m-6.1-.4l-6.4-7.3 5.1-4.8h-1.2l-6.9 6.4V24.5h-1v17h1V37l2.3-2.2 5.9 6.7h1.2zM69.4 25.4c0-.5-.2-.9-.8-.9-.6 0-.8.4-.8.9s.2.9.8.9c.7 0 .8-.4.8-.9m-8.6 12.9v-8.1h4.5v-.8h-4.5v-4.5h-1v13.5c0 3.1 1.3 3.5 2.9 3.5 1.3 0 2.3-.3 2.7-.4l-.2-.8c-.6.1-1.4.4-2.3.4-1.7 0-2.1-.5-2.1-2.8m-11.5-6c0-1.9 1.6-2.5 3.8-2.5 1.6 0 2.7.2 3.6.4l.1-.8c-.8-.2-2.1-.4-3.8-.4-2.6 0-4.6.9-4.6 3.3 0 2.6 2.5 3.1 4.3 3.5l.4.1c1.9.4 3.5.8 3.5 2.9 0 1.9-2.1 2.4-4.4 2.4-1.5 0-2.9-.3-4-.4l-.1.9c1.3.2 2.7.4 4.4.4 2.4 0 5-.4 5-3.3 0-2.7-2.1-3.3-4.5-3.7-1.9-.6-3.7-1-3.7-2.8m-3.5-6.9c0-.5-.2-.9-.8-.9-.6 0-.8.4-.8.9s.2.9.8.9c.7 0 .8-.4.8-.9m-8.6 12.9v-8.1h4.5v-.8h-4.5v-4.5h-1v13.5c0 3.1 1.3 3.5 2.9 3.5 1.3 0 2.3-.3 2.7-.4l-.2-.8c-.6.1-1.4.4-2.3.4-1.6 0-2.1-.5-2.1-2.8m-8.8 3.6c1.4 0 3-.1 4.9-.4v-7.8c0-3.9-2.6-4.8-5.3-4.8-1.3 0-2.5.1-4.1.4l.2.8c1.7-.4 2.6-.4 3.7-.4 2.9 0 4.5.8 4.5 4.5-.8 0-2.2-.1-3-.1-4.4 0-6.8.9-6.8 3.9 0 2.9 2 3.9 5.9 3.9m3.9-1.1c-1.3.1-3 .2-3.9.2-3.6 0-4.9-.8-4.9-3.1s1.9-3.1 5.5-3.1c.8 0 2.3.1 3.3.2v5.8zm-15.7-2.5v-8.1h4.5v-.8h-4.5v-4.5h-1v13.5c0 3.1 1.3 3.5 2.9 3.5 1.3 0 2.3-.3 2.7-.4l-.2-.8c-.6.1-1.4.4-2.3.4-1.6 0-2.1-.5-2.1-2.8m-3.5-.8c0-3.5-2.5-4-5.6-4.6-2.9-.6-4.9-1.1-4.9-3.8 0-2.6 2.4-3.3 4.9-3.3 1.4 0 2.3.2 4 .5.1-.2.1-.5.2-.9-1.4-.3-2.7-.5-4.6-.5-2.7 0-5.5.9-5.5 4.1 0 3.6 3.1 4.2 5.7 4.7 2.4.5 4.8.6 4.8 3.7 0 3.3-3.7 3.5-5.3 3.5-2 0-3.6-.3-5.5-.8l-.2 1c1.6.4 3.9.7 5.5.7 2.8.1 6.5-.6 6.5-4.3m32.4 4V29.4h-1v12.1h1zm23.6 0V29.4h-1v12.1h1z" fill="#231f20"/>
  <path class="st1" d="M193.3 7.1s1.7-.3 1.7 1.8v11.7s0 .3-.3.4l-1.4.3s-1.7.3-1.7-1.8V8.7s0-1.3 1.2-1.5l.5-.1M188.5 13.5s1.7-.3 1.7 1.8v6.2s0 .3-.3.4l-1.4.3s-1.7.3-1.7-1.8v-5.2s0-1.3 1.2-1.5l.5-.2M198.2.5s-1.7.3-1.7 2.4v17.3s0 .3.3.3l1.4-.2s1.7-.3 1.7-2.5V1.4s0-1.3-1.2-1l-.5.1M203 5.2s-1.7.3-1.7 2.5v11.7s0 .3.3.3l1.4-.2s1.7-.3 1.7-2.5V6.2s0-1.3-1.2-1h-.5M207.7 9.9s-1.7.3-1.7 2.4v6.2s0 .3.3.3l1.4-.2s1.7-.3 1.7-2.4V11s0-1.3-1.2-1l-.5-.1"/>
  <path class="st2" d="M203 35s-1.7.3-1.7-1.8V21.5s0-.3.3-.4l1.4-.3s1.7-.3 1.7 1.8v10.8s0 1.3-1.2 1.5l-.5.1M207.6 28.6s-1.6.3-1.6-1.8v-6.2s0-.3.3-.4l1.3-.3s1.6-.3 1.6 1.8v5.2s0 1.3-1.2 1.5l-.4.2M198.1 41.6s1.7-.3 1.7-2.4V21.9s0-.3-.3-.3l-1.4.2s-1.7.3-1.7 2.5v16.4s0 1.3 1.2 1l.5-.1M193.3 36.9s1.7-.3 1.7-2.5V22.7s0-.3-.3-.3l-1.4.2s-1.7.3-1.7 2.5v10.8s0 1.3 1.2 1h.5M188.5 32.2s1.7-.3 1.7-2.4v-6.2s0-.3-.3-.3l-1.4.2s-1.7.3-1.7 2.4v5.2s0 1.3 1.2 1l.5.1"/>
</svg>
