<svg version="1.1" id="Layer_1" xmlns="http://www.w3.org/2000/svg" x="0" y="0" viewBox="0 0 203 42" xml:space="preserve">
  <style>
    .st1{fill:#0078b1}.st2{fill:#b1b3b5}
  </style>
  <path d="M.7 41.1c1.6.4 3.9.7 5.5.7 2.8 0 6.6-.6 6.6-4.4 0-3.5-2.5-4-5.6-4.6-2.9-.6-5-1.1-5-3.8 0-2.6 2.4-3.3 4.9-3.3 1.4 0 2.3.2 4 .5.1-.2.1-.5.2-.9-1.4-.3-2.7-.5-4.6-.5-2.7 0-5.5.9-5.5 4.1 0 3.6 3.1 4.2 5.7 4.8 2.4.5 4.8.6 4.8 3.7 0 3.3-3.7 3.5-5.3 3.5-2.1 0-3.6-.3-5.5-.8l-.2 1m14.5-2.9c0 3.1 1.3 3.5 2.9 3.5 1.3 0 2.3-.3 2.7-.4l-.2-.8c-.6.1-1.4.4-2.3.4-1.6 0-2.1-.5-2.1-2.7v-8.1h4.5v-.8h-4.5v-4.5h-1v13.4zm6.9-.3c0 2.9 1.9 3.9 5.8 3.9 1.4 0 3-.1 4.9-.4v-7.8c0-3.9-2.6-4.8-5.3-4.8-1.3 0-2.5.1-4.1.4l.2.8c1.7-.4 2.6-.4 3.7-.4 2.9 0 4.5.8 4.5 4.5-.8 0-2.2-.1-3-.1-4.3 0-6.7.9-6.7 3.9m9.8 2.8c-1.3.1-3 .2-3.9.2-3.6 0-4.9-.8-4.9-3.1s1.9-3.1 5.5-3.1c.8 0 2.3.1 3.3.2v5.8zm3.9-2.5c0 3.1 1.3 3.5 2.9 3.5 1.3 0 2.3-.3 2.7-.4l-.2-.8c-.6.1-1.4.4-2.3.4-1.6 0-2.1-.5-2.1-2.7v-8.1h4.5v-.8h-4.5v-4.5h-1v13.4zm8.4-9v12.2h1V29.2h-1zm1.2-4c0-.5-.2-.9-.8-.9-.6 0-.8.4-.8.9s.2.9.8.9c.7.1.8-.4.8-.9m2.3 16.2c1.3.2 2.7.4 4.4.4 2.4 0 5-.4 5-3.3 0-2.7-2.1-3.3-4.5-3.7-1.9-.4-3.7-.7-3.7-2.6 0-1.9 1.6-2.5 3.8-2.5 1.6 0 2.7.2 3.6.4l.1-.8c-.8-.2-2.1-.4-3.8-.4-2.6 0-4.6.9-4.6 3.3 0 2.6 2.5 3.1 4.3 3.5l.4.1c1.9.4 3.5.8 3.5 2.9 0 1.9-2.1 2.4-4.4 2.4-1.5 0-2.9-.3-4-.4l-.1.7zm11.7-3.2c0 3.1 1.3 3.5 2.9 3.5 1.3 0 2.3-.3 2.7-.4l-.2-.8c-.6.1-1.4.4-2.3.4-1.6 0-2.1-.5-2.1-2.7v-8.1h4.5v-.8h-4.5v-4.5h-1v13.4zm8.4-9v12.2h1V29.2h-1zm1.2-4c0-.5-.2-.9-.8-.9-.6 0-.8.4-.8.9s.2.9.8.9c.8.1.8-.4.8-.9m12.2 15.5c-1.3.2-2.4.3-3.3.3-4.1 0-5.4-1.4-5.4-5.7 0-2.7.6-5.5 5.1-5.5 1 0 1.5 0 3.3.3l.2-.8c-1.2-.2-2.6-.3-3.7-.3-3.8 0-6 1.5-6 6.6 0 4.4 1.8 6.1 5.1 6.3h.8c1.4 0 2.7-.1 4-.3l-.1-.9zm1.1.7c1.3.2 2.7.4 4.4.4 2.4 0 5-.4 5-3.3 0-2.7-2.1-3.3-4.5-3.7-1.9-.4-3.7-.7-3.7-2.6 0-1.9 1.6-2.5 3.8-2.5 1.6 0 2.7.2 3.6.4l.1-.8c-.8-.2-2.1-.4-3.8-.4-2.6 0-4.6.9-4.6 3.3 0 2.6 2.5 3.1 4.3 3.5l.4.1c1.9.4 3.5.8 3.5 2.9 0 1.9-2.1 2.4-4.4 2.4-1.5 0-2.9-.3-4-.4l-.1.7zm27.5-16.2H98.6v16.2h1v-7.7h8.9v-.9h-8.9V26h10.2v-.8zm2.5 4v12.2h1V29.2h-1zm1.3-4c0-.5-.2-.9-.8-.9-.6 0-.8.4-.8.9s.2.9.8.9c.7.1.8-.4.8-.9m4.1 4.9c1.5-.3 3.3-.4 4.3-.4 2.9 0 4.1 1.4 4.1 4.3v7.4h1v-7.6c0-4.2-2.6-4.9-5-4.9-1.6 0-3.3.1-5.2.4v12.2h1V30.1zm12.3 9c0 2.1 1.3 2.7 2.9 2.7 1.2 0 1.8-.2 2.7-.4l-.2-.8c-.8.2-1.4.4-2.3.4-1.6 0-2.1-.5-2.1-2.8V24.3h-1v14.8zm6.5-1.2c0 2.9 1.9 3.9 5.8 3.9 1.4 0 3-.1 4.9-.4v-7.8c0-3.9-2.6-4.8-5.3-4.8-1.3 0-2.5.1-4.1.4l.2.8c1.7-.4 2.6-.4 3.7-.4 2.9 0 4.5.8 4.5 4.5-.8 0-2.2-.1-3-.1-4.3 0-6.7.9-6.7 3.9m9.7 2.8c-1.3.1-3 .2-3.9.2-3.6 0-4.9-.8-4.9-3.1s1.9-3.1 5.5-3.1c.8 0 2.3.1 3.3.2v5.8zm4.9-10.6c1.5-.3 3.3-.4 4.3-.4 2.9 0 4.1 1.4 4.1 4.3v7.4h1v-7.6c0-4.2-2.6-4.9-5-4.9-1.6 0-3.3.1-5.2.4v12.2h1V30.1zm11.5 5.1c0 4.9 2.3 6.5 6.6 6.5 1.1 0 2.6-.2 4.1-.4v-17h-1v4.9c-1.1-.3-2.9-.4-3.9-.4-3.3 0-5.8 1.9-5.8 6.4m9.8 5.5c-1.3.2-2.3.2-3 .2-3.7 0-5.8-1.2-5.8-5.8 0-3.8 1.6-5.5 5.3-5.5.9 0 2.5.2 3.5.4v10.7z" fill="#231f20"/>
  <path class="st1" d="M186.7 7.1s1.7-.3 1.7 1.8v11.7s0 .3-.3.4l-1.4.3s-1.7.3-1.7-1.8V8.8s0-1.3 1.2-1.5l.5-.2M181.9 13.4s1.7-.3 1.7 1.8v6.2s0 .3-.3.4l-1.4.3s-1.7.3-1.7-1.8v-5.2s0-1.3 1.2-1.5l.5-.2M191.6.5s-1.7.3-1.7 2.4v17.3s0 .3.3.3l1.4-.2s1.7-.3 1.7-2.4V1.6s0-1.3-1.2-1l-.5-.1M196.4 5.2s-1.7.3-1.7 2.4v11.7s0 .3.3.3l1.4-.2s1.7-.3 1.7-2.4V6.3s0-1.3-1.2-1l-.5-.1M201.1 9.9s-1.7.3-1.7 2.4v6.1s0 .3.3.3l1.3-.2s1.7-.3 1.7-2.4v-5.2s0-1.3-1.2-1h-.4"/>
  <path class="st2" d="M196.4 34.9s-1.7.3-1.7-1.8V21.4s0-.3.3-.4l1.4-.3s1.7-.3 1.6 1.8v10.7s0 1.3-1.2 1.5l-.4.2M201 28.5s-1.6.3-1.6-1.8v-6.2s0-.3.3-.4l1.3-.3s1.6-.3 1.6 1.8v5.2s0 1.3-1.2 1.5l-.4.2M191.5 41.5s1.7-.3 1.7-2.4V21.8s0-.3-.3-.3l-1.4.2s-1.7.3-1.7 2.4v16.3s0 1.3 1.2 1l.5.1M186.7 36.7s1.7-.3 1.7-2.4V22.6s0-.3-.3-.3l-1.4.2s-1.7.3-1.7 2.4v10.7s0 1.3 1.2 1l.5.1M182 32.1s1.7-.3 1.7-2.4v-6.1s0-.3-.3-.3l-1.3.2s-1.7.3-1.7 2.4v5.2s0 1.3 1.2 1h.4"/>
</svg>
