<svg xmlns="http://www.w3.org/2000/svg" viewBox="0 0 59 44">
  <path d="M16.4 20.9c2.1 5.2 7.2 8.8 13.1 8.8 5.8 0 10.8-3.6 13-8.7l-.3.1-.5-.2-.3.2-.4-.1-.3.2-.5-.2-.3.4-.5-.3-.4.4-.5-.2-.4.1-.3.3-.3.1-.3-.1-.3-.3h-.2l-.2.3h-.4l-.2.1h-.1c-1.6 1.5-3.7 2.5-6.1 2.5-2.4 0-4.6-1-6.2-2.6l-.1.1-.2-.3-.3.1h-.2l-.3.1-.2-.2-.3.2-.2-.3-.4.3-.3-.3-.5.3-.3-.3-.4-.2h-.4l-.5.2-.4-.1-.5-.3-.5.2-.2-.4h-.4l-.5.1zm26.5-1.5c.4-1.3.8-2.6.8-4 0-7.9-6.3-14.3-14.2-14.3-7.8 0-14.2 6.4-14.2 14.3 0 1.4.4 2.7.8 4h5.7c-.6-1.2-1-2.5-1-3.9 0-4.9 3.9-8.9 8.8-8.9s8.8 4 8.8 8.9c0 1.4-.4 2.7-1 3.9h5.5z" fill="#6dcff6"/>
  <path d="M4.2 34.6c.5 0 .8.1 1.2.4.3.2.4.7.4 1.2h1.5c0-.7-.3-1.3-1-1.7-.7-.3-1.4-.5-2.2-.5-.8 0-1.5.2-2 .7-.5.4-.8 1.1-.8 1.8 0 .6.2 1.2.6 1.6.4.4.9.6 1.7.8l2 .5c1 .2 1.4.6 1.4 1.4 0 .6-.2 1-.6 1.3-.4.3-.9.5-1.5.5-.8 0-1.5-.3-2.1-.8-.6-.5-.9-1.2-1.1-2.2h-.5V43h.5c0-.2 0-.4.1-.6.1-.2.2-.3.3-.3 0 0 .1 0 .1.1.8.5 1.7.8 2.7.8 1 0 1.7-.2 2.3-.7.5-.5.8-1.1.8-1.8 0-1.3-.7-2.2-2.1-2.5L4 37.5c-1-.3-1.5-.7-1.5-1.4 0-.4.1-.7.4-1 .2-.4.7-.5 1.3-.5M17.7 34.1l3 4.6 2.7-4.6h.7L21 39.3v2.4c0 .3 0 .6.1.6.1.1.3.1.6.1h.4v.6h-3.7v-.6h.4c.3 0 .6 0 .6-.1.1-.1.1-.3.1-.6v-2.2l-3.6-5.4h1.8zM34.8 34.1v5l3.4-3.3c.4-.3.8-.7 1.4-1.2.5-.3 1.1-.5 1.8-.5v.6c-.8 0-1.6.4-2.3 1.1l-1.8 1.7 3.1 4.3c.3.4.5.6.7.6h.5v.6h-2l-3.3-4.6-1.5 1.5V43h-2.5v-.6h.4c.3 0 .4 0 .6-.1.1-.1.2-.3.2-.5v-7.7h1.3zM53 38.6v3.3c0 .3.1.4.3.5h3.2c.3 0 .5-.1.6-.2.2-.2.2-.4.2-.6v-.3h.6V43h-7.5v-.6h.4c.3 0 .4 0 .6-.1.1-.1.2-.3.2-.5v-7.7H58v1.7h-.6v-.3c0-.2-.1-.5-.2-.6-.2-.2-.4-.2-.6-.2H53v3.4h2.4v.6H53z"/>
  <path fill="#03953f" d="M9.7 19.4l.4-.6.6.3.3-.2.2-.6.4.4.2-.4.2-.4.4.6.2-.2h.3l.1-.8.4.4.1-.7.4.4.2-.2.2-.3.4.1.3.2.1-.5.4.2.3-.6.3-.2.4.1.5.2.3-.1.3-.8.4.5.4-.5.4-.1.5.4.4-.1.4-.3.3-.6.6.5.3-.8.4.6.2-.7.3.5.2-.5.2.2h.3l.2.3.2-.6.3.4.2-.1.2-.2.3.2.3.1.2-.3.2-.3.3.5.2-.5.3.3.2-.2h.3l.2-.3.3.6.3.2.2-.5.3-.3.2.2.3.2h.3l.2-.5.3.5h.2l.3-.1.2.2.3-.1.3-.1.2.1.3-.4.3.1.2.4.3-.2.3-.4.2.6.3-.3.2.4.3-.4h.2l.3.4.3-.4.2.5.3-.5.1.7.3-.3.3-.4.2.7.2-.1.3-.4h.2l.3.2h.2l.2.1.2.6h.3l.3-.6.2-.2.4.2.3.7.4.1.5-.3.4.5.5-.6.3.9.5-.4.3.5.4-.2.3.4.5-.4.4.1.2.7.3.3.4.1.4-.1.3-.1.1.4h.3l.2.2h.3l.2.4.3-.1.4-.4.2.3.3.1.2.1.3.3.2.2.3-.3.2.4h.4l.3.5.5-.2.4.5z"/>
</svg>
