<?xml version="1.0" encoding="utf-8"?>
<!-- Generator: Adobe Illustrator 24.2.1, SVG Export Plug-In . SVG Version: 6.00 Build 0)  -->
<svg version="1.1" id="Layer_1" xmlns="http://www.w3.org/2000/svg" xmlns:xlink="http://www.w3.org/1999/xlink" x="0px" y="0px"
	 viewBox="0 0 566.5 130.5" style="enable-background:new 0 0 566.5 130.5;" xml:space="preserve">
<style type="text/css">
	.st0{fill:#F2665E;}
	.st1{fill:#00B1DC;}
</style>
<g>
	<polygon class="st0" points="432.5,0 432.5,68.7 475.8,68.7 475.8,57 447.8,57 447.8,39.8 472.8,39.8 472.8,27.6 447.8,27.6 
		447.8,11.9 475.8,11.9 475.8,0 	"/>
	<polygon class="st0" points="0,-0.1 0,15 18.9,15 18.9,68.7 34.1,68.7 34.1,15 53.3,15 53.3,-0.1 	"/>
	<path class="st0" d="M89.4,24.6L99.7,47H79L89.4,24.6z M86.3,0L54.2,68.7h14.7l4.4-9.5h32.1l4.4,9.5h14.8L92.4,0H86.3z"/>
	<polygon class="st0" points="202.1,0 171.8,27.6 141.5,0 135.5,0 135.5,68.7 150.9,68.7 150.9,29.2 171.8,48.1 192.7,29.1 
		192.7,68.7 208,68.7 208,0 	"/>
	<path class="st0" d="M243.2,36.9h13.7c6.9,0,12.4-5.4,12.4-12.3c0-6.8-5.5-12.4-12.4-12.4h-13.7V36.9z M228,68.7V0h28.7
		c13.7,0,24.8,11.1,24.8,24.8c0,13.6-10.9,24.7-24.4,24.7h-13.8v19.2H228z"/>
	<polygon class="st0" points="295.5,0 295.5,68.7 338.7,68.7 338.7,57 310.7,57 310.7,39.8 335.7,39.8 335.7,27.6 310.7,27.6 
		310.7,11.9 338.7,11.9 338.7,0 	"/>
	<path class="st0" d="M374.3,36.9H388c6.9,0,12.4-5.4,12.4-12.3c0-6.8-5.5-12.4-12.4-12.4h-13.7V36.9z M400.3,68.7l-11.2-19.2h-14.8
		v19.2H359V0h28.7c13.7,0,24.8,11.1,24.8,24.8c0,6.8-2.9,13.4-8,18.1l-1.1,1l14.5,24.8H400.3z"/>
	<polygon class="st1" points="295.5,96.5 295.5,130.5 303.4,130.5 303.4,116.2 315.8,116.2 315.8,110.1 303.4,110.1 303.4,102.3 
		317.5,102.3 317.5,96.5 	"/>
	<rect x="333.3" y="96.5" class="st1" width="8" height="34"/>
	<polygon class="st1" points="382.6,96.5 382.6,114.9 362.8,96.5 360.2,96.5 360.2,130.5 368.2,130.5 368.2,112 387.9,130.5 
		390.6,130.5 390.6,96.5 	"/>
	<polygon class="st1" points="409.5,96.5 409.5,130.5 431.4,130.5 431.4,123 417.5,123 417.5,96.5 	"/>
	<path class="st1" d="M459.9,108.5l5.6,11.3h-11.2L459.9,108.5z M458.3,96.5l-17,34h7.7l2.3-4.7h17.2l2.4,4.7h7.8l-17.2-34H458.3z"
		/>
	<path class="st1" d="M543,123.2h5.4c5.7,0,10.2-4.3,10.2-9.5c0-5.2-4.6-9.5-10.2-9.5H543V123.2z M535.1,130.5v-34h13.2
		c10,0,18.2,7.6,18.2,17s-8.2,17-18.2,17H535.1z"/>
	<g>
		<polygon class="st1" points="510,96.8 510,114.8 492,96.8 489.5,96.8 489.5,130.5 497.1,130.5 497.1,112.5 515,130.5 517.6,130.5 
			517.6,96.8 		"/>
		<path class="st1" d="M492.9,59.2c0-6,4.6-10.5,10.7-10.5s10.7,4.5,10.7,10.5c0,6-4.6,10.8-10.7,10.8S492.9,65.2,492.9,59.2"/>
	</g>
</g>
</svg>
