<?xml version="1.0" encoding="utf-8"?>
<!-- Generator: Adobe Illustrator 24.2.1, SVG Export Plug-In . SVG Version: 6.00 Build 0)  -->
<svg version="1.1" id="logo-fi" xmlns="http://www.w3.org/2000/svg" xmlns:xlink="http://www.w3.org/1999/xlink" x="0px" y="0px"
	 viewBox="0 0 266.5 80" style="enable-background:new 0 0 266.5 80;" xml:space="preserve">
<style type="text/css">
	.st0{fill:#4E008E;}
</style>
<path class="st0" d="M78,38.3v14.1h-2.8V38.3h-5.4v-2.4h13.5v2.4H78z M89,46.8c-0.8,0-1.8,0.1-2.7,0.3c-1.7,0.3-2.3,0.8-2.3,1.8
	s0.7,1.7,2.1,1.7c0.8,0,1.6-0.3,2.1-0.8c0.6-0.7,1-1.5,0.8-2.5L89,46.8L89,46.8z M91.5,44.9v4.4c0,1,0.1,2.1,0.3,3.1h-2.4
	c-0.1-0.6-0.1-1.1-0.1-1.7c-0.8,1.3-2.4,2-3.9,1.8c-2,0.1-3.8-1.3-3.9-3.2V49c0-2,1.1-3.1,4.5-3.7c1-0.1,2.1-0.3,3.1-0.3v-0.4
	c0.1-1.1-0.7-2.3-1.8-2.4h-0.4c-1.1-0.1-2.1,0.7-2.3,1.8v0.3H82c0.1-2.3,1.7-3.9,4.9-3.9C89.9,40.3,91.5,41.8,91.5,44.9z
	 M110.8,45.1v7.2h-2.7v-7c0-2.1-0.8-3-2.1-3c-1.5,0-2.5,1.3-2.5,3.5v6.3h-2.7v-7.3c0-1.7-0.7-2.7-2.1-2.7c-1.4,0-2.5,1.4-2.5,3.7
	v6.3h-2.7V40.4h2.5v1.4c0.7-1.1,2-1.7,3.2-1.7c1.6,0,2.8,0.7,3.5,2.1c0.7-1.4,2.3-2.3,3.8-2.1C109.3,40.3,110.8,42,110.8,45.1
	L110.8,45.1z M115.5,46.5c0,2.5,1.1,4.1,2.8,4.1s3-1.5,3-4.1s-1.1-4.1-3-4.1S115.5,43.9,115.5,46.5z M123.9,46.5
	c0,3.8-1.8,6.2-4.9,6.2c-1.4,0-2.7-0.7-3.4-1.8v5.8H113V40.6h2.5v1.5c0.7-1.3,2.1-2,3.5-2C122.1,40.3,123.9,42.7,123.9,46.5
	L123.9,46.5z M127.6,45.4h5.9c0.1-1.5-1.1-3-2.7-3.1h-0.3C129,42.3,127.9,43.2,127.6,45.4z M133.4,48.9h2.7
	c-0.6,2.4-2.8,4.1-5.4,3.9c-3.5,0-5.6-2.5-5.6-6.3c0-3.5,2.1-6.1,5.6-6.1c2.5-0.1,4.6,1.5,5.2,3.9c0.3,0.8,0.4,1.8,0.3,2.8h-8.6
	c0.1,2.7,1.4,3.8,3.1,3.8C132,50.8,133,50,133.4,48.9L133.4,48.9z M144.5,40.6V43c-0.3,0-0.6-0.1-1-0.1c-2.1,0-3.2,1.4-3.2,3.8v5.8
	h-2.7V40.7h2.4v1.7c0.7-1.3,2-2,3.4-1.8C143.8,40.4,144.1,40.4,144.5,40.6L144.5,40.6z M147.5,45.4h5.9c0.1-1.5-1.1-3-2.7-3.1h-0.3
	C148.7,42.3,147.6,43.2,147.5,45.4z M153.1,48.9h2.7c-0.6,2.4-2.8,4.1-5.4,3.9c-3.5,0-5.6-2.5-5.6-6.3c0-3.5,2.1-6.1,5.6-6.1
	c2.5-0.1,4.6,1.5,5.2,3.9c0.3,0.8,0.4,1.8,0.3,2.8h-8.6c0.1,2.7,1.4,3.8,3.1,3.8C152,50.7,153,50,153.1,48.9L153.1,48.9z
	 M159.6,45.4h5.9c0-1.7-1.3-3-3-3C160.8,42.4,159.6,43.7,159.6,45.4L159.6,45.4z M165.2,48.9h2.7c-0.6,2.4-2.8,4.1-5.4,3.9
	c-3.5,0-5.6-2.5-5.6-6.3c0-3.5,2.1-6.1,5.6-6.1c2.5-0.1,4.6,1.5,5.2,3.9c0.3,0.8,0.4,1.8,0.3,2.8h-8.6c0.1,2.7,1.4,3.8,3.1,3.8
	C164.1,50.7,165.1,50,165.2,48.9L165.2,48.9z M180,45.2v7.2h-2.7v-6.9c0-2.1-0.8-3-2.4-3c-1.6,0-2.7,1.1-2.7,3.4v6.5h-2.7V40.7h2.5
	v1.4c0.7-1.1,2.1-1.8,3.5-1.8C178.3,40.3,180,42,180,45.2L180,45.2z M192.8,52.8c-1.1,3-2.4,3.9-5.1,3.9c-0.4,0-0.8,0-1.3-0.1v-2.1
	c0.4,0.1,0.7,0.1,1.1,0.1c1.4,0,2.1-0.6,2.7-2.1l-4.4-11.8h2.8l3,8.7l3.1-8.7h2.7L192.8,52.8L192.8,52.8z M198.2,35.9h2.7v16.5h-2.7
	V35.9z M203,52.4V40.7h2.7v11.7H203z M203,38.5v-2.5h2.7v2.5H203z M210,46.5c0,2.5,1.1,4.1,3,4.1c1.8,0,3.1-1.5,3.1-4.1
	s-1.1-4.1-3.1-4.1S210,43.9,210,46.5L210,46.5z M218.7,46.5c0,3.8-2.3,6.2-5.8,6.2s-5.8-2.4-5.8-6.2s2.3-6.2,5.8-6.2
	C216.5,40.3,218.7,42.7,218.7,46.5z M222.8,46.5c0,2.5,1.1,4.1,2.8,4.1s3-1.5,3-4.1s-1.1-4.1-3-4.1S222.8,43.9,222.8,46.5z
	 M231.4,46.5c0,3.8-1.8,6.2-4.9,6.2c-1.4,0-2.7-0.7-3.4-1.8v5.8h-2.7V40.6h2.5v1.5c0.7-1.3,2.1-2,3.5-2
	C229.4,40.3,231.4,42.7,231.4,46.5z M233.1,52.4V40.7h2.7v11.7H233.1L233.1,52.4z M233.1,38.5v-2.5h2.7v2.5H233.1L233.1,38.5z
	 M246.9,44.2h-2.5c0.1-1.1-0.7-2-1.8-2.1h-0.4c-1.3,0-2,0.6-2,1.4s0.8,1.3,2.7,1.7c2.1,0.6,4.5,1.1,4.5,3.8c0,2.1-1.8,3.5-4.9,3.5
	c-3.1,0-5.1-1.4-5.1-4.2h2.7c-0.1,1.1,0.8,2.1,2,2.3h0.4c1.4,0,2.1-0.6,2.1-1.4c0-1.3-1-1.4-3-2s-4.1-1-4.1-3.5
	c0-2.1,1.8-3.5,4.6-3.5C244.9,40.1,246.8,41.7,246.9,44.2z M254.5,50.3v2.1c-0.4,0.1-1,0.1-1.4,0.1c-2.5,0-3.5-1-3.5-3.7v-6.2h-2v-2
	h2v-3h2.7v3h2.3v2h-2.3v5.9c0,1.3,0.4,1.8,1.5,1.8C253.9,50.3,254.4,50.3,254.5,50.3L254.5,50.3z M257.6,46.5c0,2.5,1.1,4.1,3.1,4.1
	s3-1.5,3-4.1s-1.1-4.1-3-4.1C258.9,42.4,257.6,43.9,257.6,46.5z M266.5,46.5c0,3.8-2.3,6.2-5.8,6.2c-3.5,0-5.8-2.4-5.8-6.2
	s2.3-6.2,5.8-6.2S266.5,42.7,266.5,46.5z M11,36h13v5H11V36z M34,41v19h-5V36h18v5H34z M53,36l5,0.1v15.5c0,7.6-3.1,14.8-8.5,20.1
	C44.1,77,36.7,80,29,80v-5c6.3,0,12.3-2.6,16.8-7c4.5-4.4,7.2-10.3,7.2-16.5V36z M24,5.3C13.1,7.7,5.3,17.2,5.3,28v13H0V28
	C0,14.3,10.1,2.5,24,0V5.3z"/>
</svg>
