<?xml version="1.0" encoding="utf-8"?>
<!-- Generator: Adobe Illustrator 26.5.0, SVG Export Plug-In . SVG Version: 6.00 Build 0)  -->
<svg version="1.1" id="Layer_1" xmlns="http://www.w3.org/2000/svg" xmlns:xlink="http://www.w3.org/1999/xlink" x="0px" y="0px"
	 viewBox="0 0 2101 598" style="enable-background:new 0 0 2101 598;" xml:space="preserve">
<style type="text/css">
	.st0{fill:#006FB8;}
	.st1{fill:#009BD9;}
	.st2{fill:#20C4F4;}
</style>
<g>
	<path class="st0" d="M49.3,53.8h133.5c9.5,0,12.2,3.3,14.5,8.7c1.3,3,80.3,192,80.3,192L85.3,140.4L49.3,53.8z"/>
</g>
<g>
	<polygon class="st1" points="89.6,150.5 281.6,264.2 309,330.2 193.4,399 	"/>
</g>
<g>
	<polygon class="st2" points="196.1,404.7 311.7,336.1 329.2,378.4 259.1,556.5 	"/>
</g>
<g>
	<path class="st0" d="M665.5,53.8H532.1c-9.5,0-12.2,3.3-14.5,8.7c-1.3,3-80.3,192-80.3,192l192.3-114.2L665.5,53.8z"/>
</g>
<g>
	<polygon class="st1" points="625.2,150.5 433.2,264.2 405.9,330.2 521.5,399 	"/>
</g>
<g>
	<polygon class="st2" points="518.7,404.7 403.1,336.1 385.6,378.4 455.7,556.5 	"/>
</g>
<g>
	<g>
		<path d="M920.6,358.2h-35.5v97.4h-16.4v-97.4h-35.2v-14.4h87V358.2z"/>
		<path d="M974.2,374.4l-1.8,14.7h-4.9c-6.2,0-15.6,3-28.4,9.1v57.4h-15.7v-79.1h12.2l1.6,12c11.8-9.4,22.8-14.1,33.2-14.1H974.2z"
			/>
		<path d="M992.7,389.6l-1.5-11.5c14.3-2.5,27.1-3.7,38.4-3.7c9.6,0,16.7,1.9,21.2,5.8c4.5,3.9,6.8,10.6,6.8,20.3v55.1h-12.3
			l-1.8-12.5c-9.1,9.3-19.6,13.9-31.6,13.9c-7.3,0-13.2-1.9-17.6-5.8c-4.4-3.9-6.6-9.4-6.6-16.5v-8.3c0-6.3,1.9-11.1,5.8-14.6
			c3.9-3.5,9.4-5.2,16.5-5.2h31.8v-6.2c-0.1-4.9-1.2-8.2-3.4-10c-2.2-1.8-6.3-2.8-12.3-2.8C1020.3,387.6,1009.1,388.3,992.7,389.6z
			 M1003.7,428.5v4.2c0,3.9,0.9,6.7,2.8,8.4c1.8,1.7,4.8,2.6,8.8,2.6c9.4,0,18.3-3.7,26.7-11v-14.3h-28.8c-3.5,0.1-5.9,1-7.3,2.7
			C1004.4,422.8,1003.7,425.2,1003.7,428.5z"/>
		<path d="M1134.6,352.2h-16c-4.9,0-8.3,0.9-10.3,2.8c-2,1.8-3,5-3,9.6v12h24.5v12.2h-24.5v66.9h-15.7v-66.9h-14.3v-11.3l14.3-0.8
			v-13.8c0-7.7,1.8-13.5,5.5-17.4c3.7-3.9,9.7-5.9,18-5.9c10.2,0,17.8,0.4,22.8,1.1L1134.6,352.2z"/>
		<path d="M1155.3,342.8h7.5c3,0,4.5,1.5,4.5,4.5v9.1c0,3.1-1.5,4.7-4.5,4.7h-7.5c-3,0-4.5-1.6-4.5-4.7v-9.1
			C1150.8,344.3,1152.3,342.8,1155.3,342.8z M1166.8,455.5h-15.6v-79.1h15.6V455.5z"/>
		<path d="M1216.6,416.6h-9.9c0.5,4.6,0.8,8.8,0.8,12.3v26.6h-15.7V342.1h15.9v49.7c0,4.6-0.3,9.1-1,13.5h9.7l23.8-28.8h18.2
			l-23.8,28.7c-1.4,1.9-3.3,3.9-5.8,5.8v0.3c2.1,1.6,4,3.9,5.8,6.8l26.4,37.4h-18.2L1216.6,416.6z"/>
		<path d="M1292.9,342.1v90.6c-0.1,3.4,0.7,5.9,2.4,7.5c1.7,1.7,4.3,2.5,7.8,2.5h7.3l1.8,12.2c-3.1,1.4-8.2,2.1-15.1,2.1
			c-6.2,0-11-1.8-14.6-5.4c-3.6-3.6-5.3-8.7-5.3-15.3v-94.2H1292.9z"/>
		<path d="M1376.6,423.6h-35.5c0.8,8.2,2.9,13.7,6.4,16.5c3.5,2.8,9.3,4.2,17.3,4.2c7,0,16.3-0.7,27.7-1.9l1.5,10.4
			c-7.1,3.1-17.6,4.7-31.3,4.7c-13.8,0-23.6-3.1-29.4-9.4c-5.8-6.3-8.7-17-8.7-32.2c0-15.3,2.8-26.1,8.5-32.2
			c5.7-6.2,15-9.2,28.1-9.2c12.1,0,20.9,2.2,26.4,6.6c5.5,4.4,8.3,11.1,8.3,19.9C1395.9,416.1,1389.5,423.6,1376.6,423.6z
			 M1341,411.5h31.4c5.2,0,7.8-3.5,7.8-10.5c-0.1-4.9-1.5-8.3-4.1-10.3c-2.6-2-7.3-3-14-3c-7.8,0-13.2,1.6-16.2,4.9
			C1342.8,395.9,1341.2,402.2,1341,411.5z"/>
		<path d="M1474.1,455.5l-1.3-10.9c-10.2,8.5-20.5,12.8-31.1,12.8c-9.7,0-16.8-3.5-21.1-10.5c-4.4-7-6.6-17.4-6.6-31.4
			c0-15.1,2.4-25.8,7.3-32c4.9-6.2,12.5-9.3,22.8-9.3c9.9,0,19,2.4,27.2,7.1c-0.4-4.6-0.6-9.8-0.6-15.6v-23.8h15.7v113.4H1474.1z
			 M1470.7,434v-42.1c-9.8-2.6-17.4-3.9-22.7-3.9c-6.7,0-11.3,1.9-13.9,5.6c-2.6,3.7-3.9,11-3.9,22c0,10.9,1.3,18.4,3.8,22.4
			c2.5,4,6.9,6,13,6c4,0,7.5-0.7,10.6-2.1S1465.1,437.8,1470.7,434z"/>
		<path d="M1546.5,424.4l-22-5.5c-6.6-1.7-11.2-4.3-13.9-7.7c-2.7-3.4-4.1-8.3-4.1-14.8c0-8.8,2.4-14.6,7-17.7
			c4.7-3,12.8-4.5,24.2-4.4c12.6,0.2,23.9,1.1,33.7,2.8l-1.3,11.3c-16.5-0.5-26.5-0.8-30-0.8c-7.7,0-12.7,0.5-15,1.4
			c-2.3,0.9-3.5,3.4-3.5,7.4c0,1.8,0.2,3.3,0.5,4.5c0.3,1.1,1.2,2.1,2.5,2.8c1.3,0.8,2.4,1.3,3.2,1.5c0.8,0.3,2.4,0.8,5,1.5
			l22.4,5.5c6.7,1.7,11.5,4.2,14.3,7.4c2.8,3.2,4.2,8.1,4.2,14.8c0,9.3-2.6,15.4-7.7,18.4c-5.1,3-14,4.5-26.7,4.5
			c-11,0-21.5-0.8-31.4-2.3l1.1-11.7c6.1,0.5,15.1,0.8,27.1,0.8c8.9,0,14.8-0.6,17.8-1.9c3-1.2,4.5-3.9,4.5-7.9
			c0-1.7-0.2-3.2-0.6-4.3c-0.4-1.1-1.4-2.1-2.8-2.8c-1.4-0.8-2.5-1.3-3.3-1.5C1550.9,425.5,1549.2,425.1,1546.5,424.4z"/>
		<path d="M1669.2,376.5l-28.2,75.2c-1.1,2.6-2.9,3.9-5.5,3.9h-14.1c-2.7,0-4.5-1.3-5.3-3.9l-28.2-75.2h16.7l18.5,54.4l4.4,13.6h2.1
			l4.7-13.6l18.3-54.4H1669.2z"/>
		<path d="M1732.8,423.6h-35.5c0.8,8.2,2.9,13.7,6.4,16.5c3.5,2.8,9.3,4.2,17.3,4.2c7,0,16.3-0.7,27.7-1.9l1.5,10.4
			c-7.1,3.1-17.6,4.7-31.3,4.7c-13.8,0-23.6-3.1-29.4-9.4c-5.8-6.3-8.7-17-8.7-32.2c0-15.3,2.8-26.1,8.5-32.2
			c5.7-6.2,15-9.2,28.1-9.2c12.1,0,20.9,2.2,26.4,6.6c5.5,4.4,8.3,11.1,8.3,19.9C1752.1,416.1,1745.7,423.6,1732.8,423.6z
			 M1697.2,411.5h31.4c5.2,0,7.8-3.5,7.8-10.5c-0.1-4.9-1.5-8.3-4.1-10.3c-2.6-2-7.3-3-14-3c-7.8,0-13.2,1.6-16.2,4.9
			C1699,395.9,1697.4,402.2,1697.2,411.5z"/>
		<path d="M1823.3,374.4l-1.8,14.7h-4.9c-6.2,0-15.6,3-28.4,9.1v57.4h-15.7v-79.1h12.2l1.6,12c11.8-9.4,22.8-14.1,33.2-14.1H1823.3z
			"/>
		<path d="M1865.6,416.6h-9.9c0.5,4.6,0.8,8.8,0.8,12.3v26.6h-15.7V342.1h15.9v49.7c0,4.6-0.3,9.1-1,13.5h9.7l23.8-28.8h18.2
			l-23.8,28.7c-1.4,1.9-3.3,3.9-5.8,5.8v0.3c2.1,1.6,4,3.9,5.8,6.8l26.4,37.4h-18.2L1865.6,416.6z"/>
		<path d="M1971.7,423.6h-35.5c0.8,8.2,2.9,13.7,6.4,16.5c3.5,2.8,9.3,4.2,17.3,4.2c7,0,16.3-0.7,27.7-1.9l1.5,10.4
			c-7.1,3.1-17.6,4.7-31.3,4.7c-13.8,0-23.6-3.1-29.4-9.4c-5.8-6.3-8.7-17-8.7-32.2c0-15.3,2.8-26.1,8.5-32.2
			c5.7-6.2,15-9.2,28.1-9.2c12.1,0,20.9,2.2,26.4,6.6c5.5,4.4,8.3,11.1,8.3,19.9C1991,416.1,1984.6,423.6,1971.7,423.6z
			 M1936.1,411.5h31.4c5.2,0,7.8-3.5,7.8-10.5c-0.1-4.9-1.5-8.3-4.1-10.3c-2.6-2-7.3-3-14-3c-7.8,0-13.2,1.6-16.2,4.9
			C1937.9,395.9,1936.3,402.2,1936.1,411.5z"/>
		<path d="M2058.1,442.7l1.8,12.2c-5,1.4-11.2,2.1-18.6,2.1c-6.7,0-11.8-1.9-15.3-5.8c-3.5-3.8-5.3-9.3-5.3-16.4v-46.2h-14.4v-11.3
			l14.4-0.6v-23.3h15.6v23.2h24.5v12.2h-24.5v44.1c0,3.7,0.8,6.3,2.3,7.8s4.2,2.3,8,2.3H2058.1z"/>
	</g>
	<g>
		<path d="M926.5,143.7L893.4,251c-1,3-3,4.5-6.2,4.5h-15.9c-3.1,0-5.2-1.5-6.2-4.5l-33.1-107.3h16.7l25.3,87
			c0.5,2.1,1.6,6.2,3.1,12.3h4.4c0.6-3.1,1.7-7.2,3.1-12.3l25.1-87H926.5z"/>
		<path d="M940.4,189.6l-1.5-11.5c14.3-2.5,27.1-3.7,38.4-3.7c9.6,0,16.7,1.9,21.2,5.8c4.5,3.9,6.8,10.6,6.8,20.3v55.1h-12.3
			l-1.8-12.5c-9.1,9.3-19.6,13.9-31.6,13.9c-7.3,0-13.2-1.9-17.6-5.8c-4.4-3.9-6.6-9.4-6.6-16.5v-8.3c0-6.3,1.9-11.1,5.8-14.6
			s9.4-5.2,16.5-5.2h31.8v-6.2c-0.1-4.9-1.2-8.2-3.4-10c-2.2-1.8-6.3-2.8-12.3-2.8C968,187.6,956.8,188.3,940.4,189.6z M959.5,160.7
			h-5.3c-2.7,0-4.1-1.5-4.1-4.4v-8.8c0-2.9,1.3-4.4,4.1-4.4h5.3c2.8,0,4.2,1.5,4.2,4.4v8.8C963.7,159.3,962.3,160.7,959.5,160.7z
			 M951.4,228.5v4.2c0,3.9,0.9,6.7,2.8,8.4c1.8,1.7,4.8,2.6,8.8,2.6c9.4,0,18.3-3.7,26.7-11v-14.3h-28.8c-3.5,0.1-5.9,1-7.3,2.7
			C952.1,222.8,951.4,225.2,951.4,228.5z M988.2,160.7H983c-2.8,0-4.2-1.5-4.2-4.4v-8.8c0-2.9,1.4-4.4,4.2-4.4h5.2
			c2.9,0,4.4,1.5,4.4,4.4v8.8C992.6,159.3,991.1,160.7,988.2,160.7z"/>
		<path d="M1101.3,176.4l-30.6,82.8c-7.3,19.4-19.4,29.3-36.3,29.5l-1.6-10.4c6.2-1.8,11-4.4,14.6-7.6c3.6-3.2,6.4-7.3,8.6-12.3
			l1.1-2.9h-3.2c-3,0-4.9-1.3-5.5-4l-28-75h16.9l19.6,57.5c1.3,3.4,2.2,6.6,2.8,9.7h2.3c1.1-2.9,2.2-6.2,3.2-9.7l19.4-57.5H1101.3z"
			/>
		<path d="M1134.7,142.1v90.6c-0.1,3.4,0.7,5.9,2.4,7.5c1.7,1.7,4.3,2.5,7.8,2.5h7.3l1.8,12.2c-3.1,1.4-8.2,2.1-15.1,2.1
			c-6.2,0-11-1.8-14.6-5.4c-3.6-3.6-5.3-8.7-5.3-15.3v-94.2H1134.7z"/>
		<path d="M1172.8,189.6l-1.5-11.5c14.3-2.5,27.1-3.7,38.4-3.7c9.6,0,16.7,1.9,21.2,5.8c4.5,3.9,6.8,10.6,6.8,20.3v55.1h-12.3
			l-1.8-12.5c-9.1,9.3-19.6,13.9-31.6,13.9c-7.3,0-13.2-1.9-17.6-5.8s-6.6-9.4-6.6-16.5v-8.3c0-6.3,1.9-11.1,5.8-14.6
			s9.4-5.2,16.5-5.2h31.8v-6.2c-0.1-4.9-1.2-8.2-3.4-10c-2.2-1.8-6.3-2.8-12.3-2.8C1200.4,187.6,1189.2,188.3,1172.8,189.6z
			 M1191.9,160.7h-5.3c-2.7,0-4.1-1.5-4.1-4.4v-8.8c0-2.9,1.3-4.4,4.1-4.4h5.3c2.8,0,4.2,1.5,4.2,4.4v8.8
			C1196.1,159.3,1194.7,160.7,1191.9,160.7z M1183.8,228.5v4.2c0,3.9,0.9,6.7,2.8,8.4c1.8,1.7,4.8,2.6,8.8,2.6
			c9.4,0,18.3-3.7,26.7-11v-14.3h-28.8c-3.5,0.1-5.9,1-7.3,2.7C1184.5,222.8,1183.8,225.2,1183.8,228.5z M1220.6,160.7h-5.2
			c-2.8,0-4.2-1.5-4.2-4.4v-8.8c0-2.9,1.4-4.4,4.2-4.4h5.2c2.9,0,4.4,1.5,4.4,4.4v8.8C1224.9,159.3,1223.5,160.7,1220.6,160.7z"/>
		<path d="M1333.9,176.4l-28.2,75.2c-1.1,2.6-2.9,3.9-5.5,3.9h-14.1c-2.7,0-4.5-1.3-5.3-3.9l-28.2-75.2h16.7l18.5,54.4l4.4,13.6h2.1
			l4.7-13.6l18.3-54.4H1333.9z"/>
		<path d="M1355.7,142.7h7.5c3,0,4.5,1.5,4.5,4.5v9.1c0,3.1-1.5,4.7-4.5,4.7h-7.5c-3,0-4.5-1.6-4.5-4.7v-9.1
			C1351.2,144.2,1352.7,142.7,1355.7,142.7z M1367.2,255.5h-15.6v-79.1h15.6V255.5z"/>
		<path d="M1442.9,174.3l-1.8,14.7h-4.9c-6.2,0-15.6,3-28.4,9.1v57.4h-15.7v-79.1h12.2l1.6,12c11.8-9.4,22.8-14.1,33.2-14.1H1442.9z
			"/>
		<path d="M1461.4,189.6l-1.5-11.5c14.3-2.5,27.1-3.7,38.4-3.7c9.6,0,16.7,1.9,21.2,5.8c4.5,3.9,6.8,10.6,6.8,20.3v55.1h-12.3
			l-1.8-12.5c-9.1,9.3-19.6,13.9-31.6,13.9c-7.3,0-13.2-1.9-17.6-5.8c-4.4-3.9-6.6-9.4-6.6-16.5v-8.3c0-6.3,1.9-11.1,5.8-14.6
			s9.4-5.2,16.5-5.2h31.8v-6.2c-0.1-4.9-1.2-8.2-3.4-10c-2.2-1.8-6.3-2.8-12.3-2.8C1489,187.6,1477.8,188.3,1461.4,189.6z
			 M1472.4,228.5v4.2c0,3.9,0.9,6.7,2.8,8.4c1.8,1.7,4.8,2.6,8.8,2.6c9.4,0,18.3-3.7,26.7-11v-14.3h-28.8c-3.5,0.1-5.9,1-7.3,2.7
			C1473.1,222.8,1472.4,225.2,1472.4,228.5z"/>
		<path d="M1586.2,224.4l-22-5.5c-6.6-1.7-11.2-4.3-13.9-7.7c-2.7-3.4-4.1-8.3-4.1-14.8c0-8.8,2.4-14.6,7-17.7
			c4.7-3,12.8-4.5,24.2-4.4c12.6,0.2,23.9,1.1,33.7,2.8l-1.3,11.3c-16.5-0.5-26.5-0.8-30-0.8c-7.7,0-12.7,0.5-15,1.4
			c-2.3,0.9-3.5,3.4-3.5,7.4c0,1.8,0.2,3.3,0.5,4.5c0.3,1.1,1.2,2.1,2.5,2.8c1.3,0.8,2.4,1.3,3.2,1.5c0.8,0.3,2.4,0.8,5,1.5
			l22.4,5.5c6.7,1.7,11.5,4.2,14.3,7.4c2.8,3.2,4.2,8.1,4.2,14.8c0,9.3-2.6,15.4-7.7,18.4c-5.1,3-14,4.5-26.7,4.5
			c-11,0-21.5-0.8-31.4-2.3l1.1-11.7c6.1,0.5,15.1,0.8,27.1,0.8c8.9,0,14.8-0.6,17.8-1.9c3-1.2,4.5-3.9,4.5-7.9
			c0-1.7-0.2-3.2-0.6-4.3c-0.4-1.1-1.4-2.1-2.8-2.8c-1.4-0.8-2.5-1.3-3.3-1.5C1590.6,225.5,1588.9,225.1,1586.2,224.4z"/>
		<path d="M1680.1,242.7l1.8,12.2c-5,1.4-11.2,2.1-18.6,2.1c-6.7,0-11.8-1.9-15.3-5.8c-3.5-3.8-5.3-9.3-5.3-16.4v-46.2h-14.4v-11.3
			l14.4-0.6v-23.3h15.6v23.2h24.5v12.2h-24.5v44.1c0,3.7,0.8,6.3,2.3,7.8c1.6,1.5,4.2,2.3,8,2.3H1680.1z"/>
		<path d="M1705.7,183.9c5.7-6.4,15.4-9.6,29.2-9.6c13.7,0,23.4,3.2,29.2,9.6c5.7,6.4,8.6,17.1,8.6,32.3c0,15.1-2.9,25.8-8.6,32.1
			c-5.7,6.3-15.5,9.4-29.2,9.4c-13.7,0-23.4-3.1-29.2-9.4c-5.7-6.3-8.6-17-8.6-32.1C1697.2,201,1700,190.3,1705.7,183.9z
			 M1751.8,193.6c-3-4-8.6-6-16.9-6c-8.2,0-13.8,2-16.9,6c-3,4-4.5,11.5-4.5,22.5c0,10.9,1.5,18.4,4.5,22.4c3,4,8.6,6,16.9,6
			c8.2,0,13.8-2,16.9-6c3-4,4.5-11.5,4.5-22.4C1756.3,205.1,1754.8,197.6,1751.8,193.6z"/>
	</g>
</g>
</svg>
