<svg viewBox="0 0 761.2 801.7" xmlns="http://www.w3.org/2000/svg">
  <style>
    .st1{fill:#fff}.st2{fill:#87bf5b}
  </style>
  <path d="M617 540.1c-116.7 36.7-510.8-112.4-427.5-274.8 87.3-170.1 353.4-249 444.7-209.2 120.3 52.6 124.8 439.4-17.2 484" fill="#0084ca"/>
  <path class="st1" d="M598.9 181.7c-19.3.8-36.2 13.9-36.2 33 0 7.4 3.8 17.4 9.3 23.4l11.5-2.3c-4.3-4.4-9.2-13-9.2-19.7.3-13.7 11.6-24.6 25.4-24.4 13.3.3 24.1 11 24.4 24.4 0 13.6-9.4 22.7-24.9 24.6-6.2.8-16.5-.9-30.2 5.5-9.9 4.6-14.4 12.5-15.4 19.4-1.2 8.3 4.3 16.6 7.7 24l4.4-13.6 4.4 14.3c2-2.4 3.9-4.9 5.7-7.5 2-3 6.2-10.5 3.8-17.9-1.7-5.5.1-13.4 6.6-13.2 14.7.4 23-2.4 23-2.4 14.6-4.5 24.5-17.9 24.6-33.1 0-19.1-15.7-35.4-34.9-34.5M617.6 145.1l-42 4.2-15.4 18 58.6-9.4 14.9-9.1zM432.6 231.4l-5.6-3.9-3.2-5.9-4.6 4-11.8 10-15.2-6.4.9 19.8 24.6 12.5-2.3-16z"/>
  <path class="st1" d="M423.3 259.8l19.2 10.1c.4-4.8 1.4-9.4 3-13.9 3.2-8.1 6.7-10 6.7-10l-18.2-9.2-12.7 11.5 2 11.5zM433.2 164.3l-1.1-9.3c.3-2.7 1.9-5.1 4.4-6.2l-.4-3.5-18.6 2.3.4 3.6c2.6.5 4.8 2.4 5.7 4.9l4.1 33.5c-.3 2.7-2 5-4.4 6.1l.4 3.6 18.6-2.3-.4-3.5c-2.7-.5-4.8-2.4-5.8-5l-1-8.5 17.8-1.7 12.7-11.1 2.2-6.5-34.6 3.6zM417.5 193.1c1.1-1.8 1.6-3.9 1.3-6-.3-2-1.3-14.1-1.3-14.1l-.6-8.1s0-7.1-4.4-6.6c-2.5.2-4.5 2.3-4.3 4.9v.2c-.1-1.1-.7-4.8-4.3-4.4-4.5.5-4 3.1-4.1 5.6-.2-.9-.4-5-5.2-4.5-3.4.3-3.6 3.4-3.6 4.7-.2-1.2-1-3.9-5.3-3.5-1.9.4-3.3 2.1-3.1 4.1 0 .1 0 .4.1.8l-5 .6c-9.2.8-12.5 5.2-12.3 10.7.2 5.8 3.3 14.2 17.1 10.2l-1.4-3.3 3.4-.6c1.2-.3 2.4-.7 3.6-1.2 1-.6 1.9-1.4 2.6-2.4 1.3-1.9 2.2-4.1 2.5-6.4l1.2 8.3c.4-.1.8-.2 1.2-.4 1.2-.6 2.3-1.4 3.1-2.4 1.1-1.3 1.9-2.8 2.4-4.4.3-.9.3-1.8.2-2.8 2 1.6 4.1 2.9 6.4 3.9l-1.9 8c0 .4-20.2 7.1-20.2 7.1s.3.6 1.6 3.5c.7 1.7 1.7 3.3 2.9 4.7l4 24.7 13.3 5.9 10.8-10.2-2.5-23.7c.5-.3 1.6-2.6 1.8-2.9M548.5 170.3c4.7-7.2 10.7-13.4 17.7-18.3l-.4-.2c-6.1-2.6-13.2 0-16 6-.5-1.1-1.7-3.3-3.5-4.1-3-1.5-5.5-.6-7.3.4 1.9 1.6 3 3.9 3 6.3 0 4.3-1.9 7.8-4.3 7.9s-4.4-3.4-4.4-7.6c0-.9.1-1.7.2-2.5l-.3-.1c-.5.7-1.1 1.3-1.8 1.9-3.3 2.8-7.1 3.6-8.7 1.8s0-5.4 3.1-8.4 8.8-1.6 8.8-1.5c1.7-8.1-5.5-8-5.5-8 1.3-.5 2.6-3.6 2.7-5.5.4-5.2-1.9-8.5-2.8-8.9h-.2c-.9-.4-4.9.1-8.6 3.8-1.4 1.4-2.9 4.4-2.4 5.7 0 0-4.7-5.4-9.7 1.2.1 0 4.9 3.2 4.7 7.6s-1.9 7.8-4.3 7.9-4.4-3.4-4.4-7.6c0-.9.1-1.7.2-2.5l-.3-.1c-.5.7-1.1 1.3-1.8 1.9-3.3 2.8-7.1 3.6-8.7 1.8s-.1-5.6 3.1-8.4c1.9-1.6 4.4-2.3 6.8-1.9-.4-2.6-2.1-4.7-4.5-5.7-1.8-.7-4.3-.2-5.4.1 2.7-6.1 0-13.1-6-15.9l-.4-.2c.9 8.5.2 17.1-2.2 25.3-1.1 3.8-2.4 7.5-4.1 11.1-.8 1.6-.7 1.8-1.5 3.4l30.9 14c5.1-4.4 13.3-4.2 21.7-.4.5.2 1.3.6 1.8.8l-4 8.6 11.4 5.1c.6-1.6.9-2.1 1.6-3.8 1.7-4.3 3.6-7.7 5.8-11M450.2 200.1c-18.4 27.7 37.3-.5 41 20.9-10.4-9.1-22.4-2.4-35.5-.7-18.8 2.5-19.5-17.9-5.6-20.7l.1.5zM501.9 356.6c.1-2.5 2.6-2.8 6.1-3.7 0 0 25.9-6.8 27.3-6.7l-13.9-28.7c-7 1.6-17.2 5.3-24.1 7.3-28.6 7.9-22.5 17-20.9 25.6 0 0 1 9.7 1 10.1 0 7.1-3.7 10.7-7.5 14.9-4.4 4.9-14.6 8.6-14.6 8.6-2.5 1-11 3.8-13.9 2.7-5.2-1.9-6.4-9.3-8.3-16-1-5.7-3.8-11-8.1-15-7.6-7-19.2-10.9-29.4-4.3 2.6 1.1 6.5 1.9 10.1 4.4.1.1-.6.7-.9 1.1-1.8 1.9-2 6.9.9 8.9 3.9 2.7 12.2 8.6 12.2 8.6-3.2-.9-6.5-1.7-9.8-2.2-13.2-.2-20.4 5.4-24.7 14.5 4-1.9 8.3-3 12.7-3.5-.8 2.5.5 5.8 3.8 7.7 4.3 2.5 12.3 2 12.8 2-6.2 6.2-11.5 19.4-9.3 27.1 1.3-2.1 4.5-6.7 6.7-9.7.6-.8 3.7-2.7 4.6-3.3 1.3 1.8 2.9 3.3 4.8 4.4.6-8.4 7.8-14.8 16.3-14.3s14.8 7.8 14.3 16.3c-.3 4.6-2.7 8.9-6.5 11.6 1.6.1 3.2 0 4.8-.3 22.2-3.6 22.6-23.6 22.6-23.6 1.5-.8 21-9.5 23-10.4 3.5-1.5 9-3.3 11.2-4.5 3.9-2.1 3.5-5.5 2.8-8.8s-6.5-13.4-6.1-20.8"/>
  <path class="st1" d="M568 459c-1.1.1-2.2.1-3.3.1-18.1-.8-25-10-26.3-18.7-1.7.6-30.4 4.5-51 2.6-15.4-1.4-37.4-7.5-55.5-14.4l3.4-5.1c3.8-1.8 5.3-6.3 3.6-10-1.8-3.8-6.3-5.3-10-3.6s-5.3 6.3-3.6 10c.5 1 1.1 1.8 1.9 2.5l-2.3 3.4c-14.7-5.9-25.4-11.1-25.4-11.1s-8.7-3.5-9-6.3 5-9 5-9-5.4-3.2-10.7-3.1c-11.9.4-21.5 9.5-21.5 21.3 0 8.8 5.5 16.7 13.7 19.8 0 0 .4-11.5 3.4-16.8s8.7-.3 16.1 3.3c2.7 1.3 11.4 6 21.9 11.5l-6.9 10.4c-3.7 2-5.1 6.5-3.1 10.2s6.5 5.1 10.2 3.1 5.1-6.5 3.1-10.2c-.5-.9-1.1-1.7-1.9-2.3l5.2-7.8c16.9 8.8 36.5 18.2 44.8 21.2 19.4 7 41.7 10.5 63.6 7.6 16-2.1 27.2-4.5 34.8-7.5l-.2-1.1z"/>
  <path class="st1" d="M479.8 182.4s-2.6-.8-2-6.9c.1-1 .4-2 .8-2.9 3.5 2.2 7.6 3.2 11.7 2.8l1.2-.1v.7l-11.7 6.4zm138.8 188.3c-.4-2.8-1.5-11.8-7-12.1-2.3-.1-15.3 4.8-15.8 4.8-4.4-.3-5.2-1.8-7.3-4s-6-14.1-6-14.1-5.6-17.8-6.7-21.6c-.7-2.1-2.1-5.2-2.5-6.6 21.4 0 40.7-18.6 40.6-40.9 0-6.8-1.7-15.2-4.9-20.6l-10.4 1.5c3.9 5.5 5.9 12.1 5.9 18.8-.1 16.7-13.6 30.1-30.3 30-2 0-3.9-.2-5.9-.6-18.1-3.9-44.2-21.8-57-44.7-1.1-1.9-1.9-3.9-2.5-6l27.5 6.6s3.5-6.3 2.8-11.9c-1.5-12.4-9.2-15.4-9.2-15.4 3.7-.3 7.3-1.7 10.3-3.9 4.9-3.2 6.8-9.4 4.7-14.9l-16.4-.5 16-8.5c-5.6-9.1-16-9.8-16-9.8 2.7-.5 5.3-1.4 7.8-2.5 4.9-2.1 6.6-4.3 6.6-4.3l-6.2-2.7-12.2-5.4 4.1-8.9c-1.3-.5-2.7-1-4.1-1.3-2.4-.5-4.8-.4-7.2.1-2.8.6-5.4 1.8-7.5 3.7l-9.2-4.1-23.2-10.4-3.9 9.3s-18.5 18.7-19 20c-.4 1.7-.1 3.6 1 5l3.2 1.3s-.7 4.3 1.3 6.4c1.5 1.3 3.3 2.2 5.3 2.4l1.3 3.1 2.8-.2c1.1-2.2 2.5-4.3 4.1-6.2 2.3-2.6 5.7-4 9.2-3.9 16.6.2 17.3 31.2-1.8 35.7-9.4 2.2-18.9-9-18.9-9l-7.3 19 4 2.6s-5.7 6-7.9 10.3c-3.3 6.6-4.2 16.1-4.2 16.1l20.9-11.1-2 4.3s-26.3 15.4-30.6 16.5c-13.4 3.3-27.7 7-32.9 3.5-3-2-2.8-6.6-4-9.9-1.4-5.7-4.6-10.7-9.2-14.3-8.1-6.4-18.7-9-28.3-3.4 2.7.9 5.3 2.7 9.1 4.8.1.1-.5.8-.9 1.2-1.7 2.1-.6 5.2.9 6.9 2 2.3 11.8 9.5 11.8 9.5-1.8-.4-7.2-2.1-8.5-2-11.3 1-19.7 7.4-23.3 16.8 3.4-2 7.1-3.3 11-4-.6 2.6.9 5.2 4.3 6.8 5 2.4 13.5 1.6 14 1.6-7.5 7-5.2 17.8-2.5 25.3 1.1-2.2-.1-4.8 1.4-7.9.4-.9 1.5-1.3 2.3-2 .1.3 5.2 7.8 13.9 2.5 2.7-1.7 8.4-10.1 8.4-10.1-.9 2 2.8 5.2 4.7 6.6l1 .8-4.6 5.8c15 1.2 19.3-7.5 21.3-14.7 1.8.2 53.2-9 53.2-9s6.3 7.7 12.8 10c16.3 5.8 35.9 5.9 35.9 5.9l17.6 36.9c1.6 3.7 4.1 9.2 5.2 11.1 1.7 3 8.5 11.2 31.4 15.4 6.6 1.2 7.8 4.2 10.5 9.7 1.6 3.3 2.7 6.7 3.4 10.3.2 1.3 2.2 10.7-2.9 12.7s-12-2.5-18-6.1c-4.7-3.5-10.3-5.5-16.2-5.5-10.4 0-20.3 4.7-24.2 15 2.6-.9 5.8-1.2 10.2-1.9.1 0 .1.9.1 1.4 0 2.7 1.3 4.9 5.3 5.6s13.4-.6 13.4-.6c-2.1.9-4.2 2.1-6.1 3.3-9.2 7.9-10.8 18.4-7.8 27.9 1.4-3.7 3.4-7.1 6-10 2.2 2.4 4 3.4 7.7 2.6 5.4-1.2 11.1-6.8 11.5-7.1-.5 9.5 4.3 19.9 11.3 24-.3-2.8-.7-9.8-.7-9.8s.3-4 .5-5.1c.3.2 2 2.4 3.9 2.5 3.5.1 5.4-2.4 6.5-4.8.9-2 5.2-17.3 5.2-17.3.6 2.2 2.6 3.7 4.8 3.7h1.3v7.4c13-5.8 11.5-27.9 11.5-32.7s.6-28.2.2-31"/>
  <path class="st2" d="M705.6 496c-19.7 45.2-49 77.8-88.5 85.8-74.5 15-234.1-33.4-348.5-104.5l-1.3.8c96 104.9 254.1 169.3 350.6 149.6 50.5-10.3 76.3-63.6 89-131.7h-1.3zM608.5 8.5V7.3c-2.1-.8-4.3-1.4-6.6-1.9-91.6-19.9-414 8.4-499.4 193.8-24.2 52.5-1 106.1 59.9 158.6l1.5-1c-18.5-42.7-28-70.4-13.4-118.9C194 93.6 463.9 13.5 608.5 8.5"/>
  <path d="M40.6 734.8c-2 4.6-4 9-6 13.1-2 4.2-4.1 8.2-6.2 12.2v24.5h-9v-24.3c-.9-1.8-2-3.8-3.1-6s-2.2-4.5-3.2-6.7-2.1-4.4-3.1-6.5-1.8-3.9-2.5-5.5L0 718.2h10l13.8 34.3 14-34.3h10l-7.2 16.6zM105.3 784.6v-25.7c0-4.3-.7-7.5-2.1-9.5s-3.5-3-6.5-3c-1.7 0-3.4.5-4.9 1.5-1.6 1.1-2.9 2.5-3.8 4.2-.7 1.3-1.1 2.6-1.4 4-.3 1.9-.4 3.8-.4 5.7v22.9h-8.6v-24.4c0-4.8-.7-8.3-2-10.5s-3.5-3.3-6.4-3.3c-1.7 0-3.4.5-4.9 1.5s-2.8 2.4-3.7 4c-.7 1.3-1.2 2.8-1.5 4.3-.3 2-.5 4-.5 6.1v22.4H50v-45.1h8.3v8.6c3.1-6.4 7.6-9.6 13.5-9.6 2.9-.1 5.8.8 8.1 2.6 2.2 2 3.8 4.6 4.5 7.5 2.8-6.7 7.6-10.1 14.4-10.1 2.6 0 5.1.6 7.5 1.7 2.1 1.1 3.9 2.8 5.1 4.8.9 1.6 1.5 3.4 1.8 5.2.4 2.7.6 5.4.5 8.1v26.3l-8.4-.2zM156.7 762c0-2.2-.3-4.3-.9-6.4-.5-1.8-1.4-3.5-2.5-5-1-1.4-2.3-2.5-3.8-3.3-1.4-.8-3.1-1.2-4.8-1.2s-3.3.4-4.7 1.3c-1.5.9-2.8 2.1-3.8 3.5-1.2 1.6-2 3.3-2.5 5.2-.6 2.1-.9 4.3-.9 6.6 0 2.2.3 4.3.9 6.4.5 1.8 1.4 3.5 2.5 5 1 1.4 2.3 2.5 3.8 3.3s3.2 1.2 4.9 1.2c1.6 0 3.2-.4 4.6-1.3 1.5-.9 2.7-2.1 3.7-3.4 1.1-1.6 2-3.3 2.5-5.2.7-2.3 1-4.5 1-6.7m8.6.1c0 3.1-.5 6.3-1.5 9.3-.9 2.7-2.3 5.2-4 7.4-1.7 2.1-3.8 3.7-6.1 4.9-2.4 1.2-5 1.8-7.7 1.8-2.5.1-5.1-.5-7.3-1.5-2.2-1.2-4.1-3-5.5-5.1v22.9h-8.6v-62.2h8.1v8.8c3.3-6.5 8-9.8 14.1-9.8 2.6 0 5.1.6 7.4 1.8s4.3 2.9 5.8 4.9c1.7 2.3 3 4.8 3.9 7.5.9 3 1.4 6.2 1.4 9.3M204.5 726.1c.1 1.3-.3 2.6-1.1 3.6-1.8 2-4.9 2.2-6.9.4-1.1-1-1.8-2.5-1.6-4.1-.1-1.3.4-2.6 1.2-3.6 1.7-2 4.8-2.3 6.8-.5 1.2 1 1.8 2.6 1.6 4.2m-5 35.8c-6.8 0-11.7.8-14.8 2.3-2.9 1.3-4.8 4.3-4.6 7.5-.2 2.3.9 4.4 2.9 5.6 1.9 1.2 5 1.7 9.2 1.7 1.4 0 2.6 0 3.8-.1s2.4-.3 3.6-.5v-16.5zm-11.9-35.8c.1 1.3-.3 2.6-1.1 3.6-1.8 2-4.9 2.2-6.9.4-1.1-1-1.8-2.5-1.6-4.1-.1-1.3.4-2.6 1.2-3.6 1.7-2 4.8-2.2 6.8-.5 1.2 1 1.8 2.6 1.6 4.2m20.2 57.8c-2.4.5-5.1.9-8 1.2-2.8.3-5.6.5-8.4.5-6.5 0-11.5-1.1-14.8-3.3-3.3-2.1-5.2-5.9-5-9.8-.1-3.4 1.2-6.7 3.5-9.2 2.8-2.8 6.3-4.8 10.1-5.6 2-.6 4-.9 6.1-1 2.4-.2 5.2-.3 8.2-.3v-2.1c0-3.2-.7-5.5-2.2-6.9s-3.8-2.1-7.1-2.1c-2.6 0-5.3.4-7.8 1.1-2.6.7-5.1 1.8-7.3 3.2v-7.2c2.5-1.3 5.2-2.3 7.9-3 2.7-.6 5.6-1 8.4-.9 3.7-.2 7.4.7 10.6 2.3 2 1.1 3.5 2.8 4.4 4.9 1 2.6 1.4 5.3 1.3 8l.1 30.2zM248.8 747.8c-.9-.3-1.8-.6-2.8-.8-.9-.1-1.7-.2-2.6-.2-3.7-.1-7.2 1.5-9.6 4.3-2.4 2.9-3.6 6.7-3.6 11.5v21.9h-8.6v-45.1h8.1v10.2c2.6-7.3 7.4-10.9 14.2-10.9.8 0 1.6 0 2.3.1.8.1 1.6.3 2.4.5l.2 8.5zM256.3 739.5h8.6v45.1h-8.6v-45.1zm9.3-12.6c.1 1.4-.3 2.7-1.2 3.8-1.1.9-2.5 1.3-3.9 1.2-1.4.1-2.7-.3-3.8-1.2-.9-1.1-1.4-2.5-1.2-3.9-.1-1.4.3-2.7 1.2-3.8 1.1-.9 2.5-1.3 3.8-1.2 1.4-.1 2.7.3 3.8 1.2 1 1.1 1.4 2.5 1.3 3.9M305.6 772.7c.2 3.7-1.5 7.2-4.4 9.5-3 2.3-7 3.4-12.1 3.4-4.7 0-9.4-.6-14-1.9v-7c1.9.7 3.9 1.1 5.9 1.5 2.1.3 4.2.5 6.3.5 6.3 0 9.4-2.1 9.4-6.3 0-.8-.1-1.6-.4-2.3-.3-.8-.8-1.5-1.5-2-.9-.8-1.8-1.4-2.9-1.9-1.2-.6-2.8-1.3-4.7-2.2-2-.9-4-1.9-5.9-3-1.5-.8-2.8-1.8-4-3-.9-.9-1.7-2.1-2.2-3.3-.5-1.3-.7-2.6-.7-4-.1-3.5 1.5-6.8 4.3-8.9 2.8-2.2 6.7-3.3 11.6-3.3 2.2 0 4.4.1 6.6.4 2.3.3 4.6.8 6.9 1.5v7.1c-2.2-.6-4.5-1.1-6.7-1.5-2-.3-4-.5-6-.5-2.1-.1-4.2.4-6 1.5-1.4.9-2.2 2.4-2.2 4.1 0 .7.1 1.5.4 2.2.4.7.9 1.4 1.6 1.8 1 .7 2.1 1.4 3.3 1.9 1.4.7 3.2 1.5 5.5 2.5 4.1 1.8 7.1 3.7 9 5.8 1.9 2 2.9 4.6 2.9 7.4M338.2 784.4c-1.4.3-2.8.6-4.2.8-1.2.1-2.5.2-4 .2-2.2 0-4.4-.3-6.5-.9-1.7-.5-3.2-1.5-4.4-2.9-1.2-1.5-2.1-3.2-2.5-5.1-.5-2.5-.8-5-.8-7.6v-38.1l8.6-5.2v13.9h12.7v7.1h-12.7v23.3c0 3.1.5 5.2 1.7 6.4 1.1 1.2 3 1.8 5.8 1.8 1 0 2 0 2.9-.1 1.1-.1 2.2-.3 3.3-.6l.1 7zM376.8 726.1c.1 1.3-.3 2.6-1.1 3.6-1.8 2-4.9 2.2-6.9.4-1.1-1-1.8-2.5-1.6-4.1-.1-1.3.4-2.6 1.2-3.6 1.7-2 4.8-2.3 6.8-.5 1.2 1 1.8 2.6 1.6 4.2m-.6 35.6c0-4.8-1.1-8.6-3.4-11.6-2.1-2.9-5.5-4.5-9.1-4.4-1.8 0-3.5.4-5.1 1.2-1.5.8-2.9 1.9-4 3.3-1.2 1.5-2 3.2-2.6 5-.6 2.1-.9 4.3-.9 6.5 0 2.3.3 4.6.9 6.7.6 1.9 1.5 3.7 2.7 5.3 1.1 1.4 2.5 2.6 4.1 3.4s3.4 1.2 5.2 1.2c1.7 0 3.4-.4 4.9-1.2s2.8-2 3.8-3.4c1.1-1.6 2-3.4 2.5-5.3.7-2.1 1-4.4 1-6.7M360 726.1c.1 1.3-.3 2.6-1.1 3.6-2.2 1.6-5.2 1.6-7.3 0-.9-1-1.3-2.3-1.2-3.7-.1-1.3.3-2.6 1.2-3.6 1.7-2 4.8-2.3 6.8-.6 1.1 1.1 1.8 2.7 1.6 4.3m24.7 35.9c0 3.2-.5 6.5-1.5 9.5-.9 2.8-2.4 5.3-4.3 7.5-1.8 2.1-4.1 3.8-6.6 4.9-2.7 1.2-5.6 1.8-8.5 1.7-3 0-5.9-.6-8.6-1.7-2.6-1.1-4.8-2.8-6.7-4.9-1.9-2.2-3.4-4.8-4.3-7.5-1.1-3.1-1.6-6.4-1.5-9.7 0-3.2.5-6.4 1.6-9.4 1-2.7 2.5-5.3 4.4-7.4s4.1-3.7 6.7-4.9 5.5-1.8 8.4-1.8c3 0 5.9.5 8.7 1.7 2.5 1.1 4.8 2.7 6.6 4.8 1.9 2.2 3.4 4.7 4.3 7.4.9 3.2 1.4 6.5 1.3 9.8M447.7 784.6v-25.7c0-4.3-.7-7.5-2.1-9.5s-3.5-3-6.5-3c-1.7 0-3.4.5-4.9 1.5-1.6 1.1-2.9 2.5-3.8 4.2-.7 1.2-1.1 2.6-1.4 4-.3 1.9-.5 3.8-.4 5.7v22.9H420v-24.4c0-4.8-.7-8.3-2-10.5s-3.5-3.3-6.4-3.3c-1.7 0-3.4.5-4.9 1.5s-2.8 2.4-3.7 4c-.7 1.3-1.2 2.8-1.5 4.3-.4 2-.5 4-.5 6.1v22.4h-8.6v-45.1h8.4v8.6c3.1-6.4 7.6-9.6 13.5-9.6 2.9-.1 5.8.8 8.1 2.6 2.3 2 3.8 4.6 4.5 7.5 2.8-6.7 7.6-10.1 14.4-10.1 2.6 0 5.1.6 7.4 1.8 2.1 1.1 3.9 2.8 5.1 4.8.9 1.6 1.4 3.4 1.7 5.2.4 2.7.6 5.4.5 8.1v26.3l-8.3-.3zM466.9 739.5h8.6v45.1h-8.6v-45.1zm9.3-12.6c.1 1.4-.3 2.7-1.2 3.8-1.1.9-2.5 1.3-3.9 1.2-1.4.1-2.7-.3-3.8-1.2-.9-1.1-1.3-2.5-1.2-3.9-.1-1.4.3-2.7 1.2-3.8 1.1-.9 2.5-1.3 3.9-1.2 1.4-.1 2.7.3 3.8 1.2.9 1.1 1.3 2.5 1.2 3.9M517.5 784.6v-25.3c0-1.7-.1-3.5-.3-5.2-.1-1.1-.5-2.3-1-3.3-.7-1.4-1.8-2.6-3.2-3.3-1.4-.8-3.1-1.2-4.7-1.2-1.9 0-3.7.5-5.4 1.4-1.6.9-2.9 2.2-3.8 3.8s-1.4 3.2-1.7 5c-.4 2.6-.5 5.3-.5 7.9v20.2h-8.6v-45.1h8.2v8.7c1.3-2.9 3.3-5.5 5.8-7.4 2.4-1.6 5.3-2.4 8.2-2.3 2.7-.1 5.5.6 7.9 1.8 2.2 1.1 4 2.9 5.3 5.1.9 1.6 1.5 3.3 1.8 5.1.4 2.6.6 5.2.5 7.8v26.3h-8.5zM536.7 739.5h8.6v45.1h-8.6v-45.1zm9.3-12.6c.1 1.4-.3 2.7-1.2 3.8-1.1.9-2.5 1.3-3.9 1.2-1.4.1-2.7-.3-3.8-1.2-.9-1.1-1.4-2.5-1.2-3.9-.1-1.4.3-2.7 1.2-3.8 1.1-.9 2.5-1.3 3.9-1.2 1.4-.1 2.7.3 3.8 1.2.9 1.1 1.4 2.5 1.2 3.9M586 772.7c.2 3.7-1.5 7.2-4.4 9.5s-7 3.4-12.1 3.4c-4.7 0-9.4-.6-14-1.9v-7c1.9.6 3.9 1.1 5.9 1.5 2.1.3 4.2.5 6.3.5 6.3 0 9.4-2.1 9.4-6.3 0-.8-.1-1.6-.4-2.3-.3-.8-.8-1.5-1.5-2-.9-.8-1.8-1.4-2.9-1.9-1.2-.6-2.8-1.4-4.7-2.2-2-.9-4-1.9-5.9-3-1.5-.8-2.8-1.8-4-3-1-.9-1.7-2.1-2.2-3.3-.5-1.3-.7-2.6-.7-4-.1-3.5 1.5-6.8 4.3-8.9 2.9-2.2 6.7-3.3 11.6-3.3 2.2 0 4.4.1 6.6.4 2.3.3 4.6.8 6.9 1.5v7.1c-2.2-.6-4.5-1.1-6.7-1.5-2-.3-4-.5-6-.5-2.1-.1-4.2.4-6 1.5-1.4.9-2.2 2.4-2.2 4.1 0 .8.2 1.5.5 2.2.4.7.9 1.4 1.6 1.8 1 .7 2.1 1.4 3.2 1.9 1.4.7 3.2 1.5 5.5 2.5 4.1 1.8 7.1 3.7 9 5.8 2 2 3 4.7 2.9 7.4M618.7 784.4c-1.4.3-2.8.6-4.2.8-1.2.1-2.5.2-4 .2-2.2 0-4.4-.3-6.4-.9-1.7-.5-3.2-1.5-4.4-2.9-1.2-1.5-2.1-3.2-2.5-5.1-.5-2.5-.8-5-.8-7.6v-38.1l8.6-5.2v13.9h12.7v7.1H605v23.3c0 3.1.6 5.2 1.7 6.4s3 1.8 5.8 1.8c1 0 2 0 2.9-.1 1.1-.1 2.2-.3 3.3-.6v7zM653.8 757.3c.1-3.1-.9-6.2-2.9-8.6-3.8-4.3-10.4-4.6-14.6-.8-.4.3-.7.7-1 1.1-2 2.5-3.2 5.9-3.5 10.2h22v-1.9m8.2.8c0 1.1-.1 2.1-.2 3.2-.2 1.2-.4 2.3-.7 3.5h-29.3c.4 4.5 2 8 4.9 10.4s6.9 3.6 12 3.6c1.8 0 3.5-.1 5.3-.4s3.6-.8 5.3-1.5v6.9c-1.9.7-3.8 1.1-5.7 1.5-2 .3-4.1.4-6.1.4-7.8 0-13.8-2.1-18.1-6.3s-6.4-10.1-6.4-17.7c0-3.2.5-6.3 1.5-9.4.9-2.7 2.3-5.2 4.2-7.3 1.8-2 4-3.6 6.5-4.7 2.6-1.1 5.4-1.7 8.3-1.7 2.6 0 5.1.5 7.4 1.5 2.2.9 4.2 2.3 5.9 4 1.7 1.8 3 3.9 3.9 6.2.8 2.4 1.3 5.1 1.3 7.8M698.4 747.8c-1.7-.7-3.5-1-5.4-.9-3.7-.1-7.2 1.5-9.6 4.3-2.4 2.9-3.6 6.7-3.6 11.5v21.9h-8.6v-45.1h8.1v10.2c2.7-7.3 7.4-10.9 14.2-10.9.8 0 1.6 0 2.4.1s1.6.3 2.4.5v8.4zM704.9 739.5h8.6v45.1h-8.6v-45.1zm9.3-12.6c.1 1.4-.3 2.7-1.2 3.8-1.1.9-2.5 1.3-3.9 1.2-1.4.1-2.7-.3-3.8-1.2-.9-1.1-1.3-2.5-1.2-3.9-.1-1.4.3-2.7 1.2-3.8 1.1-.9 2.5-1.3 3.9-1.2 1.4-.1 2.7.3 3.7 1.2 1 1.1 1.4 2.5 1.3 3.9M753.3 726.1c.1 1.3-.3 2.6-1.1 3.6-1 .9-2.3 1.3-3.7 1.2-2.4.3-4.6-1.3-4.9-3.7-.1-.4-.1-.8 0-1.2-.1-1.3.3-2.6 1.2-3.6 1-.9 2.3-1.3 3.7-1.2 2.3-.4 4.4 1.2 4.8 3.5.1.5.1.9 0 1.4m-.7 35.6c0-4.8-1.1-8.6-3.4-11.6-2.1-2.9-5.5-4.5-9.1-4.4-1.8 0-3.5.4-5.1 1.2s-2.9 1.9-4 3.3c-1.2 1.5-2 3.2-2.6 5-.6 2.1-.9 4.3-.9 6.5 0 2.3.3 4.6 1 6.7.6 1.9 1.5 3.7 2.7 5.3 1.1 1.4 2.5 2.6 4.1 3.4s3.4 1.2 5.2 1.2c1.7 0 3.4-.4 4.9-1.2s2.8-2 3.8-3.4c1.1-1.6 2-3.4 2.5-5.3.7-2.1 1-4.4.9-6.7m-16.1-35.6c.1 1.3-.3 2.6-1.1 3.6-1.8 2-4.9 2.2-6.9.4-1.2-1-1.8-2.5-1.6-4.1-.1-1.3.3-2.6 1.2-3.6 1.7-2 4.8-2.3 6.8-.6 1.1 1.1 1.8 2.7 1.6 4.3m24.7 35.9c0 3.2-.5 6.5-1.6 9.5-.9 2.8-2.4 5.3-4.3 7.5-1.8 2.1-4.1 3.8-6.6 4.9-2.7 1.2-5.6 1.8-8.5 1.7-3 0-5.9-.6-8.6-1.7-2.6-1.1-4.8-2.8-6.7-4.9-1.9-2.2-3.4-4.8-4.3-7.5-1.1-3.1-1.6-6.4-1.5-9.7 0-3.2.5-6.4 1.6-9.4 1-2.7 2.5-5.3 4.4-7.4s4.1-3.7 6.7-4.9 5.5-1.8 8.4-1.8c3 0 5.9.5 8.7 1.7 2.5 1.1 4.8 2.7 6.6 4.8 1.9 2.2 3.4 4.7 4.3 7.4 1 3.2 1.5 6.5 1.4 9.8"/>
</svg>
