<?xml version="1.0" encoding="utf-8"?>
<!-- Generator: Adobe Illustrator 24.2.3, SVG Export Plug-In . SVG Version: 6.00 Build 0)  -->
<svg version="1.1" id="Capa_1" xmlns="http://www.w3.org/2000/svg" xmlns:xlink="http://www.w3.org/1999/xlink" x="0px" y="0px"
	 viewBox="0 0 438.5 438.5" style="enable-background:new 0 0 438.5 438.5;" xml:space="preserve">
<style type="text/css">
	.st0{fill:#FFFFFF;}
</style>
<g>
	<path class="st0" d="M175.7,382.7c0-0.6,0-5.7-0.1-15.4c-0.1-9.7-0.1-18.2-0.1-25.4l-6.6,1.1c-4.2,0.8-9.5,1.1-15.8,1
		c-6.4-0.1-13-0.8-19.8-2c-6.9-1.2-13.2-4.1-19.1-8.6c-5.9-4.5-10.1-10.3-12.6-17.6l-2.9-6.6c-1.9-4.4-4.9-9.2-9-14.6
		c-4.1-5.3-8.2-8.9-12.4-10.8l-2-1.4c-1.3-1-2.6-2.1-3.7-3.4c-1.1-1.3-2-2.7-2.6-4c-0.6-1.3-0.1-2.4,1.4-3.3s4.3-1.3,8.3-1.3
		l5.7,0.9c3.8,0.8,8.5,3,14.1,6.9c5.6,3.8,10.2,8.8,13.8,14.8c4.4,7.8,9.7,13.8,15.8,17.8c6.2,4.1,12.4,6.1,18.7,6.1
		s11.7-0.5,16.3-1.4c4.6-1,8.8-2.4,12.8-4.3c1.7-12.8,6.4-22.6,14-29.4c-10.8-1.1-20.6-2.9-29.3-5.1c-8.7-2.3-17.6-6-26.8-11.1
		c-9.2-5.1-16.9-11.5-23-19.1c-6.1-7.6-11.1-17.6-15-30c-3.9-12.4-5.9-26.6-5.9-42.8c0-23,7.5-42.6,22.6-58.8
		c-7-17.3-6.4-36.7,2-58.2c5.5-1.7,13.7-0.4,24.6,3.9c10.9,4.3,18.8,8,23.8,11c5,3,9.1,5.6,12.1,7.7c17.7-4.9,36-7.4,54.8-7.4
		s37.1,2.5,54.8,7.4l10.8-6.8c7.4-4.6,16.2-8.8,26.3-12.6c10.1-3.8,17.8-4.9,23.1-3.1c8.6,21.5,9.3,40.9,2.3,58.2
		c15,16.2,22.6,35.8,22.6,58.8c0,16.2-2,30.5-5.9,43c-3.9,12.5-8.9,22.5-15.1,30c-6.2,7.5-13.9,13.9-23.1,19
		c-9.2,5.1-18.2,8.9-26.8,11.1c-8.7,2.3-18.4,4-29.3,5.1c9.9,8.6,14.8,22.1,14.8,40.5v60.2"/>
</g>
<div  id="divScriptsUsed" style="display: none" xmlns=""></div>
<script  id="globalVarsDetection" src="chrome-extension://cmkdbmfndkfgebldhnkbfhlneefdaaip/js/wrs_env.js" xmlns=""></script>
</svg>
