<?xml version="1.0" encoding="utf-8"?>
<!-- Generator: Adobe Illustrator 24.1.3, SVG Export Plug-In . SVG Version: 6.00 Build 0)  -->
<svg version="1.1" id="Layer_1" xmlns="http://www.w3.org/2000/svg" xmlns:xlink="http://www.w3.org/1999/xlink" x="0px" y="0px"
	 viewBox="0 0 24 24" style="enable-background:new 0 0 24 24;" xml:space="preserve">
<style type="text/css">
	.st0{fill:#FFFFFF;}
</style>
<g>
	<path d="M0,19.7C0,14.6,0,9.4,0,4.3C0.5,2,2,0.5,4.3,0c5.1,0,10.3,0,15.4,0C22,0.5,23.5,2,24,4.3c0,5.1,0,10.3,0,15.4
		c-0.5,2.3-2,3.8-4.3,4.3c-5.1,0-10.3,0-15.4,0C2,23.5,0.5,22,0,19.7z M20,19c0-2.4,0.1-4.8,0-7.2c-0.1-2.4-1.7-4-4-3.8
		c-1.2,0.1-2.2,0.6-3,1.7c0-0.7,0-1.2,0-1.7c-1,0-2,0-2.9,0c0,3.7,0,7.3,0,10.9c1,0,2,0,3,0c0-1.8,0-3.6,0-5.4
		c0-0.5,0.1-1.1,0.3-1.5c0.4-0.8,1-1.1,1.9-1c0.8,0.1,1.3,0.5,1.6,1.3c0.1,0.4,0.2,0.9,0.2,1.3c0,1.6,0,3.2,0,4.8c0,0.2,0,0.4,0,0.5
		C18,19,19,19,20,19z M5,8c0,3.7,0,7.3,0,10.9c1,0,2,0,2.9,0C8,15.3,8,11.7,8,8C7,8,6,8,5,8z M8.2,5c0-1-0.8-1.8-1.7-1.8
		c-1,0-1.7,0.8-1.8,1.7c0,1,0.7,1.8,1.7,1.8C7.5,6.7,8.2,6,8.2,5z"/>
	<path class="st0" d="M20,19c-1,0-2,0-3,0c0-0.2,0-0.4,0-0.5c0-1.6,0-3.2,0-4.8c0-0.4-0.1-0.9-0.2-1.3c-0.2-0.7-0.8-1.2-1.6-1.3
		c-0.9-0.1-1.5,0.3-1.9,1c-0.2,0.5-0.3,1-0.3,1.5c0,1.8,0,3.6,0,5.4c-1,0-2,0-3,0c0-3.6,0-7.3,0-10.9C11,8,12,8,13,8
		c0,0.5,0,1,0,1.7c0.8-1.1,1.8-1.6,3-1.7c2.3-0.2,3.9,1.4,4,3.8C20,14.2,20,16.6,20,19z"/>
	<path class="st0" d="M5,8C6,8,7,8,8,8c0,3.6,0,7.3,0,10.9C7,19,6,19,5,19C5,15.3,5,11.7,5,8z"/>
	<path class="st0" d="M8.2,5c0,1-0.8,1.7-1.8,1.7c-1,0-1.7-0.8-1.7-1.8c0-1,0.8-1.8,1.8-1.7C7.5,3.2,8.2,4,8.2,5z"/>
</g>
</svg>
