<?xml version="1.0" encoding="utf-8"?>
<svg version="1.1" xmlns="http://www.w3.org/2000/svg" xmlns:xlink="http://www.w3.org/1999/xlink" x="0px" y="0px"
	 viewBox="0 0 24 24" style="enable-background:new 0 0 24 24;" xml:space="preserve">
<g>
	<path  d="M20,19c-1,0-2,0-3,0c0-0.2,0-0.4,0-0.5c0-1.6,0-3.2,0-4.8c0-0.4-0.1-0.9-0.2-1.3c-0.2-0.7-0.8-1.2-1.6-1.3
		c-0.9-0.1-1.5,0.3-1.9,1c-0.2,0.5-0.3,1-0.3,1.5c0,1.8,0,3.6,0,5.4c-1,0-2,0-3,0c0-3.6,0-7.3,0-10.9C11,8,12,8,13,8
		c0,0.5,0,1,0,1.7c0.8-1.1,1.8-1.6,3-1.7c2.3-0.2,3.9,1.4,4,3.8C20,14.2,20,16.6,20,19z"/>
	<path d="M5,8c1,0,2,0,3,0c0,3.6,0,7.3,0,10.9C7,19,6,19,5,19C5,15.3,5,11.7,5,8z"/>
	<path d="M8.2,5c0,1-0.8,1.7-1.8,1.7S4.7,5.9,4.7,4.9s0.8-1.8,1.8-1.7C7.5,3.2,8.2,4,8.2,5z"/>
</g>
</svg>
