<?xml version="1.0" encoding="utf-8"?>
<svg version="1.1" xmlns="http://www.w3.org/2000/svg" xmlns:xlink="http://www.w3.org/1999/xlink" x="0px" y="0px"
	 viewBox="0 0 24 24" style="enable-background:new 0 0 24 24;" xml:space="preserve">

<path d="M21,6.4c-0.7,0.3-1.3,0.5-2.1,0.6c0.8-0.4,1.3-1.2,1.6-2c-0.8,0.5-1.5,0.8-2.3,0.9c-0.7-0.8-1.6-1.2-2.7-1.2
	c-2,0-3.7,1.6-3.7,3.7c0,0.3,0,0.6,0.1,0.8C8.8,9.1,6.1,7.6,4.2,5.4C3.9,5.9,3.8,6.5,3.8,7.2c0,1.3,0.7,2.4,1.7,3.1
	c-0.6,0-1.2-0.1-1.7-0.4v0.1c0,1.8,1.3,3.3,2.9,3.6c-0.3,0.1-0.6,0.1-1,0.1c-0.2,0-0.5,0-0.7-0.1c0.5,1.5,1.8,2.6,3.5,2.6
	c-1.3,1-2.9,1.6-4.6,1.6c-0.3,0-0.6,0-0.9-0.1c1.6,1,3.6,1.7,5.7,1.7c6.8,0,10.5-5.6,10.5-10.5c0-0.1,0-0.3,0-0.4
	C19.9,7.8,20.5,7.2,21,6.4L21,6.4z"/>
</svg>
