<?xml version="1.0" encoding="utf-8"?>
<!-- Generator: Adobe Illustrator 24.1.2, SVG Export Plug-In . SVG Version: 6.00 Build 0)  -->
<svg version="1.1" id="Layer_1" xmlns="http://www.w3.org/2000/svg" xmlns:xlink="http://www.w3.org/1999/xlink" x="0px" y="0px"
	 viewBox="0 0 279 405" style="enable-background:new 0 0 279 405;" xml:space="preserve">
<style type="text/css">
	.st0{fill:#4076B4;}
	.st1{fill:#CA499A;}
	.st2{fill:#66C3A4;}
	.st3{fill:#1EC1E4;}
	.st4{fill:#787878;}
	.st5{font-family:'Lato-Light';}
	.st6{font-size:14px;}
	.st7{fill:#F57E20;}
	.st8{fill:none;stroke:#F57E20;stroke-width:2;stroke-miterlimit:20;}
	.st9{fill:#E5B635;}
	.st10{fill:none;stroke:#E5B635;stroke-width:2;stroke-miterlimit:10;}
	.st11{fill:#80D1E2;}
	.st12{fill:none;stroke:#80D1E2;stroke-width:2;stroke-miterlimit:10;}
	.st13{fill:none;stroke:#E5B635;stroke-width:4;stroke-linecap:round;stroke-miterlimit:10;}
	.st14{fill:none;stroke:#E5B635;stroke-width:4;stroke-linecap:round;stroke-miterlimit:10;stroke-dasharray:5.3061,7.0749;}
</style>
<circle class="st0" cx="18.7" cy="22.5" r="13.5"/>
<circle class="st1" cx="18.7" cy="51.8" r="9"/>
<circle class="st2" cx="18.7" cy="90" r="9"/>
<g>
	<rect x="11.2" y="118" class="st3" width="15.1" height="15.1"/>
	<path d="M25.3,119v13.1H12.2V119H25.3 M27.3,117H10.2v17.1h17.1V117L27.3,117z"/>
</g>
<circle class="st4" cx="18.7" cy="157.1" r="4.5"/>
<text transform="matrix(1 0 0 1 45 26.9865)" class="st5 st6">Kiinteä muinaisjäännöskohde</text>
<text transform="matrix(1 0 0 1 44.9998 56.2363)" class="st5 st6">Keskiaikainen ryhmäkyläkohde</text>
<text transform="matrix(1 0 0 1 45.0002 86.0728)"><tspan x="0" y="0" class="st5 st6">Muu arkeologinen</tspan><tspan x="0" y="16.8" class="st5 st6">kulttuuriperintökohde</tspan></text>
<text transform="matrix(1 0 0 1 45 129.8149)" class="st5 st6">Rakennusperintökohde</text>
<text transform="matrix(1 0 0 1 44.9998 161.5296)" class="st5 st6">Mahdollinen rakennusperintökohde</text>
<g>
	<g>
		<path class="st7" d="M24,184.5v12H12v-12H24 M27,181.5H9v18h18V181.5L27,181.5z"/>
	</g>
	<line class="st8" x1="9" y1="181.5" x2="27" y2="199.5"/>
	<line class="st8" x1="27" y1="181.5" x2="9" y2="199.5"/>
</g>
<g>
	<text transform="matrix(1 0 0 1 44.9998 186.5933)"><tspan x="0" y="0" class="st5 st6">Paikallisesti arvokas</tspan><tspan x="0" y="16.8" class="st5 st6">rakennettu kulttuuriympäristö</tspan></text>
</g>
<g>
	<g>
		<g>
			<path class="st9" d="M24,222.8v12H12v-12H24 M27,219.8H9v18h18V219.8L27,219.8z"/>
		</g>
		<line class="st10" x1="9" y1="219.8" x2="27" y2="237.8"/>
	</g>
</g>
<g>
	<text transform="matrix(1 0 0 1 44.9998 224.8298)"><tspan x="0" y="0" class="st5 st6">Mahdollisesti paikallisesti arvokas</tspan><tspan x="0" y="16.8" class="st5 st6">rakennettu kulttuuriympäristö</tspan></text>
</g>
<g>
	<g>
		<g>
			<path class="st11" d="M24,264v12H12v-12H24 M27,261H9v18h18V261L27,261z"/>
		</g>
		<line class="st12" x1="27" y1="261" x2="9" y2="279"/>
	</g>
</g>
<g>
	<text transform="matrix(1 0 0 1 45 266.0729)"><tspan x="0" y="0" class="st5 st6">Valtakunnallisesti tai maakunnallisesti</tspan><tspan x="0" y="16.8" class="st5 st6">arvokas alue</tspan></text>
</g>
<g>
	<rect x="9.9" y="295.4" class="st0" width="17.1" height="17.1"/>
</g>
<g>
	<rect x="9.4" y="349.2" class="st2" width="17.1" height="17.1"/>
</g>
<g>
	<rect x="9.4" y="322.2" class="st1" width="17.1" height="17.1"/>
</g>
<g>
	<text transform="matrix(1 0 0 1 44.9999 308.458)" class="st5 st6">Kiinteä muinaisjäännösalue</text>
</g>
<g>
	<text transform="matrix(1 0 0 1 44.9998 335.2366)" class="st5 st6">Keskiaikainen ryhmäkyläalue</text>
</g>
<g>
	<text transform="matrix(1 0 0 1 44.9998 362.2364)" class="st5 st6">Muu arkeologinen kulttuuriperintöalue</text>
</g>
<g>
	<g>
		<line class="st13" x1="9" y1="380.3" x2="11.1" y2="382.4"/>
		<line class="st14" x1="16.1" y1="387.4" x2="22.4" y2="393.6"/>
		<line class="st13" x1="24.9" y1="396.1" x2="27" y2="398.3"/>
	</g>
</g>
<g>
	<text transform="matrix(1 0 0 1 45.0001 393.7364)" class="st5 st6">Historiallinen tielinja</text>
</g>
</svg>
