<?xml version="1.0" encoding="utf-8"?>
<!-- Generator: Adobe Illustrator 24.2.3, SVG Export Plug-In . SVG Version: 6.00 Build 0)  -->
<svg version="1.1" id="Layer_1" xmlns="http://www.w3.org/2000/svg" xmlns:xlink="http://www.w3.org/1999/xlink" x="0px" y="0px"
	 viewBox="0 0 512 512" style="enable-background:new 0 0 512 512;" xml:space="preserve">
<style type="text/css">
	.st0{fill:#EB7D8E;}
	.st1{fill:#FFCD05;}
	.st2{fill:#6BC8C3;}
	.st3{opacity:0.5;}
	.st4{fill:#616262;}
	.st5{fill:none;stroke:#FFCD05;stroke-width:3.987;stroke-linecap:round;stroke-miterlimit:10;}
	.st6{opacity:0.75;}
</style>
<g>
	<g>
		<path class="st0" d="M172,62.9c-5.9,12.2-6.4,24.9,1.5,37c4.6,7,9.1,14,13.9,21.4c-7.3,4.9-14.4,9.6-22.3,14.9L62.5,203.9
			c-6.9,4.7-14.7,9.8-22.3,15.1c-6.3,4.4-8,11.6-3.7,17.9c2.9,4.1,6.6,7.8,10.7,10.9c4.5,3.4,9.5,2.9,14.3-0.6
			c2.9-2.1,5.9-4.1,8.9-6.1l-0.3,0.2l0.3-0.2c3.7-2.5,7.4-4.9,11.1-7.4c0,0,0,0,0,0.1l105.1-69.3c6.4-4.4,12.8-8.7,19.6-13.2
			c5.6,8.8,10.9,17.3,16.2,25.8c3.4,5.5,6.6,11.2,10.3,16.4c8,11.1,19.4,14.9,32.4,13.7c22.6-2,38.4-14.7,49.6-33.5
			c5.6-9.3,8.7-19.4,7.3-30.5c-0.8-6-3.8-10.9-7.3-15.7c-7.2-9.7-14.1-19.7-21.1-29.5c-0.4-0.6-0.7-1.2-1.3-2.1
			c3.5-2.3,6.8-4.6,10.2-6.6c2-1.2,2.8-2.8,2.5-5c-1.4-11.8-6.3-21.5-16.9-27.6c-1.1-0.6-3.4,0.1-4.7,0.9c-4.2,2.6-8.1,5.4-12.6,8.5
			c-3.4-4.9-6.6-9.6-10-14.2c-3.4-4.7-6.4-9.7-10.4-13.7c-9.1-9-20.6-11.4-32.8-9.4C196.6,32.1,181.2,43.8,172,62.9z M295.8,78.3
			c-5.6-0.4-11.3-0.8-16.9-1.2c0,0,0,0,0,0c1.2,0.3,2.4,0.5,3.6,0.9c0.4,0.1,0.8,0.3,1.1,0.4c1.3,0.6,2.3,1.8,3.6,2.9
			c0.4-0.2,1.6-0.6,2.7-1c-4.2,4.2-4.9,4.1-8.2,0.1c-0.9-1.1-1.9-2.2-2.8-3.3c0,0,0,0,0,0c0,0,0,0,0,0c0,0,0,0,0,0c0,0,0,0,0,0
			c0,0,0,0,0,0l0,0c-1.2-1.7-2.3-3.4-3.5-5.2c4-2.7,7.6-5.1,11.9-8c3.1,4.6,6.2,8.9,9.2,13.3C296.2,77.5,296,77.9,295.8,78.3z
			 M275.1,87.7c-0.5-0.2-1.2-0.2-1.3-0.5c-1.6-3.1-3.2-6.2-4.6-9.1C272.9,80.9,275.1,84.2,275.1,87.7z M292,117.7
			c-7.8-11-15.3-22.2-22.8-33.4c-0.8-1.2-1.1-2.7-1.7-4.1c0.3-0.2,0.6-0.3,0.9-0.5c2.9,5.5,4.7,12.1,12.5,14.4c0,0.8,0,2.5,0,4.1
			c2.5-1.6,4.1,0.2,5.6,2.4c3.7,5.4,7.5,10.7,11.2,16.2c0.3,0.5-0.5,1.7-0.8,2.6C295.3,118.9,292.9,118.9,292,117.7z M227.6,135.5
			c3.1,4.9,3.4,5.1-0.4,9.4c-0.7,0.8-1.5,1.6-2.3,2.3c-2.5,1.9-5.2,3.1-7.7,0.5c-2.9-3-5.6-6.3-8.1-9.6c-1.6-2.1-2.5-4.6-4.1-6.7
			c-3.8-4.8-7.8-9.5-11.6-14.2c0.8-0.6,1.2-1,1.2-1c-2.8-3.5-5.5-6.7-8.4-10.3c1.5-0.5,2.2-0.7,2.2-0.7c0-1.7,0-3,0-4.2
			c-1.3,0.6-2.6,1.2-4.2,2c-0.2-1.7-0.4-2.8-0.5-3.8c-0.5-1-1-1.9-1.5-2.9c-0.6-0.7-1.4-1.2-1.7-2c-0.8-2-2.9-3.5-3.5-5.6
			c-0.2-0.8-0.2-1.6,0.2-2.5c0.1-0.2,0.2-0.5,0.4-0.7l-0.1,0c0,0,0,0,0,0l0,0c0,0,0-0.1,0-0.1c-0.1-0.1-0.1-0.1-0.2-0.2
			c-0.2-0.2-0.3-0.4-0.5-0.6c0,0,0,0-0.1,0.1c0,0,0-0.1,0-0.1c0,0,0,0,0,0c0-1.1-0.1-2.3-0.1-3.4c0,0-0.1-0.1-0.1-0.1
			c0,0,0,0,0.1-0.1c0,0,0-0.1,0-0.1c-0.1-0.4-0.1-0.8-0.2-1.2c0,0,0.1,0,0.1,0c-0.2-1.2-0.5-2.4-0.7-3.5c0.3,0,0.5-0.1,0.8-0.1
			c5.1,8,10.2,16,15.4,24c0.5,0.2,1,0.5,1.6,0.7c0,0,0,0,0,0c0,0,0,0,0,0c0.2,1.1,0.3,2.2,0.5,3.2c0,0.1,0.1,0.2,0.2,0.4
			c0.9-0.3,1.7-0.7,2.6-1c0.4-0.3,0.8-0.5,1.2-0.8c0,0,0,0-0.1-0.1l0,0c0-0.4,0.1-0.7,0.1-1.1c0,0,0,0,0,0c0,0,0,0,0.1,0
			c-0.3-0.3-0.5-0.5-0.8-0.8c-0.9-0.9-1.9-1.9-2.8-2.8c-5.1-7.6-10.1-15.3-15.5-22.7c-1.9-2.6-2-4.7-1-7.5c6.9-18.4,28-33,47.6-32.3
			c1.8,0.1,3.4,0.2,4.9,0.4c0.6,0.1,1.3,0.2,1.9,0.3c1.2,0.3,2.3,0.6,3.3,0.9c0,0,0,0,0.1,0c7.3,2.6,11.5,7.9,15.6,15.3
			c0,0,0.1,0.1,0.1,0.1c0,0,0,0,0,0c5.7,7.7,11.4,15.4,17.2,23.2c-1,1.2-1.9,2.3-3,3.6c-1.4-2.3-2.6-4.3-3.9-6.5
			c0.9,0.5,1.6,1,2.8,1.7c-2.9-3.5-5.7-6.3-7.8-9.6c-2.3-3.8-7-6.8-5.2-12.4c0,0,0,0-0.1-0.1l0,0c0,0,0-0.1-0.1-0.1
			c-2.1-2-4.2-4.1-6.2-6.1c-0.3,0.2-0.6,0.4-0.9,0.7c3.5,6.5,7,13,10.4,19.5c-0.2,0.2-0.4,0.3-0.6,0.5c-0.9-0.6-1.7-1.2-2.6-1.7
			c0.7,2.1,1.1,4.3,2.2,6c2.1,3.4,6.5,5.2,5.2,10.7c-0.4,1.6,0.1,3.5,0.7,5.3c0.4,1.1,0.8,2.2,1,3.3c0.3-2.9,0.6-5.8,0.9-8.8
			c0.1-0.9,0.1-1.7,0.1-2.6c0.8,0.5,1.8,0.9,2.3,1.6c1.6,2.9,3.3,5.7,4.9,8.6c1.6,2.9,3.2,5.8,4.8,8.7c0,0.1,0.1,0.2,0.1,0.3
			c0.2,0.6,0.4,1.2,0.7,1.7c0.2,0.7,0.4,1.4,0.6,2.1c0,0.1,0,0.2,0.1,0.3c0,0,0,0,0,0c0,0,0,0,0,0c-0.3,0.4-0.6,0.8-0.9,1.3l0-0.1
			c0,0,0,0,0,0c-0.2,0.3-0.4,0.6-0.6,0.9c1.3-0.3,2.6-0.6,4.3-1c2.7,4.8,5.6,10,8.5,15.2c-3.9,1.5-6.9,1.3-8.8-2.4
			c-0.8-1.4-1.6-2.9-2.5-4.2c-0.2-0.3-1-0.2-1.5-0.2c0.3,0.9,0.5,1.8,0.9,3.1c0.1,0.2,0.1,0.4,0.2,0.6c-1.4-0.1-2.5-0.2-3.8-0.2
			c-3.4,8.1-5.9,10.4-12.5,11.5c-0.3-2.4-0.5-4.9-0.8-7.3c-1.1,1.1-2,2.4-3.2,3.3c0,0,0,0,0,0c-0.2,0.1-0.3,0.3-0.5,0.4
			c-2.3,1.4-5,2.2-7.3,3.6c-4.9,3.1-9.6,6.5-14.3,9.7"/>
	</g>
	<g>
		<path class="st1" d="M155.7,170.3c2.4,5.7,4.6,10.7,6.4,15.8c1.7,5,3,10.3,4.1,15.6c-5.8-8.5-7.8-19.3-16.5-25.9
			c-6.1,3.7-12.2,7.3-17.4,10.5c3.1,9.3,6.3,18.9,9.5,28.6c-0.4,0.2-0.8,0.3-1.2,0.5c-1.7-3.5-3.5-7-5.1-10.6
			c-3.1-6.9-7-13-13.1-17.6c-1.8-1.4-3.3-1.9-5.4-0.8c-4.2,2.2-8.5,4.2-13.2,6.5c7.4,9.4,10.3,20,12.1,31c-2.6-4.9-4.9-10.1-8-14.7
			c-2.7-4-6.1-7.7-9.6-10.9c-1.1-1-4.3-1-5.8-0.1c-4.4,2.5-8.5,5.4-12.4,8.5c-0.8,0.6-1,3-0.5,4.1c3.5,8,7.2,15.8,11,23.6
			c1.7,3.5,4.1,6.7,5.9,10.2c2.7,5.1,7.3,6,11.9,4.6c4.6-1.4,9-1,13.4-0.1c4.6,0.9,7.6-0.9,10.3-4.1c1.3-1.5,2.6-3.1,4-4.6
			c3.6-3.8,7.9-6.1,13.1-4.8c5.5,1.4,8.8-1.1,11.7-5.2c2.2-3.1,4.9-5.8,7.5-8.6c4.6-4.8,10.4-6.4,17-5.9c6.6,0.5,11-5.8,8.3-11.8
			c-4-8.9-7.8-17.9-12.3-26.6c-3-5.8-7.3-10.6-13.7-13.1c-2.3-0.9-4.2-1-6.2,0.8C159.7,167.3,157.3,169,155.7,170.3z"/>
	</g>
</g>
<g>
	<path class="st1" d="M323.4,342.3c-8.9-4-17.9-4.4-26.6,0.2c-6.8,3.6-13.5,7.5-20.9,11.6c-1.4-2.7-3.2-5.8-4.6-9.2
		c-0.4-1-0.1-2.9,0.7-3.6c9.9-10.1,19.3-21,32-27.8c5.7-3.1,8.2-2.9,18.3,0.1c-3.3-4-11-5.9-17.5-4.2c-8.2,2.1-15.5,6.2-22.3,11.1
		c-3.2,2.3-6.2,4.7-9.6,7.2c-1.9-3.3-1.9-6.2,0.8-8.6c7.3-6.5,14.7-12.9,22.1-19.3c1.2-1,2.5-1.9,3.7-2.9c6.1-5,12.5-8.8,21.6-6.1
		c-4.3-3.3-10.7-3.8-15.4-1.9c-12.1,5-23,12-33.5,19.8c-3.5-4-3.3-10.7,1.1-14.2c5.6-4.4,11.4-8.7,17.5-12.3
		c9.7-5.7,19.6-10.8,29.5-16c5-2.6,9-1.7,12.6,2.9c3.8,4.9,7.1,10.2,11.1,14.9c5.9,7.1,12.4,13.6,18.2,20.8
		c9.8,12,16.9,25.4,21.2,40.3c0.1,0.4,0.3,0.9,0.5,1.3c0.4,0,0.7-0.1,1.1-0.1c-0.7-8.1-1.5-16.1-2.2-24.6c3.9-0.5,8.2-1.2,12.5-1.7
		c12.1-1.3,24.2-2.4,36.3-3.8c5.2-0.6,10.3-2.3,15.4-2.7c17.1-1.2,28.9,5.6,35.7,21.3c5.4,12.4,10.2,25,14.6,37.7
		c2.2,6.4,3.1,13.3,1,20.1c-2.4,8-8.8,11.6-16.1,13.1c-5.3,1.1-11,1.3-16.3,0.6c-17.9-2.4-35.7-5.1-53.4-8.4
		c-14.3-2.7-28.4-6.4-42.6-9.6c-6.4-1.4-13.1-2-19.1-4.2c-6.4-2.3-12.2-6.4-18.4-9.4c-6-2.9-12.2-5.4-18.3-7.9
		c-0.6-0.3-1.7,0.3-2.5,0.8c-4.6,3-9,6.4-13.8,9c-10.8,5.7-16-1.2-18.6-10.4c-0.3-1.1,0.9-2.9,1.9-4c7.3-7.4,15.6-13.6,24.9-17.8
		c4.7-2.2,10.7-1.5,16.1-2.1C322.5,342.4,323,342.3,323.4,342.3z"/>
	<path class="st2" d="M306.7,374.8c-0.4-1.8,3.8-4.4,5.5-3.5c5.5,2.8,11,5.7,16.4,8.6c0.8,0.4,1.4,1.3,1.7,2.2
		c3.9,10.8,7.7,21.8,11.7,32.6c5.5,14.8,11.2,29.5,16.9,44.2c0.7,1.7,0.3,2.5-1.2,3.4c-8.9,5.2-18.9,6.5-29.2,8.4
		c-0.3-3.9-0.7-7.6-0.7-11.3c0-7.6,0.1-15.3,0.2-22.9c0-0.2,0-0.5,0.1-0.7c0.7-3,1-6.5,4.4-7.7c3.7-1.2,6.2,1.7,8,4.2
		c4.4,6.5,8.5,13.2,12.6,19.9c0.7,1.1,1.2,2.3,2.5,3.1c-0.7-2-1.4-4-2.1-5.9c-0.9-2.1-1.8-4.2-2.8-6.2c-2.8-5.9-5.8-11.8-10.9-16.2
		c-5.5-4.7-11.4-3.5-13.6,3.4c-1.3,4.1-1.5,8.6-2.3,13.4C322.8,438.1,307.6,378.8,306.7,374.8z"/>
	<path class="st2" d="M250.7,238.7c-0.1-0.2-0.2-0.4-0.2-0.6c-1.4-6.3-1.5-6.5,4-9.9c7.2-4.4,14.2-9.3,21.9-12.5
		c10.2-4.3,21.3-4.9,32.4-4.3c2,0.1,3,0.9,3.4,2.9c0.4,2.1,1.2,4.1,1.9,6.2C290.7,219.3,270.1,226.6,250.7,238.7z"/>
	<path class="st2" d="M317.6,231.9c-3.5,2.8-6.8,5.7-10.3,8.2c-0.5,0.4-2-0.1-2.9-0.5c-6.7-2.7-13.7-4.3-20.9-2.8
		c-7.3,1.5-13,5.5-15.9,12.6c-1.4,3.5-3.6,4.3-6.9,3.6c-2.6-0.5-5.2-0.8-7.9-1.2C258.3,237.8,307.1,223.4,317.6,231.9z"/>
	<g>
		<path class="st2" d="M300.7,257.2c-0.6-3-1.5-6-2.6-9c-0.3-0.8-1.4-1.7-2.3-1.8c-2.7-0.5-5.5-1-8.2-0.8
			c-4.3,0.2-10.1,5.9-10.1,5.9c0.1,0,0.1,0,0.2,0c-0.1,0-0.1,0-0.2,0c0,0-2.8,2.8-2.1,5.3c0.9,3.5,1.5,7,2.4,10.5
			c0.3,1.2,1.3,2.2,2.1,3.6l5-3.5c4.9-2.6,9.5-4.9,14-7.4C299.8,259.5,300.9,258,300.7,257.2z"/>
	</g>
</g>
<g id="XMLID_2_">
	<path id="XMLID_7_" class="st2" d="M117,418.5l-4,1.9c-0.5,0.3-1,0.3-1.6,0.1s-0.9-0.5-1.2-1.1l-17.6-36.9c-0.3-0.5-0.3-1-0.1-1.6
		s0.5-0.9,1.1-1.2l36.9-17.6c0.5-0.3,1-0.3,1.6-0.1c0.6,0.2,0.9,0.5,1.2,1.1l1.9,4c0.3,0.5,0.3,1,0.1,1.6c-0.2,0.6-0.5,0.9-1.1,1.2
		l-31.1,14.8l14.8,31.1c0.3,0.5,0.3,1,0.1,1.6C117.9,417.9,117.5,418.3,117,418.5z M173.9,368.4L125,436.1c-0.4,0.5-0.7,0.8-1.4,0.8
		c-0.5,0.1-1.1,0-1.4-0.3l-3.4-2.3c-0.5-0.4-0.8-0.7-0.8-1.4c-0.1-0.5,0-1.1,0.3-1.4l48.7-67.8c0.4-0.5,0.7-0.8,1.4-0.8
		c0.5-0.1,1.1,0,1.4,0.3l3.4,2.3c0.5,0.4,0.8,0.7,0.8,1.4C174.2,367.4,174,368,173.9,368.4z M198.7,420.2l-36.9,17.6
		c-0.5,0.3-1,0.3-1.6,0.1s-0.9-0.5-1.2-1.1l-1.9-4c-0.3-0.5-0.3-1-0.1-1.6c0.2-0.6,0.5-0.9,1.1-1.2l31.1-14.8l-14.8-31.1
		c-0.3-0.5-0.3-1-0.1-1.6c0.2-0.6,0.5-0.9,1.1-1.2l4-1.9c0.5-0.3,1-0.3,1.6-0.1c0.6,0.2,0.9,0.5,1.2,1.1l17.6,36.9
		c0.3,0.5,0.3,1,0.1,1.6C199.5,419.6,199.2,419.9,198.7,420.2z"/>
</g>
<g class="st3">
	<path class="st4" d="M310.5,477.8c-4.2-0.1-8.4-0.8-12.6-1.4c-4.2-0.7-8.3-1.5-12.5-2.4c-8.3-1.8-16.5-4-24.6-6.8
		c-2-0.6-4-1.4-6-2.2c-2-0.7-4-1.5-6-2.3c-2-0.8-4-1.7-6-2.5l-5.9-2.8c-7.7-4-15.3-8.6-22.3-14.3c-3-2.4-3.5-6.8-1-9.8
		c2.4-3,6.8-3.5,9.8-1c0.2,0.2,0.5,0.4,0.7,0.6l0.1,0.1c5.3,5.7,11.5,10.8,18.1,15.5l5.1,3.4c1.7,1.1,3.5,2.1,5.3,3.2
		c1.7,1.1,3.6,2,5.4,3c1.8,1,3.6,2,5.5,2.9c7.4,3.7,15.1,7,22.9,9.9c3.9,1.4,7.9,2.8,11.9,4C302.4,475.8,306.4,477.1,310.5,477.8
		C310.5,477.8,310.6,477.8,310.5,477.8C310.6,477.8,310.5,477.8,310.5,477.8z"/>
</g>
<g>
	
		<rect x="154.4" y="274.5" transform="matrix(0.8946 0.4469 -0.4469 0.8946 148.3707 -41.3255)" class="st0" width="14.9" height="38.6"/>
	
		<rect x="180.6" y="253.5" transform="matrix(0.8946 0.4469 -0.4469 0.8946 148.9468 -53.5739)" class="st0" width="14.9" height="70.8"/>
	
		<rect x="196" y="272.7" transform="matrix(0.8946 0.4469 -0.4469 0.8946 156.7321 -59.0195)" class="st0" width="14.9" height="60"/>
	<path class="st5" d="M131.5,300.3c0,0,89.9-33.4,106.2,4.2"/>
</g>
<g class="st6">
	<path class="st4" d="M314.6,472.4c-6.9-0.6-13.6-3.1-19.7-6.5c-6.1-3.4-11.7-7.6-17.1-12c-10.7-9-20.2-19.3-29-30.1
		c-8.8-10.8-17-22.1-24.5-33.9c-3.8-5.9-7.4-11.9-10.8-18c-3.4-6.2-6.6-12.4-9.4-19c-0.9-2.2,0.1-4.7,2.3-5.6
		c2.2-0.9,4.7,0.1,5.6,2.3c0,0.1,0.1,0.1,0.1,0.2l0,0c2.3,6.3,5.1,12.5,8,18.7c3,6.1,6.2,12.2,9.6,18.2
		c6.8,11.9,14.3,23.5,22.4,34.6c8.2,11.1,17,21.7,27.1,31.1c5,4.7,10.4,9,16.2,12.7C301.3,468.7,307.7,471.5,314.6,472.4
		C314.6,472.4,314.6,472.4,314.6,472.4C314.6,472.4,314.6,472.4,314.6,472.4z"/>
</g>
<path class="st1" d="M74,201c0.3-13.8,6.2-24.2,15.4-33.2c-8.3,4.7-15.7,10.2-20.5,19.1c-6-4.5-11.4-9.1-17.2-12.9
	c-6.3-4.2-9.5-9.9-13.2-15.4c-0.5-0.8-1-1.5-1.5-2.3c-2.2-3.1-3.1-7.1-3.4-11.6c-0.1-1.8,0.1-3.6,0.4-5.3c1.1-4.8,3.8-8.9,6.9-12.5
	c5.6-6.6,12.3-12.3,18.6-18.4c2.2-2.2,4.6-4.1,7.1-5.7c4.8-3.1,10.1-5,16.1-5.2c6.6-0.2,13.7-0.3,19.9,1.7c12,3.8,14,16.6,17.5,28.1
	c0.2,0.7-12.3,12.2-17.9,16.7c1.7-0.7,2.7-1.1,3.6-1.5c11.1-5.2,22.3-10.3,33.4-15.6c2.9-1.4,5.5-1.1,7.6,1
	c5,5.2,9.8,10.7,14.6,16.1c4.2,4.8,2.3,11.7-2.7,15.4c-7.9,5.8-16,11.4-24,16.9c-1.9,1.3-4.2,2.2-6.2,0c-2.1-2.4-4.3-4.9-6.2-7.5
	c-0.7-0.9-1.1-2.6-0.7-3.6c1.1-3,2.2-6.1,4-8.7c3.6-5,7.7-9.6,11.4-14.3c-6,2.5-10.9,6.8-14.6,12.3c-4.1,6.1-7.7,12.6-11.6,19
	c0.5,0.3,1.1,0.5,1.7,0.5c2.1,0.2,4.6-0.3,4.9,2.8C103.1,185,87,189.4,74,201z"/>
</svg>
