<svg version="1.1" id="Layer_1" xmlns="http://www.w3.org/2000/svg" x="0" y="0" viewBox="0 0 512 512" xml:space="preserve"><style>.st0{fill:#eb7d8e}.st1{fill:#ffcd05}.st2{fill:#6bc8c3}.st4{fill:#616262}</style><path class="st0" d="M172 62.9c-5.9 12.2-6.4 24.9 1.5 37 4.6 7 9.1 14 13.9 21.4-7.3 4.9-14.4 9.6-22.3 14.9L62.5 203.9c-6.9 4.7-14.7 9.8-22.3 15.1-6.3 4.4-8 11.6-3.7 17.9 2.9 4.1 6.6 7.8 10.7 10.9 4.5 3.4 9.5 2.9 14.3-.6 2.9-2.1 5.9-4.1 8.9-6.1l-.3.2.3-.2c3.7-2.5 7.4-4.9 11.1-7.4v.1l105.1-69.3c6.4-4.4 12.8-8.7 19.6-13.2 5.6 8.8 10.9 17.3 16.2 25.8 3.4 5.5 6.6 11.2 10.3 16.4 8 11.1 19.4 14.9 32.4 13.7 22.6-2 38.4-14.7 49.6-33.5 5.6-9.3 8.7-19.4 7.3-30.5-.8-6-3.8-10.9-7.3-15.7-7.2-9.7-14.1-19.7-21.1-29.5-.4-.6-.7-1.2-1.3-2.1 3.5-2.3 6.8-4.6 10.2-6.6 2-1.2 2.8-2.8 2.5-5-1.4-11.8-6.3-21.5-16.9-27.6-1.1-.6-3.4.1-4.7.9-4.2 2.6-8.1 5.4-12.6 8.5-3.4-4.9-6.6-9.6-10-14.2-3.4-4.7-6.4-9.7-10.4-13.7-9.1-9-20.6-11.4-32.8-9.4-21 3.3-36.4 15-45.6 34.1zm123.8 15.4c-5.6-.4-11.3-.8-16.9-1.2 1.2.3 2.4.5 3.6.9.4.1.8.3 1.1.4 1.3.6 2.3 1.8 3.6 2.9.4-.2 1.6-.6 2.7-1-4.2 4.2-4.9 4.1-8.2.1-.9-1.1-1.9-2.2-2.8-3.3-1.2-1.7-2.3-3.4-3.5-5.2 4-2.7 7.6-5.1 11.9-8 3.1 4.6 6.2 8.9 9.2 13.3-.3.3-.5.7-.7 1.1zm-20.7 9.4c-.5-.2-1.2-.2-1.3-.5-1.6-3.1-3.2-6.2-4.6-9.1 3.7 2.8 5.9 6.1 5.9 9.6zm16.9 30c-7.8-11-15.3-22.2-22.8-33.4-.8-1.2-1.1-2.7-1.7-4.1.3-.2.6-.3.9-.5 2.9 5.5 4.7 12.1 12.5 14.4v4.1c2.5-1.6 4.1.2 5.6 2.4 3.7 5.4 7.5 10.7 11.2 16.2.3.5-.5 1.7-.8 2.6-1.6-.5-4-.5-4.9-1.7zm-64.4 17.8c3.1 4.9 3.4 5.1-.4 9.4-.7.8-1.5 1.6-2.3 2.3-2.5 1.9-5.2 3.1-7.7.5-2.9-3-5.6-6.3-8.1-9.6-1.6-2.1-2.5-4.6-4.1-6.7-3.8-4.8-7.8-9.5-11.6-14.2.8-.6 1.2-1 1.2-1-2.8-3.5-5.5-6.7-8.4-10.3 1.5-.5 2.2-.7 2.2-.7V101c-1.3.6-2.6 1.2-4.2 2-.2-1.7-.4-2.8-.5-3.8-.5-1-1-1.9-1.5-2.9-.6-.7-1.4-1.2-1.7-2-.8-2-2.9-3.5-3.5-5.6-.2-.8-.2-1.6.2-2.5.1-.2.2-.5.4-.7h-.1v-.1l-.2-.2c-.2-.2-.3-.4-.5-.6l-.1.1v-.1c0-1.1-.1-2.3-.1-3.4l-.1-.1.1-.1v-.1c-.1-.4-.1-.8-.2-1.2h.1c-.2-1.2-.5-2.4-.7-3.5.3 0 .5-.1.8-.1 5.1 8 10.2 16 15.4 24 .5.2 1 .5 1.6.7.2 1.1.3 2.2.5 3.2 0 .1.1.2.2.4.9-.3 1.7-.7 2.6-1 .4-.3.8-.5 1.2-.8l-.1-.1c0-.4.1-.7.1-1.1h.1l-.8-.8-2.8-2.8c-5.1-7.6-10.1-15.3-15.5-22.7-1.9-2.6-2-4.7-1-7.5 6.9-18.4 28-33 47.6-32.3 1.8.1 3.4.2 4.9.4.6.1 1.3.2 1.9.3 1.2.3 2.3.6 3.3.9h.1c7.3 2.6 11.5 7.9 15.6 15.3l.1.1c5.7 7.7 11.4 15.4 17.2 23.2-1 1.2-1.9 2.3-3 3.6-1.4-2.3-2.6-4.3-3.9-6.5.9.5 1.6 1 2.8 1.7-2.9-3.5-5.7-6.3-7.8-9.6-2.3-3.8-7-6.8-5.2-12.4l-.1-.1s0-.1-.1-.1c-2.1-2-4.2-4.1-6.2-6.1-.3.2-.6.4-.9.7 3.5 6.5 7 13 10.4 19.5-.2.2-.4.3-.6.5-.9-.6-1.7-1.2-2.6-1.7.7 2.1 1.1 4.3 2.2 6 2.1 3.4 6.5 5.2 5.2 10.7-.4 1.6.1 3.5.7 5.3.4 1.1.8 2.2 1 3.3.3-2.9.6-5.8.9-8.8.1-.9.1-1.7.1-2.6.8.5 1.8.9 2.3 1.6 1.6 2.9 3.3 5.7 4.9 8.6l4.8 8.7c0 .1.1.2.1.3.2.6.4 1.2.7 1.7l.6 2.1c0 .1 0 .2.1.3-.3.4-.6.8-.9 1.3v-.1l-.6.9c1.3-.3 2.6-.6 4.3-1 2.7 4.8 5.6 10 8.5 15.2-3.9 1.5-6.9 1.3-8.8-2.4-.8-1.4-1.6-2.9-2.5-4.2-.2-.3-1-.2-1.5-.2.3.9.5 1.8.9 3.1.1.2.1.4.2.6-1.4-.1-2.5-.2-3.8-.2-3.4 8.1-5.9 10.4-12.5 11.5-.3-2.4-.5-4.9-.8-7.3-1.1 1.1-2 2.4-3.2 3.3-.2.1-.3.3-.5.4-2.3 1.4-5 2.2-7.3 3.6-4.9 3.1-9.6 6.5-14.3 9.7"/><path class="st1" d="M155.7 170.3c2.4 5.7 4.6 10.7 6.4 15.8 1.7 5 3 10.3 4.1 15.6-5.8-8.5-7.8-19.3-16.5-25.9-6.1 3.7-12.2 7.3-17.4 10.5 3.1 9.3 6.3 18.9 9.5 28.6-.4.2-.8.3-1.2.5-1.7-3.5-3.5-7-5.1-10.6-3.1-6.9-7-13-13.1-17.6-1.8-1.4-3.3-1.9-5.4-.8-4.2 2.2-8.5 4.2-13.2 6.5 7.4 9.4 10.3 20 12.1 31-2.6-4.9-4.9-10.1-8-14.7-2.7-4-6.1-7.7-9.6-10.9-1.1-1-4.3-1-5.8-.1-4.4 2.5-8.5 5.4-12.4 8.5-.8.6-1 3-.5 4.1 3.5 8 7.2 15.8 11 23.6 1.7 3.5 4.1 6.7 5.9 10.2 2.7 5.1 7.3 6 11.9 4.6 4.6-1.4 9-1 13.4-.1 4.6.9 7.6-.9 10.3-4.1 1.3-1.5 2.6-3.1 4-4.6 3.6-3.8 7.9-6.1 13.1-4.8 5.5 1.4 8.8-1.1 11.7-5.2 2.2-3.1 4.9-5.8 7.5-8.6 4.6-4.8 10.4-6.4 17-5.9s11-5.8 8.3-11.8c-4-8.9-7.8-17.9-12.3-26.6-3-5.8-7.3-10.6-13.7-13.1-2.3-.9-4.2-1-6.2.8-1.8 2.1-4.2 3.8-5.8 5.1zM323.4 342.3c-8.9-4-17.9-4.4-26.6.2-6.8 3.6-13.5 7.5-20.9 11.6-1.4-2.7-3.2-5.8-4.6-9.2-.4-1-.1-2.9.7-3.6 9.9-10.1 19.3-21 32-27.8 5.7-3.1 8.2-2.9 18.3.1-3.3-4-11-5.9-17.5-4.2-8.2 2.1-15.5 6.2-22.3 11.1-3.2 2.3-6.2 4.7-9.6 7.2-1.9-3.3-1.9-6.2.8-8.6 7.3-6.5 14.7-12.9 22.1-19.3 1.2-1 2.5-1.9 3.7-2.9 6.1-5 12.5-8.8 21.6-6.1-4.3-3.3-10.7-3.8-15.4-1.9-12.1 5-23 12-33.5 19.8-3.5-4-3.3-10.7 1.1-14.2 5.6-4.4 11.4-8.7 17.5-12.3 9.7-5.7 19.6-10.8 29.5-16 5-2.6 9-1.7 12.6 2.9 3.8 4.9 7.1 10.2 11.1 14.9 5.9 7.1 12.4 13.6 18.2 20.8 9.8 12 16.9 25.4 21.2 40.3.1.4.3.9.5 1.3.4 0 .7-.1 1.1-.1-.7-8.1-1.5-16.1-2.2-24.6 3.9-.5 8.2-1.2 12.5-1.7 12.1-1.3 24.2-2.4 36.3-3.8 5.2-.6 10.3-2.3 15.4-2.7 17.1-1.2 28.9 5.6 35.7 21.3 5.4 12.4 10.2 25 14.6 37.7 2.2 6.4 3.1 13.3 1 20.1-2.4 8-8.8 11.6-16.1 13.1-5.3 1.1-11 1.3-16.3.6-17.9-2.4-35.7-5.1-53.4-8.4-14.3-2.7-28.4-6.4-42.6-9.6-6.4-1.4-13.1-2-19.1-4.2-6.4-2.3-12.2-6.4-18.4-9.4-6-2.9-12.2-5.4-18.3-7.9-.6-.3-1.7.3-2.5.8-4.6 3-9 6.4-13.8 9-10.8 5.7-16-1.2-18.6-10.4-.3-1.1.9-2.9 1.9-4 7.3-7.4 15.6-13.6 24.9-17.8 4.7-2.2 10.7-1.5 16.1-2.1.4.1.9 0 1.3 0z"/><path class="st2" d="M306.7 374.8c-.4-1.8 3.8-4.4 5.5-3.5 5.5 2.8 11 5.7 16.4 8.6.8.4 1.4 1.3 1.7 2.2 3.9 10.8 7.7 21.8 11.7 32.6 5.5 14.8 11.2 29.5 16.9 44.2.7 1.7.3 2.5-1.2 3.4-8.9 5.2-18.9 6.5-29.2 8.4-.3-3.9-.7-7.6-.7-11.3 0-7.6.1-15.3.2-22.9 0-.2 0-.5.1-.7.7-3 1-6.5 4.4-7.7 3.7-1.2 6.2 1.7 8 4.2 4.4 6.5 8.5 13.2 12.6 19.9.7 1.1 1.2 2.3 2.5 3.1-.7-2-1.4-4-2.1-5.9-.9-2.1-1.8-4.2-2.8-6.2-2.8-5.9-5.8-11.8-10.9-16.2-5.5-4.7-11.4-3.5-13.6 3.4-1.3 4.1-1.5 8.6-2.3 13.4-1.1-5.7-16.3-65-17.2-69zM250.7 238.7c-.1-.2-.2-.4-.2-.6-1.4-6.3-1.5-6.5 4-9.9 7.2-4.4 14.2-9.3 21.9-12.5 10.2-4.3 21.3-4.9 32.4-4.3 2 .1 3 .9 3.4 2.9.4 2.1 1.2 4.1 1.9 6.2-23.4-1.2-44 6.1-63.4 18.2zM317.6 231.9c-3.5 2.8-6.8 5.7-10.3 8.2-.5.4-2-.1-2.9-.5-6.7-2.7-13.7-4.3-20.9-2.8-7.3 1.5-13 5.5-15.9 12.6-1.4 3.5-3.6 4.3-6.9 3.6-2.6-.5-5.2-.8-7.9-1.2 5.5-14 54.3-28.4 64.8-19.9z"/><path class="st2" d="M300.7 257.2c-.6-3-1.5-6-2.6-9-.3-.8-1.4-1.7-2.3-1.8-2.7-.5-5.5-1-8.2-.8-4.3.2-10.1 5.9-10.1 5.9h.2-.2s-2.8 2.8-2.1 5.3c.9 3.5 1.5 7 2.4 10.5.3 1.2 1.3 2.2 2.1 3.6l5-3.5c4.9-2.6 9.5-4.9 14-7.4.9-.5 2-2 1.8-2.8z"/><g id="XMLID_2_"><path id="XMLID_7_" class="st2" d="M117 418.5l-4 1.9c-.5.3-1 .3-1.6.1s-.9-.5-1.2-1.1l-17.6-36.9c-.3-.5-.3-1-.1-1.6s.5-.9 1.1-1.2l36.9-17.6c.5-.3 1-.3 1.6-.1.6.2.9.5 1.2 1.1l1.9 4c.3.5.3 1 .1 1.6-.2.6-.5.9-1.1 1.2l-31.1 14.8 14.8 31.1c.3.5.3 1 .1 1.6-.1.5-.5.9-1 1.1zm56.9-50.1L125 436.1c-.4.5-.7.8-1.4.8-.5.1-1.1 0-1.4-.3l-3.4-2.3c-.5-.4-.8-.7-.8-1.4-.1-.5 0-1.1.3-1.4l48.7-67.8c.4-.5.7-.8 1.4-.8.5-.1 1.1 0 1.4.3l3.4 2.3c.5.4.8.7.8 1.4.2.5 0 1.1-.1 1.5zm24.8 51.8l-36.9 17.6c-.5.3-1 .3-1.6.1s-.9-.5-1.2-1.1l-1.9-4c-.3-.5-.3-1-.1-1.6.2-.6.5-.9 1.1-1.2l31.1-14.8-14.8-31.1c-.3-.5-.3-1-.1-1.6.2-.6.5-.9 1.1-1.2l4-1.9c.5-.3 1-.3 1.6-.1.6.2.9.5 1.2 1.1l17.6 36.9c.3.5.3 1 .1 1.6-.4.7-.7 1-1.2 1.3z"/></g><g opacity=".5"><path class="st4" d="M310.5 477.8c-4.2-.1-8.4-.8-12.6-1.4-4.2-.7-8.3-1.5-12.5-2.4-8.3-1.8-16.5-4-24.6-6.8-2-.6-4-1.4-6-2.2-2-.7-4-1.5-6-2.3-2-.8-4-1.7-6-2.5l-5.9-2.8c-7.7-4-15.3-8.6-22.3-14.3-3-2.4-3.5-6.8-1-9.8 2.4-3 6.8-3.5 9.8-1 .2.2.5.4.7.6l.1.1c5.3 5.7 11.5 10.8 18.1 15.5l5.1 3.4c1.7 1.1 3.5 2.1 5.3 3.2 1.7 1.1 3.6 2 5.4 3 1.8 1 3.6 2 5.5 2.9 7.4 3.7 15.1 7 22.9 9.9 3.9 1.4 7.9 2.8 11.9 4 4 .9 8 2.2 12.1 2.9 0 0 .1 0 0 0 .1 0 0 0 0 0z"/></g><g><path transform="rotate(26.543 161.774 293.846)" class="st0" d="M154.4 274.5h14.9v38.6h-14.9z"/><path transform="rotate(26.543 188.025 288.944)" class="st0" d="M180.6 253.5h14.9v70.8h-14.9z"/><path transform="rotate(26.543 203.46 302.724)" class="st0" d="M196 272.7h14.9v60H196z"/><path d="M131.5 300.3s89.9-33.4 106.2 4.2" fill="none" stroke="#ffcd05" stroke-width="3.987" stroke-linecap="round" stroke-miterlimit="10"/></g><g opacity=".75"><path class="st4" d="M314.6 472.4c-6.9-.6-13.6-3.1-19.7-6.5s-11.7-7.6-17.1-12c-10.7-9-20.2-19.3-29-30.1s-17-22.1-24.5-33.9c-3.8-5.9-7.4-11.9-10.8-18-3.4-6.2-6.6-12.4-9.4-19-.9-2.2.1-4.7 2.3-5.6 2.2-.9 4.7.1 5.6 2.3 0 .1.1.1.1.2 2.3 6.3 5.1 12.5 8 18.7 3 6.1 6.2 12.2 9.6 18.2 6.8 11.9 14.3 23.5 22.4 34.6 8.2 11.1 17 21.7 27.1 31.1 5 4.7 10.4 9 16.2 12.7 5.9 3.6 12.3 6.4 19.2 7.3z"/></g><path class="st1" d="M74 201c.3-13.8 6.2-24.2 15.4-33.2-8.3 4.7-15.7 10.2-20.5 19.1-6-4.5-11.4-9.1-17.2-12.9-6.3-4.2-9.5-9.9-13.2-15.4-.5-.8-1-1.5-1.5-2.3-2.2-3.1-3.1-7.1-3.4-11.6-.1-1.8.1-3.6.4-5.3 1.1-4.8 3.8-8.9 6.9-12.5 5.6-6.6 12.3-12.3 18.6-18.4 2.2-2.2 4.6-4.1 7.1-5.7 4.8-3.1 10.1-5 16.1-5.2 6.6-.2 13.7-.3 19.9 1.7 12 3.8 14 16.6 17.5 28.1.2.7-12.3 12.2-17.9 16.7 1.7-.7 2.7-1.1 3.6-1.5 11.1-5.2 22.3-10.3 33.4-15.6 2.9-1.4 5.5-1.1 7.6 1 5 5.2 9.8 10.7 14.6 16.1 4.2 4.8 2.3 11.7-2.7 15.4-7.9 5.8-16 11.4-24 16.9-1.9 1.3-4.2 2.2-6.2 0-2.1-2.4-4.3-4.9-6.2-7.5-.7-.9-1.1-2.6-.7-3.6 1.1-3 2.2-6.1 4-8.7 3.6-5 7.7-9.6 11.4-14.3-6 2.5-10.9 6.8-14.6 12.3-4.1 6.1-7.7 12.6-11.6 19 .5.3 1.1.5 1.7.5 2.1.2 4.6-.3 4.9 2.8C103.1 185 87 189.4 74 201z"/></svg>