<?xml version="1.0" encoding="utf-8"?>
<!-- Generator: Adobe Illustrator 24.2.3, SVG Export Plug-In . SVG Version: 6.00 Build 0)  -->
<svg version="1.1" id="Layer_1" xmlns="http://www.w3.org/2000/svg" xmlns:xlink="http://www.w3.org/1999/xlink" x="0px" y="0px"
	 viewBox="0 0 512 512" style="enable-background:new 0 0 512 512;" xml:space="preserve">
<style type="text/css">
	.st0{fill:#00B2A0;}
	.st1{fill:#FFFFFF;}
</style>
<polyline class="st0" points="512,0 512,512 0,512 0,0 "/>
<g>
	<path class="st1" d="M315.3,205.3v59.3v14.1h0c0,33.2-26.6,60.1-59.3,60.1s-59.3-26.9-59.3-60.1h0v-14.1v-29.7v-59.3v-59.3
		c-32.8,0-59.3,26.6-59.3,59.3v59.3v29.7v14.8h0c0.4,65.2,53.4,117.9,118.6,117.9s118.2-52.7,118.6-117.9h0v-14.8
		C374.7,231.8,348.1,205.3,315.3,205.3z"/>
</g>
<path class="st1" d="M267.2,186.1c15.4,0.5,27.6-11.4,28.1-26.7c0.7-7.6-2.7-14.1-7.4-19c-20.3-21.8-57.2-21.2-57.2-21.2
	s-3.1,36,17.3,57.9l0,0C252.5,182.9,259.4,186.3,267.2,186.1z"/>
</svg>
