<?xml version="1.0" encoding="utf-8"?>
<!-- Generator: Adobe Illustrator 24.1.3, SVG Export Plug-In . SVG Version: 6.00 Build 0)  -->
<svg version="1.1" id="Layer_1" xmlns="http://www.w3.org/2000/svg" xmlns:xlink="http://www.w3.org/1999/xlink" x="0px" y="0px"
	 viewBox="0 0 345.2 345.2" style="enable-background:new 0 0 345.2 345.2;" xml:space="preserve">
<style type="text/css">
	.st0{fill:#00B4A2;}
	.st1{display:none;}
	.st2{display:inline;fill:#FFFFFF;}
	.st3{display:none;fill:#FFFFFF;}
	.st4{display:inline;}
	.st5{fill:#FFFFFF;}
	.st6{display:inline;fill:none;stroke:#FFFFFF;stroke-width:0.5;stroke-miterlimit:10;}
</style>
<polyline class="st0" points="345.2,0 345.2,345.2 0,345.2 0,0 "/>
<g id="original" class="st1">
	<path class="st2" d="M151,174.6c0-3.3-0.5-6.7-1.4-9.9c-4.3-15.4-21.8-29.8-37.1-30c0,0-0.2,43.8,0.1,51c0.4,14.9-3.2,28.1-14.6,39
		c-11.8,11.2-28.8,14.3-44.7,8.4c-16.3-6-25.6-18.5-25.9-34.6c-0.1-6.8-0.1-132.2-0.1-132.2C11.7,64.5-5.9,76.5-10.2,91.8
		c-0.9,3.2-1.4,6.6-1.4,9.9c-0.1,16,0,86.9,0,94.5c0,10.9,1.8,21.5,6.7,31.6c16,32.4,53.2,49.1,93,41.6c39.6-7.4,61.1-43.9,62.9-73
		C151.1,196.1,151,175.7,151,174.6z"/>
</g>
<path id="paksu_kaari" class="st3" d="M105.6,133.9c-16.1-7-35-9.2-54.6-5.5c-6.2,1.2-12,3-17.3,5.4v48.5c2-3.2,4.4-6.2,7.4-9
	c11.8-11.2,28.8-14.3,44.7-8.4c8.7,3.2,15.4,8.3,19.8,14.7V133.9z"/>
<path class="st3" d="M111.7,66.7c15.6-1.3,32.6,7.4,36.9,18.6c0.9,2.4,1.4,4.9,1.4,7.3c0,0-10.4,13.2-10.3,28.9
	c0,0-28.2,0.4-28.2-27.7C111.5,92.6,111.4,88.5,111.7,66.7z"/>
<g id="Alakaari" class="st1">
	<path class="st2" d="M149.6,188.2c0-13.5-3.1-26.2-8.6-37.4c-7.5-9.2-18.4-16.1-28.8-16.2c0,0-0.2,44.8,0,52
		c0.4,14.9-3.4,27.2-14.7,38c-11.6,11.2-28.4,14.3-44,8.4c-16-6-25.2-18.5-25.5-34.6c-0.1-3.8-0.1-45.6-0.1-81.2
		C6.2,130.9-8.7,155-10.4,182.8c0,4.7,0,8.4,0,10.9c2.7,43.2,37.3,77.4,79.6,77.6c0.1,0,0.3,0,0.4,0
		C113.8,271.2,149.6,234.1,149.6,188.2z"/>
</g>
<g id="Selkämys" class="st1">
	<path class="st2" d="M27.4,189.9c-0.1-35.5,0-115.6,0-115.6C12,74.3-4.8,84.2-9,99.5c-0.9,3.2-1.4,6.6-1.4,9.9
		c-0.1,12.3-0.1,56.9-0.1,80.4H27.4z"/>
</g>
<path id="Pyöristin" class="st3" d="M112.2,188.4c0.1-36,0-52.7,0-52.7c14.9-1.8,31.8,10.4,36,26c0.9,3.3,1.3,6.7,1.4,10.1
	c0.1,12.4,0.1-7.3,0.1,16.5L112.2,188.4z"/>
<path id="Kaari" class="st3" d="M101.5,132.6c-15-5.5-32.2-7-49.9-3.6c-4.6,0.9-8.9,2.1-13,3.6v42.1c1-1.1,1.3-1.2,2.5-2.2
	c12-9.5,29.4-12.9,45.3-7c6,2.2,11,5.4,15,9.2V132.6z"/>
<g id="pin" class="st1">
	<g class="st4">
		<path class="st5" d="M106.6,119.8c0.1-2.3,0-4.5,0.2-6.7c0.1-1,0.2-2.1,0.3-3.1c0.3-2.7,0.6-5.4,0.9-8.1c0.3-2.7,0.8-5.4,1.4-8
			c0.5-2.3,1.2-4.6,2.2-6.8c0.6-1.5,1.4-2.9,2.3-4.3c0.6-0.9,1.3-1.8,2.1-2.6c0.4-0.4,0.7-0.8,1.1-1.2c1.7-1.7,3.6-3.1,5.8-4.1
			c2.7-1.2,5.6-1.8,8.6-1.7c3.1,0.1,6,0.9,8.7,2.4c0.9,0.5,1.8,1.1,2.6,1.7c0.9,0.7,1.7,1.5,2.5,2.3c1.5,1.6,2.7,3.4,3.6,5.4
			c1.3,2.9,1.9,5.9,1.8,9.1c0,0.8,0,1.7-0.1,2.5c-0.2,2.6-1,5-2.4,7.2c-0.8,1.3-1.8,2.5-2.9,3.6c-1.5,1.5-3.2,2.7-5,3.7
			c-2.1,1.2-4.4,2.2-6.7,3c-2.9,1.1-5.9,1.9-8.9,2.5c-3.1,0.7-6.3,1.3-9.4,1.8c-2.2,0.4-4.4,0.6-6.6,0.9c-0.6,0.1-1.2,0.1-1.9,0.2
			C106.8,119.8,106.7,119.8,106.6,119.8z"/>
	</g>
</g>
<g id="skeleton" class="st1">
	<circle class="st6" cx="70.5" cy="172.6" r="80"/>
	<circle class="st6" cx="70.5" cy="185.1" r="60"/>
	<circle class="st6" cx="70.5" cy="225.1" r="60"/>
	<circle class="st6" cx="30.5" cy="113.1" r="40"/>
	<circle class="st6" cx="130.5" cy="93.1" r="20"/>
	<circle class="st6" cx="110.5" cy="93.1" r="40"/>
	<rect x="-9.5" y="113.1" class="st6" width="40" height="40"/>
	<path class="st6" d="M30.5,73.1c-22.1,0-40,17.9-40,40h40V73.1z"/>
	<path class="st6" d="M110.5,133.1c22.1,0,40,17.9,40,40h-40V133.1z"/>
	<rect x="-9.5" y="153.1" class="st6" width="40" height="20"/>
	
		<rect x="15.5" y="148.1" transform="matrix(2.244189e-11 -1 1 2.244189e-11 -117.5745 188.617)" class="st6" width="40" height="10"/>
	<line class="st6" x1="-9.5" y1="173.1" x2="150.5" y2="173.1"/>
	<path class="st6" d="M110.5,173.1c0,22.1-17.9,40-40,40s-40-17.9-40-40H110.5z"/>
	
		<rect x="85.5" y="148.1" transform="matrix(2.246454e-11 -1 1 2.246454e-11 -47.5745 258.617)" class="st6" width="40" height="10"/>
	<rect x="-9.5" y="245.1" class="st6" width="160" height="7.5"/>
	<path class="st6" d="M158.8,64.8c0,0-26.8-1.5-42.4,14.1s-14.1,42.4-14.1,42.4s26.8,1.5,42.4-14.1
		C160.3,91.6,158.8,64.8,158.8,64.8z M116.4,79l14.1,14.1L116.4,79z"/>
	<line class="st6" x1="144.6" y1="107.2" x2="130.5" y2="93.1"/>
</g>
<g class="st1">
	<rect x="-9.5" y="113.1" class="st2" width="40" height="40"/>
	<path class="st2" d="M30.5,73.1c-22.1,0-40,17.9-40,40h40V73.1z"/>
	<path class="st2" d="M110.5,133.1c22.1,0,40,17.9,40,40h-40V133.1z"/>
	<rect x="-9.5" y="153.1" class="st2" width="40" height="20"/>
	<rect x="110.5" y="173.1" class="st2" width="40" height="10"/>
	<rect x="-9.5" y="173.1" class="st2" width="40" height="10"/>
	<path class="st2" d="M110.5,182.6c0,22.4-17.9,40.5-40,40.5s-40-18.1-40-40.5h-40c0,44.2,35.8,80,80,80s80-35.8,80-80H110.5z"/>
</g>
<g>
	<path class="st5" d="M202.6,148.4c-8.8-5.1-19.1-8-30-8s-21.2,2.9-30,8v40h0.1c8.8-5.1,19-8,29.9-8s21.1,2.9,29.9,8h0.1V148.4z"/>
	<path class="st5" d="M250.1,81.1c-3.4-10.5-14.7-16.2-25.2-12.8c-5.2,1.7-9.3,5.4-11.6,10C203.3,98,213,123,213,123
		s25.9-6.9,35.9-26.7l0,0C251.2,91.8,251.8,86.3,250.1,81.1z"/>
	<path class="st5" d="M212.6,148.4v40v9.5h0c0,22.4-17.9,40.5-40,40.5s-40-18.1-40-40.5h0v-9.5v-20v-40v-40c-22.1,0-40,17.9-40,40
		v40v20v10h0c0.3,44,36,79.5,80,79.5s79.7-35.5,80-79.5h0v-10C252.6,166.3,234.7,148.4,212.6,148.4z"/>
</g>
</svg>
