<?xml version="1.0" encoding="UTF-8"?>
<svg id="Layer_1" xmlns="http://www.w3.org/2000/svg" version="1.1" viewBox="0 0 32 32">
  <!-- Generator: Adobe Illustrator 29.1.0, SVG Export Plug-In . SVG Version: 2.1.0 Build 142)  -->
  <defs>
    <style>
      .st0 {
        fill: #00b1a1;
      }
    </style>
  </defs>
  <path class="st0" d="M3.49,9.41c0-3.23,2.18-6.04,5.37-7.41.2-.08.42-.06.6.05.18.12.28.32.28.53,0,3.5,0,15.8,0,15.8,0,3.5,2.81,6.33,6.25,6.33s6.25-2.83,6.25-6.33v-1.48s0-2.26,0-4.05c0-.55,0-1.06,0-1.45,0-.2.08-.39.23-.52.15-.13.34-.19.54-.17,0,0,0,0,0,0,1.57,0,5.47,2.35,5.47,7.76-.04,6.87-5.63,12.42-12.51,12.42S3.53,25.32,3.49,18.45v-9.05Z"/>
  <path class="st0" d="M16.95,9.06c1.83.06,3.29-1.36,3.35-3.17.08-.9-.32-1.68-.88-2.26-1.85-1.98-4.84-2.4-6.16-2.5-.17-.01-.34.05-.47.17-.13.12-.2.28-.2.46,0,1.3.23,4.25,2.08,6.23.54.69,1.36,1.09,2.29,1.07Z"/>
</svg>