<svg width="500" height="500" viewBox="0 0 500 500" fill="none" xmlns="http://www.w3.org/2000/svg">
<path d="M124 182.651C124 148.414 147.135 118.71 180.893 104.122C182.964 103.243 185.338 103.46 187.215 104.7C189.09 105.939 190.219 108.037 190.219 110.283C190.25 147.346 190.25 277.69 190.25 277.69C190.25 314.728 219.968 344.737 256.5 344.737C293.032 344.737 322.75 314.728 322.75 277.69V261.96C322.75 261.96 322.75 238.071 322.78 219.004C322.79 213.146 322.802 207.745 322.818 203.629C322.818 201.533 323.713 199.536 325.278 198.139C326.845 196.741 328.931 196.078 331.017 196.312C331.022 196.312 331.025 196.313 331.028 196.313C347.609 196.313 389 221.243 389 278.471C388.553 351.208 329.341 410 256.5 410C183.659 410 124.447 351.208 124 278.471V182.651Z" fill="#00BEAA" style="fill:#00BEAA;fill:color(display-p3 0.0000 0.7451 0.6667);fill-opacity:1;"/>
<path d="M266.511 179.002C285.932 179.631 301.317 164.646 301.948 145.379C302.831 135.808 298.543 127.623 292.616 121.452C273.069 100.492 241.319 95.9753 227.396 95.0119C225.553 94.9023 223.747 95.5534 222.4 96.8127C221.052 98.0707 220.282 99.8274 220.269 101.67C220.306 115.421 222.723 146.684 242.298 167.668C247.973 174.972 256.674 179.253 266.511 179.002Z" fill="#00BEAA" style="fill:#00BEAA;fill:color(display-p3 0.0000 0.7451 0.6667);fill-opacity:1;"/>
</svg>
