<?xml version="1.0" encoding="utf-8"?>
<!-- Generator: Adobe Illustrator 24.2.1, SVG Export Plug-In . SVG Version: 6.00 Build 0)  -->
<svg version="1.1" id="Layer_1" xmlns="http://www.w3.org/2000/svg" xmlns:xlink="http://www.w3.org/1999/xlink" x="0px" y="0px"
	 viewBox="0 0 32 32" style="enable-background:new 0 0 32 32;" xml:space="preserve">
<style type="text/css">
	.st0{display:none;}
	.st1{display:inline;fill:#FFFFFF;}
	.st2{display:none;fill:#FFFFFF;}
	.st3{display:inline;}
	.st4{fill:#FFFFFF;}
	.st5{display:inline;fill:none;stroke:#FFFFFF;stroke-width:0.5;stroke-miterlimit:10;}
	.st6{fill:#00B4A2;}
</style>
<g id="original" class="st0">
	<path class="st1" d="M-5.6-138.5c0-3.3-0.5-6.7-1.4-9.9c-4.3-15.4-21.8-29.8-37.1-30c0,0-0.2,43.8,0.1,51
		c0.4,14.9-3.2,28.1-14.6,39c-11.8,11.2-28.8,14.3-44.7,8.4c-16.3-6-25.6-18.5-25.9-34.6c-0.1-6.8-0.1-132.2-0.1-132.2
		c-15.6-1.8-33.2,10.2-37.5,25.5c-0.9,3.2-1.4,6.6-1.4,9.9c-0.1,16,0,86.9,0,94.5c0,10.9,1.8,21.5,6.7,31.6
		c16,32.4,53.2,49.1,93,41.6c39.6-7.4,61.1-43.9,62.9-73C-5.5-117-5.6-137.4-5.6-138.5z"/>
</g>
<path id="paksu_kaari" class="st2" d="M-51-179.2c-16.1-7-35-9.2-54.6-5.5c-6.2,1.2-12,3-17.3,5.4v48.5c2-3.2,4.4-6.2,7.4-9
	c11.8-11.2,28.8-14.3,44.7-8.4c8.7,3.2,15.4,8.3,19.8,14.7C-51-133.5-51-179.2-51-179.2z"/>
<path class="st2" d="M-44.9-246.4c15.6-1.3,32.6,7.4,36.9,18.6c0.9,2.4,1.4,4.9,1.4,7.3c0,0-10.4,13.2-10.3,28.9
	c0,0-28.2,0.4-28.2-27.7C-45.1-220.5-45.2-224.6-44.9-246.4z"/>
<g id="Alakaari" class="st0">
	<path class="st1" d="M-7-124.9c0-13.5-3.1-26.2-8.6-37.4c-7.5-9.2-18.4-16.1-28.8-16.2c0,0-0.2,44.8,0,52
		c0.4,14.9-3.4,27.2-14.7,38c-11.6,11.2-28.4,14.3-44,8.4c-16-6-25.2-18.5-25.5-34.6c-0.1-3.8-0.1-45.6-0.1-81.2
		c-21.7,13.7-36.6,37.8-38.3,65.6c0,4.7,0,8.4,0,10.9c2.7,43.2,37.3,77.4,79.6,77.6c0.1,0,0.3,0,0.4,0C-42.8-41.9-7-79-7-124.9z"/>
</g>
<g id="Selkämys" class="st0">
	<path class="st1" d="M-129.2-123.2c-0.1-35.5,0-115.6,0-115.6c-15.4,0-32.2,9.9-36.4,25.2c-0.9,3.2-1.4,6.6-1.4,9.9
		c-0.1,12.3-0.1,56.9-0.1,80.4L-129.2-123.2L-129.2-123.2z"/>
</g>
<path id="Pyöristin" class="st2" d="M-44.4-124.7c0.1-36,0-52.7,0-52.7c14.9-1.8,31.8,10.4,36,26c0.9,3.3,1.3,6.7,1.4,10.1
	c0.1,12.4,0.1-7.3,0.1,16.5L-44.4-124.7z"/>
<path id="Kaari" class="st2" d="M-55.1-180.5c-15-5.5-32.2-7-49.9-3.6c-4.6,0.9-8.9,2.1-13,3.6v42.1c1-1.1,1.3-1.2,2.5-2.2
	c12-9.5,29.4-12.9,45.3-7c6,2.2,11,5.4,15,9.2v-42.1H-55.1z"/>
<g id="pin" class="st0">
	<g class="st3">
		<path class="st4" d="M-50-193.3c0.1-2.3,0-4.5,0.2-6.7c0.1-1,0.2-2.1,0.3-3.1c0.3-2.7,0.6-5.4,0.9-8.1s0.8-5.4,1.4-8
			c0.5-2.3,1.2-4.6,2.2-6.8c0.6-1.5,1.4-2.9,2.3-4.3c0.6-0.9,1.3-1.8,2.1-2.6c0.4-0.4,0.7-0.8,1.1-1.2c1.7-1.7,3.6-3.1,5.8-4.1
			c2.7-1.2,5.6-1.8,8.6-1.7c3.1,0.1,6,0.9,8.7,2.4c0.9,0.5,1.8,1.1,2.6,1.7c0.9,0.7,1.7,1.5,2.5,2.3c1.5,1.6,2.7,3.4,3.6,5.4
			c1.3,2.9,1.9,5.9,1.8,9.1c0,0.8,0,1.7-0.1,2.5c-0.2,2.6-1,5-2.4,7.2c-0.8,1.3-1.8,2.5-2.9,3.6c-1.5,1.5-3.2,2.7-5,3.7
			c-2.1,1.2-4.4,2.2-6.7,3c-2.9,1.1-5.9,1.9-8.9,2.5c-3.1,0.7-6.3,1.3-9.4,1.8c-2.2,0.4-4.4,0.6-6.6,0.9c-0.6,0.1-1.2,0.1-1.9,0.2
			C-49.8-193.3-49.9-193.3-50-193.3z"/>
	</g>
</g>
<g id="skeleton" class="st0">
	<circle class="st5" cx="-86.1" cy="-140.5" r="80"/>
	<circle class="st5" cx="-86.1" cy="-128" r="60"/>
	<circle class="st5" cx="-86.1" cy="-88" r="60"/>
	<circle class="st5" cx="-126.1" cy="-200" r="40"/>
	<circle class="st5" cx="-26.1" cy="-220" r="20"/>
	<circle class="st5" cx="-46.1" cy="-220" r="40"/>
	<rect x="-166.1" y="-200" class="st5" width="40" height="40"/>
	<path class="st5" d="M-126.1-240c-22.1,0-40,17.9-40,40h40V-240z"/>
	<path class="st5" d="M-46.1-180c22.1,0,40,17.9,40,40h-40V-180z"/>
	<rect x="-166.1" y="-160" class="st5" width="40" height="20"/>
	<rect x="-126.1" y="-180" class="st5" width="10" height="40"/>
	<line class="st5" x1="-166.1" y1="-140" x2="-6.1" y2="-140"/>
	<path class="st5" d="M-46.1-140c0,22.1-17.9,40-40,40s-40-17.9-40-40H-46.1z"/>
	<rect x="-56.1" y="-180" class="st5" width="10" height="40"/>
	<rect x="-166.1" y="-68" class="st5" width="160" height="7.5"/>
	<path class="st5" d="M2.2-248.3c0,0-26.8-1.5-42.4,14.1s-14.1,42.4-14.1,42.4s26.8,1.5,42.4-14.1S2.2-248.3,2.2-248.3z
		 M-40.2-234.1l14.1,14.1L-40.2-234.1z"/>
	<line class="st5" x1="-12" y1="-205.9" x2="-26.1" y2="-220"/>
</g>
<g class="st0">
	<rect x="-166.1" y="-200" class="st1" width="40" height="40"/>
	<path class="st1" d="M-126.1-240c-22.1,0-40,17.9-40,40h40V-240z"/>
	<path class="st1" d="M-46.1-180c22.1,0,40,17.9,40,40h-40V-180z"/>
	<rect x="-166.1" y="-160" class="st1" width="40" height="20"/>
	<rect x="-46.1" y="-140" class="st1" width="40" height="10"/>
	<rect x="-166.1" y="-140" class="st1" width="40" height="10"/>
	<path class="st1" d="M-46.1-130.5c0,22.4-17.9,40.5-40,40.5s-40-18.1-40-40.5h-40c0,44.2,35.8,80,80,80s80-35.8,80-80H-46.1z"/>
</g>
<g>
	<path class="st6" d="M27.6,4.7c-0.3-1.6-1.8-2.6-3.4-2.3c-0.8,0.1-1.4,0.6-1.8,1.2c-1.8,2.6-0.9,6.4-0.9,6.4s3.8-0.5,5.6-3.1l0,0
		C27.6,6.3,27.8,5.5,27.6,4.7z"/>
	<path class="st6" d="M21.6,11v5.7v1.4l0,0c0,3.2-2.6,5.8-5.7,5.8s-5.7-2.6-5.7-5.8l0,0v-1.4v-2.9V8.1V2.4C6.9,2.4,4.3,5,4.3,8.1
		v5.7v2.9v1.4l0,0c0,6.3,5.2,11.4,11.5,11.4s11.4-5.1,11.5-11.4l0,0v-1.4C27.3,13.6,24.7,11,21.6,11z"/>
</g>
</svg>
