<svg version="1.1" id="Layer_1" xmlns="http://www.w3.org/2000/svg" x="0" y="0" viewBox="0 0 512 512" xml:space="preserve"><style>.st1{fill:#eb7d8e}.st2{fill:#fff}.st3{fill:#607583}.st4{fill:#e7d227}.st5{fill:#e0c69c}.st7{fill:#6bc8c3}.st8{fill:#57787d}.st9{fill:#4c7188}.st10{fill:#de8787}.st11{fill:#a1bf3c}.st12{fill:#e4354e}.st13{fill:#f15e2d}.st14,.st19{fill:#606161}.st19{fill-rule:evenodd;clip-rule:evenodd}</style><path fill="none" stroke="#6bc8c3" stroke-width="10" stroke-miterlimit="10" d="M471.1 482H103L40.8 256h170.9z"/><path class="st1" d="M125.8 236.5c.1-.7-.2-1.3-.8-1.4-8.1-2-16.3-3.6-24.5-5-.5-.2-1.2.3-1.2 1l-6.1 39.5c7.8 1.1 15.3 2.7 22.9 4.6l9.7-38.7z"/><path class="st2" d="M101.3 260.2l-.1.3.1-.3zM112.9 262.9c-.4 1.5-1 3-2 4l-1.7 7.4 1.1.3 2.6-11.7zM101.6 265.3c-.6-1.4-.6-3-.4-4.7l-2.1 11.9 1.2.2 1.3-7.4zM112.9 262.4v.4-.4zM108.3 256.1s2.9 3 3.3 5.9l1.5.4c.6-4-4.3-8.8-4.3-8.8s-6.3 2.6-7.3 6.6l1.5.4c1.5-2.8 5.3-4.5 5.3-4.5z"/><path class="st2" d="M111.4 262.2c.1.6 0 1 .1 1.6l-.1.3-.7 2.9c1-1 1.7-2.4 2-4v-.4l-1.3-.4zM102.1 262.1l.1-.3c.2-.5.4-1 .7-1.4l-1.5-.4-.1.3c-.3 1.7-.1 3.4.4 4.7l.4-2.9zM106 263.8c.2-1.4 0-2.7-.8-2.9-.8-.2-1.5.9-1.8 2.3l-1.9 9.6 2.5.6 2-9.6zM109.8 264.6c.2-1.4 0-2.7-.8-2.9-.8-.2-1.5.9-1.8 2.3l-1.9 9.6 2.5.6 2-9.6zM99.5 247.7c3 .4 6 1 9 1.6l1.2-6.4c.6-3.2-.7-6-3.5-6.6-2.9-.5-5.1 1.8-5.6 4.9l-1.1 6.5zm1.8-6.3c.5-2.7 2.2-4.5 4.8-4.2 2.5.6 3.6 3 3 5.6l-1.2 5.5c-2.5-.6-5-1-7.5-1.3l.9-5.6z"/><path class="st3" d="M104.6 241.6c.2-.8-.2-1.5-.9-1.5-.7-.1-1.3.5-1.5 1.2l-.9 5.1 2.2.4 1.1-5.2zM108.1 242.4c.2-.8-.2-1.5-.9-1.5-.7-.1-1.3.5-1.3 1.1l-.9 5.1 2.2.4.9-5.1zM106.6 239.3c-.2.5-.6 1-1.1.9-.4 0-.7-.6-.7-1.3.2-.5.6-1 1.1-.9.6.2.8.8.7 1.3z"/><path class="st2" d="M110.6 249.8c3 .6 6 1.2 8.9 1.9l1.5-6.4c.7-3.1-.5-6-3.4-6.7s-5.1 1.6-5.8 4.7l-1.2 6.5zm1.9-6.4c.6-2.5 2.4-4.5 5-4 2.5.6 3.4 3.1 2.8 5.8l-1.4 5.5c-2.5-.6-5-1.2-7.6-1.7l1.2-5.6z"/><path class="st3" d="M116 243.9c.2-.8-.2-1.5-.9-1.5-.7-.1-1.3.5-1.5 1.2l-1.1 5.1 2.2.4 1.3-5.2zM119.3 244.6c.2-.8-.2-1.5-.8-1.6-.5-.2-1.2.3-1.3 1.1l-1.1 5.1 2.2.4 1-5zM117.9 241.7c-.2.5-.6 1-1.1.9-.5-.2-.7-.6-.7-1.3.2-.5.6-1 1.1-.9.6.1.8.7.7 1.3z"/><path class="st2" d="M108.9 220.6c-1.4-.2-2.7 1-3.2 2.7l5.3.9c.2-1.8-.6-3.4-2.1-3.6zM115 221.7c-1.3-.3-2.7.8-3.3 2.5l5.3 1.1c.2-1.7-.7-3.3-2-3.6zM121 222.9c-1.3-.3-2.8.9-3.3 2.5 1.8.4 3.5.8 5.3 1.1.1-1.6-.7-3.3-2-3.6zM112.9 216.4c-1.3-.3-2.8.9-3.3 2.5l5.4 1c.2-1.7-.7-3.2-2.1-3.5zM119 217.5c-1.3-.3-2.8.9-3.3 2.5l5.4 1c.1-1.6-.8-3.1-2.1-3.5zM105.2 224.8c-1.3-.1-2.7 1-3.2 2.7l5.2.8c.1-1.8-.7-3.2-2-3.5zM111 225.8c-1.3-.3-2.7.8-3.3 2.5l5.2 1c.3-1.6-.5-3.1-1.9-3.5zM117 227c-1.3-.3-2.7.8-3.3 2.5l5.2 1c.2-1.7-.6-3.1-1.9-3.5zM122.9 228.3c-1.3-.3-2.7.8-3.4 2.4l5.2 1.2c.4-1.7-.5-3.2-1.8-3.6z"/><g><path class="st3" d="M125.2 223.5l1.1 10.2c-8.9-2.3-17.9-3.8-26.9-5.2l4.9-9c7 .9 14 2.6 20.9 4z"/><path class="st2" d="M122.3 229.4c1 .2 1.6 1.4 1.8 2.6-1.5-.4-2.9-.7-4.4-1.1.6-1 1.6-1.7 2.6-1.5zM117.9 228.6c1 .2 1.6 1.2 1.8 2.6l-4.4-.8c.8-1.3 1.6-2 2.6-1.8zM113.5 227.7c1 .2 1.6 1.2 1.9 2.5l-4.4-.8c.6-1.1 1.7-1.8 2.5-1.7zM109 226.9c1 .2 1.6 1.2 1.9 2.5-1.5-.4-3-.6-4.4-.8.6-1.3 1.5-1.9 2.5-1.7zM104.6 226.1c1 .2 1.6 1.2 1.9 2.5l-4.5-.6c.6-1.3 1.7-2 2.6-1.9zM121 225.4c1 .2 1.6 1.2 1.8 2.6l-4.5-1c.7-1 1.8-1.7 2.7-1.6z"/><path class="st2" d="M116.6 224.5c1 .2 1.6 1.2 1.9 2.5l-4.5-1c.6-1.1 1.6-1.7 2.6-1.5zM112.1 223.7c1 .2 1.6 1.2 1.9 2.5l-4.5-1c.7-1.1 1.6-1.7 2.6-1.5zM107.5 222.8c1 .2 1.7 1.1 1.9 2.5l-4.6-.7c.7-1.2 1.8-1.9 2.7-1.8z"/></g><g><path class="st4" d="M53.8 236.3c-.4-1.8.4-3.5 2-3.9 8.6-1.9 17.1-3.7 25.8-4.8 1.6-.2 3 1.1 3.2 2.9l2 14.9c-9.9 1.4-19.7 3.1-29.4 5.7l-3.6-14.8z"/><path class="st5" d="M62.7 272.8l-4.9-20.2c9.6-2.4 19.4-4.2 29.3-5.6l2.9 20.6"/><path d="M78.7 219.6l5.3 5.5c.4.5.4.9-.2.9-10.5 1.5-21 3.5-31.3 6-.6.1-.9-.2-.5-.8l2.9-7.3c.2-.7 1-1.2 1.5-1.4 6.8-1.2 13.5-2.9 20.4-3.8.6 0 1.3.3 1.9.9z" fill="#c3c0be"/><path class="st2" d="M78 222.7c1.1-.2 2.3.8 3.1 2.3l-5.4.8c.3-1.7 1.1-2.9 2.3-3.1zM72.5 223.5c1.1-.2 2.3.8 3.2 2.4-1.8.2-3.6.6-5.4 1 .4-1.8 1.1-3.2 2.2-3.4z"/><path class="st2" d="M67.4 224.6c1.1-.2 2.3.6 3.2 2.2l-5.4 1c.2-1.8 1-3 2.2-3.2zM61.8 225.7c1.1-.2 2.3.6 3.2 2.2l-5.4 1c.3-1.8 1.1-3 2.2-3.2z"/><path class="st2" d="M56.7 226.7c1.1-.2 2.3.6 3.3 2.1-1.9.3-3.6.8-5.4 1.3.1-1.7.8-3.1 2.1-3.4zM68.9 271.2l-4.1-18.6.1-.1c1.7-.3 3.6 1.2 4 3.4l3 14.5M68.1 271.3l-4.2-18.7-.1.1c-1.8.4-2.6 2.5-2.1 4.9l3.5 14.6M77.9 243.3l6.2-.9-1.7-11-6.3 1.1z"/><path transform="rotate(-8.389 80.696 232.943)" class="st7" d="M79.5 232.6h2.4v.6h-2.4z"/><path transform="rotate(-8.453 80.913 233.926)" class="st7" d="M79.7 233.7h2.4v.6h-2.4z"/><path transform="rotate(-8.467 81.257 235.065)" class="st7" d="M80.1 234.7h2.4v.8h-2.4z"/><path transform="rotate(-8.413 81.208 235.872)" class="st7" d="M80 235.6h2.4v.6H80z"/><path transform="rotate(-8.482 81.69 237.505)" class="st7" d="M80.5 237.1h2.4v.6h-2.4z"/><path transform="rotate(-8.506 81.538 238.322)" class="st7" d="M80.4 238h2.4v.6h-2.4z"/><path transform="rotate(-8.372 81.771 239.282)" class="st7" d="M80.6 238.9H83v.6h-2.4z"/><path transform="rotate(-8.325 81.959 240.353)" class="st7" d="M80.8 240h2.4v.8h-2.4z"/><path transform="rotate(-8.389 82.204 241.391)" class="st7" d="M81 241.1h2.4v.6H81z"/><path class="st7" d="M76.9 233.7l2.3-.3-.1-.6-2.3.3zM77.1 234.8l2.3-.3-.2-.6-2.3.3zM77.3 236l2.2-.5v-.6l-2.4.4zM77.4 237l2.3-.3-.1-.8-2.3.3zM77.6 238.1l2.2-.4v-.7l-2.3.3zM77.7 239.1l2.3-.3-.1-.8-2.2.4zM77.9 240.2l2.2-.4v-.6l-2.3.2zM78.1 241.1l2.3-.3-.2-.6-2.2.4zM78.3 242.3l2.3-.3-.2-.7-2.3.3z"/><path class="st2" d="M68.6 245l6.1-1.2-1.9-10.8-6.4 1.3z"/><path class="st7" d="M70 235l2.4-.5-.1-.5-2.3.4zM70.3 236.1l2.3-.4-.1-.8-2.4.5zM70.5 237.2l2.3-.4-.1-.8-2.4.5zM70.6 238.2l2.4-.5-.1-.6-2.4.3zM70.8 239.3l2.4-.5-.2-.7-2.3.4zM71 240.2l2.3-.4v-.7l-2.4.6zM71.2 241.4l2.3-.5-.1-.7-2.4.5zM71.4 242.5l2.4-.5-.2-.7-2.3.4zM71.6 243.4l2.3-.4-.1-.6-2.3.4z"/><path transform="rotate(-11.321 68.413 235.297)" class="st7" d="M67.2 234.9h2.4v.6h-2.4z"/><path transform="rotate(-11.157 68.408 235.86)" class="st7" d="M67.2 235.5h2.4v.8h-2.4z"/><path transform="rotate(-11.38 68.875 237.28)" class="st7" d="M67.7 237h2.4v.6h-2.4z"/><path transform="rotate(-11.321 69.034 238.446)" class="st7" d="M67.8 238.1h2.4v.6h-2.4z"/><path transform="rotate(-11.216 69.196 239.283)" class="st7" d="M68 239h2.4v.6H68z"/><path transform="rotate(-11.168 69.459 240.232)" class="st7" d="M68.3 240h2.4v.6h-2.4z"/><path transform="rotate(-11.246 69.854 241.69)" class="st7" d="M68.6 241.3H71v.6h-2.4z"/><path transform="rotate(-11.275 69.631 242.294)" class="st7" d="M68.5 241.9h2.4v.8h-2.4z"/><path transform="rotate(-11.234 70.015 243.569)" class="st7" d="M68.8 243.1h2.4v.8h-2.4z"/><path class="st2" d="M59.2 247c2-.6 4.1-1.1 6.2-1.4l-2.3-10.8c-2.1.3-4.3.8-6.3 1.5l2.4 10.7z"/><path class="st7" d="M60.4 237l2.4-.5-.2-.7-2.3.4zM60.7 238l2.4-.5-.2-.7-2.4.5zM60.8 239l2.5-.4-.2-.6-2.3.4zM61.1 240.1l2.3-.5v-.6l-2.5.4zM61.3 241.2l2.4-.5-.2-.7-2.3.4zM61.7 242.2l2.2-.4-.1-.8-2.4.5zM61.9 243.3l2.3-.5-.2-.7-2.2.4zM62.1 244.2l2.2-.4-.2-.7-2.2.5zM62.3 245.4l2.3-.6-.2-.6-2.2.4zM57.7 237.6l2.3-.6-.1-.6-2.4.6zM58 238.7l2.3-.7-.2-.7-2.3.7zM58.1 239.7l2.4-.6-.2-.6-2.3.6zM58.4 240.7l2.4-.5-.2-.7-2.4.5zM58.6 241.8l2.3-.6-.1-.6-2.4.5zM59 242.8l2.1-.5-.1-.8-2.3.6zM59.2 244l2.2-.7-.2-.7-2.3.7zM59.4 244.9l2.2-.5-.1-.7-2.2.6zM59.6 246l2.3-.5-.2-.7-2.2.4z"/><path class="st2" d="M76.6 262.7c1.9-.5 3.8-.8 5.9-1l-1.7-10.9c-2 .2-4.1.6-6.1 1l1.9 10.9z"/><path class="st8" d="M79.6 261.3l2-.3-1.6-8.9-2 .2zM77 261.8l2-.3-1.7-9-1.9.3z"/><path class="st7" d="M75 264.5l1.6-1.8-2-10.7-2.3-1.5zM84.4 262.8l-2-1.1-1.7-10.7 1.7-2.1z"/></g><g><path class="st9" d="M97.9 288.1s-2.8 2.3-7.7 2.3-7.7-2.5-7.7-2.5L86.1 133h11.1l.7 155.1z"/><path class="st9" d="M101 141.6l-18.5-.2c-.9 0-1.4-.6-1.3-1.3v-3.2c0-.9.6-1.4 1.3-1.3l18.5.2c.9 0 1.4.6 1.3 1.3v3.2c.1.5-.5 1-1.3 1.3zM108 129.6L97.2 133l-11.1.1-10.2-3.9-2.5-10.7-2.2-1.3 3.9-3.5 6.8.1 5.2-9.8h10.2l4.4 10.1h6.4l4.7 3.2-2.1 1.4z"/><path transform="matrix(.01145 -.9999 .9999 .01145 -1.243 183.886)" class="st9" d="M77.8 91.6h29.1v1.9H77.8z"/><path class="st9" d="M94.1 89.7h-3.2c-.6-.1-1.4-.6-1.3-1.3l.2-9.7c.1-.6.6-1.4 1.3-1.3h3.2c.6.1 1.4.6 1.3 1.3l-.2 9.7c-.1.6-.5 1.3-1.3 1.3z"/></g><g transform="matrix(.78937 0 0 .78937 1010.796 -25.344)"><g id="g2289_1_"><path id="rect1421_1_" transform="matrix(.00402 -1 1 .00402 -1336.46 -816.888)" class="st10" d="M-1081.9 259.5h7.2v5.9h-7.2z"/><path id="rect1423_1_" transform="matrix(.00402 -1 1 .00402 -1317.528 -811.787)" class="st10" d="M-1069.9 252.6h7.2v5.9h-7.2z"/><path id="rect1579_1_" transform="matrix(.00402 -1 1 .00402 -1280.174 -800.142)" class="st10" d="M-1045.4 240.5h7.2v4.1h-7.2z"/><path id="rect1418_1_" class="st5" d="M-1085.3 268.1l54.8-31.1-.7 156.1-54.8-.2.7-124.8z"/><g id="g1577_1_"><g id="g1493_1_"><path id="rect1425_1_" transform="matrix(.00402 -1 1 .00402 -1350.366 -796.804)" class="st2" d="M-1080 275.9h9.7v7.2h-9.7z"/><path id="rect1427_1_" transform="matrix(.00402 -1 1 .00402 -1339.243 -785.748)" class="st2" d="M-1068.9 275.9h9.7v7.2h-9.7z"/><path id="rect1429_1_" transform="matrix(.00402 -1 1 .00402 -1328.107 -774.445)" class="st2" d="M-1057.7 275.9h9.7v7.2h-9.7z"/><path id="rect1431_1_" transform="matrix(.00402 -1 1 .00402 -1317.26 -763.05)" class="st2" d="M-1046.5 276.2h9.7v7.2h-9.7z"/></g><g id="g1499_1_" transform="translate(0 -8.247)"><path id="rect1433_1_" transform="matrix(.00402 -1 1 .00402 -1373.48 -773.94)" class="st2" d="M-1080.1 298.9h9.7v7.2h-9.7z"/><path id="rect1435_1_" transform="matrix(.00402 -1 1 .00402 -1362.357 -762.883)" class="st2" d="M-1069 298.9h9.7v7.2h-9.7z"/><path id="rect1437_1_" transform="matrix(.00402 -1 1 .00402 -1351.563 -751.497)" class="st7" d="M-1057.9 299.2h9.7v7.2h-9.7z"/><path id="rect1439_1_" transform="matrix(.00402 -1 1 .00402 -1340.712 -740.46)" class="st2" d="M-1046.9 299.2h9.7v7.2h-9.7z"/></g><g id="g1505_1_" transform="translate(0 -5.804)"><path id="rect1441_1_" transform="matrix(.00402 -1 1 .00402 -1385.998 -761.414)" class="st7" d="M-1080.1 311.5h9.7v7.2h-9.7z"/><path id="rect1443_1_" transform="matrix(.00402 -1 1 .00402 -1374.875 -750.357)" class="st2" d="M-1069 311.4h9.7v7.2h-9.7z"/><path id="rect1445_1_" transform="matrix(.00402 -1 1 .00402 -1364.024 -739.32)" class="st2" d="M-1058 311.5h9.7v7.2h-9.7z"/><path id="rect1447_1_" transform="matrix(.00402 -1 1 .00402 -1353.23 -727.934)" class="st2" d="M-1046.9 311.8h9.7v7.2h-9.7z"/></g><g id="g1511_1_" transform="translate(0 -6.567)"><path id="rect1449_1_" transform="matrix(.00402 -1 1 .00402 -1401.61 -746.133)" class="st2" d="M-1080.2 327h9.7v7.2h-9.7z"/><path id="rect1451_1_" transform="matrix(.00402 -1 1 .00402 -1390.655 -734.652)" class="st2" d="M-1069 327.2h9.7v7.2h-9.7z"/><path id="rect1453_1_" transform="matrix(.00402 -1 1 .00402 -1379.531 -723.596)" class="st2" d="M-1057.9 327.2h9.7v7.2h-9.7z"/><path id="rect1455_1_" transform="matrix(.00402 -1 1 .00402 -1368.68 -712.558)" class="st7" d="M-1046.9 327.2h9.7v7.2h-9.7z"/></g><g id="g1517_1_" transform="translate(0 -.916)"><path id="rect1457_1_" transform="matrix(.00402 -1 1 .00402 -1411.016 -736.936)" class="st2" d="M-1080.3 336.3h9.7v7.2h-9.7z"/><path id="rect1459_1_" transform="matrix(.00402 -1 1 .00402 -1400.04 -725.728)" class="st2" d="M-1069.2 336.4h9.7v7.2h-9.7z"/><path id="rect1461_1_" transform="matrix(.00402 -1 1 .00402 -1389.19 -714.691)" class="st2" d="M-1058.2 336.5h9.7v7.2h-9.7z"/><path id="rect1463_1_" transform="matrix(.00402 -1 1 .00402 -1378.087 -703.362)" class="st2" d="M-1047 336.6h9.7v7.2h-9.7z"/></g><g id="g1523_1_" transform="translate(0 -1.68)"><path id="rect1465_1_" transform="matrix(.00402 -1 1 .00402 -1426.615 -721.409)" class="st2" d="M-1080.3 351.9h9.7v7.2h-9.7z"/><path id="rect1467_1_" transform="matrix(.00402 -1 1 .00402 -1415.492 -710.351)" class="st2" d="M-1069.2 351.8h9.7v7.2h-9.7z"/><path id="rect1469_1_" transform="matrix(.00402 -1 1 .00402 -1404.971 -698.986)" class="st7" d="M-1058.2 352.2h9.7v7.2h-9.7z"/><path id="rect1471_1_" transform="matrix(.00402 -1 1 .00402 -1393.847 -687.93)" class="st2" d="M-1047.1 352.2h9.7v7.2h-9.7z"/></g><g id="g1529_1_" transform="translate(0 .764)"><path id="rect1473_1_" transform="matrix(.00402 -1 1 .00402 -1439.133 -708.883)" class="st7" d="M-1080.3 364.4h9.7v7.2h-9.7z"/><path id="rect1475_1_" transform="matrix(.00402 -1 1 .00402 -1428.01 -697.827)" class="st7" d="M-1069.2 364.4h9.7v7.2h-9.7z"/><path id="rect1477_1_" transform="matrix(.00402 -1 1 .00402 -1417.16 -686.79)" class="st2" d="M-1058.2 364.5h9.7v7.2h-9.7z"/><path id="rect1479_1_" transform="matrix(.00402 -1 1 .00402 -1406.185 -675.582)" class="st2" d="M-1047.1 364.5h9.7v7.2h-9.7z"/></g><g id="g1535_1_"><path id="rect1481_1_" transform="matrix(.00402 -1 1 .00402 -1454.745 -693.602)" class="st2" d="M-1080.4 379.9h9.7v7.2h-9.7z"/><path id="rect1483_1_" transform="matrix(.00402 -1 1 .00402 -1443.61 -682.3)" class="st2" d="M-1069.2 380h9.7v7.2h-9.7z"/><path id="rect1485_1_" transform="matrix(.00402 -1 1 .00402 -1432.762 -670.904)" class="st2" d="M-1058 380.2h9.7v7.2h-9.7z"/><path id="rect1487_1_" transform="matrix(.00402 -1 1 .00402 -1421.816 -660.028)" class="st2" d="M-1047.1 380.2h9.7v7.2h-9.7z"/></g></g></g><g id="g2289_2_"><path id="rect1418_2_" class="st5" d="M-1011.7 384.9l-16.9 8.1.9-155 16.6 23-.6 123.9z"/><g id="g1577_2_"><g id="g1493_2_"><path id="rect1425_2_" class="st2" d="M-1015.2 267.1l2.2-1.1-.1 9.8-2.2 1.1z"/><path id="rect1427_2_" class="st2" d="M-1018.7 268.7l2.3-1.1-.1 9.8-2.2 1.1z"/><path id="rect1429_2_" class="st2" d="M-1022.2 270.4l2.3-1.1-.1 9.8-2.2 1.1z"/><path id="rect1431_2_" class="st2" d="M-1025.6 272.3l2.2-1.1v9.8l-2.3 1.1z"/></g><g id="g1499_2_" transform="translate(0 -8.247)"><path id="rect1433_2_" class="st2" d="M-1015.3 290.3l2.2-1.1-.1 9.8-2.2 1.1z"/><path id="rect1435_2_" class="st2" d="M-1018.8 291.9l2.3-1.1-.1 9.8-2.2 1.1z"/><path id="rect1437_2_" class="st7" d="M-1022.2 293.8l2.2-1.1v9.8l-2.3 1.1z"/><path id="rect1439_2_" class="st2" d="M-1025.6 295.5l2.2-1.1v9.8l-2.3 1.1z"/></g><g id="g1505_2_" transform="translate(0 -5.804)"><path id="rect1441_2_" class="st7" d="M-1015.4 303l2.2-1-.1 9.8-2.2 1z"/><path id="rect1443_2_" class="st2" d="M-1018.9 304.6l2.2-1.1v9.8l-2.2 1.1z"/><path id="rect1445_2_" class="st2" d="M-1022.3 306.3l2.2-1.1v9.8l-2.2 1.1z"/><path id="rect1447_2_" class="st2" d="M-1025.7 308.2l2.2-1.1-.1 9.8-2.2 1.1z"/></g><g id="g1511_2_" transform="translate(0 -6.567)"><path id="rect1449_2_" class="st2" d="M-1015.5 318.7l2.2-1.1-.1 9.8-2.2 1.1z"/><path id="rect1451_2_" class="st2" d="M-1019 320.6l2.2-1.1v9.8l-2.3 1.1z"/><path id="rect1453_2_" class="st2" d="M-1022.4 322.1l2.2-1-.1 9.8-2.2 1.1z"/><path id="rect1455_2_" class="st7" d="M-1025.8 323.8l2.2-1.1-.1 9.9-2.2 1z"/></g><g id="g1517_2_" transform="translate(0 -.916)"><path id="rect1457_2_" class="st2" d="M-1015.6 328.2l2.2-1.1v9.8l-2.3 1.1z"/><path id="rect1459_2_" class="st2" d="M-1019.1 329.9l2.3-1.1-.1 9.8-2.2 1.1z"/><path id="rect1461_2_" class="st2" d="M-1022.4 331.6l2.2-1.1-.1 9.8-2.2 1.1z"/><path id="rect1463_2_" class="st2" d="M-1025.9 333.3l2.2-1.1-.1 9.8-2.2 1.1z"/></g><g id="g1523_2_" transform="translate(0 -1.68)"><path id="rect1465_2_" class="st2" d="M-1015.7 343.9l2.2-1-.1 9.8-2.2 1z"/><path id="rect1467_2_" class="st2" d="M-1019.2 345.5l2.3-1.1-.1 9.8-2.2 1.1z"/><path id="rect1469_2_" class="st7" d="M-1022.6 347.5l2.3-1.1-.1 9.8-2.2 1.1z"/><path id="rect1471_2_" class="st2" d="M-1026 349.1l2.2-1.1v9.8l-2.3 1.1z"/></g><g id="g1529_2_" transform="translate(0 .764)"><path id="rect1473_2_" class="st7" d="M-1015.8 356.7l2.2-1.1-.1 9.8-2.2 1.1z"/><path id="rect1475_2_" class="st7" d="M-1019.3 358.2l2.2-1v9.8l-2.3 1z"/><path id="rect1477_2_" class="st2" d="M-1022.7 359.9l2.2-1.1v9.8l-2.2 1.1z"/><path id="rect1479_2_" class="st2" d="M-1026.1 361.7l2.2-1.1-.1 9.8-2.2 1.1z"/></g><g id="g1535_2_"><path id="rect1481_2_" class="st2" d="M-1015.9 372.3l2.2-1.1-.1 9.8-2.2 1.1z"/><path id="rect1483_2_" class="st2" d="M-1019.4 374l2.2-1.1v9.8l-2.3 1.1z"/><path id="rect1485_2_" class="st2" d="M-1022.9 375.9l2.3-1.1-.1 9.8-2.2 1.1z"/><path id="rect1487_2_" class="st2" d="M-1026.2 377.5l2.2-1.1-.1 9.8-2.2 1.1z"/></g></g></g></g><g><path class="st11" d="M122.6 415.5c.9 3-.6 6.3-3.2 7-2.6.8-5.5-.9-6.7-4-.9-3 .4-6.4 3.2-7.2 2.8-.8 5.8 1.2 6.7 4.2z"/><path class="st11" d="M117.2 420.6c.7 2.5-.2 5.1-2.2 5.8s-4.2-.7-5.2-3.3c-.9-2.4.2-5.1 2.2-5.8 2-.7 4.4.7 5.2 3.3z"/><path class="st11" d="M121.8 425.6c.8 2.6-.3 4.9-2.3 5.6s-4.2-.7-5-3.4c-.9-2.4.2-5.1 2.2-5.8 1.9-.4 4.2 1.3 5.1 3.6z"/><path class="st11" d="M126.3 424.4c-.7-2.5-3-4.1-5.1-3.6-2.1.6-3.1 3-2.3 5.6.7 2.5 3 4.1 5.1 3.6 2.1-.5 3.1-3 2.3-5.6z"/><path class="st11" d="M127.4 417.7c-.7-2.5-3-4.1-5.1-3.6-2.1.6-3.2 3.1-2.5 5.7.7 2.5 3 4.1 5.1 3.6 2-.7 3.2-3.2 2.5-5.7z"/><path class="st12" d="M128.5 446.7c.5 1.5.1 2.7-.8 3-.7.3-1.9-.6-2.2-2.1-.5-1.5-6.3-25.6-6.3-25.4 0-.2 8.8 23.1 9.3 24.5z"/><path class="st4" d="M136 430.2c.6 2.1-.3 4.3-2 4.7l-5.5 1.6c-1.7.4-3.4-.8-4.2-3l-2.1-6.9c-.6-2.1.3-4.3 2-4.7l5.6-1.7c1.7-.4 3.6.8 4.2 3l2 7z"/><path class="st11" d="M136.4 448.2c.3 1.4.1 2.5-.7 2.7-.7.3-1.7-.6-2-2-.5-1.3-5.1-22.8-5.1-22.8.1.1 7.3 20.8 7.8 22.1z"/><path class="st4" d="M137.4 442.6c-3.2 1-4.7 4.7-4.1 8.8 4-1.1 7.9-2.5 12-3.2-1.4-3.8-4.9-6.5-7.9-5.6z"/><path class="st11" d="M125.5 443.1c-4.5 1.9-6.3 7.8-4.6 13.6 5.6-2.3 11.1-4.5 16.9-6.2-2.4-5.9-7.7-9-12.3-7.4zM153.8 446.4c-1.6-3.2-4.4-5.1-7-4.3-2.7.6-4.5 3.6-4.5 7.1l11.5-2.8z"/><path class="st4" d="M138.3 405.5c.9 3.4-1 6.8-4.1 7.6-3.1.7-6.3-1.2-7.2-4.8-1-3.4.9-7.2 4-7.7 3.3-.9 6.7 1.4 7.3 4.9z"/><path class="st4" d="M132.1 410.8c.7 2.9-.6 5.7-2.9 6.3-2.3.6-4.8-1.1-5.6-3.8-.8-2.8.4-5.6 2.9-6.3 2.3-.8 4.8.9 5.6 3.8z"/><path class="st4" d="M136.8 416.7c.7 2.9-.7 5.5-2.8 6-2.3.6-4.8-1.1-5.4-3.9-.8-2.8.4-5.6 2.9-6.3 2.2-.4 4.6 1.6 5.3 4.2z"/><path class="st4" d="M142.3 415.6c-.7-2.9-3-4.7-5.5-4-2.3.4-3.6 3.2-3 6.1.8 2.8 3.2 4.7 5.5 4.2 2.1-.8 3.5-3.6 3-6.3z"/><path class="st4" d="M143.7 408.2c-.7-2.9-3-4.7-5.5-4-2.5.5-3.8 3.3-3.1 6.2.7 2.9 3.2 4.7 5.5 4.2 2.4-1 3.7-3.7 3.1-6.4z"/><path class="st11" d="M139.6 410.7c.9 3.4-1 6.8-4.1 7.6-3.1.7-6.1-1.3-7.2-4.8-.9-3.4.7-7.1 4-7.7 3.4-.7 6.5 1.5 7.3 4.9z"/><path class="st11" d="M133.4 415.9c.7 2.9-.4 5.6-2.7 6.2-2.3.6-4.8-1.1-5.6-3.8-.8-2.8.4-5.6 2.7-6.2 2.3-.6 4.8 1 5.6 3.8z"/><path class="st11" d="M138.2 422.1c.7 2.9-.5 5.4-2.8 6-2.3.6-4.6-1.2-5.4-3.9-.8-2.8.4-5.6 2.7-6.2 2.2-.8 4.7 1.3 5.5 4.1z"/><path class="st11" d="M143.3 420.8c-.7-2.9-3-4.7-5.3-4.1-2.3.4-3.6 3.2-2.8 6 .8 2.8 3.2 4.7 5.3 4.1 2.2-.3 3.5-3.1 2.8-6z"/><path class="st11" d="M144.8 413.4c-.7-2.9-3-4.7-5.5-4-2.3.4-3.8 3.3-3 6.1.7 2.9 3.2 4.7 5.5 4 2.3-.6 3.6-3.2 3-6.1z"/><path class="st13" d="M144.2 445.7c.4 1.5-.1 3.2-.9 3.3-1 .2-2-.9-2.4-2.5-.4-1.5-5.6-28.6-5.4-28.7.1 0 8.5 26.3 8.7 27.9z"/><path class="st11" d="M158 437.9c-3.1.5-5.1 4.2-4.6 8.4 4.1-.9 8-1.5 12.1-2.4-1-3.8-4.3-6.5-7.5-6z"/><g><path class="st11" d="M189.9 383.6c.2 5-3.2 8.9-7.3 9-4.3.3-7.9-3.3-8.3-8.2-.3-4.9 2.9-9.2 7.4-9.4 4.3-.2 8.1 3.6 8.2 8.6z"/><path class="st11" d="M180.4 388.8c.2 3.9-2.1 7.3-5.3 7.6-3.2.4-6-2.8-6.4-6.6-.4-3.8 2.1-7.4 5.3-7.6 3.2-.2 6.2 2.7 6.4 6.6z"/><path class="st11" d="M185.1 398.1c.2 3.9-2.2 7.1-5.2 7.4-3 .3-5.8-2.7-6.2-6.7-.4-3.8 2.1-7.4 5.3-7.6 3-.3 5.9 3 6.1 6.9z"/><path class="st11" d="M192.3 397.9c-.2-3.9-2.8-7.1-6.1-6.9-3.3.2-5.7 3.3-5.4 7.4.2 3.9 3 7 6.1 6.9 3.2-.3 5.6-3.5 5.4-7.4z"/><path class="st11" d="M196.3 388.3c0-4-2.8-7.1-6.1-6.9-3.3.2-5.8 3.4-5.7 7.3.2 3.9 3 7 6.1 6.9 3.3-.1 5.9-3.4 5.7-7.3z"/><path class="st12" d="M187 431.2c.2 2.2-.8 4.1-2.2 4.2-1.2 0-2.5-1.6-2.7-3.8-.2-2.2.2-39.5.2-39.5.5-.3 4.8 37 4.7 39.1z"/><path class="st4" d="M204.2 409.8c0 3.3-2.1 6.2-4.6 6.3l-8.5.2c-2.5.1-4.7-2.6-4.9-5.9l-.5-10.9c-.2-3.3 1.9-6.1 4.6-6.1l8.8-.3c2.7-.1 4.9 2.6 4.9 5.9l.2 10.8z"/><path class="st11" d="M198.1 436.3c.1 2-.9 3.7-2 3.7-1.2 0-2.2-1.5-2.2-3.6-.1-2 1-35.2 1.2-35.3-.2 0 2.9 33.1 3 35.2z"/><path class="st4" d="M201.7 428.5c-5 .2-8.8 5.1-9.1 11.5 6.2-.2 12.3-.6 18.5-.3-.4-6.2-4.5-11.6-9.4-11.2z"/><path class="st11" d="M184.2 424.7c-7.2 1-12.2 8.9-11.5 18 8.9-1.4 17.9-2.4 26.9-3-1.5-9.1-8.1-15.6-15.4-15zM224.5 439.9c-1-5-4.6-9-8.7-8.9-4.2-.1-7.9 3.5-9.1 8.6l17.8.3z"/><path class="st4" d="M216.9 374.6c-.1 5.5-4.2 9.7-8.8 9.5-4.8-.1-8.6-4.1-8.8-9.7-.1-5.4 3.8-10.2 8.9-9.9 4.7.4 8.8 4.7 8.7 10.1z"/><path class="st4" d="M205.5 380.1c0 4.4-2.9 8-6.4 8-3.5.1-6.7-3.4-6.8-7.7-.1-4.3 2.7-8.1 6.4-8.2 3.9 0 6.8 3.3 6.8 7.9z"/><path class="st4" d="M210.3 390.7c0 4.4-3 7.8-6.5 7.8-3.5.1-6.4-3.3-6.6-7.8-.1-4.3 2.7-8.1 6.4-8.2 3.9 0 6.7 3.8 6.7 8.2z"/><path class="st4" d="M218.6 390.7c0-4.4-2.7-8-6.5-8-3.6-.1-6.5 3.4-6.5 7.8s2.9 7.9 6.3 8.1c3.6-.1 6.5-3.4 6.7-7.9z"/><path class="st4" d="M223.6 380.3c0-4.4-2.7-8-6.5-8-3.8-.1-6.7 3.3-6.8 7.7 0 4.4 2.9 7.9 6.5 8 3.6.2 6.7-3.3 6.8-7.7z"/><path class="st11" d="M216.6 382.9c-.1 5.5-4 9.6-8.7 9.7-4.7-.2-8.6-4.1-8.8-9.7-.1-5.4 3.8-10.2 8.7-9.9 5.1 0 9.1 4.4 8.8 9.9z"/><path class="st11" d="M205.6 388.2c0 4.4-2.9 8-6.4 8.2-3.5.1-6.5-3.4-6.6-7.8-.1-4.3 2.7-8.1 6.4-8.2s6.7 3.4 6.6 7.8z"/><path class="st11" d="M210.4 398.8c0 4.4-2.8 7.7-6.3 7.9s-6.2-3.3-6.4-7.7c-.1-4.3 2.7-8.1 6.4-8.2 3.3-.1 6.3 3.6 6.3 8z"/><path class="st11" d="M218.4 398.9c0-4.4-2.7-8-6.3-8.1-3.6-.1-6.5 3.4-6.5 7.8s2.9 7.9 6.3 8.1c3.4.3 6.3-3.5 6.5-7.8z"/><path class="st11" d="M223.3 388.6c0-4.4-2.7-8-6.3-8.1-3.6-.1-6.6 3.5-6.7 7.9 0 4.4 2.9 7.9 6.3 8.1 3.7-.2 6.6-3.7 6.7-7.9z"/><path class="st13" d="M210.6 435.6c.1 2.5-1.3 4.4-2.5 4.5-1.5-.1-2.6-2-2.7-4.4-.1-2.5 2.4-43.7 2.6-43.8.1-.2 2.7 41.2 2.6 43.7z"/><path class="st11" d="M233.5 429.3c-5-.5-9 4.4-9.8 10.7 6.1.1 12.4.8 18.6 1.1-.3-6.4-3.9-11.6-8.8-11.8z"/></g><g><path class="st4" d="M187.1 443.8c-3.2-11.9-15.2-19.1-26.9-15.9-10.9 2.9-17.5 13.7-15.9 24.7 14.5-2.3 28.9-4.2 43.3-5.6-.1-1.1-.2-2.3-.5-3.2z"/><path class="st11" d="M235.7 444.1c-.9-6.8-6.9-11.5-13.7-10.8-6.2.9-10.8 6.1-10.7 12.2 8.2-.3 16.3-.1 24.4.2.2-.4.1-1 0-1.6z"/><path class="st4" d="M216.9 444.4c-.9-4.8-5.4-7.9-10.2-7.2-4.4.9-7.4 4.7-7.3 9 5.9-.4 11.7-.6 17.5-.7v-1.1z"/><path class="st11" d="M206.4 444.3c-1.3-6.4-7.4-10.6-13.8-9.4-6 1.2-9.9 6.6-9.5 12.4 7.8-.6 15.6-1.3 23.5-1.5-.1-.5-.1-.9-.2-1.5z"/><path class="st11" d="M193.8 444.4c-1.8-7.7-9.4-12.6-16.9-10.8-7.1 1.7-11.5 8.3-10.8 15.5 9.3-1.2 18.7-2.2 27.9-2.7-.1-.8-.1-1.4-.2-2z"/></g><g><path class="st11" d="M245.1 389c-.5 4.8-4.4 8.3-8.6 7.8-4.2-.3-7.4-4.5-6.9-9.3.3-4.8 4.2-8.5 8.6-8.2 4.3.7 7.3 4.9 6.9 9.7z"/><path class="st11" d="M234.7 393.1c-.4 4-3.2 7-6.4 6.8-3.2-.3-5.5-3.6-5.3-7.5.2-4 3-7 6.4-6.8s5.6 3.5 5.3 7.5z"/><path class="st11" d="M238 402.7c-.4 4-3.2 6.6-6.4 6.6-3.2-.3-5.5-3.6-5.1-7.5.4-4 3.2-7 6.4-6.8 3.2.3 5.5 4 5.1 7.7z"/><path class="st11" d="M245.2 403.8c.4-4-1.8-7.3-5-7.7-3.2-.4-6 2.4-6.4 6.4-.4 4 1.9 7.3 5 7.7 3.2.2 6.1-2.7 6.4-6.4z"/><path class="st11" d="M250.6 394.7c.6-4-1.8-7.3-5-7.7-3.2-.4-6.2 2.4-6.6 6.4-.4 4 2 7.5 5 7.7 3.2.5 6-2.4 6.6-6.4z"/><path class="st12" d="M235.2 435.9c-.2 2.2-1.4 3.9-2.8 3.6-1.2-.3-2.2-1.9-2-4.1.2-2.2 5.9-39.2 6.1-39 .1-.2-.9 37.3-1.3 39.5z"/><path class="st4" d="M255.3 417.1c-.4 3.2-2.9 5.8-5.5 5.5l-8.4-.9c-2.6-.3-4.3-3.3-4.1-6.7l1-10.9c.2-3.4 2.7-5.8 5.5-5.5l8.8 1c2.8.3 4.5 3.3 4 6.5l-1.3 11z"/><path class="st11" d="M245.4 442.5c-.2 2-1.4 3.5-2.6 3.2-1.2-.1-2-1.8-1.8-3.8s6.2-34.7 6.2-34.7-1.6 33.3-1.8 35.3z"/><path class="st4" d="M250 435.4c-4.8-.5-9.4 3.8-10.8 10 6.2.7 12.3 1.3 18.4 2.4.5-6.2-2.7-12-7.6-12.4z"/><path class="st11" d="M233.3 429c-7.3 0-13.2 7.1-14 16.3 9-.2 18.1.3 27.1.9-.2-9.3-5.7-16.8-13.1-17.2zM270.8 449.9c-.2-5.3-3.2-9.5-7.4-10.1-4.2-.7-8.2 2.4-10.3 7.2l17.7 2.9z"/><path class="st4" d="M272.9 384.3c-.8 5.4-5.3 9-10.2 8.2-4.6-.9-8.1-5.5-7.2-10.9.6-5.4 5.3-9.4 10.1-8.6 4.8.9 8.1 5.9 7.3 11.3z"/><path class="st4" d="M261.1 387.9c-.5 4.2-3.9 7.5-7.5 7.1-3.6-.4-6-4.3-5.6-8.7.5-4.4 3.9-7.5 7.5-7.1 3.7.4 6.1 4.3 5.6 8.7z"/><path class="st4" d="M264.2 399c-.7 4.4-4 7.3-7.5 6.9-3.4-.4-6-4.3-5.4-8.5.5-4.4 3.9-7.5 7.5-7.1 3.8.4 6 4.5 5.4 8.7z"/><path class="st4" d="M272.3 400.5c.7-4.2-1.7-8.3-5.3-8.9-3.6-.6-7 2.3-7.6 6.7s1.7 8.3 5.1 8.9c3.6.6 7-2.5 7.8-6.7z"/><path class="st4" d="M278.7 391c.7-4.2-1.5-8.3-5.3-8.9-3.6-.6-7.2 2.3-7.8 6.7-.7 4.4 1.7 8.3 5.3 8.9 3.7.6 7.1-2.5 7.8-6.7z"/><path class="st11" d="M271.6 392.3c-.8 5.4-5.3 9-9.9 8.3-4.6-.9-7.9-5.5-7.2-10.9.6-5.4 5.1-9.4 10.1-8.6 4.7.8 7.8 5.8 7 11.2z"/><path class="st11" d="M259.8 395.9c-.5 4.2-3.9 7.5-7.5 7.1s-6-4.3-5.4-8.7c.5-4.4 3.9-7.5 7.5-7.1 3.7.6 6.1 4.3 5.4 8.7z"/><path class="st11" d="M262.9 407.2c-.7 4.4-4 7.3-7.3 6.9-3.4-.4-5.8-4.3-5.2-8.5.5-4.4 3.9-7.5 7.3-7.1 3.5.2 5.9 4.3 5.2 8.7z"/><path class="st11" d="M270.9 408.5c.7-4.2-1.5-8.3-5.1-8.9-3.6-.6-6.8 2.5-7.6 6.7-.5 4.4 1.7 8.3 5.1 8.9s6.9-2.5 7.6-6.7z"/><path class="st11" d="M277.4 398.8c.7-4.2-1.5-8.3-5.1-8.9-3.6-.6-7 2.5-7.8 6.7-.7 4.4 1.7 8.3 5.1 8.9 3.5.8 6.9-2.3 7.8-6.7z"/><path class="st13" d="M257.9 443.6c-.3 2.4-1.9 4.1-3.1 4.1-1.4-.2-2.2-2.5-1.9-4.9.3-2.4 8.9-42.9 8.9-42.9s-3.5 41.3-3.9 43.7z"/><path class="st11" d="M281.4 440.7c-4.8-1.1-9.7 3-11.4 9.1 6 .9 12.1 2.7 18.1 3.8.9-6.2-1.8-11.8-6.7-12.9z"/></g></g><g><path class="st14" d="M336.4 394.8c-1.1-1.1-2-1.3-3.4-.6-5.8 2.6-11.6 5-17.3 7.7-1 .5-2.1 1.6-2.6 2.6-3.6 7.9-7 15.9-10.4 23.8-3 6.9-6 13.8-9 20.6 8.1-8.1 16.3-16.2 24.5-24.4 0 .1 0-.2-.1-.4-1.4-3.4-.7-6.2 1.9-8.1 2.4-1.7 5.6-1.5 7.9.6 2 1.8 2.5 5.1 1.2 7.4-1.6 2.9-4.4 3.8-8 2.9-.7-.2-1.8-.1-2.3.4-7.9 7.7-15.7 15.5-24 23.7 1.1-.2 1.4-.2 1.6-.3 14.8-6.5 29.6-12.9 44.3-19.4.8-.4 1.6-1.4 1.9-2.2 2.3-6.2 4.5-12.4 6.6-18.6.3-.9-.1-2.6-.8-3.3-3.9-4.4-8-8.3-12-12.4z"/><path class="st1" d="M479.8 261.5c-5.9-5.4-67.6 32.8-107.6 71.8l36.2 36.2c9-10.2 17.5-21.4 24.7-31.9 24.1-35.2 55-68.5 46.7-76.1z"/><g><path d="M408.4 369.4l-36.2-36.2c-4.4 4.3-8.6 8.6-12.3 12.9l36.2 36.2c4.2-3.9 8.3-8.3 12.3-12.9z" fill="#ffcd05"/><path class="st1" d="M359.9 346.2c-18.6 21.1-28.3 41-16.3 52.9 13.1 13 33.1 2.1 52.5-16.7l-36.2-36.2z"/></g></g><path fill="#697682" d="M310.1 352.2H75.6l-4.8-17.4h219.6z"/><path fill="none" stroke="#fff" stroke-width="2" stroke-miterlimit="10" stroke-dasharray="8.0376,8.0376" d="M73.2 343.5h227"/><g><path class="st4" d="M233.5 324.8l-1.9 7h.2l-.4 16.8-4.3-.1h-.1l7.5.4.8-4.5c-1-.1-1.7-1.7-1.5-3.1.2-1.4 1.1-2.6 2.4-2.3l.8-5.2c.5-3.7-.9-7.4-3.5-9z"/><path class="st14" d="M219.1 340.2c-2.3-.3-4.2 1.8-4.5 4.7-.1 2.9 1.3 5.2 3.4 5.4 2 .4 4.2-1.6 4.5-4.5.2-2.7-1.1-5.4-3.4-5.6z"/><path class="st4" d="M227 348.4h-.2v-16.8l4.8.1 1.9-7 .2-.6c.7-4.7-2.3-9.3-6.7-9.8-23-2.8-46.3-2.7-69.2-.2-4.4.3-7.3 4.8-6.5 9.8l4.5 23.1 3.6-.1-1.5-20.2 5.6-.3 1 20.4 4.9-.1-.2-1.2c-.3-4.6 2.2-8.4 5.6-8.6 3.6-.2 6.6 3.3 6.7 7.9v1.7l31 .7v-1.7c.3-4.6 3.6-8 7.1-7.6 3.5.4 5.8 4.6 5.3 9l-.4 1.6 2.4-.1h.1zm-49.9-17.5l-9.3.8-.8-8.3c-.1-.9.4-1.6 1.2-1.7l8.3-.8c.9-.1 1.4.8 1.5 1.6l.3 6.5c.2 1-.5 1.7-1.2 1.9zm14.1-.5l-9.5.4-.3-8.2c-.1-.9.4-1.6 1.2-1.7l8.4-.3c.9-.1 1.4.8 1.5 1.6l.1 6.5c0 1-.5 1.7-1.4 1.7zm15.5-1.2c-.1.8-.6 1.6-1.4 1.5-3.1-.1-6.3-.1-9.4-.2l.1-8c.1-1 .6-1.8 1.5-1.7 2.7-.1 5.7 0 8.4.1.6.1 1.4 1 1.3 1.8l-.5 6.5zm14.7-5.5l-.7 6.4c-.1.8-.6 1.6-1.4 1.5-3.1-.3-6.2-.5-9.4-.6l.5-8.3c-.1-.9.6-1.6 1.4-1.5 2.7.3 5.6.4 8.3.7.8 0 1.3.9 1.3 1.8zm2.7-2.4c-.4-4.2-.4-5.5 2.5-5.6 2.9-.1 5.3 3.5 5.4 6.5-.1 2.9-.6 5.6-3.4 6.3-5.2 1.3-4.1-2.8-4.5-7.2z"/><path class="st14" d="M175.1 339.7c-2.1.2-3.8 2.5-3.6 5.5.1 2.7 2 5 4.3 4.9 2.1-.2 3.6-2.5 3.6-5.5-.1-2.8-2.2-5.1-4.3-4.9z"/><path class="st2" d="M220.1 321.8c-2.7-.3-5.6-.4-8.3-.7-.8-.1-1.5.7-1.4 1.5l-.5 8.3c3.1.1 6.3.3 9.4.6.8.1 1.3-.7 1.4-1.5l.7-6.4c0-.8-.5-1.7-1.3-1.8zM205.7 320.9c-2.7-.1-5.6-.2-8.4-.1-.8-.1-1.3.7-1.5 1.7l-.1 8c3.1.1 6.3.1 9.4.2.8.1 1.3-.7 1.4-1.5l.3-6.5c.3-.8-.4-1.8-1.1-1.8zM191.1 320.5l-8.4.3c-.9.1-1.4.9-1.2 1.7l.3 8.2 9.5-.4c.8.1 1.3-.7 1.5-1.7l-.1-6.5c-.2-.8-.8-1.7-1.6-1.6zM178.1 322.6c-.1-.9-.6-1.7-1.5-1.6l-8.3.8c-.9.1-1.4.9-1.2 1.7l.8 8.3 9.3-.8c.6-.1 1.4-.9 1.2-1.7l-.3-6.7z"/><path class="st3" d="M157.8 326.8l1.5 20.2 5.2-.2-1.1-20.3zM226.8 331.7l-.1 16.8h.3l4.3.1.5-16.8h-.2z"/><path class="st2" d="M228.6 328.5c2.8-.7 3.3-3.4 3.4-6.3-.1-2.9-2.4-6.6-5.4-6.5-2.9.1-2.9 1.4-2.5 5.6.4 4.4-.7 8.5 4.5 7.2z"/></g><path d="M126.1 332.9c.2.1.3.4.6.8l-.2 1.4.3.2c0 .4-.4.7-1.1 1.1l-2.7.4-1.8.3h-.5c-.7 2.9-5.1 2.8-5.9.4l-1.2.1-.3-.2-15.1.2-.9-.2c-1.1 2.2-4.8 2.5-5.8.2l-.8-.2-2.6-.3-1.4-.5-.1-1.3c-.1-.8-.1-1.3.2-1.4.1-.7.4-1.3.9-1.8.7-.8 6.4-1.5 9.1-1.8 1.9-1.2 4.1-2.3 6.2-3.4 2.2-.8 5.9-.5 9-.6 1.7-.1 3.1.1 4.5.4 1.8.4 3.9 1.5 5.9 2.5l2.8.4c.7-.1.9 1.2.9 3.3zm-16.4-6.1c-.2-.1-.4 0-.4.2l-.5 2.9c0 .4.1.3.3.4l5-.2.4-2.8c-1.6-.4-3.2-.6-4.8-.5zm4.8.3l-.4 2.8 2.3-.1c.5 0 .9-.3 1-.9 0-.4-.2-.4-.4-.7-.6-.5-1.6-.9-2.5-1.1zm-6.4-.4c-1.1.2-2.1.2-2.8.1-1.7.4-3.1 1.1-4.6 2.3.8-.1 1.3.9.6 1.3l5.1-.3c.4 0 .6-.2.7-.4l1-3zm17.2 2.9c-.4.3-.7.4-.8 1.1v1.4h1.4c0-1.4-.2-2.3-.6-2.5zm-9 1.6c-.1.2-.1.2-.2.3h-1.4c-.2-.1-.2-.1-.3-.2.1-.2.1-.2.2-.3h1.4c.2-.1.2.1.3.2zm-9 .3c-.1.2-.1.2-.2.3h-1.4c-.2-.1-.2-.1-.3-.2.1-.2.1-.2.2-.3h1.4s.2.1.3.2zm10 2.6c1.3-.1 2.2.9 2.2 2.1.1 1.3-.9 2.2-2.1 2.2-1.3.1-2.2-.9-2.2-2.1 0-1.3.8-2.1 2.1-2.2zm-23.3-.2c1.3-.1 2.2.9 2.2 2.1.1 1.3-.9 2.2-2.1 2.2-1.3.1-2.2-.9-2.2-2.1 0-1.3.9-2.1 2.1-2.2zm-3.9-.5l-.5-.8-.4-.2-1.1-.1c-.4.3-.7.8-.9 1.2l2.9-.1zm-2.8 0h2.9" fill-rule="evenodd" clip-rule="evenodd" fill="#eb7d8e"/><path class="st19" d="M94 333.9c1.3-.1 2.2.9 2.2 2.1.1 1.3-.9 2.2-2.1 2.2-1.3.1-2.2-.9-2.2-2.1 0-1.3.9-2.1 2.1-2.2zM117.3 334.1c1.3-.1 2.2.9 2.2 2.1.1 1.3-.9 2.2-2.1 2.2-1.3.1-2.2-.9-2.2-2.1 0-1.3.9-2.2 2.1-2.2z"/><g><path class="st14" d="M462.5 226.3c6.2-1.4 10.3.8 11.5 6.5 1.2 5.4-1.8 9.4-7.6 10.6-6.1 1.4-10.4-1.3-11.5-6.6-1.2-5.4 1.7-9.2 7.6-10.5zm3.3 14.3c4.8-1.1 7-4 6.2-7.6-.9-4.1-3.9-5.2-8.9-4.1-5 1.1-7.1 3.8-6.2 7.5.8 3.7 3.5 5.4 8.9 4.2zM462.9 213.2l-12 11.1c1.6.5 4.1 2.3 4.8 2.9l-1.3 1.2c-2-1.5-4.5-2.4-6.2-2.7l-1.3-1.3 14.2-13.2 1.8 2zM448.4 203.4l-6.5 15c1.6-.2 4.7.5 5.6.8l-.7 1.7c-2.5-.6-5.1-.4-6.8 0l-1.7-.7 7.7-17.7 2.4.9zM431.9 199.7L431 216c1.5-.7 4.5-1.2 5.5-1.2l-.1 1.8c-2.5.3-4.9 1.4-6.4 2.3l-1.8-.1 1-19.3 2.7.2zM404.1 210.9c-.2-6.4 2.6-9.9 8.5-10.1 5.5-.2 8.9 3.5 9.1 9.4.2 6.2-3.2 10-8.6 10.1-5.6.2-8.8-3.3-9-9.4zm14.7-.6c-.2-4.9-2.6-7.6-6.3-7.5-4.2.1-5.8 2.9-5.7 8 .2 5.1 2.5 7.6 6.3 7.5 3.7-.1 5.9-2.5 5.7-8zM394.3 201.4l-1.4 16.3c1.5-.7 4.6-1.1 5.5-1l-.2 1.8c-2.5.2-4.9 1.2-6.4 2.2l-1.8-.2 1.6-19.3 2.7.2zM364.8 205.3c1.5-6.2 5.2-8.8 10.9-7.4 5.4 1.3 7.6 5.8 6.2 11.5-1.5 6.1-5.8 8.7-11 7.4-5.4-1.3-7.5-5.6-6.1-11.5zm14.4 3.4c1.2-4.8-.5-8-4-8.9-4.1-1-6.4 1.2-7.6 6.1-1.2 5 .3 8 4 8.9 3.4 1 6.2-.7 7.6-6.1zM358.2 192.9l-5.2 15.5c1.6-.3 4.7 0 5.6.3l-.6 1.7c-2.5-.4-5.1 0-6.8.6l-1.7-.6 6.1-18.3 2.6.8zM314.6 186.9c2.3-5.9 6.4-8.1 11.8-5.9 5.1 2 6.7 6.7 4.6 12.2-2.3 5.8-6.9 7.8-11.9 5.9-5.2-2.1-6.7-6.6-4.5-12.2zm13.8 5.3c1.8-4.6.6-8-2.8-9.4-3.9-1.5-6.5.3-8.4 5.1-1.9 4.8-.8 8 2.8 9.4 3.4 1.3 6.4 0 8.4-5.1zM309.5 173.8l-8 14.2c1.6 0 4.6.9 5.4 1.4l-.9 1.6c-2.4-.9-5-1-6.8-.7l-1.6-.9 9.5-16.8 2.4 1.2zM297.6 165l-10.8 12.2c1.6.3 4.3 1.9 5 2.5l-1.2 1.4c-2.2-1.3-4.7-2-6.5-2.1l-1.4-1.2 12.8-14.5 2.1 1.7zM272.3 148.2c5.4-3.4 9.9-2.8 13 2.1 3 4.7 1.5 9.4-3.5 12.6-5.3 3.4-10.2 2.3-13.1-2.2-2.9-4.7-1.5-9.2 3.6-12.5zm8.1 12.4c4.2-2.7 5.2-6.1 3.2-9.2-2.3-3.6-5.5-3.6-9.8-.8-4.3 2.8-5.3 6-3.3 9.2 2 3 5.2 3.7 9.9.8zM264.2 123.1c6.2-1.6 10.3.4 11.7 6.1 1.4 5.4-1.5 9.4-7.2 10.9-6 1.6-10.4-1-11.7-6.2-1.5-5.4 1.3-9.3 7.2-10.8zm3.8 14.3c4.8-1.2 6.8-4.2 5.9-7.8-1-4.1-4.1-5.1-9-3.8-5 1.3-6.9 4.1-6 7.7.9 3.6 3.7 5.2 9.1 3.9zM262.7 97.8c6.4-.1 9.9 2.8 10 8.6.1 5.5-3.6 8.8-9.5 8.9-6.2.1-9.9-3.4-10-8.7-.1-5.6 3.5-8.7 9.5-8.8zm.4 14.7c4.9-.1 7.6-2.5 7.6-6.2-.1-4.2-2.8-5.9-7.9-5.8-5.1.1-7.7 2.3-7.6 6.1.1 3.7 2.4 6 7.9 5.9zM273.8 87.8l-16.1-2.5c.6 1.5.7 4.6.6 5.6l-1.8-.3c0-2.5-.9-5-1.7-6.6l.3-1.8 19.1 3-.4 2.6zM271.8 57.9c6.1 2 8.4 5.9 6.6 11.5-1.7 5.2-6.4 7.1-12 5.2-5.9-2-8.2-6.5-6.5-11.6 1.8-5.2 6.2-7 11.9-5.1zM267.3 72c4.7 1.6 8 .2 9.2-3.3 1.3-4-.7-6.5-5.5-8.1-4.9-1.6-8-.4-9.2 3.3-1.2 3.4.3 6.3 5.5 8.1z"/></g></svg>