<?xml version="1.0" encoding="utf-8"?>
<!-- Generator: Adobe Illustrator 24.2.3, SVG Export Plug-In . SVG Version: 6.00 Build 0)  -->
<svg version="1.1" id="Layer_1" xmlns="http://www.w3.org/2000/svg" xmlns:xlink="http://www.w3.org/1999/xlink" x="0px" y="0px"
	 viewBox="0 0 512 512" style="enable-background:new 0 0 512 512;" xml:space="preserve">
<style type="text/css">
	.st0{fill:none;stroke:#6BC8C3;stroke-width:10;stroke-miterlimit:10;}
	.st1{fill:#EB7D8E;}
	.st2{fill:#FFFFFF;}
	.st3{fill:#607583;}
	.st4{fill:#E7D227;}
	.st5{fill:#E0C69C;}
	.st6{fill:#C3C0BE;}
	.st7{fill:#6BC8C3;}
	.st8{fill:#57787D;}
	.st9{fill:#4C7188;}
	.st10{fill:#DE8787;}
	.st11{fill:#A1BF3C;}
	.st12{fill:#E4354E;}
	.st13{fill:#F15E2D;}
	.st14{fill:#606161;}
	.st15{fill:#FFCD05;}
	.st16{fill:#697682;}
	.st17{fill:none;stroke:#FFFFFF;stroke-width:2;stroke-miterlimit:10;stroke-dasharray:8.0376,8.0376;}
	.st18{fill-rule:evenodd;clip-rule:evenodd;fill:#EB7D8E;}
	.st19{fill-rule:evenodd;clip-rule:evenodd;fill:#606161;}
</style>
<polygon class="st0" points="471.1,482 103,482 40.8,256 211.7,256 "/>
<g>
	<g>
		<path class="st1" d="M125.8,236.5c0.1-0.7-0.2-1.3-0.8-1.4c-8.1-2-16.3-3.6-24.5-5c-0.5-0.2-1.2,0.3-1.2,1l-6.1,39.5
			c7.8,1.1,15.3,2.7,22.9,4.6L125.8,236.5z"/>
		<path class="st2" d="M101.3,260.2l-0.1,0.3L101.3,260.2z"/>
		<path class="st2" d="M112.9,262.9c-0.4,1.5-1,3-2,4l-1.7,7.4l1.1,0.3L112.9,262.9z"/>
		<path class="st2" d="M101.6,265.3c-0.6-1.4-0.6-3-0.4-4.7l-2.1,11.9l1.2,0.2L101.6,265.3z"/>
		<path class="st2" d="M112.9,262.4l0,0.4L112.9,262.4z"/>
		<path class="st2" d="M108.3,256.1c0,0,2.9,3,3.3,5.9l1.5,0.4c0.6-4-4.3-8.8-4.3-8.8s-6.3,2.6-7.3,6.6l1.5,0.4
			C104.5,257.8,108.3,256.1,108.3,256.1z"/>
		<path class="st2" d="M111.4,262.2c0.1,0.6,0,1,0.1,1.6l0,0l-0.1,0.3l-0.7,2.9c1-1,1.7-2.4,2-4l0-0.4L111.4,262.2z"/>
		<path class="st2" d="M102.1,262.1l0.1-0.3l0,0c0.2-0.5,0.4-1,0.7-1.4l-1.5-0.4l-0.1,0.3c-0.3,1.7-0.1,3.4,0.4,4.7L102.1,262.1z"/>
		<path class="st2" d="M106,263.8c0.2-1.4,0-2.7-0.8-2.9c-0.8-0.2-1.5,0.9-1.8,2.3l-1.9,9.6l2.5,0.6L106,263.8z"/>
		<path class="st2" d="M109.8,264.6c0.2-1.4,0-2.7-0.8-2.9c-0.8-0.2-1.5,0.9-1.8,2.3l-1.9,9.6l2.5,0.6L109.8,264.6z"/>
		<path class="st2" d="M99.5,247.7c3,0.4,6,1,9,1.6l1.2-6.4c0.6-3.2-0.7-6-3.5-6.6c-2.9-0.5-5.1,1.8-5.6,4.9L99.5,247.7z
			 M101.3,241.4c0.5-2.7,2.2-4.5,4.8-4.2c2.5,0.6,3.6,3,3,5.6l-1.2,5.5c-2.5-0.6-5-1-7.5-1.3L101.3,241.4z"/>
		<path class="st3" d="M104.6,241.6c0.2-0.8-0.2-1.5-0.9-1.5c-0.7-0.1-1.3,0.5-1.5,1.2l-0.9,5.1l2.2,0.4L104.6,241.6z"/>
		<path class="st3" d="M108.1,242.4c0.2-0.8-0.2-1.5-0.9-1.5c-0.7-0.1-1.3,0.5-1.3,1.1l-0.9,5.1l2.2,0.4L108.1,242.4z"/>
		<path class="st3" d="M106.6,239.3c-0.2,0.5-0.6,1-1.1,0.9c-0.4,0-0.7-0.6-0.7-1.3c0.2-0.5,0.6-1,1.1-0.9
			C106.5,238.2,106.7,238.8,106.6,239.3z"/>
		<path class="st2" d="M110.6,249.8c3,0.6,6,1.2,8.9,1.9l1.5-6.4c0.7-3.1-0.5-6-3.4-6.7s-5.1,1.6-5.8,4.7L110.6,249.8z M112.5,243.4
			c0.6-2.5,2.4-4.5,5-4c2.5,0.6,3.4,3.1,2.8,5.8l-1.4,5.5c-2.5-0.6-5-1.2-7.6-1.7L112.5,243.4z"/>
		<path class="st3" d="M116,243.9c0.2-0.8-0.2-1.5-0.9-1.5c-0.7-0.1-1.3,0.5-1.5,1.2l-1.1,5.1l2.2,0.4L116,243.9z"/>
		<path class="st3" d="M119.3,244.6c0.2-0.8-0.2-1.5-0.8-1.6c-0.5-0.2-1.2,0.3-1.3,1.1l-1.1,5.1l2.2,0.4L119.3,244.6z"/>
		<path class="st3" d="M117.9,241.7c-0.2,0.5-0.6,1-1.1,0.9c-0.5-0.2-0.7-0.6-0.7-1.3c0.2-0.5,0.6-1,1.1-0.9
			C117.8,240.5,118,241.1,117.9,241.7z"/>
		<path class="st2" d="M108.9,220.6c-1.4-0.2-2.7,1-3.2,2.7l5.3,0.9C111.2,222.4,110.4,220.8,108.9,220.6z"/>
		<path class="st2" d="M115,221.7c-1.3-0.3-2.7,0.8-3.3,2.5l5.3,1.1C117.2,223.6,116.3,222,115,221.7z"/>
		<path class="st2" d="M121,222.9c-1.3-0.3-2.8,0.9-3.3,2.5c1.8,0.4,3.5,0.8,5.3,1.1C123.1,224.9,122.3,223.2,121,222.9z"/>
		<path class="st2" d="M112.9,216.4c-1.3-0.3-2.8,0.9-3.3,2.5l5.4,1C115.2,218.2,114.3,216.7,112.9,216.4z"/>
		<path class="st2" d="M119,217.5c-1.3-0.3-2.8,0.9-3.3,2.5l5.4,1C121.2,219.4,120.3,217.9,119,217.5z"/>
		<path class="st2" d="M105.2,224.8c-1.3-0.1-2.7,1-3.2,2.7l5.2,0.8C107.3,226.5,106.5,225.1,105.2,224.8z"/>
		<path class="st2" d="M111,225.8c-1.3-0.3-2.7,0.8-3.3,2.5l5.2,1C113.2,227.7,112.4,226.2,111,225.8z"/>
		<path class="st2" d="M117,227c-1.3-0.3-2.7,0.8-3.3,2.5l5.2,1C119.1,228.8,118.3,227.4,117,227z"/>
		<path class="st2" d="M122.9,228.3c-1.3-0.3-2.7,0.8-3.4,2.4l5.2,1.2C125.1,230.2,124.2,228.7,122.9,228.3z"/>
	</g>
	<g>
		<path class="st3" d="M125.2,223.5l1.1,10.2c-8.9-2.3-17.9-3.8-26.9-5.2l4.9-9C111.3,220.4,118.3,222.1,125.2,223.5z"/>
		<path class="st2" d="M122.3,229.4c1,0.2,1.6,1.4,1.8,2.6c-1.5-0.4-2.9-0.7-4.4-1.1C120.3,229.9,121.3,229.2,122.3,229.4z"/>
		<path class="st2" d="M117.9,228.6c1,0.2,1.6,1.2,1.8,2.6l-4.4-0.8C116.1,229.1,116.9,228.4,117.9,228.6z"/>
		<path class="st2" d="M113.5,227.7c1,0.2,1.6,1.2,1.9,2.5l-4.4-0.8C111.6,228.3,112.7,227.6,113.5,227.7z"/>
		<path class="st2" d="M109,226.9c1,0.2,1.6,1.2,1.9,2.5c-1.5-0.4-3-0.6-4.4-0.8C107.1,227.3,108,226.7,109,226.9z"/>
		<path class="st2" d="M104.6,226.1c1,0.2,1.6,1.2,1.9,2.5l-4.5-0.6C102.6,226.7,103.7,226,104.6,226.1z"/>
		<path class="st2" d="M121,225.4c1,0.2,1.6,1.2,1.8,2.6l-4.5-1C119,226,120.1,225.3,121,225.4z"/>
		<path class="st2" d="M116.6,224.5c1,0.2,1.6,1.2,1.9,2.5l-4.5-1C114.6,224.9,115.6,224.3,116.6,224.5z"/>
		<path class="st2" d="M112.1,223.7c1,0.2,1.6,1.2,1.9,2.5l-4.5-1C110.2,224.1,111.1,223.5,112.1,223.7z"/>
		<path class="st2" d="M107.5,222.8c1,0.2,1.7,1.1,1.9,2.5l-4.6-0.7C105.5,223.4,106.6,222.7,107.5,222.8z"/>
	</g>
</g>
<g>
	<path class="st4" d="M53.8,236.3c-0.4-1.8,0.4-3.5,2-3.9c8.6-1.9,17.1-3.7,25.8-4.8c1.6-0.2,3,1.1,3.2,2.9l2,14.9
		c-9.9,1.4-19.7,3.1-29.4,5.7L53.8,236.3z"/>
	<path class="st5" d="M62.7,272.8l-4.9-20.2c9.6-2.4,19.4-4.2,29.3-5.6l2.9,20.6"/>
	<path class="st6" d="M78.7,219.6l5.3,5.5c0.4,0.5,0.4,0.9-0.2,0.9c-10.5,1.5-21,3.5-31.3,6c-0.6,0.1-0.9-0.2-0.5-0.8l2.9-7.3
		c0.2-0.7,1-1.2,1.5-1.4c6.8-1.2,13.5-2.9,20.4-3.8C77.4,218.7,78.1,219,78.7,219.6z"/>
	<path class="st2" d="M78,222.7c1.1-0.2,2.3,0.8,3.1,2.3l-5.4,0.8C76,224.1,76.8,222.9,78,222.7z"/>
	<path class="st2" d="M72.5,223.5c1.1-0.2,2.3,0.8,3.2,2.4c-1.8,0.2-3.6,0.6-5.4,1C70.7,225.1,71.4,223.7,72.5,223.5z"/>
	<path class="st2" d="M67.4,224.6c1.1-0.2,2.3,0.6,3.2,2.2l-5.4,1C65.4,226,66.2,224.8,67.4,224.6z"/>
	<path class="st2" d="M61.8,225.7c1.1-0.2,2.3,0.6,3.2,2.2l-5.4,1C59.9,227.1,60.7,225.9,61.8,225.7z"/>
	<path class="st2" d="M56.7,226.7c1.1-0.2,2.3,0.6,3.3,2.1c-1.9,0.3-3.6,0.8-5.4,1.3C54.7,228.4,55.4,227,56.7,226.7z"/>
	<path class="st2" d="M68.9,271.2l-4.1-18.6l0.1-0.1c1.7-0.3,3.6,1.2,4,3.4l3,14.5"/>
	<path class="st2" d="M68.1,271.3l-4.2-18.7l-0.1,0.1c-1.8,0.4-2.6,2.5-2.1,4.9l3.5,14.6"/>
	<polygon class="st2" points="77.9,243.3 84.1,242.4 82.4,231.4 76.1,232.5 	"/>
	
		<rect x="79.5" y="232.6" transform="matrix(0.9893 -0.1459 0.1459 0.9893 -33.1229 14.266)" class="st7" width="2.4" height="0.6"/>
	<rect x="79.7" y="233.7" transform="matrix(0.9891 -0.147 0.147 0.9891 -33.5081 14.4356)" class="st7" width="2.4" height="0.6"/>
	
		<rect x="80.1" y="234.7" transform="matrix(0.9891 -0.1472 0.1472 0.9891 -33.7159 14.5232)" class="st7" width="2.4" height="0.8"/>
	<rect x="80" y="235.6" transform="matrix(0.9892 -0.1463 0.1463 0.9892 -33.6343 14.4187)" class="st7" width="2.4" height="0.6"/>
	
		<rect x="80.5" y="237.1" transform="matrix(0.9891 -0.1475 0.1475 0.9891 -34.1385 14.6469)" class="st7" width="2.4" height="0.6"/>
	<rect x="80.4" y="238" transform="matrix(0.989 -0.1478 0.1478 0.989 -34.327 14.6729)" class="st7" width="2.4" height="0.6"/>
	
		<rect x="80.6" y="238.9" transform="matrix(0.9893 -0.1456 0.1456 0.9893 -33.9681 14.4559)" class="st7" width="2.4" height="0.6"/>
	<rect x="80.8" y="240" transform="matrix(0.9895 -0.1448 0.1448 0.9895 -33.9394 14.4006)" class="st7" width="2.4" height="0.8"/>
	<rect x="81" y="241.1" transform="matrix(0.9893 -0.146 0.146 0.9893 -34.3635 14.5847)" class="st7" width="2.4" height="0.6"/>
	<polygon class="st7" points="76.9,233.7 79.2,233.4 79.1,232.8 76.8,233.1 	"/>
	<polygon class="st7" points="77.1,234.8 79.4,234.5 79.2,233.9 76.9,234.2 	"/>
	<polygon class="st7" points="77.3,236 79.5,235.5 79.5,234.9 77.1,235.3 	"/>
	<polygon class="st7" points="77.4,237 79.7,236.7 79.6,235.9 77.3,236.2 	"/>
	<polygon class="st7" points="77.6,238.1 79.8,237.7 79.8,237 77.5,237.3 	"/>
	<polygon class="st7" points="77.7,239.1 80,238.8 79.9,238 77.7,238.4 	"/>
	<polygon class="st7" points="77.9,240.2 80.1,239.8 80.1,239.2 77.8,239.4 	"/>
	<polygon class="st7" points="78.1,241.1 80.4,240.8 80.2,240.2 78,240.6 	"/>
	<polygon class="st7" points="78.3,242.3 80.6,242 80.4,241.3 78.1,241.6 	"/>
	<polygon class="st2" points="68.6,245 74.7,243.8 72.8,233 66.4,234.3 	"/>
	<polygon class="st7" points="70,235 72.4,234.5 72.3,234 70,234.4 	"/>
	<polygon class="st7" points="70.3,236.1 72.6,235.7 72.5,234.9 70.1,235.4 	"/>
	<polygon class="st7" points="70.5,237.2 72.8,236.8 72.7,236 70.3,236.5 	"/>
	<polygon class="st7" points="70.6,238.2 73,237.7 72.9,237.1 70.5,237.4 	"/>
	<polygon class="st7" points="70.8,239.3 73.2,238.8 73,238.1 70.7,238.5 	"/>
	<polygon class="st7" points="71,240.2 73.3,239.8 73.3,239.1 70.9,239.7 	"/>
	<polygon class="st7" points="71.2,241.4 73.5,240.9 73.4,240.2 71,240.7 	"/>
	<polygon class="st7" points="71.4,242.5 73.8,242 73.6,241.3 71.3,241.7 	"/>
	<polygon class="st7" points="71.6,243.4 73.9,243 73.8,242.4 71.5,242.8 	"/>
	
		<rect x="67.2" y="234.9" transform="matrix(0.9805 -0.1963 0.1963 0.9805 -44.8577 18.0077)" class="st7" width="2.4" height="0.6"/>
	
		<rect x="67.2" y="235.5" transform="matrix(0.9811 -0.1936 0.1936 0.9811 -44.3695 17.7016)" class="st7" width="2.4" height="0.8"/>
	<rect x="67.7" y="237" transform="matrix(0.9803 -0.1973 0.1973 0.9803 -45.4614 18.2535)" class="st7" width="2.4" height="0.6"/>
	
		<rect x="67.8" y="238.1" transform="matrix(0.9805 -0.1963 0.1963 0.9805 -45.4637 18.1908)" class="st7" width="2.4" height="0.6"/>
	<rect x="68" y="239" transform="matrix(0.9809 -0.1946 0.1946 0.9809 -45.2429 18.0358)" class="st7" width="2.4" height="0.6"/>
	<rect x="68.3" y="240" transform="matrix(0.9811 -0.1937 0.1937 0.9811 -45.2174 18.0038)" class="st7" width="2.4" height="0.6"/>
	
		<rect x="68.6" y="241.3" transform="matrix(0.9808 -0.1951 0.1951 0.9808 -45.8127 18.2689)" class="st7" width="2.4" height="0.6"/>
	
		<rect x="68.5" y="241.9" transform="matrix(0.9807 -0.1954 0.1954 0.9807 -46.0003 18.2822)" class="st7" width="2.4" height="0.8"/>
	
		<rect x="68.8" y="243.1" transform="matrix(0.9808 -0.1948 0.1948 0.9808 -46.1059 18.3051)" class="st7" width="2.4" height="0.8"/>
	<path class="st2" d="M59.2,247c2-0.6,4.1-1.1,6.2-1.4l-2.3-10.8c-2.1,0.3-4.3,0.8-6.3,1.5L59.2,247z"/>
	<polygon class="st7" points="60.4,237 62.8,236.5 62.6,235.8 60.3,236.2 	"/>
	<polygon class="st7" points="60.7,238 63.1,237.5 62.9,236.8 60.5,237.3 	"/>
	<polygon class="st7" points="60.8,239 63.3,238.6 63.1,238 60.8,238.4 	"/>
	<polygon class="st7" points="61.1,240.1 63.4,239.6 63.4,239 60.9,239.4 	"/>
	<polygon class="st7" points="61.3,241.2 63.7,240.7 63.5,240 61.2,240.4 	"/>
	<polygon class="st7" points="61.7,242.2 63.9,241.8 63.8,241 61.4,241.5 	"/>
	<polygon class="st7" points="61.9,243.3 64.2,242.8 64,242.1 61.8,242.5 	"/>
	<polygon class="st7" points="62.1,244.2 64.3,243.8 64.1,243.1 61.9,243.6 	"/>
	<polygon class="st7" points="62.3,245.4 64.6,244.8 64.4,244.2 62.2,244.6 	"/>
	<polygon class="st7" points="57.7,237.6 60,237 59.9,236.4 57.5,237 	"/>
	<polygon class="st7" points="58,238.7 60.3,238 60.1,237.3 57.8,238 	"/>
	<polygon class="st7" points="58.1,239.7 60.5,239.1 60.3,238.5 58,239.1 	"/>
	<polygon class="st7" points="58.4,240.7 60.8,240.2 60.6,239.5 58.2,240 	"/>
	<polygon class="st7" points="58.6,241.8 60.9,241.2 60.8,240.6 58.4,241.1 	"/>
	<polygon class="st7" points="59,242.8 61.1,242.3 61,241.5 58.7,242.1 	"/>
	<polygon class="st7" points="59.2,244 61.4,243.3 61.2,242.6 58.9,243.3 	"/>
	<polygon class="st7" points="59.4,244.9 61.6,244.4 61.5,243.7 59.3,244.3 	"/>
	<polygon class="st7" points="59.6,246 61.9,245.5 61.7,244.8 59.5,245.2 	"/>
	<path class="st2" d="M76.6,262.7c1.9-0.5,3.8-0.8,5.9-1l-1.7-10.9c-2,0.2-4.1,0.6-6.1,1L76.6,262.7z"/>
	<polygon class="st8" points="79.6,261.3 81.6,261 80,252.1 78,252.3 	"/>
	<polygon class="st8" points="77,261.8 79,261.5 77.3,252.5 75.4,252.8 	"/>
	<polygon class="st7" points="75,264.5 76.6,262.7 74.6,252 72.3,250.5 	"/>
	<polygon class="st7" points="84.4,262.8 82.4,261.7 80.7,251 82.4,248.9 	"/>
</g>
<g>
	<path class="st9" d="M97.9,288.1c0,0-2.8,2.3-7.7,2.3c-4.9,0-7.7-2.5-7.7-2.5l3.6-154.9l11.1,0L97.9,288.1z"/>
	<path class="st9" d="M101,141.6l-18.5-0.2c-0.9,0-1.4-0.6-1.3-1.3l0-3.2c0-0.9,0.6-1.4,1.3-1.3l18.5,0.2c0.9,0,1.4,0.6,1.3,1.3
		l0,3.2C102.4,140.8,101.8,141.3,101,141.6z"/>
	<polygon class="st9" points="108,129.6 97.2,133 86.1,133.1 75.9,129.2 73.4,118.5 71.2,117.2 75.1,113.7 81.9,113.8 87.1,104 
		97.3,104 101.7,114.1 108.1,114.1 112.8,117.3 110.7,118.7 	"/>
	
		<rect x="77.8" y="91.6" transform="matrix(1.145100e-02 -0.9999 0.9999 1.145100e-02 -1.2434 183.8858)" class="st9" width="29.1" height="1.9"/>
	<path class="st9" d="M94.1,89.7l-3.2,0c-0.6-0.1-1.4-0.6-1.3-1.3l0.2-9.7c0.1-0.6,0.6-1.4,1.3-1.3l3.2,0c0.6,0.1,1.4,0.6,1.3,1.3
		l-0.2,9.7C95.3,89,94.9,89.7,94.1,89.7z"/>
</g>
<g>
	<g id="g2289_1_" transform="matrix(0.78936596,0,0,0.78936596,1010.7956,-25.343975)">
		
			<rect id="rect1421_1_" x="-1081.9" y="259.5" transform="matrix(4.024456e-03 -1 1 4.024456e-03 -1336.4598 -816.8882)" class="st10" width="7.2" height="5.9"/>
		
			<rect id="rect1423_1_" x="-1069.9" y="252.6" transform="matrix(4.024456e-03 -1 1 4.024456e-03 -1317.5281 -811.7871)" class="st10" width="7.2" height="5.9"/>
		
			<rect id="rect1579_1_" x="-1045.4" y="240.5" transform="matrix(4.024456e-03 -1 1 4.024456e-03 -1280.1736 -800.1423)" class="st10" width="7.2" height="4.1"/>
		<path id="rect1418_1_" class="st5" d="M-1085.3,268.1l54.8-31.1l-0.7,156.1l-54.8-0.2L-1085.3,268.1z"/>
		<g id="g1577_1_">
			<g id="g1493_1_" transform="translate(0,-1.9582113e-5)">
				
					<rect id="rect1425_1_" x="-1080" y="275.9" transform="matrix(4.024456e-03 -1 1 4.024456e-03 -1350.3662 -796.8042)" class="st2" width="9.7" height="7.2"/>
				
					<rect id="rect1427_1_" x="-1068.9" y="275.9" transform="matrix(4.024456e-03 -1 1 4.024456e-03 -1339.243 -785.7479)" class="st2" width="9.7" height="7.2"/>
				
					<rect id="rect1429_1_" x="-1057.7" y="275.9" transform="matrix(4.024456e-03 -1 1 4.024456e-03 -1328.1073 -774.4447)" class="st2" width="9.7" height="7.2"/>
				
					<rect id="rect1431_1_" x="-1046.5" y="276.2" transform="matrix(4.024456e-03 -1 1 4.024456e-03 -1317.2594 -763.0499)" class="st2" width="9.7" height="7.2"/>
			</g>
			<g id="g1499_1_" transform="translate(0,-8.2471677)">
				
					<rect id="rect1433_1_" x="-1080.1" y="298.9" transform="matrix(4.024456e-03 -1 1 4.024456e-03 -1373.4806 -773.9395)" class="st2" width="9.7" height="7.2"/>
				
					<rect id="rect1435_1_" x="-1069" y="298.9" transform="matrix(4.024456e-03 -1 1 4.024456e-03 -1362.3574 -762.8829)" class="st2" width="9.7" height="7.2"/>
				
					<rect id="rect1437_1_" x="-1057.9" y="299.2" transform="matrix(4.024456e-03 -1 1 4.024456e-03 -1351.5627 -751.4967)" class="st7" width="9.7" height="7.2"/>
				
					<rect id="rect1439_1_" x="-1046.9" y="299.2" transform="matrix(4.024456e-03 -1 1 4.024456e-03 -1340.7123 -740.4601)" class="st2" width="9.7" height="7.2"/>
			</g>
			<g id="g1505_1_" transform="translate(0,-5.8035531)">
				
					<rect id="rect1441_1_" x="-1080.1" y="311.5" transform="matrix(4.024456e-03 -1 1 4.024456e-03 -1385.998 -761.4138)" class="st7" width="9.7" height="7.2"/>
				
					<rect id="rect1443_1_" x="-1069" y="311.4" transform="matrix(4.024456e-03 -1 1 4.024456e-03 -1374.8748 -750.3575)" class="st2" width="9.7" height="7.2"/>
				
					<rect id="rect1445_1_" x="-1058" y="311.5" transform="matrix(4.024456e-03 -1 1 4.024456e-03 -1364.0243 -739.3208)" class="st2" width="9.7" height="7.2"/>
				
					<rect id="rect1447_1_" x="-1046.9" y="311.8" transform="matrix(4.024456e-03 -1 1 4.024456e-03 -1353.2297 -727.9344)" class="st2" width="9.7" height="7.2"/>
			</g>
			<g id="g1511_1_" transform="translate(0,-6.567193)">
				
					<rect id="rect1449_1_" x="-1080.2" y="327" transform="matrix(4.024456e-03 -1 1 4.024456e-03 -1401.6099 -746.133)" class="st2" width="9.7" height="7.2"/>
				
					<rect id="rect1451_1_" x="-1069" y="327.2" transform="matrix(4.024456e-03 -1 1 4.024456e-03 -1390.6547 -734.652)" class="st2" width="9.7" height="7.2"/>
				
					<rect id="rect1453_1_" x="-1057.9" y="327.2" transform="matrix(4.024456e-03 -1 1 4.024456e-03 -1379.5314 -723.596)" class="st2" width="9.7" height="7.2"/>
				
					<rect id="rect1455_1_" x="-1046.9" y="327.2" transform="matrix(4.024456e-03 -1 1 4.024456e-03 -1368.6809 -712.5584)" class="st7" width="9.7" height="7.2"/>
			</g>
			<g id="g1517_1_" transform="translate(0,-0.9163545)">
				
					<rect id="rect1457_1_" x="-1080.3" y="336.3" transform="matrix(4.024456e-03 -1 1 4.024456e-03 -1411.016 -736.936)" class="st2" width="9.7" height="7.2"/>
				
					<rect id="rect1459_1_" x="-1069.2" y="336.4" transform="matrix(4.024456e-03 -1 1 4.024456e-03 -1400.0408 -725.7278)" class="st2" width="9.7" height="7.2"/>
				
					<rect id="rect1461_1_" x="-1058.2" y="336.5" transform="matrix(4.024456e-03 -1 1 4.024456e-03 -1389.1908 -714.6913)" class="st2" width="9.7" height="7.2"/>
				
					<rect id="rect1463_1_" x="-1047" y="336.6" transform="matrix(4.024456e-03 -1 1 4.024456e-03 -1378.0868 -703.3616)" class="st2" width="9.7" height="7.2"/>
			</g>
			<g id="g1523_1_" transform="translate(0,-1.6799901)">
				
					<rect id="rect1465_1_" x="-1080.3" y="351.9" transform="matrix(4.024456e-03 -1 1 4.024456e-03 -1426.6154 -721.4086)" class="st2" width="9.7" height="7.2"/>
				
					<rect id="rect1467_1_" x="-1069.2" y="351.8" transform="matrix(4.024456e-03 -1 1 4.024456e-03 -1415.4923 -710.3515)" class="st2" width="9.7" height="7.2"/>
				
					<rect id="rect1469_1_" x="-1058.2" y="352.2" transform="matrix(4.024456e-03 -1 1 4.024456e-03 -1404.9711 -698.986)" class="st7" width="9.7" height="7.2"/>
				
					<rect id="rect1471_1_" x="-1047.1" y="352.2" transform="matrix(4.024456e-03 -1 1 4.024456e-03 -1393.847 -687.9293)" class="st2" width="9.7" height="7.2"/>
			</g>
			<g id="g1529_1_" transform="translate(0,0.76360397)">
				
					<rect id="rect1473_1_" x="-1080.3" y="364.4" transform="matrix(4.024456e-03 -1 1 4.024456e-03 -1439.1327 -708.8833)" class="st7" width="9.7" height="7.2"/>
				
					<rect id="rect1475_1_" x="-1069.2" y="364.4" transform="matrix(4.024456e-03 -1 1 4.024456e-03 -1428.0101 -697.8271)" class="st7" width="9.7" height="7.2"/>
				
					<rect id="rect1477_1_" x="-1058.2" y="364.5" transform="matrix(4.024456e-03 -1 1 4.024456e-03 -1417.1597 -686.7896)" class="st2" width="9.7" height="7.2"/>
				
					<rect id="rect1479_1_" x="-1047.1" y="364.5" transform="matrix(4.024456e-03 -1 1 4.024456e-03 -1406.1846 -675.582)" class="st2" width="9.7" height="7.2"/>
			</g>
			<g id="g1535_1_" transform="translate(0,-1.0808308e-6)">
				
					<rect id="rect1481_1_" x="-1080.4" y="379.9" transform="matrix(4.024456e-03 -1 1 4.024456e-03 -1454.7449 -693.6024)" class="st2" width="9.7" height="7.2"/>
				
					<rect id="rect1483_1_" x="-1069.2" y="380" transform="matrix(4.024456e-03 -1 1 4.024456e-03 -1443.6096 -682.2994)" class="st2" width="9.7" height="7.2"/>
				
					<rect id="rect1485_1_" x="-1058" y="380.2" transform="matrix(4.024456e-03 -1 1 4.024456e-03 -1432.7616 -670.9042)" class="st2" width="9.7" height="7.2"/>
				
					<rect id="rect1487_1_" x="-1047.1" y="380.2" transform="matrix(4.024456e-03 -1 1 4.024456e-03 -1421.8159 -660.0283)" class="st2" width="9.7" height="7.2"/>
			</g>
		</g>
	</g>
	<g id="g2289_2_" transform="matrix(0.78936596,0,0,0.78936596,1010.7956,-25.343975)">
		<path id="rect1418_2_" class="st5" d="M-1011.7,384.9l-16.9,8.1l0.9-155l16.6,23L-1011.7,384.9z"/>
		<g id="g1577_2_">
			<g id="g1493_2_" transform="translate(0,-1.9582113e-5)">
				<polygon id="rect1425_2_" class="st2" points="-1015.2,267.1 -1013,266 -1013.1,275.8 -1015.3,276.9 				"/>
				<polygon id="rect1427_2_" class="st2" points="-1018.7,268.7 -1016.4,267.6 -1016.5,277.4 -1018.7,278.5 				"/>
				<polygon id="rect1429_2_" class="st2" points="-1022.2,270.4 -1019.9,269.3 -1020,279.1 -1022.2,280.2 				"/>
				<polygon id="rect1431_2_" class="st2" points="-1025.6,272.3 -1023.4,271.2 -1023.4,281 -1025.7,282.1 				"/>
			</g>
			<g id="g1499_2_" transform="translate(0,-8.2471677)">
				<polygon id="rect1433_2_" class="st2" points="-1015.3,290.3 -1013.1,289.2 -1013.2,299 -1015.4,300.1 				"/>
				<polygon id="rect1435_2_" class="st2" points="-1018.8,291.9 -1016.5,290.8 -1016.6,300.6 -1018.8,301.7 				"/>
				<polygon id="rect1437_2_" class="st7" points="-1022.2,293.8 -1020,292.7 -1020,302.5 -1022.3,303.6 				"/>
				<polygon id="rect1439_2_" class="st2" points="-1025.6,295.5 -1023.4,294.4 -1023.4,304.2 -1025.7,305.3 				"/>
			</g>
			<g id="g1505_2_" transform="translate(0,-5.8035531)">
				<polygon id="rect1441_2_" class="st7" points="-1015.4,303 -1013.2,302 -1013.3,311.8 -1015.5,312.8 				"/>
				<polygon id="rect1443_2_" class="st2" points="-1018.9,304.6 -1016.7,303.5 -1016.7,313.3 -1018.9,314.4 				"/>
				<polygon id="rect1445_2_" class="st2" points="-1022.3,306.3 -1020.1,305.2 -1020.1,315 -1022.3,316.1 				"/>
				<polygon id="rect1447_2_" class="st2" points="-1025.7,308.2 -1023.5,307.1 -1023.6,316.9 -1025.8,318 				"/>
			</g>
			<g id="g1511_2_" transform="translate(0,-6.567193)">
				<polygon id="rect1449_2_" class="st2" points="-1015.5,318.7 -1013.3,317.6 -1013.4,327.4 -1015.6,328.5 				"/>
				<polygon id="rect1451_2_" class="st2" points="-1019,320.6 -1016.8,319.5 -1016.8,329.3 -1019.1,330.4 				"/>
				<polygon id="rect1453_2_" class="st2" points="-1022.4,322.1 -1020.2,321.1 -1020.3,330.9 -1022.5,332 				"/>
				<polygon id="rect1455_2_" class="st7" points="-1025.8,323.8 -1023.6,322.7 -1023.7,332.6 -1025.9,333.6 				"/>
			</g>
			<g id="g1517_2_" transform="translate(0,-0.9163545)">
				<polygon id="rect1457_2_" class="st2" points="-1015.6,328.2 -1013.4,327.1 -1013.4,336.9 -1015.7,338 				"/>
				<polygon id="rect1459_2_" class="st2" points="-1019.1,329.9 -1016.8,328.8 -1016.9,338.6 -1019.1,339.7 				"/>
				<polygon id="rect1461_2_" class="st2" points="-1022.4,331.6 -1020.2,330.5 -1020.3,340.3 -1022.5,341.4 				"/>
				<polygon id="rect1463_2_" class="st2" points="-1025.9,333.3 -1023.7,332.2 -1023.8,342 -1026,343.1 				"/>
			</g>
			<g id="g1523_2_" transform="translate(0,-1.6799901)">
				<polygon id="rect1465_2_" class="st2" points="-1015.7,343.9 -1013.5,342.9 -1013.6,352.7 -1015.8,353.7 				"/>
				<polygon id="rect1467_2_" class="st2" points="-1019.2,345.5 -1016.9,344.4 -1017,354.2 -1019.2,355.3 				"/>
				<polygon id="rect1469_2_" class="st7" points="-1022.6,347.5 -1020.3,346.4 -1020.4,356.2 -1022.6,357.3 				"/>
				<polygon id="rect1471_2_" class="st2" points="-1026,349.1 -1023.8,348 -1023.8,357.8 -1026.1,358.9 				"/>
			</g>
			<g id="g1529_2_" transform="translate(0,0.76360397)">
				<polygon id="rect1473_2_" class="st7" points="-1015.8,356.7 -1013.6,355.6 -1013.7,365.4 -1015.9,366.5 				"/>
				<polygon id="rect1475_2_" class="st7" points="-1019.3,358.2 -1017.1,357.2 -1017.1,367 -1019.4,368 				"/>
				<polygon id="rect1477_2_" class="st2" points="-1022.7,359.9 -1020.5,358.8 -1020.5,368.6 -1022.7,369.7 				"/>
				<polygon id="rect1479_2_" class="st2" points="-1026.1,361.7 -1023.9,360.6 -1024,370.4 -1026.2,371.5 				"/>
			</g>
			<g id="g1535_2_" transform="translate(0,-1.0808308e-6)">
				<polygon id="rect1481_2_" class="st2" points="-1015.9,372.3 -1013.7,371.2 -1013.8,381 -1016,382.1 				"/>
				<polygon id="rect1483_2_" class="st2" points="-1019.4,374 -1017.2,372.9 -1017.2,382.7 -1019.5,383.8 				"/>
				<polygon id="rect1485_2_" class="st2" points="-1022.9,375.9 -1020.6,374.8 -1020.7,384.6 -1022.9,385.7 				"/>
				<polygon id="rect1487_2_" class="st2" points="-1026.2,377.5 -1024,376.4 -1024.1,386.2 -1026.3,387.3 				"/>
			</g>
		</g>
	</g>
</g>
<g>
	<g>
		<path class="st11" d="M122.6,415.5c0.9,3-0.6,6.3-3.2,7c-2.6,0.8-5.5-0.9-6.7-4c-0.9-3,0.4-6.4,3.2-7.2
			C118.7,410.5,121.7,412.5,122.6,415.5z"/>
		<path class="st11" d="M117.2,420.6c0.7,2.5-0.2,5.1-2.2,5.8s-4.2-0.7-5.2-3.3c-0.9-2.4,0.2-5.1,2.2-5.8
			C114,416.6,116.4,418,117.2,420.6z"/>
		<path class="st11" d="M121.8,425.6c0.8,2.6-0.3,4.9-2.3,5.6s-4.2-0.7-5-3.4c-0.9-2.4,0.2-5.1,2.2-5.8
			C118.6,421.6,120.9,423.3,121.8,425.6z"/>
		<path class="st11" d="M126.3,424.4c-0.7-2.5-3-4.1-5.1-3.6c-2.1,0.6-3.1,3-2.3,5.6c0.7,2.5,3,4.1,5.1,3.6
			C126.1,429.5,127.1,427,126.3,424.4z"/>
		<path class="st11" d="M127.4,417.7c-0.7-2.5-3-4.1-5.1-3.6c-2.1,0.6-3.2,3.1-2.5,5.7c0.7,2.5,3,4.1,5.1,3.6
			C126.9,422.7,128.1,420.2,127.4,417.7z"/>
		<path class="st12" d="M128.5,446.7c0.5,1.5,0.1,2.7-0.8,3c-0.7,0.3-1.9-0.6-2.2-2.1c-0.5-1.5-6.3-25.6-6.3-25.4
			C119.2,422,128,445.3,128.5,446.7z"/>
		<path class="st4" d="M136,430.2c0.6,2.1-0.3,4.3-2,4.7l-5.5,1.6c-1.7,0.4-3.4-0.8-4.2-3l-2.1-6.9c-0.6-2.1,0.3-4.3,2-4.7l5.6-1.7
			c1.7-0.4,3.6,0.8,4.2,3L136,430.2z"/>
		<path class="st11" d="M136.4,448.2c0.3,1.4,0.1,2.5-0.7,2.7c-0.7,0.3-1.7-0.6-2-2c-0.5-1.3-5.1-22.8-5.1-22.8
			C128.7,426.2,135.9,446.9,136.4,448.2z"/>
		<path class="st4" d="M137.4,442.6c-3.2,1-4.7,4.7-4.1,8.8c4-1.1,7.9-2.5,12-3.2C143.9,444.4,140.4,441.7,137.4,442.6z"/>
		<path class="st11" d="M125.5,443.1c-4.5,1.9-6.3,7.8-4.6,13.6c5.6-2.3,11.1-4.5,16.9-6.2C135.4,444.6,130.1,441.5,125.5,443.1z"/>
		<path class="st11" d="M153.8,446.4c-1.6-3.2-4.4-5.1-7-4.3c-2.7,0.6-4.5,3.6-4.5,7.1L153.8,446.4z"/>
		<path class="st4" d="M138.3,405.5c0.9,3.4-1,6.8-4.1,7.6c-3.1,0.7-6.3-1.2-7.2-4.8c-1-3.4,0.9-7.2,4-7.7
			C134.3,399.7,137.7,402,138.3,405.5z"/>
		<path class="st4" d="M132.1,410.8c0.7,2.9-0.6,5.7-2.9,6.3c-2.3,0.6-4.8-1.1-5.6-3.8c-0.8-2.8,0.4-5.6,2.9-6.3
			C128.8,406.2,131.3,407.9,132.1,410.8z"/>
		<path class="st4" d="M136.8,416.7c0.7,2.9-0.7,5.5-2.8,6c-2.3,0.6-4.8-1.1-5.4-3.9c-0.8-2.8,0.4-5.6,2.9-6.3
			C133.7,412.1,136.1,414.1,136.8,416.7z"/>
		<path class="st4" d="M142.3,415.6c-0.7-2.9-3-4.7-5.5-4c-2.3,0.4-3.6,3.2-3,6.1c0.8,2.8,3.2,4.7,5.5,4.2
			C141.4,421.1,142.8,418.3,142.3,415.6z"/>
		<path class="st4" d="M143.7,408.2c-0.7-2.9-3-4.7-5.5-4c-2.5,0.5-3.8,3.3-3.1,6.2c0.7,2.9,3.2,4.7,5.5,4.2
			C143,413.6,144.3,410.9,143.7,408.2z"/>
		<g>
			<path class="st11" d="M139.6,410.7c0.9,3.4-1,6.8-4.1,7.6c-3.1,0.7-6.1-1.3-7.2-4.8c-0.9-3.4,0.7-7.1,4-7.7
				C135.7,405.1,138.8,407.3,139.6,410.7z"/>
			<path class="st11" d="M133.4,415.9c0.7,2.9-0.4,5.6-2.7,6.2c-2.3,0.6-4.8-1.1-5.6-3.8c-0.8-2.8,0.4-5.6,2.7-6.2
				C130.1,411.5,132.6,413.1,133.4,415.9z"/>
			<path class="st11" d="M138.2,422.1c0.7,2.9-0.5,5.4-2.8,6c-2.3,0.6-4.6-1.2-5.4-3.9c-0.8-2.8,0.4-5.6,2.7-6.2
				C134.9,417.2,137.4,419.3,138.2,422.1z"/>
			<path class="st11" d="M143.3,420.8c-0.7-2.9-3-4.7-5.3-4.1c-2.3,0.4-3.6,3.2-2.8,6c0.8,2.8,3.2,4.7,5.3,4.1
				C142.7,426.5,144,423.7,143.3,420.8z"/>
			<path class="st11" d="M144.8,413.4c-0.7-2.9-3-4.7-5.5-4c-2.3,0.4-3.8,3.3-3,6.1c0.7,2.9,3.2,4.7,5.5,4
				C144.1,418.9,145.4,416.3,144.8,413.4z"/>
			<path class="st13" d="M144.2,445.7c0.4,1.5-0.1,3.2-0.9,3.3c-1,0.2-2-0.9-2.4-2.5c-0.4-1.5-5.6-28.6-5.4-28.7
				C135.6,417.8,144,444.1,144.2,445.7z"/>
		</g>
		<path class="st11" d="M158,437.9c-3.1,0.5-5.1,4.2-4.6,8.4c4.1-0.9,8-1.5,12.1-2.4C164.5,440.1,161.2,437.4,158,437.9z"/>
	</g>
	<g>
		<path class="st11" d="M189.9,383.6c0.2,5-3.2,8.9-7.3,9c-4.3,0.3-7.9-3.3-8.3-8.2c-0.3-4.9,2.9-9.2,7.4-9.4
			C186,374.8,189.8,378.6,189.9,383.6z"/>
		<path class="st11" d="M180.4,388.8c0.2,3.9-2.1,7.3-5.3,7.6c-3.2,0.4-6-2.8-6.4-6.6c-0.4-3.8,2.1-7.4,5.3-7.6
			C177.2,382,180.2,384.9,180.4,388.8z"/>
		<path class="st11" d="M185.1,398.1c0.2,3.9-2.2,7.1-5.2,7.4c-3,0.3-5.8-2.7-6.2-6.7c-0.4-3.8,2.1-7.4,5.3-7.6
			C182,390.9,184.9,394.2,185.1,398.1z"/>
		<path class="st11" d="M192.3,397.9c-0.2-3.9-2.8-7.1-6.1-6.9c-3.3,0.2-5.7,3.3-5.4,7.4c0.2,3.9,3,7,6.1,6.9
			C190.1,405,192.5,401.8,192.3,397.9z"/>
		<path class="st11" d="M196.3,388.3c0-4-2.8-7.1-6.1-6.9c-3.3,0.2-5.8,3.4-5.7,7.3c0.2,3.9,3,7,6.1,6.9
			C193.9,395.5,196.5,392.2,196.3,388.3z"/>
		<path class="st12" d="M187,431.2c0.2,2.2-0.8,4.1-2.2,4.2c-1.2,0-2.5-1.6-2.7-3.8c-0.2-2.2,0.2-39.5,0.2-39.5
			C182.8,391.8,187.1,429.1,187,431.2z"/>
		<path class="st4" d="M204.2,409.8c0,3.3-2.1,6.2-4.6,6.3l-8.5,0.2c-2.5,0.1-4.7-2.6-4.9-5.9l-0.5-10.9c-0.2-3.3,1.9-6.1,4.6-6.1
			l8.8-0.3c2.7-0.1,4.9,2.6,4.9,5.9L204.2,409.8z"/>
		<path class="st11" d="M198.1,436.3c0.1,2-0.9,3.7-2,3.7c-1.2,0-2.2-1.5-2.2-3.6c-0.1-2,1-35.2,1.2-35.3
			C194.9,401.1,198,434.2,198.1,436.3z"/>
		<path class="st4" d="M201.7,428.5c-5,0.2-8.8,5.1-9.1,11.5c6.2-0.2,12.3-0.6,18.5-0.3C210.7,433.5,206.6,428.1,201.7,428.5z"/>
		<path class="st11" d="M184.2,424.7c-7.2,1-12.2,8.9-11.5,18c8.9-1.4,17.9-2.4,26.9-3C198.1,430.6,191.5,424.1,184.2,424.7z"/>
		<path class="st11" d="M224.5,439.9c-1-5-4.6-9-8.7-8.9c-4.2-0.1-7.9,3.5-9.1,8.6L224.5,439.9z"/>
		<path class="st4" d="M216.9,374.6c-0.1,5.5-4.2,9.7-8.8,9.5c-4.8-0.1-8.6-4.1-8.8-9.7c-0.1-5.4,3.8-10.2,8.9-9.9
			C212.9,364.9,217,369.2,216.9,374.6z"/>
		<path class="st4" d="M205.5,380.1c0,4.4-2.9,8-6.4,8c-3.5,0.1-6.7-3.4-6.8-7.7c-0.1-4.3,2.7-8.1,6.4-8.2
			C202.6,372.2,205.5,375.5,205.5,380.1z"/>
		<path class="st4" d="M210.3,390.7c0,4.4-3,7.8-6.5,7.8c-3.5,0.1-6.4-3.3-6.6-7.8c-0.1-4.3,2.7-8.1,6.4-8.2
			C207.5,382.5,210.3,386.3,210.3,390.7z"/>
		<path class="st4" d="M218.6,390.7c0-4.4-2.7-8-6.5-8c-3.6-0.1-6.5,3.4-6.5,7.8c0,4.4,2.9,7.9,6.3,8.1
			C215.5,398.5,218.4,395.2,218.6,390.7z"/>
		<path class="st4" d="M223.6,380.3c0-4.4-2.7-8-6.5-8c-3.8-0.1-6.7,3.3-6.8,7.7c0,4.4,2.9,7.9,6.5,8
			C220.4,388.2,223.5,384.7,223.6,380.3z"/>
		<g>
			<path class="st11" d="M216.6,382.9c-0.1,5.5-4,9.6-8.7,9.7c-4.7-0.2-8.6-4.1-8.8-9.7c-0.1-5.4,3.8-10.2,8.7-9.9
				C212.9,373,216.9,377.4,216.6,382.9z"/>
			<path class="st11" d="M205.6,388.2c0,4.4-2.9,8-6.4,8.2c-3.5,0.1-6.5-3.4-6.6-7.8c-0.1-4.3,2.7-8.1,6.4-8.2
				S205.7,383.8,205.6,388.2z"/>
			<path class="st11" d="M210.4,398.8c0,4.4-2.8,7.7-6.3,7.9s-6.2-3.3-6.4-7.7c-0.1-4.3,2.7-8.1,6.4-8.2
				C207.4,390.7,210.4,394.4,210.4,398.8z"/>
			<path class="st11" d="M218.4,398.9c0-4.4-2.7-8-6.3-8.1c-3.6-0.1-6.5,3.4-6.5,7.8c0,4.4,2.9,7.9,6.3,8.1
				C215.3,407,218.2,403.2,218.4,398.9z"/>
			<path class="st11" d="M223.3,388.6c0-4.4-2.7-8-6.3-8.1c-3.6-0.1-6.6,3.5-6.7,7.9c0,4.4,2.9,7.9,6.3,8.1
				C220.3,396.3,223.2,392.8,223.3,388.6z"/>
			<path class="st13" d="M210.6,435.6c0.1,2.5-1.3,4.4-2.5,4.5c-1.5-0.1-2.6-2-2.7-4.4c-0.1-2.5,2.4-43.7,2.6-43.8
				C208.1,391.7,210.7,433.1,210.6,435.6z"/>
		</g>
		<path class="st11" d="M233.5,429.3c-5-0.5-9,4.4-9.8,10.7c6.1,0.1,12.4,0.8,18.6,1.1C242,434.7,238.4,429.5,233.5,429.3z"/>
	</g>
	<g>
		<path class="st4" d="M187.1,443.8c-3.2-11.9-15.2-19.1-26.9-15.9c-10.9,2.9-17.5,13.7-15.9,24.7c14.5-2.3,28.9-4.2,43.3-5.6
			C187.5,445.9,187.4,444.7,187.1,443.8z"/>
		<path class="st11" d="M235.7,444.1c-0.9-6.8-6.9-11.5-13.7-10.8c-6.2,0.9-10.8,6.1-10.7,12.2c8.2-0.3,16.3-0.1,24.4,0.2
			C235.9,445.3,235.8,444.7,235.7,444.1z"/>
		<path class="st4" d="M216.9,444.4c-0.9-4.8-5.4-7.9-10.2-7.2c-4.4,0.9-7.4,4.7-7.3,9c5.9-0.4,11.7-0.6,17.5-0.7
			C216.9,445.2,216.9,444.8,216.9,444.4z"/>
		<path class="st11" d="M206.4,444.3c-1.3-6.4-7.4-10.6-13.8-9.4c-6,1.2-9.9,6.6-9.5,12.4c7.8-0.6,15.6-1.3,23.5-1.5
			C206.5,445.3,206.5,444.9,206.4,444.3z"/>
		<path class="st11" d="M193.8,444.4c-1.8-7.7-9.4-12.6-16.9-10.8c-7.1,1.7-11.5,8.3-10.8,15.5c9.3-1.2,18.7-2.2,27.9-2.7
			C193.9,445.6,193.9,445,193.8,444.4z"/>
	</g>
	<g>
		<path class="st11" d="M245.1,389c-0.5,4.8-4.4,8.3-8.6,7.8c-4.2-0.3-7.4-4.5-6.9-9.3c0.3-4.8,4.2-8.5,8.6-8.2
			C242.5,380,245.5,384.2,245.1,389z"/>
		<path class="st11" d="M234.7,393.1c-0.4,4-3.2,7-6.4,6.8c-3.2-0.3-5.5-3.6-5.3-7.5c0.2-4,3-7,6.4-6.8S235,389.1,234.7,393.1z"/>
		<path class="st11" d="M238,402.7c-0.4,4-3.2,6.6-6.4,6.6c-3.2-0.3-5.5-3.6-5.1-7.5c0.4-4,3.2-7,6.4-6.8
			C236.1,395.3,238.4,399,238,402.7z"/>
		<path class="st11" d="M245.2,403.8c0.4-4-1.8-7.3-5-7.7c-3.2-0.4-6,2.4-6.4,6.4c-0.4,4,1.9,7.3,5,7.7
			C242,410.4,244.9,407.5,245.2,403.8z"/>
		<path class="st11" d="M250.6,394.7c0.6-4-1.8-7.3-5-7.7c-3.2-0.4-6.2,2.4-6.6,6.4c-0.4,4,2,7.5,5,7.7
			C247.2,401.6,250,398.7,250.6,394.7z"/>
		<path class="st12" d="M235.2,435.9c-0.2,2.2-1.4,3.9-2.8,3.6c-1.2-0.3-2.2-1.9-2-4.1c0.2-2.2,5.9-39.2,6.1-39
			C236.6,396.2,235.6,433.7,235.2,435.9z"/>
		<path class="st4" d="M255.3,417.1c-0.4,3.2-2.9,5.8-5.5,5.5l-8.4-0.9c-2.6-0.3-4.3-3.3-4.1-6.7l1-10.9c0.2-3.4,2.7-5.8,5.5-5.5
			l8.8,1c2.8,0.3,4.5,3.3,4,6.5L255.3,417.1z"/>
		<path class="st11" d="M245.4,442.5c-0.2,2-1.4,3.5-2.6,3.2c-1.2-0.1-2-1.8-1.8-3.8s6.2-34.7,6.2-34.7S245.6,440.5,245.4,442.5z"/>
		<path class="st4" d="M250,435.4c-4.8-0.5-9.4,3.8-10.8,10c6.2,0.7,12.3,1.3,18.4,2.4C258.1,441.6,254.9,435.8,250,435.4z"/>
		<path class="st11" d="M233.3,429c-7.3,0-13.2,7.1-14,16.3c9-0.2,18.1,0.3,27.1,0.9C246.2,436.9,240.7,429.4,233.3,429z"/>
		<path class="st11" d="M270.8,449.9c-0.2-5.3-3.2-9.5-7.4-10.1c-4.2-0.7-8.2,2.4-10.3,7.2L270.8,449.9z"/>
		<path class="st4" d="M272.9,384.3c-0.8,5.4-5.3,9-10.2,8.2c-4.6-0.9-8.1-5.5-7.2-10.9c0.6-5.4,5.3-9.4,10.1-8.6
			C270.4,373.9,273.7,378.9,272.9,384.3z"/>
		<path class="st4" d="M261.1,387.9c-0.5,4.2-3.9,7.5-7.5,7.1c-3.6-0.4-6-4.3-5.6-8.7c0.5-4.4,3.9-7.5,7.5-7.1
			C259.2,379.6,261.6,383.5,261.1,387.9z"/>
		<path class="st4" d="M264.2,399c-0.7,4.4-4,7.3-7.5,6.9c-3.4-0.4-6-4.3-5.4-8.5c0.5-4.4,3.9-7.5,7.5-7.1
			C262.6,390.7,264.8,394.8,264.2,399z"/>
		<path class="st4" d="M272.3,400.5c0.7-4.2-1.7-8.3-5.3-8.9c-3.6-0.6-7,2.3-7.6,6.7s1.7,8.3,5.1,8.9
			C268.1,407.8,271.5,404.7,272.3,400.5z"/>
		<path class="st4" d="M278.7,391c0.7-4.2-1.5-8.3-5.3-8.9c-3.6-0.6-7.2,2.3-7.8,6.7c-0.7,4.4,1.7,8.3,5.3,8.9
			C274.6,398.3,278,395.2,278.7,391z"/>
		<g>
			<path class="st11" d="M271.6,392.3c-0.8,5.4-5.3,9-9.9,8.3c-4.6-0.9-7.9-5.5-7.2-10.9c0.6-5.4,5.1-9.4,10.1-8.6
				C269.3,381.9,272.4,386.9,271.6,392.3z"/>
			<path class="st11" d="M259.8,395.9c-0.5,4.2-3.9,7.5-7.5,7.1s-6-4.3-5.4-8.7c0.5-4.4,3.9-7.5,7.5-7.1
				C258.1,387.8,260.5,391.5,259.8,395.9z"/>
			<path class="st11" d="M262.9,407.2c-0.7,4.4-4,7.3-7.3,6.9c-3.4-0.4-5.8-4.3-5.2-8.5c0.5-4.4,3.9-7.5,7.3-7.1
				C261.2,398.7,263.6,402.8,262.9,407.2z"/>
			<path class="st11" d="M270.9,408.5c0.7-4.2-1.5-8.3-5.1-8.9c-3.6-0.6-6.8,2.5-7.6,6.7c-0.5,4.4,1.7,8.3,5.1,8.9
				S270.2,412.7,270.9,408.5z"/>
			<path class="st11" d="M277.4,398.8c0.7-4.2-1.5-8.3-5.1-8.9c-3.6-0.6-7,2.5-7.8,6.7c-0.7,4.4,1.7,8.3,5.1,8.9
				C273.1,406.3,276.5,403.2,277.4,398.8z"/>
			<path class="st13" d="M257.9,443.6c-0.3,2.4-1.9,4.1-3.1,4.1c-1.4-0.2-2.2-2.5-1.9-4.9c0.3-2.4,8.9-42.9,8.9-42.9
				S258.3,441.2,257.9,443.6z"/>
		</g>
		<path class="st11" d="M281.4,440.7c-4.8-1.1-9.7,3-11.4,9.1c6,0.9,12.1,2.7,18.1,3.8C289,447.4,286.3,441.8,281.4,440.7z"/>
	</g>
</g>
<g>
	<g>
		<path class="st14" d="M336.4,394.8c-1.1-1.1-2-1.3-3.4-0.6c-5.8,2.6-11.6,5-17.3,7.7c-1,0.5-2.1,1.6-2.6,2.6
			c-3.6,7.9-7,15.9-10.4,23.8c-3,6.9-6,13.8-9,20.6c8.1-8.1,16.3-16.2,24.5-24.4c0,0.1,0-0.2-0.1-0.4c-1.4-3.4-0.7-6.2,1.9-8.1
			c2.4-1.7,5.6-1.5,7.9,0.6c2,1.8,2.5,5.1,1.2,7.4c-1.6,2.9-4.4,3.8-8,2.9c-0.7-0.2-1.8-0.1-2.3,0.4c-7.9,7.7-15.7,15.5-24,23.7
			c1.1-0.2,1.4-0.2,1.6-0.3c14.8-6.5,29.6-12.9,44.3-19.4c0.8-0.4,1.6-1.4,1.9-2.2c2.3-6.2,4.5-12.4,6.6-18.6
			c0.3-0.9-0.1-2.6-0.8-3.3C344.5,402.8,340.4,398.9,336.4,394.8z"/>
		<path class="st1" d="M479.8,261.5c-5.9-5.4-67.6,32.8-107.6,71.8l36.2,36.2c9-10.2,17.5-21.4,24.7-31.9
			C457.2,302.4,488.1,269.1,479.8,261.5z"/>
	</g>
	<g>
		<path class="st15" d="M408.4,369.4l-36.2-36.2c-4.4,4.3-8.6,8.6-12.3,12.9l36.2,36.2C400.3,378.4,404.4,374,408.4,369.4z"/>
		<path class="st1" d="M359.9,346.2c-18.6,21.1-28.3,41-16.3,52.9c13.1,13,33.1,2.1,52.5-16.7L359.9,346.2z"/>
	</g>
</g>
<polygon class="st16" points="310.1,352.2 75.6,352.2 70.8,334.8 290.4,334.8 "/>
<line class="st17" x1="73.2" y1="343.5" x2="300.2" y2="343.5"/>
<g>
	<path class="st4" d="M233.5,324.8l-1.9,7l0.2,0l-0.4,16.8l-4.3-0.1l0,0l-0.1,0l7.5,0.4l0.8-4.5c-1-0.1-1.7-1.7-1.5-3.1
		c0.2-1.4,1.1-2.6,2.4-2.3l0.8-5.2C237.5,330.1,236.1,326.4,233.5,324.8z"/>
	<path class="st14" d="M219.1,340.2c-2.3-0.3-4.2,1.8-4.5,4.7c-0.1,2.9,1.3,5.2,3.4,5.4c2,0.4,4.2-1.6,4.5-4.5
		C222.7,343.1,221.4,340.4,219.1,340.2z"/>
	<path class="st4" d="M227,348.4l-0.2,0l0-16.8l4.8,0.1l1.9-7l0.2-0.6c0.7-4.7-2.3-9.3-6.7-9.8c-23-2.8-46.3-2.7-69.2-0.2
		c-4.4,0.3-7.3,4.8-6.5,9.8l4.5,23.1l3.6-0.1l-1.5-20.2l5.6-0.3l1,20.4l4.9-0.1l-0.2-1.2c-0.3-4.6,2.2-8.4,5.6-8.6
		c3.6-0.2,6.6,3.3,6.7,7.9l0,1.7l31,0.7l0-1.7c0.3-4.6,3.6-8,7.1-7.6c3.5,0.4,5.8,4.6,5.3,9l-0.4,1.6l2.4-0.1L227,348.4L227,348.4z
		 M177.1,330.9l-9.3,0.8l-0.8-8.3c-0.1-0.9,0.4-1.6,1.2-1.7l8.3-0.8c0.9-0.1,1.4,0.8,1.5,1.6l0.3,6.5
		C178.5,330,177.8,330.7,177.1,330.9z M191.2,330.4l-9.5,0.4l-0.3-8.2c-0.1-0.9,0.4-1.6,1.2-1.7l8.4-0.3c0.9-0.1,1.4,0.8,1.5,1.6
		l0.1,6.5C192.6,329.7,192.1,330.4,191.2,330.4z M206.7,329.2c-0.1,0.8-0.6,1.6-1.4,1.5c-3.1-0.1-6.3-0.1-9.4-0.2l0.1-8
		c0.1-1,0.6-1.8,1.5-1.7c2.7-0.1,5.7,0,8.4,0.1c0.6,0.1,1.4,1,1.3,1.8L206.7,329.2z M221.4,323.7l-0.7,6.4c-0.1,0.8-0.6,1.6-1.4,1.5
		c-3.1-0.3-6.2-0.5-9.4-0.6l0.5-8.3c-0.1-0.9,0.6-1.6,1.4-1.5c2.7,0.3,5.6,0.4,8.3,0.7C220.9,321.9,221.4,322.8,221.4,323.7z
		 M224.1,321.3c-0.4-4.2-0.4-5.5,2.5-5.6c2.9-0.1,5.3,3.5,5.4,6.5c-0.1,2.9-0.6,5.6-3.4,6.3C223.4,329.8,224.5,325.7,224.1,321.3z"
		/>
	<path class="st14" d="M175.1,339.7c-2.1,0.2-3.8,2.5-3.6,5.5c0.1,2.7,2,5,4.3,4.9c2.1-0.2,3.6-2.5,3.6-5.5
		C179.3,341.8,177.2,339.5,175.1,339.7z"/>
	<path class="st2" d="M220.1,321.8c-2.7-0.3-5.6-0.4-8.3-0.7c-0.8-0.1-1.5,0.7-1.4,1.5l-0.5,8.3c3.1,0.1,6.3,0.3,9.4,0.6
		c0.8,0.1,1.3-0.7,1.4-1.5l0.7-6.4C221.4,322.8,220.9,321.9,220.1,321.8z"/>
	<path class="st2" d="M205.7,320.9c-2.7-0.1-5.6-0.2-8.4-0.1c-0.8-0.1-1.3,0.7-1.5,1.7l-0.1,8c3.1,0.1,6.3,0.1,9.4,0.2
		c0.8,0.1,1.3-0.7,1.4-1.5l0.3-6.5C207.1,321.9,206.4,320.9,205.7,320.9z"/>
	<path class="st2" d="M191.1,320.5l-8.4,0.3c-0.9,0.1-1.4,0.9-1.2,1.7l0.3,8.2l9.5-0.4c0.8,0.1,1.3-0.7,1.5-1.7l-0.1-6.5
		C192.5,321.3,191.9,320.4,191.1,320.5z"/>
	<path class="st2" d="M178.1,322.6c-0.1-0.9-0.6-1.7-1.5-1.6l-8.3,0.8c-0.9,0.1-1.4,0.9-1.2,1.7l0.8,8.3l9.3-0.8
		c0.6-0.1,1.4-0.9,1.2-1.7L178.1,322.6z"/>
	<polygon class="st3" points="157.8,326.8 159.3,347 159.3,347 164.5,346.8 164.5,346.8 163.4,326.5 	"/>
	<polygon class="st3" points="226.8,331.7 226.7,348.5 227,348.5 231.3,348.6 231.8,331.8 231.6,331.8 	"/>
	<path class="st2" d="M228.6,328.5c2.8-0.7,3.3-3.4,3.4-6.3c-0.1-2.9-2.4-6.6-5.4-6.5c-2.9,0.1-2.9,1.4-2.5,5.6
		C224.5,325.7,223.4,329.8,228.6,328.5z"/>
</g>
<path class="st18" d="M126.1,332.9c0.2,0.1,0.3,0.4,0.6,0.8l-0.2,1.4l0.3,0.2c0,0.4-0.4,0.7-1.1,1.1l-2.7,0.4l-1.8,0.3l-0.5,0
	c-0.7,2.9-5.1,2.8-5.9,0.4l-1.2,0.1l-0.3-0.2l-15.1,0.2l-0.9-0.2c-1.1,2.2-4.8,2.5-5.8,0.2l-0.8-0.2l-2.6-0.3l-1.4-0.5l-0.1-1.3
	c-0.1-0.8-0.1-1.3,0.2-1.4c0.1-0.7,0.4-1.3,0.9-1.8c0.7-0.8,6.4-1.5,9.1-1.8c1.9-1.2,4.1-2.3,6.2-3.4c2.2-0.8,5.9-0.5,9-0.6
	c1.7-0.1,3.1,0.1,4.5,0.4c1.8,0.4,3.9,1.5,5.9,2.5l2.8,0.4C125.9,329.5,126.1,330.8,126.1,332.9L126.1,332.9z M109.7,326.8
	c-0.2-0.1-0.4,0-0.4,0.2l-0.5,2.9c0,0.4,0.1,0.3,0.3,0.4l5-0.2l0.4-2.8C112.9,326.9,111.3,326.7,109.7,326.8L109.7,326.8z
	 M114.5,327.1l-0.4,2.8l2.3-0.1c0.5,0,0.9-0.3,1-0.9c0-0.4-0.2-0.4-0.4-0.7C116.4,327.7,115.4,327.3,114.5,327.1L114.5,327.1z
	 M108.1,326.7c-1.1,0.2-2.1,0.2-2.8,0.1c-1.7,0.4-3.1,1.1-4.6,2.3c0.8-0.1,1.3,0.9,0.6,1.3l5.1-0.3c0.4,0,0.6-0.2,0.7-0.4
	L108.1,326.7L108.1,326.7z M125.3,329.6c-0.4,0.3-0.7,0.4-0.8,1.1c0,0.4,0,0.9,0,1.4l1.4,0C125.9,330.7,125.7,329.8,125.3,329.6
	L125.3,329.6z M116.3,331.2c-0.1,0.2-0.1,0.2-0.2,0.3l-1.4,0c-0.2-0.1-0.2-0.1-0.3-0.2c0.1-0.2,0.1-0.2,0.2-0.3l1.4,0
	C116.2,330.9,116.2,331.1,116.3,331.2z M107.3,331.5c-0.1,0.2-0.1,0.2-0.2,0.3l-1.4,0c-0.2-0.1-0.2-0.1-0.3-0.2
	c0.1-0.2,0.1-0.2,0.2-0.3l1.4,0C107,331.3,107.2,331.4,107.3,331.5z M117.3,334.1c1.3-0.1,2.2,0.9,2.2,2.1c0.1,1.3-0.9,2.2-2.1,2.2
	c-1.3,0.1-2.2-0.9-2.2-2.1C115.2,335,116,334.2,117.3,334.1z M94,333.9c1.3-0.1,2.2,0.9,2.2,2.1c0.1,1.3-0.9,2.2-2.1,2.2
	c-1.3,0.1-2.2-0.9-2.2-2.1C91.9,334.8,92.8,334,94,333.9z M90.1,333.4l-0.5-0.8c-0.2-0.1-0.2-0.1-0.4-0.2l-1.1-0.1
	c-0.4,0.3-0.7,0.8-0.9,1.2L90.1,333.4L90.1,333.4z M87.3,333.4l2.9,0"/>
<path class="st19" d="M94,333.9c1.3-0.1,2.2,0.9,2.2,2.1c0.1,1.3-0.9,2.2-2.1,2.2c-1.3,0.1-2.2-0.9-2.2-2.1
	C91.9,334.8,92.8,334,94,333.9z"/>
<path class="st19" d="M117.3,334.1c1.3-0.1,2.2,0.9,2.2,2.1c0.1,1.3-0.9,2.2-2.1,2.2c-1.3,0.1-2.2-0.9-2.2-2.1
	C115.2,335,116.1,334.1,117.3,334.1z"/>
<g>
	<g>
		<path class="st14" d="M462.5,226.3c6.2-1.4,10.3,0.8,11.5,6.5c1.2,5.4-1.8,9.4-7.6,10.6c-6.1,1.4-10.4-1.3-11.5-6.6
			C453.7,231.4,456.6,227.6,462.5,226.3z M465.8,240.6c4.8-1.1,7-4,6.2-7.6c-0.9-4.1-3.9-5.2-8.9-4.1c-5,1.1-7.1,3.8-6.2,7.5
			C457.7,240.1,460.4,241.8,465.8,240.6z"/>
		<path class="st14" d="M462.9,213.2l-12,11.1c1.6,0.5,4.1,2.3,4.8,2.9l-1.3,1.2c-2-1.5-4.5-2.4-6.2-2.7l-1.3-1.3l14.2-13.2
			L462.9,213.2z"/>
		<path class="st14" d="M448.4,203.4l-6.5,15c1.6-0.2,4.7,0.5,5.6,0.8l-0.7,1.7c-2.5-0.6-5.1-0.4-6.8,0l-1.7-0.7l7.7-17.7
			L448.4,203.4z"/>
		<path class="st14" d="M431.9,199.7L431,216c1.5-0.7,4.5-1.2,5.5-1.2l-0.1,1.8c-2.5,0.3-4.9,1.4-6.4,2.3l-1.8-0.1l1-19.3
			L431.9,199.7z"/>
		<path class="st14" d="M404.1,210.9c-0.2-6.4,2.6-9.9,8.5-10.1c5.5-0.2,8.9,3.5,9.1,9.4c0.2,6.2-3.2,10-8.6,10.1
			C407.5,220.5,404.3,217,404.1,210.9z M418.8,210.3c-0.2-4.9-2.6-7.6-6.3-7.5c-4.2,0.1-5.8,2.9-5.7,8c0.2,5.1,2.5,7.6,6.3,7.5
			C416.8,218.2,419,215.8,418.8,210.3z"/>
		<path class="st14" d="M394.3,201.4l-1.4,16.3c1.5-0.7,4.6-1.1,5.5-1l-0.2,1.8c-2.5,0.2-4.9,1.2-6.4,2.2l-1.8-0.2l1.6-19.3
			L394.3,201.4z"/>
		<path class="st14" d="M364.8,205.3c1.5-6.2,5.2-8.8,10.9-7.4c5.4,1.3,7.6,5.8,6.2,11.5c-1.5,6.1-5.8,8.7-11,7.4
			C365.5,215.5,363.4,211.2,364.8,205.3z M379.2,208.7c1.2-4.8-0.5-8-4-8.9c-4.1-1-6.4,1.2-7.6,6.1c-1.2,5,0.3,8,4,8.9
			C375,215.8,377.8,214.1,379.2,208.7z"/>
		<path class="st14" d="M358.2,192.9l-5.2,15.5c1.6-0.3,4.7,0,5.6,0.3l-0.6,1.7c-2.5-0.4-5.1,0-6.8,0.6l-1.7-0.6l6.1-18.3
			L358.2,192.9z"/>
		<path class="st14" d="M314.6,186.9c2.3-5.9,6.4-8.1,11.8-5.9c5.1,2,6.7,6.7,4.6,12.2c-2.3,5.8-6.9,7.8-11.9,5.9
			C313.9,197,312.4,192.5,314.6,186.9z M328.4,192.2c1.8-4.6,0.6-8-2.8-9.4c-3.9-1.5-6.5,0.3-8.4,5.1c-1.9,4.8-0.8,8,2.8,9.4
			C323.4,198.6,326.4,197.3,328.4,192.2z"/>
		<path class="st14" d="M309.5,173.8l-8,14.2c1.6,0,4.6,0.9,5.4,1.4L306,191c-2.4-0.9-5-1-6.8-0.7l-1.6-0.9l9.5-16.8L309.5,173.8z"
			/>
		<path class="st14" d="M297.6,165l-10.8,12.2c1.6,0.3,4.3,1.9,5,2.5l-1.2,1.4c-2.2-1.3-4.7-2-6.5-2.1l-1.4-1.2l12.8-14.5L297.6,165
			z"/>
		<path class="st14" d="M272.3,148.2c5.4-3.4,9.9-2.8,13,2.1c3,4.7,1.5,9.4-3.5,12.6c-5.3,3.4-10.2,2.3-13.1-2.2
			C265.8,156,267.2,151.5,272.3,148.2z M280.4,160.6c4.2-2.7,5.2-6.1,3.2-9.2c-2.3-3.6-5.5-3.6-9.8-0.8c-4.3,2.8-5.3,6-3.3,9.2
			C272.5,162.8,275.7,163.5,280.4,160.6z"/>
		<path class="st14" d="M264.2,123.1c6.2-1.6,10.3,0.4,11.7,6.1c1.4,5.4-1.5,9.4-7.2,10.9c-6,1.6-10.4-1-11.7-6.2
			C255.5,128.5,258.3,124.6,264.2,123.1z M268,137.4c4.8-1.2,6.8-4.2,5.9-7.8c-1-4.1-4.1-5.1-9-3.8c-5,1.3-6.9,4.1-6,7.7
			C259.8,137.1,262.6,138.7,268,137.4z"/>
		<path class="st14" d="M262.7,97.8c6.4-0.1,9.9,2.8,10,8.6c0.1,5.5-3.6,8.8-9.5,8.9c-6.2,0.1-9.9-3.4-10-8.7
			C253.1,101,256.7,97.9,262.7,97.8z M263.1,112.5c4.9-0.1,7.6-2.5,7.6-6.2c-0.1-4.2-2.8-5.9-7.9-5.8c-5.1,0.1-7.7,2.3-7.6,6.1
			C255.3,110.3,257.6,112.6,263.1,112.5z"/>
		<path class="st14" d="M273.8,87.8l-16.1-2.5c0.6,1.5,0.7,4.6,0.6,5.6l-1.8-0.3c0-2.5-0.9-5-1.7-6.6l0.3-1.8l19.1,3L273.8,87.8z"/>
		<path class="st14" d="M271.8,57.9c6.1,2,8.4,5.9,6.6,11.5c-1.7,5.2-6.4,7.1-12,5.2c-5.9-2-8.2-6.5-6.5-11.6
			C261.7,57.8,266.1,56,271.8,57.9z M267.3,72c4.7,1.6,8,0.2,9.2-3.3c1.3-4-0.7-6.5-5.5-8.1c-4.9-1.6-8-0.4-9.2,3.3
			C260.6,67.3,262.1,70.2,267.3,72z"/>
	</g>
</g>
</svg>
