<?xml version="1.0" encoding="utf-8"?>
<!-- Generator: Adobe Illustrator 24.2.3, SVG Export Plug-In . SVG Version: 6.00 Build 0)  -->
<svg version="1.1" id="Layer_1" xmlns="http://www.w3.org/2000/svg" xmlns:xlink="http://www.w3.org/1999/xlink" x="0px" y="0px"
	 viewBox="0 0 500 500" style="enable-background:new 0 0 500 500;" xml:space="preserve">
<style type="text/css">
	.st0{fill:#76C484;stroke:#76C484;stroke-width:4;stroke-miterlimit:10;}
	.st1{fill:#EB7D8E;}
	.st2{fill:#E7D226;stroke:#E7D226;stroke-width:4;stroke-miterlimit:10;}
	.st3{fill:#2D938C;stroke:#2D938C;stroke-miterlimit:10;}
	.st4{fill:#6AC8C3;stroke:#6AC8C3;stroke-width:4;stroke-miterlimit:10;}
</style>
<g>
	<g id="innerCircles">
		<path id="circle5" class="st0" d="M384.4,250.3c0.7-52.1-32.3-102.5-80.2-122.9c-47.4-21.5-106.8-11.9-144.8,23.8
			c-38.9,34.7-53.8,93-36.6,142.1c16.1,49.5,63.3,86.8,115.3,90.8l-0.2,2.1c-52.8-4-100.8-41.9-117.2-92.2
			c-17.5-49.9-2.4-109.2,37.2-144.4c38.6-36.3,99-46,147.1-24.2c48.6,20.8,82.1,71.9,81.4,124.9L384.4,250.3L384.4,250.3z"/>
		<path id="circle4" class="st1" d="M373.8,250.3c0.1-28.7-10.3-57.4-28.8-79.4c-18.4-22-44.7-37.5-73-42.4
			c-28.3-5.1-58.3-0.1-83.2,14.3c-25,14.2-44.7,37.4-54.7,64.4c-10,26.9-10.3,57.4-0.6,84.4c9.6,27.1,28.9,50.6,53.7,65.1
			c24.7,14.7,54.7,20.2,83,15.5c28.4-4.6,54.9-19.5,73.6-41.4l2.2,1.9c-19.1,22.4-46.3,37.7-75.4,42.3c-29,4.8-59.7-0.8-85-15.9
			c-25.4-14.9-45.2-38.9-55-66.7c-9.9-27.7-9.6-58.9,0.6-86.5s30.3-51.4,56-65.9c25.5-14.7,56.3-19.9,85.2-14.7
			c29,5,55.9,20.8,74.8,43.4c19,22.5,29.6,51.8,29.5,81.2L373.8,250.3L373.8,250.3z"/>
		<path id="circle3" class="st2" d="M362.4,250.3c0.1-29.5-12-58.7-32.9-79.5c-20.8-20.9-50-33.1-79.5-32.9
			c-29.5-0.1-58.7,12-79.5,32.9c-20.9,20.8-33.1,50-32.9,79.5c-0.1,29.5,12,58.7,32.9,79.5c20.8,20.9,50,33.1,79.5,32.9
			c29.5,0.1,58.7-12,79.5-32.9C350.5,309,362.6,279.7,362.4,250.3h2.8c0.1,30.2-12.3,60.2-33.7,81.4c-21.3,21.4-51.2,33.9-81.4,33.7
			c-30.2,0.1-60.2-12.3-81.4-33.7c-21.4-21.3-33.9-51.2-33.7-81.4c-0.1-30.2,12.3-60.2,33.7-81.4c21.3-21.4,51.2-33.9,81.4-33.7
			c30.2-0.1,60.2,12.3,81.4,33.7c21.4,21.3,33.9,51.2,33.7,81.4L362.4,250.3L362.4,250.3z"/>
		<path id="circle1" class="st3" d="M352.8,250.3c0.7-42.3-28-82.8-67.9-96.6c-39.6-14.8-87.4-1.8-113.9,31.1
			c-27.4,32.2-31.3,81.6-9.3,117.7c21,36.7,66.1,57.1,107.6,48.7l0.3,1.4c-42,8.6-87.8-12.1-109.1-49.4
			c-22.3-36.6-18.3-86.7,9.5-119.4c26.9-33.4,75.4-46.6,115.5-31.6c40.5,14,69.5,55.1,68.8,98L352.8,250.3L352.8,250.3z"/>
		<path id="circle2" class="st4" d="M342.8,250.3c0.1-24.4-9.9-48.4-27.2-65.6c-17.2-17.3-41.3-27.3-65.6-27.2
			c-24.4-0.1-48.5,9.9-65.6,27.2c-17.3,17.2-27.3,41.3-27.2,65.6c-0.1,24.4,9.9,48.4,27.2,65.6c17.2,17.3,41.3,27.3,65.6,27.2
			c24.4,0.1,48.5-9.9,65.6-27.2C333,298.7,343,274.6,342.8,250.3h1.9c0.1,24.9-10.1,49.4-27.7,66.9c-17.5,17.6-42.1,27.8-66.9,27.7
			c-24.8,0.1-49.4-10.1-66.9-27.7c-17.6-17.5-27.8-42.1-27.7-66.9c-0.1-24.8,10.1-49.4,27.7-66.9c17.5-17.6,42.1-27.8,66.9-27.7
			c24.8-0.1,49.4,10.1,66.9,27.7c17.6,17.5,27.8,42.1,27.7,66.9L342.8,250.3L342.8,250.3z"/>
	</g>
</g>
</svg>
