<?xml version="1.0" encoding="utf-8"?>
<!-- Generator: Adobe Illustrator 24.2.3, SVG Export Plug-In . SVG Version: 6.00 Build 0)  -->
<svg version="1.1" id="Layer_1" xmlns="http://www.w3.org/2000/svg" xmlns:xlink="http://www.w3.org/1999/xlink" x="0px" y="0px"
	 viewBox="0 0 500 500" style="enable-background:new 0 0 500 500;" xml:space="preserve">
<style type="text/css">
	.st0{fill-rule:evenodd;clip-rule:evenodd;fill:#6AC8C3;}
	.st1{fill-rule:evenodd;clip-rule:evenodd;fill:#FFCC00;}
	.st2{fill-rule:evenodd;clip-rule:evenodd;fill:#EB7D8E;}
	.st3{fill:#FFCC00;}
	.st4{fill:#EB7D8E;}
</style>
<g>
	<path class="st0" d="M198.6,205.3c2.5,0.2,5,0.6,7.5,1l11.9-31.3l16.2,4.3l-5.3,33.1c2.4,0.9,4.7,1.9,7,2.9l19.6-27.1l14.5,8.4
		l-13.7,30.6c2.1,1.5,4.1,3,6,4.6l26-21.2l11.9,11.9l-21.2,26c1.6,2,3.1,4,4.6,6l30.6-13.7l8.4,14.5l-27.1,19.6c1,2.3,2,4.6,2.9,7
		l33.1-5.3l4.3,16.2l-31.3,11.9c0.4,2.5,0.7,5,1,7.5l33.3,3.4v16.8l-33.3,3.4c-0.2,2.5-0.6,5-1,7.5l31.3,11.9l-4.3,16.2l-33.1-5.3
		c-0.9,2.4-1.9,4.7-2.9,7l27.1,19.6l-8.4,14.5l-30.6-13.7c-1.5,2.1-3,4.1-4.6,6l21.2,26l-11.9,11.9l-26-21.2c-2,1.6-4,3.1-6,4.6
		l13.7,30.6l-14.5,8.4L236,432.7c-2.3,1-4.6,2-7,2.9l5.3,33.1l-16.2,4.3l-11.9-31.3c-2.5,0.4-5,0.7-7.5,1l-3.4,33.3h-16.8l-3.4-33.3
		c-2.5-0.2-5-0.6-7.5-1L155.6,473l-16.2-4.3l5.3-33.1c-2.4-0.9-4.7-1.9-7-2.9l-19.6,27.1l-14.5-8.4l13.7-30.6c-2.1-1.5-4.1-3-6-4.6
		l-26,21.2l-11.9-11.9l21.2-26c-1.6-2-3.1-4-4.6-6l-30.6,13.7L51,392.7l27.1-19.6c-1-2.3-2-4.6-2.9-7l-33.1,5.3l-4.3-16.2l31.3-11.9
		c-0.4-2.5-0.7-5-1-7.5l-33.3-3.4v-16.8l33.3-3.4c0.2-2.5,0.6-5,1-7.5l-31.3-11.9l4.3-16.2l33.1,5.3c0.9-2.4,1.9-4.7,2.9-7L51,255.2
		l8.4-14.5L90,254.4c1.5-2.1,3-4.1,4.6-6l-21.2-26l11.9-11.9l26,21.2c2-1.6,4-3.1,6-4.6l-13.7-30.6l14.5-8.4l19.6,27.1
		c2.3-1,4.6-2,7-2.9l-5.3-33.1l16.2-4.3l11.9,31.3c2.5-0.4,5-0.7,7.5-1l3.4-33.3h16.8L198.6,205.3L198.6,205.3z M186.8,233.8
		c-118.6,2-118.5,178.4,0,180.4C305.4,412.1,305.4,235.8,186.8,233.8L186.8,233.8z M186.8,240.6c-109.6,1.9-109.6,165,0,166.8
		C296.5,405.5,296.5,242.4,186.8,240.6L186.8,240.6z M186.8,267.4c-74.3,1.3-74.3,111.8,0,113.1
		C261.2,379.2,261.2,268.7,186.8,267.4z"/>
	<path class="st1" d="M355,39.5c5.3,0.8,10.4,2.2,15.2,4.1l9.3-12.5l16.8,9.7l-6.2,14.3c4.1,3.3,7.8,7,11.1,11.1l14.3-6.2l9.7,16.8
		l-12.5,9.3c1.9,4.9,3.3,10,4.1,15.2l15.5,1.8v19.4l-15.5,1.8c-0.8,5.3-2.2,10.4-4.1,15.2l12.5,9.3l-9.7,16.8l-14.3-6.2
		c-3.3,4.1-7,7.8-11.1,11.1l6.2,14.3l-16.8,9.7l-9.3-12.5c-4.9,1.9-10,3.3-15.2,4.1l-1.8,15.5h-19.4l-1.8-15.5
		c-5.3-0.8-10.4-2.2-15.2-4.1l-9.3,12.5l-16.8-9.7l6.2-14.3c-4.1-3.3-7.8-7-11.1-11.1l-14.3,6.2l-9.7-16.8l12.5-9.3
		c-1.9-4.9-3.3-10-4.1-15.2l-15.5-1.8v-19.4l15.5-1.8c0.8-5.3,2.2-10.4,4.1-15.2l-12.5-9.3l9.7-16.8l14.3,6.2
		c3.3-4.1,7-7.8,11.1-11.1l-6.2-14.3l16.8-9.7l9.3,12.5c4.9-1.9,10-3.3,15.2-4.1l1.8-15.5h19.4L355,39.5L355,39.5z M348.6,75.4
		l-0.5-4.8h-9.2l-0.5,4.8c-3.2,0.4-6.2,1.3-9.1,2.4l-2.9-3.9l-8,4.6l1.9,4.4c-2.5,1.9-4.7,4.2-6.6,6.6l-4.4-1.9l-4.6,8l3.9,2.9
		c-1.2,2.9-2,5.9-2.4,9.1l-4.8,0.5v9.2l4.8,0.5c0.4,3.2,1.3,6.2,2.4,9.1l-3.9,2.9l4.6,8l4.4-1.9c1.9,2.5,4.2,4.7,6.6,6.6l-1.9,4.4
		l8,4.6l2.9-3.9c2.9,1.2,5.9,2,9.1,2.4l0.5,4.8h9.2l0.5-4.8c3.2-0.4,6.2-1.3,9.1-2.4l2.9,3.9l8-4.6l-1.9-4.4
		c2.5-1.9,4.7-4.2,6.6-6.6l4.4,1.9l4.6-8l-3.9-2.9c1.2-2.9,2-5.9,2.4-9.1l4.8-0.5v-9.2l-4.8-0.5c-0.4-3.2-1.3-6.2-2.4-9.1l3.9-2.9
		l-4.6-8l-4.4,1.9c-1.9-2.5-4.2-4.7-6.6-6.6l1.9-4.4l-8-4.6l-2.9,3.9C354.8,76.7,351.8,75.9,348.6,75.4z"/>
	<path class="st2" d="M417.2,214.7c4.5,0.6,8.9,1.8,12.9,3.5l2.7-3.6l10.3,6l-1.8,4.1c3.6,2.7,6.7,5.9,9.4,9.4l4.1-1.8l6,10.3
		l-3.6,2.7c1.7,4.1,2.9,8.4,3.5,12.9l4.5,0.5v11.9l-4.5,0.5c-0.6,4.5-1.8,8.9-3.5,12.9l3.6,2.7l-6,10.3l-4.1-1.8
		c-2.7,3.6-5.9,6.7-9.4,9.4l1.8,4.1l-10.3,6l-2.7-3.6c-4.1,1.7-8.4,2.9-12.9,3.5l-0.5,4.5h-11.9l-0.5-4.5c-4.5-0.6-8.9-1.8-12.9-3.5
		l-2.7,3.6l-10.3-6l1.8-4.1c-3.6-2.7-6.7-5.9-9.4-9.4l-4.1,1.8l-6-10.3l3.6-2.7c-1.7-4.1-2.9-8.4-3.5-12.9l-4.5-0.5v-11.9l4.5-0.5
		c0.6-4.5,1.8-8.9,3.5-12.9l-3.6-2.7l6-10.3l4.1,1.8c2.7-3.6,5.9-6.7,9.4-9.4l-1.8-4.1l10.3-6l2.7,3.6c4.1-1.7,8.4-2.9,12.9-3.5
		l0.5-4.5h11.9L417.2,214.7L417.2,214.7z M410.7,244c-11.4,0-20.7,9.3-20.7,20.7c0,11.4,9.3,20.7,20.7,20.7
		c11.4,0,20.7-9.3,20.7-20.7C431.5,253.3,422.2,244,410.7,244z"/>
</g>
<g>
	<path class="st3" d="M186.3,363.7c-1.4-0.4-2.9-0.7-4.2-1.3c-4.6-2.4-4.8-7.6-0.4-10.4c3.3-2.1,8.3-1.8,11.3,0.6
		c3.2,2.6,2.9,6.8-0.3,9.2c-1.4,1-2.9,1.6-4.6,1.8c-0.2,0-0.4,0.1-0.5,0.2C187.1,363.7,186.7,363.7,186.3,363.7z"/>
	<path class="st3" d="M186.9,344.1c-2.3,0-4.5,0-6.8,0c-0.6,0-0.9-0.3-0.8-0.8c0-1.8,0-3.6,0.2-5.4c0.5-5.3,3.4-9.2,7.5-12.3
		c2.2-1.6,4.4-3.2,6.4-5.1c3-2.7,4.8-6.1,4.7-10.3c-0.1-4.2-2.1-7.4-6.4-9c-4.1-1.5-8.2-1.3-12.1,1c-3.2,1.8-4.9,4.7-5.3,8.3
		c-0.1,1-0.2,2.1-0.3,3.1c0,0.6-0.3,0.8-0.9,0.8c-5.3,0.1-10.6,0.1-15.9,0.2c-0.5,0-0.8-0.1-0.9-0.7c-0.3-4.9,0-9.7,2.1-14.2
		c2.2-4.9,5.7-8.7,10.3-11.4c4.2-2.5,8.8-3.5,13.7-4c5.8-0.5,11.5,0.1,17.2,1.8c4.6,1.4,8.6,3.6,11.9,7.2c2.9,3.2,4.8,6.9,5.6,11.1
		c1.1,5.6,0.2,11-2.8,16c-1.7,2.8-4,5.1-6.7,7.1c-2.9,2.1-5.8,4.2-8.7,6.3c-3.1,2.3-4.2,5.5-4.3,9.2c0,0.7-0.2,0.9-0.9,0.9
		c-2.3,0-4.5,0-6.8,0C186.9,344,186.9,344.1,186.9,344.1z"/>
</g>
<path class="st4" d="M343.3,90.1c-8.8,0-16,7.1-16,16c0,12,16,29.7,16,29.7s16-17.7,16-29.7C359.3,97.2,352.2,90.1,343.3,90.1z
	 M343.3,111.7c-3.1,0-5.7-2.6-5.7-5.7s2.6-5.7,5.7-5.7c3.1,0,5.7,2.6,5.7,5.7S346.5,111.7,343.3,111.7z"/>
</svg>
