<?xml version="1.0" encoding="utf-8"?>
<!-- Generator: Adobe Illustrator 24.2.1, SVG Export Plug-In . SVG Version: 6.00 Build 0)  -->
<svg version="1.1"
	 id="svg8" xmlns:cc="http://creativecommons.org/ns#" xmlns:dc="http://purl.org/dc/elements/1.1/" xmlns:inkscape="http://www.inkscape.org/namespaces/inkscape" xmlns:rdf="http://www.w3.org/1999/02/22-rdf-syntax-ns#" xmlns:sodipodi="http://sodipodi.sourceforge.net/DTD/sodipodi-0.dtd" xmlns:svg="http://www.w3.org/2000/svg"
	 xmlns="http://www.w3.org/2000/svg" xmlns:xlink="http://www.w3.org/1999/xlink" x="0px" y="0px" viewBox="0 0 100 100"
	 style="enable-background:new 0 0 100 100;" xml:space="preserve">
<style type="text/css">
	.st0{fill:#96C64B;}
	.st1{fill:#4BAA46;}
	.st2{fill:#95CABD;}
</style>
<sodipodi:namedview  bordercolor="#666666" borderopacity="1.0" id="base" inkscape:current-layer="layer1" inkscape:cx="718.46078" inkscape:cy="655.66763" inkscape:document-units="mm" inkscape:pageopacity="0.0" inkscape:pageshadow="2" inkscape:window-height="1017" inkscape:window-maximized="1" inkscape:window-width="1920" inkscape:window-x="-8" inkscape:window-y="-8" inkscape:zoom="0.7" pagecolor="#ffffff" showgrid="false">
	</sodipodi:namedview>
<g id="layer1" transform="translate(0,-87)" inkscape:groupmode="layer" inkscape:label="Taso 1">
	<g id="g3721" transform="matrix(0.35277777,0,0,-0.35277777,23.263927,233.45137)" inkscape:label="ubigu_logo_new">
		<g id="g3723">
			<g>
				<g>
					<g id="g3725">
						<g id="g3731" transform="translate(207.4414,232.5381)">
							<path id="path3733" inkscape:connector-curvature="0" class="st0" d="M-206.9,93.3h11.5V34.6c0-6.7,1.7-11.9,5.2-15.6
								c3.4-3.7,8.2-5.5,14.2-5.5c6.3,0,11.2,1.8,14.8,5.4c3.6,3.6,5.4,8.9,5.4,15.8c0,6.6-1.9,11.7-5.8,15.5
								c-3.9,3.8-8.9,5.7-15.2,5.7c-5.4,0-10-1.5-13.9-4.6v11.5c4.7,2.6,9.7,3.8,15.2,3.8c9,0,16.5-2.9,22.4-8.7
								c5.9-5.8,8.9-13.5,8.9-23.1c0-10.1-3.1-18-9.3-23.5s-13.9-8.4-23.3-8.4c-8.9,0-16.2,2.9-21.7,8.7s-8.3,13.5-8.3,23.2V93.3
								L-206.9,93.3z"/>
						</g>
						<path id="path3735" inkscape:connector-curvature="0" class="st1" d="M71.2,235.3h9.1v48.2h-9.1V235.3z"/>
						<g id="g3737" transform="translate(173.7061,151.0312)">
							<path id="path3739" inkscape:connector-curvature="0" class="st2" d="M-190.4,133.2v-24.1c0-6.4-1.7-10.9-5-13.4
								c-3.5-2.6-8.6-4-15.1-4s-11.5,1.3-15.1,4c-3.3,2.4-5,6.9-5,13.4v24.1h-9.1v-24.1c0-11.3,5.1-24.9,29.2-24.9
								c24.1,0,29.2,13.5,29.2,24.9v24.1C-181.2,133.2-190.4,133.2-190.4,133.2z"/>
						</g>
						<g id="g3741" transform="translate(614.8887,149.5503)">
							<path id="path3743" inkscape:connector-curvature="0" class="st2" d="M-406.5,133.9v-23.7c0-6.3-1.7-10.7-5-13.1
								c-3.6-2.6-8.6-3.9-15.1-3.9c-6.5,0-11.5,1.3-15.1,3.9c-3.3,2.4-5,6.7-5,13.1v23.7h-9.1v-23.7c0-11.2,5.1-24.5,29.2-24.5
								c24.1,0,29.2,13.3,29.2,24.5v23.7H-406.5L-406.5,133.9z"/>
						</g>
						<g id="g3745" transform="translate(363.7881,191.335)">
							<path id="path3747" inkscape:connector-curvature="0" class="st1" d="M-283.5,113.5c1.3-1.3,1.9-2.8,1.9-4.6
								c0-1.8-0.6-3.3-1.9-4.5c-1.3-1.2-2.8-1.9-4.5-1.9s-3.3,0.6-4.5,1.9c-1.3,1.3-1.9,2.8-1.9,4.5c0,1.8,0.6,3.4,1.9,4.6
								c1.3,1.3,2.8,1.9,4.5,1.9C-286.3,115.4-284.8,114.8-283.5,113.5"/>
						</g>
						<g id="g3749" transform="translate(486.1582,163.0308)">
							<path id="path3751" inkscape:connector-curvature="0" class="st0" d="M-343.4,127.3c-5.5,5.8-12.8,8.7-21.7,8.7
								c-9.4,0-17.1-2.8-23.3-8.4s-9.3-13.4-9.3-23.5c0-9.6,3-17.3,8.9-23.1s13.4-8.7,22.4-8.7c5.4,0,10.5,1.3,15.2,3.8v11.5
								c-3.9-3.1-8.5-4.6-13.9-4.6c-6.3,0-11.4,1.9-15.2,5.7c-3.9,3.8-5.8,8.9-5.8,15.5c0,6.9,1.8,12.2,5.4,15.8
								c3.6,3.6,8.5,5.4,14.8,5.4c6,0,10.8-1.9,14.2-5.5c3.4-3.7,5.2-8.9,5.2-15.6V72.3c0-5.7-1.7-10.1-5.2-13.2
								c-3.4-3.1-8.2-4.7-14.2-4.7v-9h0.9c8.9,0,16.2,2.4,21.7,7.3c5.2,4.6,8,10.7,8.3,18.2h0v33.2
								C-335.1,113.8-337.9,121.6-343.4,127.3"/>
						</g>
					</g>
				</g>
			</g>
		</g>
	</g>
</g>
</svg>
